<svg width="438" height="416" viewBox="0 0 438 416" fill="none" xmlns="http://www.w3.org/2000/svg">
<g clip-path="url(#clip0_41_1583)">
<rect width="438" height="416" fill="white"/>
<g clip-path="url(#clip1_41_1583)">
<path d="M532 -92H-68V508H532V-92Z" fill="white"/>
<path d="M-2 -26H466V442H-2V-26Z" fill="white"/>
<path d="M317.367 208L317.152 201.977L316.516 195.988L315.457 190.055L313.984 184.211L312.102 178.488L309.82 172.91L307.152 167.508L304.109 162.309L300.707 157.336L296.961 152.617L292.895 148.172L288.523 144.027L283.867 140.199L278.957 136.707L273.809 133.574L268.457 130.809L262.922 128.43L257.23 126.449L251.414 124.871L245.504 123.707L239.523 122.965L233.508 122.648L227.48 122.754L221.48 123.285L215.531 124.238L209.664 125.609L203.906 127.387L198.289 129.57L192.844 132.145L187.59 135.094L182.559 138.41L177.77 142.07L173.258 146.059L169.031 150.359L165.125 154.945L161.547 159.793L158.324 164.883L155.465 170.188L152.988 175.68L150.906 181.332L149.227 187.121L147.961 193.012L147.113 198.977L146.688 204.988V211.012L147.113 217.023L147.961 222.988L149.227 228.879L150.906 234.668L152.988 240.32L155.465 245.812L158.324 251.117L161.547 256.207L165.125 261.055L169.031 265.641L173.258 269.941L177.77 273.93L182.559 277.59L187.59 280.906L192.844 283.855L198.289 286.43L203.906 288.609L209.664 290.391L215.531 291.762L221.48 292.715L227.48 293.246L233.508 293.352L239.523 293.035L245.504 292.293L251.414 291.129L257.23 289.551L262.922 287.57L268.457 285.191L273.809 282.426L278.957 279.293L283.867 275.801L288.523 271.973L292.895 267.828L296.961 263.383L300.707 258.664L304.109 253.691L307.152 248.492L309.82 243.09L312.102 237.512L313.984 231.789L315.457 225.945L316.516 220.012L317.152 214.023L317.367 208Z" stroke="black" stroke-opacity="0.5" stroke-width="0.3" stroke-miterlimit="2"/>
<path d="M402.734 208L402.309 195.957L401.035 183.973L398.918 172.109L395.969 160.426L392.207 148.977L387.645 137.824L382.305 127.02L376.219 116.617L369.414 106.672L361.926 97.2344L353.785 88.3438L345.043 80.0508L335.734 72.3945L325.914 65.418L315.621 59.1484L304.914 53.6211L293.84 48.8594L282.461 44.8945L270.832 41.7422L259.008 39.418L247.047 37.9336L235.012 37.293L222.965 37.5078L210.961 38.5703L199.062 40.4766L187.328 43.2148L175.812 46.7773L164.582 51.1406L153.684 56.2891L143.18 62.1914L133.113 68.8203L123.543 76.1406L114.512 84.1211L106.066 92.7148L98.2461 101.887L91.0977 111.586L84.6445 121.766L78.9297 132.375L73.9766 143.359L69.8125 154.668L66.4531 166.242L63.918 178.023L62.2227 189.953L61.375 201.977V214.027L62.2227 226.047L63.918 237.977L66.4531 249.758L69.8125 261.332L73.9766 272.641L78.9297 283.625L84.6445 294.234L91.0977 304.414L98.2461 314.113L106.066 323.285L114.512 331.879L123.543 339.859L133.113 347.18L143.18 353.809L153.684 359.711L164.582 364.859L175.812 369.223L187.328 372.785L199.062 375.523L210.961 377.43L222.965 378.492L235.012 378.707L247.047 378.066L259.008 376.582L270.832 374.258L282.461 371.105L293.84 367.141L304.914 362.379L315.621 356.852L325.914 350.582L335.734 343.605L345.043 335.949L353.785 327.656L361.926 318.766L369.414 309.328L376.219 299.383L382.305 288.98L387.645 278.176L392.207 267.023L395.969 255.574L398.918 243.891L401.035 232.027L402.309 220.043L402.734 208Z" stroke="black" stroke-opacity="0.5" stroke-width="0.3" stroke-miterlimit="2"/>
<path d="M232 208H410.438" stroke="black" stroke-opacity="0.5" stroke-width="0.3" stroke-miterlimit="1.1547"/>
<path d="M232 208L358.172 81.8281" stroke="black" stroke-opacity="0.5" stroke-width="0.3" stroke-miterlimit="1.1547"/>
<path d="M232 208V29.5625" stroke="black" stroke-opacity="0.5" stroke-width="0.3" stroke-miterlimit="1.1547"/>
<path d="M232 208L105.828 81.8281" stroke="black" stroke-opacity="0.5" stroke-width="0.3" stroke-miterlimit="1.1547"/>
<path d="M232 208H53.5625" stroke="black" stroke-opacity="0.5" stroke-width="0.3" stroke-miterlimit="1.1547"/>
<path d="M232 208L105.828 334.172" stroke="black" stroke-opacity="0.5" stroke-width="0.3" stroke-miterlimit="1.1547"/>
<path d="M232 208V386.438" stroke="black" stroke-opacity="0.5" stroke-width="0.3" stroke-miterlimit="1.1547"/>
<path d="M232 208L358.172 334.172" stroke="black" stroke-opacity="0.5" stroke-width="0.3" stroke-miterlimit="1.1547"/>
<path d="M176.035 361.336L189.406 357.242L204.137 352.156L220.223 345.891L237.547 338.27L255.855 329.168L274.742 318.582L293.668 306.648L312.039 293.664L329.324 280.039L345.125 266.238L359.23 252.672L371.594 239.668L382.309 227.445L391.531 216.109L399.457 205.695" stroke="#7F7F7F" stroke-width="0.25" stroke-miterlimit="2"/>
<path d="M114.789 329.973L122.383 326.98L130.766 323.59L140.039 319.723L150.305 315.289L161.656 310.195L174.168 304.336L187.871 297.621L202.738 289.973L218.629 281.371L235.305 271.852L252.41 261.559L269.508 250.703L286.152 239.566L301.953 228.453L316.621 217.633L330 207.324L342.047 197.656L352.801 188.707L362.359 180.488L370.844 172.98L378.383 166.141L385.098 159.914L391.105 154.242" stroke="#7F7F7F" stroke-width="0.25" stroke-miterlimit="2"/>
<path d="M147.152 67.7383L160.664 69.3789L175.66 71.7383L192.184 75.0039L210.195 79.3711L229.5 85.0195L249.746 92.0469L270.414 100.445L290.883 110.055L310.531 120.582L328.844 131.648L345.484 142.867L360.316 153.895L373.352 164.484L384.715 174.477L394.582 183.785" stroke="#7F7F7F" stroke-width="0.25" stroke-miterlimit="2"/>
<path d="M163.348 53.3711L175.059 54.0312L187.559 55.1406L200.824 56.7852L214.797 59.043L229.383 61.9844L244.438 65.6641L259.777 70.1094L275.195 75.3008L290.457 81.1914L305.34 87.6914L319.648 94.6875L333.219 102.043L345.938 109.617L357.734 117.277L368.598 124.91L378.535 132.418L387.59 139.727" stroke="#7F7F7F" stroke-width="0.25" stroke-miterlimit="2"/>
<path d="M134.391 71.4219L146.688 72.8789L160.422 74.9336L175.715 77.7656L192.617 81.5664L211.07 86.543L230.855 92.8594L251.574 100.594L272.633 109.699L293.355 119.949L313.086 131.004L331.312 142.434L347.73 153.848L362.25 164.914L374.926 175.406L385.922 185.207L395.438 194.262" stroke="#7F7F7F" stroke-width="0.25" stroke-miterlimit="2"/>
<path d="M160.785 54.4258L172.355 55.0664L184.723 56.1484L197.879 57.7578L211.77 59.9688L226.309 62.8594L241.355 66.4844L256.734 70.8789L272.234 76.0352L287.621 81.9062L302.664 88.4062L317.152 95.4258L330.914 102.82L343.832 110.449L355.82 118.18L366.859 125.887L376.957 133.473L386.156 140.859" stroke="#7F7F7F" stroke-width="0.25" stroke-miterlimit="2"/>
<path d="M99.582 311.66L106.637 308.211L114.461 304.355L123.164 300.012L132.867 295.102L143.688 289.539L155.734 283.234L169.082 276.105L183.742 268.098L199.629 259.207L216.535 249.504L234.105 239.141L251.891 228.367L269.391 217.48L286.145 206.781L301.805 196.531L316.156 186.922L329.129 178.055L340.742 169.965L351.094 162.641L360.301 156.031L368.5 150.078L375.816 144.707L382.375 139.859" stroke="#7F7F7F" stroke-width="0.25" stroke-miterlimit="2"/>
<path d="M157.258 58.9531L168.746 59.7734L181.078 61.043L194.25 62.8359L208.219 65.25L222.906 68.3594L238.168 72.2266L253.824 76.8867L269.648 82.3398L285.387 88.5273L300.781 95.3633L315.605 102.719L329.668 110.445L342.828 118.383L355.008 126.383L366.184 134.324L376.367 142.102L385.609 149.633L393.973 156.867" stroke="#7F7F7F" stroke-width="0.25" stroke-miterlimit="2"/>
<path d="M89.8086 298.324L96.4961 294.52L103.93 290.293L112.223 285.574L121.5 280.289L131.895 274.359L143.523 267.711L156.488 260.277L170.828 252.02L186.5 242.957L203.32 233.176L220.973 222.855L239.016 212.246L256.926 201.652L274.223 191.367L290.5 181.633L305.516 172.613L319.156 164.383L331.422 156.961L342.387 150.309L352.172 144.359L360.902 139.051L368.715 134.297L375.727 130.035" stroke="#7F7F7F" stroke-width="0.25" stroke-miterlimit="2"/>
<path d="M90.0312 300.828L96.6445 297.145L103.992 293.047L112.18 288.473L121.336 283.348L131.586 277.59L143.051 271.125L155.832 263.875L169.98 255.801L185.465 246.898L202.129 237.246L219.668 227L237.652 216.398L255.578 205.738L272.945 195.32L289.344 185.402L304.504 176.164L318.293 167.707L330.703 160.047L341.801 153.168L351.699 147.008L360.527 141.5L368.422 136.566L375.496 132.141L381.867 128.152" stroke="#7F7F7F" stroke-width="0.25" stroke-miterlimit="2"/>
<path d="M149.727 63.4844L160.797 64.3711L172.75 65.6719L185.594 67.4766L199.32 69.8789L213.863 72.9609L229.113 76.8047L244.895 81.457L260.984 86.9297L277.121 93.1875L293.023 100.145L308.418 107.676L323.082 115.613L336.836 123.797L349.582 132.062L361.266 140.262L371.902 148.281L381.527 156.035L390.211 163.465L398.039 170.539" stroke="#7F7F7F" stroke-width="0.25" stroke-miterlimit="2"/>
<path d="M81.9141 287.012L88.293 282.914L95.3906 278.383L103.324 273.359L112.219 267.773L122.207 261.559L133.418 254.648L145.969 246.988L159.922 238.562L175.262 229.402L191.852 219.609L209.406 209.379L227.508 198.961L245.648 188.652L263.316 178.738L280.086 169.445L295.664 160.922L309.902 153.223L322.77 146.344L334.324 140.234L344.66 134.824L353.914 130.035L362.203 125.781L369.652 121.996L376.375 118.609" stroke="#7F7F7F" stroke-width="0.25" stroke-miterlimit="2"/>
<path d="M87.832 285.875L94.7852 281.512L102.543 276.672L111.23 271.289L120.98 265.293L131.922 258.613L144.18 251.188L157.824 242.992L172.867 234.039L189.195 224.406L206.559 214.254L224.562 203.832L242.719 193.426L260.504 183.328L277.473 173.789L293.297 164.977L307.801 156.973L320.926 149.797L332.719 143.406L343.273 137.734L352.711 132.707L361.164 128.238L368.75 124.258L375.586 120.699" stroke="#7F7F7F" stroke-width="0.25" stroke-miterlimit="2"/>
<path d="M142.32 68.3438L152.957 69.3359L164.492 70.7188L176.965 72.5859L190.383 75.0234L204.719 78.1289L219.875 81.9883L235.711 86.668L252.008 92.1914L268.496 98.5391L284.867 105.633L300.824 113.348L316.09 121.516L330.453 129.949L343.777 138.477L355.992 146.934L367.094 155.191L377.117 163.156L386.141 170.766L394.242 177.98" stroke="#7F7F7F" stroke-width="0.25" stroke-miterlimit="2"/>
<path d="M76.9297 139.727L83.0234 144.453L89.8125 149.672L97.4062 155.449L105.922 161.844L115.5 168.926L126.262 176.746L138.328 185.336L151.766 194.684L166.559 204.715L182.582 215.289L199.574 226.172L217.141 237.082L234.805 247.711L252.078 257.777L268.547 267.086L283.926 275.523L298.051 283.059L310.879 289.727L322.449 295.602L332.844 300.773L342.176 305.332L350.562 309.363L358.113 312.945" stroke="#7F7F7F" stroke-width="0.25" stroke-miterlimit="2"/>
<path d="M274.742 318.582L293.668 306.648L312.039 293.664L329.324 280.039" stroke="#0000FF" stroke-width="3" stroke-miterlimit="2"/>
<path d="M235.305 271.852L252.41 261.559L269.508 250.703L286.152 239.566" stroke="#0012F6" stroke-width="3" stroke-miterlimit="2"/>
<path d="M249.746 92.0469L270.414 100.445L290.883 110.055L310.531 120.582" stroke="#0024ED" stroke-width="3" stroke-miterlimit="2"/>
<path d="M259.777 70.1094L275.195 75.3008L290.457 81.1914L305.34 87.6914" stroke="#0037E4" stroke-width="3" stroke-miterlimit="2"/>
<path d="M230.855 92.8594L251.574 100.594L272.633 109.699L293.355 119.949L313.086 131.004" stroke="#0049DB" stroke-width="3" stroke-miterlimit="2"/>
<path d="M256.734 70.8789L272.234 76.0352L287.621 81.9062L302.664 88.4062" stroke="#005BD1" stroke-width="3" stroke-miterlimit="2"/>
<path d="M216.535 249.504L234.105 239.141L251.891 228.367L269.391 217.48" stroke="#006DC8" stroke-width="3" stroke-miterlimit="2"/>
<path d="M253.824 76.8867L269.648 82.3398L285.387 88.5273L300.781 95.3633L315.605 102.719" stroke="#0080BF" stroke-width="3" stroke-miterlimit="2"/>
<path d="M203.32 233.176L220.973 222.855L239.016 212.246L256.926 201.652" stroke="#0092B6" stroke-width="3" stroke-miterlimit="2"/>
<path d="M202.129 237.246L219.668 227L237.652 216.398L255.578 205.738L272.945 195.32" stroke="#00A4AD" stroke-width="3" stroke-miterlimit="2"/>
<path d="M260.984 86.9297L277.121 93.1875L293.023 100.145L308.418 107.676" stroke="#00B6A4" stroke-width="3" stroke-miterlimit="2"/>
<path d="M191.852 219.609L209.406 209.379L227.508 198.961L245.648 188.652L263.316 178.738" stroke="#00C89B" stroke-width="3" stroke-miterlimit="2"/>
<path d="M206.559 214.254L224.562 203.832L242.719 193.426L260.504 183.328" stroke="#00DB92" stroke-width="3" stroke-miterlimit="2"/>
<path d="M252.008 92.1914L268.496 98.5391L284.867 105.633L300.824 113.348" stroke="#00ED89" stroke-width="3" stroke-miterlimit="2"/>
<path d="M182.582 215.289L199.574 226.172L217.141 237.082L234.805 247.711" stroke="#00FF80" stroke-width="3" stroke-miterlimit="2"/>
<path d="M329.324 280.039L328.367 280.031L326.453 280.008L323.582 279.961L321.668 279.922L318.797 279.852L317.84 279.824L316.887 279.797L314.973 279.734L314.02 279.699L312.105 279.629L311.152 279.594L310.195 279.555L308.289 279.469L307.332 279.426L306.379 279.379L305.422 279.332L304.469 279.285L301.609 279.133L300.656 279.078L299.703 279.02L298.746 278.965L297.793 278.906L296.844 278.844L293.984 278.656L293.031 278.59L292.078 278.52L291.129 278.453L290.176 278.379L289.227 278.309L288.273 278.234L287.324 278.16L286.371 278.082L285.422 278.004L284.469 277.926L282.57 277.762L281.617 277.68L279.719 277.508L275.922 277.148L274.973 277.055L273.074 276.859L272.129 276.762L271.18 276.664L270.23 276.562L269.285 276.461L268.336 276.355L267.391 276.25L266.441 276.145L265.496 276.039L264.547 275.93L263.602 275.816L262.656 275.707L261.711 275.594L260.766 275.477L259.816 275.359L257.926 275.125L256.98 275.004L256.039 274.883L253.203 274.508L252.262 274.379L250.371 274.121L249.43 273.992L248.484 273.859L246.602 273.586L245.656 273.449L244.715 273.312L241.891 272.891L240.008 272.602L237.184 272.156L236.246 272.004L235.305 271.852" stroke="#0000FF" stroke-miterlimit="2" stroke-dasharray="3 3"/>
<path d="M286.152 239.566L285.922 238.047L285.684 236.531L285.449 235.012L285.207 233.496L284.965 231.977L284.719 230.461L284.219 227.43L283.965 225.914L283.707 224.402L283.449 222.887L283.188 221.375L282.922 219.863L282.652 218.348L282.383 216.836L282.109 215.328L281.555 212.305L281.273 210.797L280.988 209.285L280.41 206.27L279.824 203.254L279.527 201.75L279.227 200.242L278.922 198.738L277.996 194.227L277.363 191.219L277.043 189.719L276.723 188.215L275.738 183.715L275.402 182.215L275.066 180.719L274.727 179.219L274.387 177.723L274.043 176.227L273.695 174.73L272.992 171.738L272.637 170.246L272.281 168.75L271.555 165.766L271.188 164.273L270.82 162.785L270.449 161.293L270.074 159.805L269.695 158.312L269.316 156.824L268.934 155.336L268.547 153.852L268.16 152.363L267.77 150.879L267.375 149.391L266.578 146.422L266.176 144.941L265.77 143.457L264.949 140.496L264.121 137.535L263.699 136.055L263.277 134.578L262.852 133.102L262.426 131.621L261.992 130.148L261.125 127.195L260.242 124.25L259.797 122.777L259.348 121.305L258.441 118.367L257.984 116.895L257.523 115.426L257.059 113.961L256.594 112.492L256.125 111.027L255.652 109.562L254.699 106.633L254.219 105.172L253.734 103.711L253.246 102.25L252.262 99.3281L251.766 97.8711L251.266 96.4141L250.762 94.957L250.254 93.5039L249.746 92.0469" stroke="#0012F6" stroke-miterlimit="2" stroke-dasharray="3 3"/>
<path d="M310.531 120.582L309.609 119.473L309.145 118.918L307.75 117.266L307.281 116.715L306.812 116.168L306.344 115.617L305.875 115.07L305.402 114.527L304.93 113.98L304.457 113.438L303.98 112.891L303.508 112.352L303.031 111.809L302.551 111.266L302.074 110.727L301.113 109.648L300.629 109.113L300.148 108.574L299.664 108.039L299.176 107.504L298.691 106.973L298.203 106.438L297.227 105.375L296.734 104.848L296.242 104.316L295.258 103.262L294.266 102.207L293.77 101.684L293.27 101.16L292.773 100.637L292.273 100.117L291.77 99.5938L291.27 99.0742L290.262 98.0352L289.754 97.5195L289.25 97.0039L288.234 95.9727L287.723 95.4609L287.211 94.9453L286.699 94.4336L286.188 93.9258L285.676 93.4141L284.645 92.3984L284.125 91.8906L283.609 91.3867L283.09 90.8789L282.57 90.375L282.047 89.8711L281.527 89.3711L281.004 88.8711L280.477 88.3711L279.953 87.8711L279.426 87.3711L278.371 86.3789L277.84 85.8828L277.309 85.3906L276.777 84.8945L276.246 84.4023L275.711 83.9102L274.105 82.4453L273.027 81.4688L272.488 80.9844L271.945 80.5L271.406 80.0156L270.863 79.5352L270.316 79.0547L269.773 78.5742L269.227 78.0938L268.68 77.6172L268.129 77.1406L267.582 76.6641L267.031 76.1875L266.48 75.7148L264.816 74.2969L263.707 73.3594L263.148 72.8906L262.59 72.4258L262.027 71.9609L261.469 71.4961L260.906 71.0312L260.344 70.5703L259.777 70.1094" stroke="#0024ED" stroke-miterlimit="2" stroke-dasharray="3 3"/>
<path d="M305.34 87.6914L304.582 87.668L303.059 87.6289L302.301 87.6094L301.539 87.5898L300.781 87.5781L300.02 87.5625L298.504 87.5391L297.742 87.5312L296.984 87.5234L296.227 87.5195L295.465 87.5156L294.707 87.5117H292.434L291.676 87.5156L290.914 87.5234L290.156 87.5273L289.398 87.5352L288.641 87.5469L287.887 87.5586L287.129 87.5703L285.613 87.6016L284.098 87.6406L283.344 87.6602L281.828 87.707L281.074 87.7305L280.316 87.7578L279.562 87.7891L278.805 87.8164L278.051 87.8516L277.293 87.8828L275.785 87.9531L275.031 87.9922L274.273 88.0312L273.52 88.0703L272.012 88.1562L269.75 88.2969L268.242 88.3984L267.492 88.4531L265.984 88.5625L265.23 88.6211L264.48 88.6797L263.727 88.7383L262.977 88.8008L262.223 88.8633L260.723 88.9961L259.969 89.0625L258.469 89.2031L256.219 89.4258L253.969 89.6602L253.219 89.7422L252.473 89.8242L250.973 89.9961L250.227 90.082L249.477 90.1719L248.73 90.2617L247.98 90.3516L246.488 90.5391L244.996 90.7344L244.246 90.832L243.5 90.9336L242.758 91.0352L242.012 91.1367L240.52 91.3477L239.773 91.457L239.031 91.5625L238.285 91.6758L237.543 91.7852L236.797 91.8984L234.57 92.25L233.824 92.3672L232.34 92.6094L230.855 92.8594" stroke="#0037E4" stroke-miterlimit="2" stroke-dasharray="3 3"/>
<path d="M313.086 131.004L312.586 130.34L311.074 128.359L310.566 127.699L309.551 126.387L309.039 125.73L308.016 124.426L306.984 123.121L305.426 121.176L304.902 120.527L303.855 119.238L303.328 118.594L302.273 117.312L301.211 116.031L300.676 115.395L300.145 114.758L299.605 114.121L299.07 113.488L298.531 112.852L297.992 112.223L297.449 111.59L296.906 110.961L296.363 110.328L295.816 109.703L295.27 109.074L294.723 108.449L293.621 107.199L291.957 105.336L291.402 104.719L290.844 104.102L290.281 103.484L289.723 102.867L288.598 101.641L288.031 101.027L286.898 99.8086L285.758 98.5898L284.609 97.3789L284.035 96.7773L283.461 96.1719L282.883 95.5703L282.305 94.9727L281.723 94.3711L280.559 93.1758L278.801 91.3945L278.211 90.8008L277.031 89.6211L276.438 89.0352L275.844 88.4453L275.246 87.8594L274.652 87.2773L274.051 86.6914L273.453 86.1094L272.852 85.5312L272.25 84.9492L271.645 84.3711L271.039 83.7969L270.434 83.2188L269.215 82.0703L268.605 81.5L267.379 80.3594L266.766 79.793L266.148 79.2227L265.531 78.6602L264.91 78.0938L263.668 76.9688L261.793 75.293L261.168 74.7383L260.539 74.1797L259.906 73.6289L259.273 73.0742L258.641 72.5234L258.008 71.9766L257.371 71.4258L256.734 70.8789" stroke="#0049DB" stroke-miterlimit="2" stroke-dasharray="3 3"/>
<path d="M302.664 88.4062L301.82 90.0469L300.977 91.6914L300.133 93.332L299.285 94.9727L298.441 96.6133L297.594 98.25L295.898 101.531L295.051 103.168L294.203 104.809L293.352 106.445L292.504 108.086L288.246 116.27L286.535 119.543L285.684 121.176L284.828 122.812L283.973 124.445L283.113 126.082L282.258 127.715L281.402 129.352L277.105 137.516L276.242 139.148L275.383 140.781L274.52 142.41L273.66 144.043L272.797 145.676L271.07 148.934L270.203 150.566L269.34 152.195L268.473 153.824L267.609 155.453L265.008 160.34L264.137 161.969L262.402 165.227L261.531 166.852L260.66 168.48L259.789 170.105L258.918 171.734L258.047 173.359L257.176 174.988L256.305 176.613L255.43 178.238L254.559 179.863L251.059 186.363L250.18 187.984L248.43 191.234L247.551 192.855L246.672 194.48L245.793 196.102L244.914 197.727L242.277 202.59L240.512 205.832L239.633 207.453L236.984 212.316L236.098 213.934L235.215 215.555L234.332 217.172L233.445 218.793L232.559 220.41L231.672 222.031L228.125 228.5L227.234 230.117L226.348 231.734L223.676 236.586L222.785 238.199L221.895 239.816L221 241.43L220.109 243.047L218.32 246.273L217.43 247.891L216.535 249.504" stroke="#005BD1" stroke-miterlimit="2" stroke-dasharray="3 3"/>
<path d="M269.391 217.48L269.328 216.051L269.266 214.625L269.199 213.199L269.129 211.77L268.988 208.918L268.914 207.492L268.84 206.062L268.684 203.211L268.52 200.359L268.348 197.508L268.168 194.656L267.98 191.805L267.688 187.527L267.586 186.102L267.48 184.68L267.27 181.828L267.16 180.406L266.934 177.555L266.82 176.133L266.703 174.707L266.586 173.285L266.465 171.859L266.34 170.438L266.215 169.012L266.09 167.59L265.961 166.168L265.832 164.742L265.566 161.898L265.293 159.055L265.152 157.629L265.012 156.207L264.723 153.363L264.574 151.941L264.426 150.523L264.121 147.68L263.809 144.836L263.648 143.418L263.488 141.996L263.324 140.578L263.16 139.156L262.992 137.738L262.824 136.316L262.652 134.898L262.48 133.477L262.305 132.059L262.125 130.641L261.949 129.223L261.766 127.801L261.398 124.965L261.211 123.547L260.828 120.711L260.637 119.297L260.441 117.879L260.043 115.043L259.84 113.629L259.637 112.211L259.43 110.797L259.223 109.379L258.801 106.551L258.586 105.133L257.93 100.891L257.707 99.4766L257.254 96.6484L257.023 95.2344L256.789 93.8242L256.32 90.9961L256.082 89.5859L255.84 88.1719L255.348 85.3516L255.102 83.9375L254.852 82.5273L254.344 79.707L254.086 78.2969L253.824 76.8867" stroke="#006DC8" stroke-miterlimit="2" stroke-dasharray="3 3"/>
<path d="M315.605 102.719L314.453 104.023L313.305 105.324L312.152 106.629L311 107.93L309.852 109.234L308.699 110.539L304.105 115.758L302.957 117.066L300.66 119.676L299.512 120.984L298.367 122.293L297.223 123.598L296.074 124.906L291.496 130.141L290.352 131.453L289.207 132.762L288.066 134.07L286.922 135.383L285.781 136.691L284.641 138.004L283.496 139.316L282.355 140.629L281.215 141.938L278.934 144.562L277.793 145.879L276.656 147.191L275.516 148.504L274.379 149.816L273.238 151.133L272.102 152.445L269.828 155.078L268.688 156.391L267.551 157.707L266.418 159.023L263.008 162.973L261.875 164.289L260.742 165.609L259.605 166.926L258.473 168.242L256.207 170.883L255.074 172.199L250.543 177.48L249.414 178.801L248.281 180.121L246.023 182.762L244.891 184.082L243.762 185.406L242.633 186.727L241.504 188.051L240.375 189.371L239.246 190.695L238.121 192.02L236.992 193.344L235.867 194.664L234.738 195.988L233.613 197.312L232.484 198.637L231.359 199.965L229.109 202.613L227.984 203.941L226.859 205.266L225.734 206.594L224.613 207.918L222.363 210.574L221.242 211.898L220.117 213.227L215.633 218.539L214.512 219.871L212.27 222.527L211.148 223.859L210.031 225.188L208.91 226.52L207.793 227.852L206.672 229.18L203.32 233.176" stroke="#0080BF" stroke-miterlimit="2" stroke-dasharray="3 3"/>
<path d="M256.926 201.652L252.52 204.559L251.965 204.918L250.312 206.008L249.758 206.371L249.207 206.73L248.105 207.457L247.551 207.816L246.449 208.543L245.895 208.902L244.793 209.629L244.238 209.988L243.688 210.352L243.137 210.711L242.582 211.074L242.031 211.434L241.477 211.797L240.926 212.156L240.375 212.52L239.82 212.879L239.27 213.238L238.715 213.602L238.164 213.961L237.609 214.324L237.059 214.684L236.504 215.043L235.953 215.402L235.398 215.766L234.844 216.125L234.293 216.484L233.738 216.844L233.188 217.207L232.078 217.926L231.527 218.285L230.418 219.004L229.867 219.363L228.203 220.441L227.652 220.801L225.988 221.879L225.438 222.238L223.773 223.316L223.219 223.672L222.664 224.031L222.113 224.391L221.004 225.109L220.449 225.465L219.34 226.184L218.785 226.539L217.676 227.258L217.121 227.613L216.566 227.973L216.012 228.328L214.902 229.047L214.348 229.402L213.793 229.762L212.684 230.473L212.129 230.832L211.574 231.188L211.016 231.547L209.906 232.258L209.352 232.617L208.242 233.328L207.684 233.688L206.02 234.754L205.461 235.113L203.797 236.18L203.238 236.535L202.129 237.246" stroke="#0092B6" stroke-miterlimit="2" stroke-dasharray="3 3"/>
<path d="M272.945 195.32L272.891 194.223L272.832 193.121L272.77 192.023L272.711 190.922L272.586 188.727L272.52 187.625L272.387 185.43L272.316 184.328L272.25 183.23L272.176 182.133L272.105 181.035L272.031 179.934L271.957 178.836L271.879 177.738L271.805 176.641L271.723 175.543L271.645 174.445L271.562 173.344L271.398 171.148L271.141 167.855L270.871 164.562L270.684 162.367L270.59 161.273L270.297 157.98L270.195 156.883L270.094 155.789L269.992 154.691L269.781 152.496L269.676 151.402L269.457 149.207L269.348 148.113L269.234 147.016L269.121 145.922L269.008 144.824L268.891 143.73L268.773 142.633L268.656 141.539L268.539 140.441L268.418 139.348L268.293 138.254L268.172 137.156L268.047 136.062L267.918 134.969L267.793 133.875L267.664 132.777L267.133 128.402L266.723 125.121L266.441 122.934L266.008 119.652L265.863 118.562L265.715 117.469L265.562 116.375L265.414 115.281L265.262 114.191L265.105 113.098L264.953 112.008L264.797 110.914L264.637 109.824L264.477 108.73L264.316 107.641L264.156 106.547L263.828 104.367L263.66 103.273L263.324 101.094L262.98 98.9141L262.277 94.5547L262.098 93.4648L261.547 90.1953L261.363 89.1094L261.176 88.0195L260.984 86.9297" stroke="#00A4AD" stroke-miterlimit="2" stroke-dasharray="3 3"/>
<path d="M308.418 107.676L307.191 108.75L305.961 109.828L304.734 110.91L303.512 111.988L302.285 113.07L301.062 114.156L299.84 115.238L298.621 116.324L297.398 117.41L296.18 118.5L294.965 119.59L293.746 120.68L292.531 121.77L291.316 122.863L290.105 123.957L288.891 125.055L287.68 126.148L286.473 127.246L285.262 128.348L284.055 129.445L282.848 130.547L281.645 131.648L280.438 132.754L279.234 133.855L278.031 134.961L276.832 136.07L275.633 137.176L273.234 139.395L272.039 140.504L270.84 141.617L269.648 142.73L268.453 143.844L267.262 144.961L266.066 146.078L264.879 147.195L263.688 148.312L262.5 149.43L260.125 151.672L258.938 152.797L257.754 153.918L256.57 155.043L255.387 156.172L254.207 157.297L253.023 158.426L250.664 160.684L249.488 161.812L245.961 165.211L244.789 166.348L243.613 167.484L242.441 168.621L241.273 169.758L240.102 170.898L238.934 172.035L237.766 173.176L236.598 174.32L235.434 175.461L234.266 176.605L233.102 177.75L231.941 178.895L230.777 180.043L227.297 183.488L222.672 188.098L220.363 190.406L219.211 191.562L218.062 192.723L216.91 193.879L214.613 196.199L213.465 197.363L212.32 198.523L211.172 199.688L210.027 200.852L208.887 202.016L207.742 203.184L204.32 206.688L203.184 207.855L200.91 210.199L199.773 211.375L198.641 212.547L197.504 213.723L196.371 214.898L195.242 216.074L194.109 217.254L192.98 218.43L191.852 219.609" stroke="#00B6A4" stroke-miterlimit="2" stroke-dasharray="3 3"/>
<path d="M263.316 178.738L262.742 179.094L262.164 179.445L261.59 179.801L261.012 180.156L259.863 180.867L259.285 181.223L258.137 181.934L257.559 182.289L255.836 183.355L255.258 183.711L254.109 184.422L253.535 184.781L252.961 185.137L252.383 185.492L251.234 186.203L250.66 186.562L249.512 187.273L248.938 187.633L247.789 188.344L247.211 188.703L246.637 189.059L246.062 189.418L245.488 189.773L244.914 190.133L244.34 190.488L243.766 190.848L243.191 191.203L242.617 191.562L242.047 191.918L241.473 192.277L240.898 192.633L239.75 193.352L239.176 193.707L238.027 194.426L237.457 194.785L236.883 195.141L235.16 196.219L234.59 196.578L234.016 196.938L233.441 197.293L232.867 197.652L232.297 198.012L230.574 199.09L230.004 199.449L229.43 199.809L228.859 200.168L227.711 200.887L227.141 201.25L226.566 201.609L225.996 201.969L224.848 202.688L224.277 203.047L223.703 203.41L223.133 203.77L222.559 204.129L221.988 204.492L221.414 204.852L220.844 205.211L220.27 205.574L219.129 206.293L218.555 206.656L217.984 207.016L217.41 207.379L216.84 207.738L216.27 208.102L215.695 208.461L215.125 208.824L214.555 209.184L213.98 209.547L213.41 209.91L212.84 210.27L212.27 210.633L211.695 210.992L209.984 212.082L209.41 212.441L207.129 213.895L206.559 214.254" stroke="#00C89B" stroke-miterlimit="2" stroke-dasharray="3 3"/>
<path d="M260.504 183.328L260.449 182.406L260.398 181.48L260.344 180.559L260.285 179.637L260.176 177.793L260.117 176.867L259.883 173.18L259.82 172.258L259.762 171.336L259.574 168.57L259.512 167.645L259.445 166.723L259.383 165.801L259.117 162.113L259.047 161.191L258.98 160.27L258.699 156.582L258.625 155.664L258.555 154.742L258.258 151.055L258.102 149.211L258.027 148.289L257.949 147.371L257.871 146.449L257.789 145.527L257.711 144.605L257.629 143.684L257.547 142.766L257.301 140L257.219 139.082L257.047 137.238L256.961 136.32L256.789 134.477L256.699 133.559L256.52 131.715L256.43 130.797L256.25 128.953L256.156 128.035L256.062 127.113L255.969 126.195L255.875 125.273L255.781 124.355L255.688 123.434L255.59 122.516L255.492 121.594L255.395 120.676L255.297 119.754L255.199 118.836L255.098 117.914L254.895 116.078L254.793 115.156L254.691 114.238L254.586 113.32L254.484 112.398L254.273 110.562L254.168 109.641L254.059 108.723L253.953 107.805L253.844 106.887L253.734 105.965L253.516 104.129L253.402 103.211L253.293 102.293L253.18 101.371L253.066 100.453L252.949 99.5352L252.836 98.6172L252.25 94.0273L252.008 92.1914" stroke="#00DB92" stroke-miterlimit="2" stroke-dasharray="3 3"/>
<path d="M300.824 113.348L299.566 114.305L297.059 116.227L294.559 118.156L293.309 119.125L290.816 121.062L289.57 122.035L287.086 123.98L285.844 124.957L284.605 125.938L283.367 126.914L282.129 127.898L280.895 128.879L278.426 130.848L274.734 133.812L273.508 134.805L272.281 135.801L271.055 136.793L268.609 138.785L267.387 139.785L266.168 140.785L264.945 141.789L263.73 142.789L262.512 143.797L261.297 144.801L258.867 146.816L256.445 148.84L255.238 149.852L254.027 150.867L252.82 151.883L251.617 152.902L250.41 153.918L249.207 154.941L248.004 155.961L245.605 158.008L243.207 160.062L240.816 162.117L239.621 163.148L238.43 164.184L237.238 165.215L236.047 166.25L234.859 167.289L233.672 168.324L232.484 169.363L231.301 170.406L230.113 171.445L228.93 172.488L227.75 173.535L226.57 174.578L225.391 175.625L224.211 176.676L223.035 177.727L221.855 178.777L220.684 179.828L219.508 180.883L217.164 182.992L215.996 184.051L214.824 185.109L213.656 186.168L212.492 187.23L211.324 188.293L210.16 189.359L209 190.422L207.836 191.492L206.676 192.559L205.516 193.629L203.203 195.77L200.891 197.918L199.738 198.992L197.434 201.148L196.285 202.23L195.137 203.309L193.988 204.395L192.844 205.477L189.41 208.734L187.129 210.914L185.992 212.004L183.719 214.191L182.582 215.289" stroke="#00ED89" stroke-miterlimit="2" stroke-dasharray="3 3"/>
<mask id="mask0_41_1583" style="mask-type:luminance" maskUnits="userSpaceOnUse" x="-2" y="-26" width="468" height="468">
<path d="M-2 -26H466V442H-2V-26Z" fill="white"/>
</mask>
<g mask="url(#mask0_41_1583)">
<path fill-rule="evenodd" clip-rule="evenodd" d="M-1.78413e+06 1.78457e+06V-1.78415e+06H1.78459e+06V1.78457e+06H-1.78413e+06ZM410.5 208L410 195.375L408.625 182.875L406.5 170.5L403.375 158.25L399.375 146.25L394.625 134.625L389.125 123.375L382.75 112.5L375.625 102.125L367.75 92.25L359.25 83L350.125 74.25L340.375 66.25L330.125 59L319.375 52.375L308.25 46.625L296.625 41.625L284.75 37.5L272.625 34.25L260.25 31.75L247.75 30.25L235.125 29.625L222.5 29.75L210 30.875L197.625 32.875L185.25 35.75L173.25 39.5L161.5 44.125L150.125 49.5L139.125 55.625L128.625 62.5L118.625 70.25L109.25 78.5L100.375 87.5L92.25 97.125L84.75 107.25L78 117.875L72 129L66.875 140.5L62.5 152.25L59 164.375L56.375 176.625L54.5 189.125L53.625 201.75V214.25L54.5 226.875L56.375 239.375L59 251.625L62.5 263.75L66.875 275.5L72 287L78 298.125L84.75 308.75L92.25 318.875L100.375 328.5L109.25 337.5L118.625 345.75L128.625 353.5L139.125 360.375L150.125 366.5L161.5 371.875L173.25 376.5L185.25 380.25L197.625 383.125L210 385.125L222.5 386.25L235.125 386.375L247.75 385.75L260.25 384.25L272.625 381.75L284.75 378.5L296.625 374.375L308.25 369.375L319.375 363.625L330.125 357L340.375 349.75L350.125 341.75L359.25 333L367.75 323.75L375.625 313.875L382.75 303.5L389.125 292.625L394.625 281.375L399.375 269.75L403.375 257.75L406.5 245.5L408.625 233.125L410 220.625L410.5 208Z" fill="white"/>
</g>
<path d="M410.438 208L409.992 195.414L408.66 182.891L406.449 170.492L403.367 158.277L399.434 146.312L394.664 134.656L389.086 123.367L382.727 112.496L375.613 102.102L367.785 92.2344L359.281 82.9453L350.145 74.2773L340.418 66.2773L330.148 58.9844L319.395 52.4297L308.203 46.6523L296.633 41.6797L284.738 37.5352L272.582 34.2383L260.223 31.8086L247.727 30.2578L235.148 29.5938L222.555 29.8125L210.012 30.9258L197.574 32.918L185.312 35.7812L173.277 39.5039L161.539 44.0664L150.152 49.4453L139.172 55.6133L128.652 62.5391L118.648 70.1914L109.211 78.5312L100.383 87.5156L92.2148 97.0977L84.7383 107.234L77.9961 117.875L72.0234 128.961L66.8477 140.445L62.4922 152.262L58.9844 164.355L56.3359 176.672L54.5625 189.141L53.6758 201.703V214.297L54.5625 226.859L56.3359 239.328L58.9844 251.645L62.4922 263.738L66.8477 275.555L72.0234 287.039L77.9961 298.125L84.7383 308.766L92.2148 318.902L100.383 328.484L109.211 337.469L118.648 345.809L128.652 353.461L139.172 360.387L150.152 366.555L161.539 371.934L173.277 376.496L185.312 380.219L197.574 383.082L210.012 385.074L222.555 386.188L235.148 386.406L247.727 385.742L260.223 384.191L272.582 381.762L284.738 378.465L296.633 374.32L308.203 369.348L319.395 363.57L330.148 357.016L340.418 349.723L350.145 341.723L359.281 333.055L367.785 323.766L375.613 313.898L382.727 303.504L389.086 292.633L394.664 281.344L399.434 269.688L403.367 257.723L406.449 245.508L408.66 233.109L409.992 220.586L410.438 208Z" stroke="black" stroke-width="2" stroke-miterlimit="2"/>
<path d="M230.915 225.25C230.915 230.89 228.868 234.125 225.056 234.125C222.571 234.125 220.821 232.547 220.431 229.875H222.462C222.775 231.437 223.759 232.328 225.196 232.328C227.509 232.328 228.806 230.125 228.821 226.14C227.775 227.406 226.634 227.969 225.103 227.969C222.15 227.969 220.087 225.922 220.087 222.875C220.087 219.687 222.321 217.469 225.415 217.469C229.15 217.469 230.915 220.14 230.915 225.25ZM228.712 222.828C228.712 220.719 227.29 219.25 225.4 219.25C223.54 219.25 222.15 220.64 222.15 222.719C222.15 224.906 223.368 226.172 225.337 226.172C227.306 226.172 228.712 224.828 228.712 222.828Z" fill="black"/>
<path d="M243.656 225.937C243.656 231.297 241.781 234.125 238.328 234.125C234.828 234.125 232.984 231.297 232.984 225.797C232.984 220.328 234.812 217.469 238.328 217.469C241.859 217.469 243.656 220.281 243.656 225.937ZM241.594 225.75C241.594 221.39 240.516 219.265 238.328 219.265C236.141 219.265 235.062 221.359 235.062 225.828C235.062 230.281 236.141 232.453 238.281 232.453C240.531 232.453 241.594 230.375 241.594 225.75Z" fill="black"/>
<path d="M316.375 228.719C316.375 231.922 314.141 234.125 311.047 234.125C307.313 234.125 305.563 231.437 305.563 226.359C305.563 220.672 307.61 217.469 311.406 217.469C313.891 217.469 315.641 219.062 316.031 221.734H314.016C313.688 220.172 312.703 219.265 311.266 219.265C308.953 219.265 307.656 221.469 307.641 225.453C308.516 224.265 309.781 223.64 311.391 223.64C314.313 223.64 316.375 225.687 316.375 228.719ZM314.313 228.875C314.313 226.703 313.094 225.437 311.141 225.437C309.125 225.437 307.75 226.75 307.75 228.765C307.75 230.859 309.172 232.328 311.063 232.328C312.922 232.328 314.313 230.922 314.313 228.875Z" fill="black"/>
<path d="M329.023 225.937C329.023 231.297 327.148 234.125 323.694 234.125C320.194 234.125 318.351 231.297 318.351 225.797C318.351 220.328 320.179 217.469 323.694 217.469C327.226 217.469 329.023 220.281 329.023 225.937ZM326.96 225.75C326.96 221.39 325.882 219.265 323.694 219.265C321.507 219.265 320.429 221.359 320.429 225.828C320.429 230.281 321.507 232.453 323.648 232.453C325.898 232.453 326.96 230.375 326.96 225.75Z" fill="black"/>
<path d="M401.585 229.047C401.585 232.125 399.413 234.125 396.07 234.125C392.726 234.125 390.929 232.5 390.679 228.859H392.71C392.835 231.234 393.929 232.328 396.132 232.328C398.242 232.328 399.507 231.109 399.507 229.062C399.507 227.25 398.367 226.187 396.132 226.187H395.023V224.484C398.273 224.484 399.023 223.781 399.023 222.031C399.023 220.297 397.945 219.25 396.148 219.25C394.085 219.25 393.101 220.328 393.054 222.734H391.023C391.101 219.265 392.835 217.469 396.132 217.469C399.242 217.469 401.101 219.156 401.101 221.953C401.101 223.594 400.335 224.656 398.82 225.25C400.773 225.922 401.585 227.062 401.585 229.047Z" fill="black"/>
<path d="M414.389 225.937C414.389 231.297 412.514 234.125 409.061 234.125C405.561 234.125 403.717 231.297 403.717 225.797C403.717 220.328 405.545 217.469 409.061 217.469C412.592 217.469 414.389 220.281 414.389 225.937ZM412.326 225.75C412.326 221.39 411.248 219.265 409.061 219.265C406.873 219.265 405.795 221.359 405.795 225.828C405.795 230.281 406.873 232.453 409.014 232.453C411.264 232.453 412.326 230.375 412.326 225.75Z" fill="black"/>
<path d="M426.092 208.54C426.092 213.899 424.217 216.727 420.764 216.727C417.264 216.727 415.42 213.899 415.42 208.399C415.42 202.93 417.249 200.071 420.764 200.071C424.295 200.071 426.092 202.884 426.092 208.54ZM424.03 208.352C424.03 203.993 422.952 201.868 420.764 201.868C418.577 201.868 417.499 203.962 417.499 208.43C417.499 212.884 418.577 215.055 420.717 215.055C422.967 215.055 424.03 212.977 424.03 208.352Z" fill="black"/>
<path d="M435.177 203.571C435.177 205.477 433.74 206.93 431.818 206.93C429.911 206.93 428.458 205.477 428.458 203.571C428.458 201.665 429.911 200.212 431.818 200.212C433.74 200.212 435.177 201.665 435.177 203.571ZM434.083 203.571C434.083 202.352 433.036 201.196 431.818 201.196C430.599 201.196 429.568 202.352 429.568 203.571C429.568 204.79 430.599 205.946 431.818 205.946C433.036 205.946 434.083 204.79 434.083 203.571Z" fill="black"/>
<path d="M372.955 70.078H370.549V73.9843H368.517V70.078H361.642V67.9374L369.049 57.6718H370.549V68.2499H372.955V70.078ZM368.517 68.2499V61.1249L363.424 68.2499H368.517Z" fill="black"/>
<path d="M385.587 68.578C385.587 72.0311 383.29 74.328 379.993 74.328C377.102 74.328 375.259 73.0468 374.602 69.7968H376.618C377.102 71.6405 378.18 72.5311 379.946 72.5311C382.165 72.5311 383.524 71.203 383.524 68.8593C383.524 66.4374 382.134 65.0311 379.946 65.0311C378.696 65.0311 377.899 65.4218 376.962 66.5624H375.102L376.321 58.0155H384.743V60.0155H377.946L377.305 64.2343C378.259 63.5468 379.165 63.2499 380.321 63.2499C383.446 63.2499 385.587 65.3593 385.587 68.578Z" fill="black"/>
<path d="M394.531 61.1718C394.531 63.078 393.093 64.5311 391.172 64.5311C389.265 64.5311 387.812 63.078 387.812 61.1718C387.812 59.2655 389.265 57.8124 391.172 57.8124C393.093 57.8124 394.531 59.2655 394.531 61.1718ZM393.437 61.1718C393.437 59.953 392.39 58.7968 391.172 58.7968C389.953 58.7968 388.922 59.953 388.922 61.1718C388.922 62.3905 389.953 63.5468 391.172 63.5468C392.39 63.5468 393.437 62.3905 393.437 61.1718Z" fill="black"/>
<path d="M226.315 12.0188C226.315 17.6594 224.268 20.8938 220.456 20.8938C217.971 20.8938 216.221 19.3157 215.831 16.6438H217.862C218.174 18.2063 219.159 19.0969 220.596 19.0969C222.909 19.0969 224.206 16.8938 224.221 12.9094C223.174 14.175 222.034 14.7375 220.503 14.7375C217.549 14.7375 215.487 12.6907 215.487 9.6438C215.487 6.4563 217.721 4.23755 220.815 4.23755C224.549 4.23755 226.315 6.90942 226.315 12.0188ZM224.112 9.59692C224.112 7.48755 222.69 6.0188 220.799 6.0188C218.94 6.0188 217.549 7.40942 217.549 9.48755C217.549 11.675 218.768 12.9407 220.737 12.9407C222.706 12.9407 224.112 11.5969 224.112 9.59692Z" fill="black"/>
<path d="M239.056 12.7063C239.056 18.0657 237.181 20.8938 233.728 20.8938C230.228 20.8938 228.384 18.0657 228.384 12.5657C228.384 7.09692 230.213 4.23755 233.728 4.23755C237.259 4.23755 239.056 7.05005 239.056 12.7063ZM236.994 12.5188C236.994 8.15942 235.916 6.03442 233.728 6.03442C231.541 6.03442 230.463 8.12817 230.463 12.5969C230.463 17.05 231.541 19.2219 233.681 19.2219C235.931 19.2219 236.994 17.1438 236.994 12.5188Z" fill="black"/>
<path d="M248.141 7.73755C248.141 9.6438 246.704 11.0969 244.782 11.0969C242.875 11.0969 241.422 9.6438 241.422 7.73755C241.422 5.8313 242.875 4.37817 244.782 4.37817C246.704 4.37817 248.141 5.8313 248.141 7.73755ZM247.047 7.73755C247.047 6.5188 246 5.36255 244.782 5.36255C243.563 5.36255 242.532 6.5188 242.532 7.73755C242.532 8.9563 243.563 10.1125 244.782 10.1125C246 10.1125 247.047 8.9563 247.047 7.73755Z" fill="black"/>
<path d="M63.4187 73.9843H61.3875V62.3749H57.7781V60.9218C60.9031 60.5311 61.3718 60.1874 62.075 57.6718H63.4187V73.9843Z" fill="black"/>
<path d="M79.8629 69.2499C79.8629 72.328 77.691 74.328 74.3473 74.328C71.0035 74.328 69.2067 72.703 68.9567 69.0624H70.9879C71.1129 71.4374 72.2067 72.5311 74.4098 72.5311C76.5192 72.5311 77.7848 71.3124 77.7848 69.2655C77.7848 67.453 76.6442 66.3905 74.4098 66.3905H73.3004V64.6874C76.5504 64.6874 77.3004 63.9843 77.3004 62.2343C77.3004 60.4999 76.2223 59.453 74.4254 59.453C72.3629 59.453 71.3785 60.5311 71.3317 62.9374H69.3004C69.3785 59.4686 71.1129 57.6718 74.4098 57.6718C77.5192 57.6718 79.3785 59.3593 79.3785 62.1561C79.3785 63.7968 78.6129 64.8593 77.0973 65.453C79.0504 66.1249 79.8629 67.2655 79.8629 69.2499Z" fill="black"/>
<path d="M92.8071 68.578C92.8071 72.0311 90.5103 74.328 87.2134 74.328C84.3228 74.328 82.479 73.0468 81.8228 69.7968H83.8384C84.3228 71.6405 85.4009 72.5311 87.1665 72.5311C89.3853 72.5311 90.7446 71.203 90.7446 68.8593C90.7446 66.4374 89.354 65.0311 87.1665 65.0311C85.9165 65.0311 85.1196 65.4218 84.1821 66.5624H82.3228L83.5415 58.0155H91.9634V60.0155H85.1665L84.5259 64.2343C85.479 63.5468 86.3853 63.2499 87.5415 63.2499C90.6665 63.2499 92.8071 65.3593 92.8071 68.578Z" fill="black"/>
<path d="M101.751 61.1718C101.751 63.078 100.314 64.5311 98.392 64.5311C96.4857 64.5311 95.0326 63.078 95.0326 61.1718C95.0326 59.2655 96.4857 57.8124 98.392 57.8124C100.314 57.8124 101.751 59.2655 101.751 61.1718ZM100.658 61.1718C100.658 59.953 99.6107 58.7968 98.392 58.7968C97.1732 58.7968 96.142 59.953 96.142 61.1718C96.142 62.3905 97.1732 63.5468 98.392 63.5468C99.6107 63.5468 100.658 62.3905 100.658 61.1718Z" fill="black"/>
<path d="M9.98438 216.384H7.95312V204.774H4.34375V203.321C7.46875 202.93 7.9375 202.587 8.64062 200.071H9.98438V216.384Z" fill="black"/>
<path d="M26.5848 211.79C26.5848 214.743 24.3348 216.727 21.1161 216.727C17.8973 216.727 15.6317 214.743 15.6317 211.759C15.6317 209.962 16.5536 208.696 18.4286 207.805C16.7723 206.774 16.2098 205.946 16.2098 204.43C16.2098 201.868 18.2411 200.071 21.1161 200.071C24.0067 200.071 26.0067 201.868 26.0067 204.43C26.0067 205.962 25.4598 206.79 23.788 207.805C25.663 208.696 26.5848 209.962 26.5848 211.79ZM23.9442 204.477C23.9442 202.884 22.8348 201.868 21.1161 201.868C19.413 201.868 18.288 202.884 18.288 204.446C18.288 205.993 19.413 206.993 21.1161 206.993C22.8192 206.993 23.9442 205.993 23.9442 204.477ZM24.5223 211.805C24.5223 209.899 23.1317 208.696 21.1161 208.696C19.0848 208.696 17.7098 209.899 17.7098 211.805C17.7098 213.712 19.0848 214.93 21.0692 214.93C23.1317 214.93 24.5223 213.743 24.5223 211.805Z" fill="black"/>
<path d="M39.2323 208.54C39.2323 213.899 37.3573 216.727 33.9042 216.727C30.4042 216.727 28.5604 213.899 28.5604 208.399C28.5604 202.93 30.3885 200.071 33.9042 200.071C37.4354 200.071 39.2323 202.884 39.2323 208.54ZM37.1698 208.352C37.1698 203.993 36.0917 201.868 33.9042 201.868C31.7167 201.868 30.6385 203.962 30.6385 208.43C30.6385 212.884 31.7167 215.055 33.8573 215.055C36.1073 215.055 37.1698 212.977 37.1698 208.352Z" fill="black"/>
<path d="M48.3171 203.571C48.3171 205.477 46.8796 206.93 44.9578 206.93C43.0515 206.93 41.5984 205.477 41.5984 203.571C41.5984 201.665 43.0515 200.212 44.9578 200.212C46.8796 200.212 48.3171 201.665 48.3171 203.571ZM47.2234 203.571C47.2234 202.352 46.1765 201.196 44.9578 201.196C43.739 201.196 42.7078 202.352 42.7078 203.571C42.7078 204.79 43.739 205.946 44.9578 205.946C46.1765 205.946 47.2234 204.79 47.2234 203.571Z" fill="black"/>
<path d="M67.1842 347.267C67.1842 349.267 66.0123 350.97 63.7311 352.189L61.4342 353.423C59.4342 354.595 58.6998 355.455 58.4967 356.783H67.0748V358.783H56.2155C56.403 355.189 57.3873 353.658 60.7936 351.72L62.903 350.533C64.3561 349.705 65.1217 348.595 65.1217 347.298C65.1217 345.564 63.7311 344.251 61.903 344.251C59.903 344.251 58.7623 345.392 58.6061 348.126H56.5905C56.6998 344.173 58.6373 342.47 61.9655 342.47C65.0436 342.47 67.1842 344.501 67.1842 347.267Z" fill="black"/>
<path d="M79.9723 347.267C79.9723 349.267 78.8004 350.97 76.5192 352.189L74.2223 353.423C72.2223 354.595 71.4879 355.455 71.2848 356.783H79.8629V358.783H69.0035C69.191 355.189 70.1754 353.658 73.5817 351.72L75.691 350.533C77.1442 349.705 77.9098 348.595 77.9098 347.298C77.9098 345.564 76.5192 344.251 74.691 344.251C72.691 344.251 71.5504 345.392 71.3942 348.126H69.3785C69.4879 344.173 71.4254 342.47 74.7535 342.47C77.8317 342.47 79.9723 344.501 79.9723 347.267Z" fill="black"/>
<path d="M92.8071 353.376C92.8071 356.83 90.5103 359.126 87.2134 359.126C84.3228 359.126 82.479 357.845 81.8228 354.595H83.8384C84.3228 356.439 85.4009 357.33 87.1665 357.33C89.3853 357.33 90.7446 356.001 90.7446 353.658C90.7446 351.236 89.354 349.83 87.1665 349.83C85.9165 349.83 85.1196 350.22 84.1821 351.361H82.3228L83.5415 342.814H91.9634V344.814H85.1665L84.5259 349.033C85.479 348.345 86.3853 348.048 87.5415 348.048C90.6665 348.048 92.8071 350.158 92.8071 353.376Z" fill="black"/>
<path d="M101.751 345.97C101.751 347.876 100.314 349.33 98.392 349.33C96.4857 349.33 95.0326 347.876 95.0326 345.97C95.0326 344.064 96.4857 342.611 98.392 342.611C100.314 342.611 101.751 344.064 101.751 345.97ZM100.658 345.97C100.658 344.751 99.6107 343.595 98.392 343.595C97.1732 343.595 96.142 344.751 96.142 345.97C96.142 347.189 97.1732 348.345 98.392 348.345C99.6107 348.345 100.658 347.189 100.658 345.97Z" fill="black"/>
<path d="M219.968 400.701C219.968 402.701 218.796 404.405 216.515 405.623L214.218 406.858C212.218 408.03 211.484 408.889 211.281 410.217H219.859V412.217H208.999C209.187 408.623 210.171 407.092 213.577 405.155L215.687 403.967C217.14 403.139 217.906 402.03 217.906 400.733C217.906 398.998 216.515 397.686 214.687 397.686C212.687 397.686 211.546 398.826 211.39 401.561H209.374C209.484 397.608 211.421 395.905 214.749 395.905C217.827 395.905 219.968 397.936 219.968 400.701Z" fill="black"/>
<path d="M232.959 397.951C229.537 402.03 227.24 406.951 226.35 412.217H224.178C225.334 407.108 227.631 402.358 230.865 398.248H222.068V396.248H232.959V397.951Z" fill="black"/>
<path d="M245.45 404.373C245.45 409.733 243.575 412.561 240.122 412.561C236.622 412.561 234.778 409.733 234.778 404.233C234.778 398.764 236.606 395.905 240.122 395.905C243.653 395.905 245.45 398.717 245.45 404.373ZM243.388 404.186C243.388 399.826 242.31 397.701 240.122 397.701C237.935 397.701 236.856 399.795 236.856 404.264C236.856 408.717 237.935 410.889 240.075 410.889C242.325 410.889 243.388 408.811 243.388 404.186Z" fill="black"/>
<path d="M254.535 399.405C254.535 401.311 253.098 402.764 251.176 402.764C249.27 402.764 247.816 401.311 247.816 399.405C247.816 397.498 249.27 396.045 251.176 396.045C253.098 396.045 254.535 397.498 254.535 399.405ZM253.441 399.405C253.441 398.186 252.395 397.03 251.176 397.03C249.957 397.03 248.926 398.186 248.926 399.405C248.926 400.623 249.957 401.78 251.176 401.78C252.395 401.78 253.441 400.623 253.441 399.405Z" fill="black"/>
<path d="M372.642 354.048C372.642 357.126 370.47 359.126 367.127 359.126C363.783 359.126 361.986 357.501 361.736 353.861H363.767C363.892 356.236 364.986 357.33 367.189 357.33C369.299 357.33 370.564 356.111 370.564 354.064C370.564 352.251 369.424 351.189 367.189 351.189H366.08V349.486C369.33 349.486 370.08 348.783 370.08 347.033C370.08 345.298 369.002 344.251 367.205 344.251C365.142 344.251 364.158 345.33 364.111 347.736H362.08C362.158 344.267 363.892 342.47 367.189 342.47C370.299 342.47 372.158 344.158 372.158 346.955C372.158 348.595 371.392 349.658 369.877 350.251C371.83 350.923 372.642 352.064 372.642 354.048Z" fill="black"/>
<path d="M381.774 358.783H379.743V347.173H376.133V345.72C379.258 345.33 379.727 344.986 380.43 342.47H381.774V358.783Z" fill="black"/>
<path d="M398.375 353.376C398.375 356.83 396.078 359.126 392.781 359.126C389.89 359.126 388.046 357.845 387.39 354.595H389.406C389.89 356.439 390.968 357.33 392.734 357.33C394.953 357.33 396.312 356.001 396.312 353.658C396.312 351.236 394.921 349.83 392.734 349.83C391.484 349.83 390.687 350.22 389.75 351.361H387.89L389.109 342.814H397.531V344.814H390.734L390.093 349.033C391.046 348.345 391.953 348.048 393.109 348.048C396.234 348.048 398.375 350.158 398.375 353.376Z" fill="black"/>
<path d="M407.319 345.97C407.319 347.876 405.881 349.33 403.959 349.33C402.053 349.33 400.6 347.876 400.6 345.97C400.6 344.064 402.053 342.611 403.959 342.611C405.881 342.611 407.319 344.064 407.319 345.97ZM406.225 345.97C406.225 344.751 405.178 343.595 403.959 343.595C402.741 343.595 401.709 344.751 401.709 345.97C401.709 347.189 402.741 348.345 403.959 348.345C405.178 348.345 406.225 347.189 406.225 345.97Z" fill="black"/>
</g>
</g>
<defs>
<clipPath id="clip0_41_1583">
<rect width="438" height="416" fill="white"/>
</clipPath>
<clipPath id="clip1_41_1583">
<rect width="500" height="500" fill="white" transform="translate(-18 -42)"/>
</clipPath>
</defs>
</svg>
