<svg width="438" height="416" viewBox="0 0 438 416" fill="none" xmlns="http://www.w3.org/2000/svg">
<g clip-path="url(#clip0_41_1585)">
<rect width="438" height="416" fill="white"/>
<g clip-path="url(#clip1_41_1585)">
<path d="M530 -92H-70V508H530V-92Z" fill="white"/>
<path d="M-4 -26H464V442H-4V-26Z" fill="white"/>
<path d="M315.168 208L314.953 201.992L314.32 196.016L313.266 190.098L311.793 184.27L309.918 178.559L307.641 172.992L304.977 167.605L301.941 162.414L298.547 157.453L294.809 152.746L290.75 148.312L286.391 144.176L281.746 140.355L276.848 136.875L271.711 133.746L266.371 130.988L260.848 128.617L255.172 126.637L249.371 125.066L243.473 123.906L237.508 123.164L231.504 122.848L225.492 122.953L219.504 123.48L213.57 124.434L207.715 125.801L201.973 127.578L196.371 129.754L190.934 132.32L185.691 135.266L180.672 138.57L175.898 142.223L171.395 146.203L167.18 150.492L163.281 155.066L159.711 159.906L156.496 164.984L153.645 170.273L151.172 175.754L149.094 181.395L147.418 187.168L146.156 193.047L145.309 198.996L144.887 204.996V211.004L145.309 217.004L146.156 222.953L147.418 228.832L149.094 234.605L151.172 240.246L153.645 245.727L156.496 251.016L159.711 256.094L163.281 260.934L167.18 265.508L171.395 269.797L175.898 273.777L180.672 277.43L185.691 280.734L190.934 283.68L196.371 286.246L201.973 288.422L207.715 290.199L213.57 291.566L219.504 292.52L225.492 293.047L231.504 293.152L237.508 292.836L243.473 292.094L249.371 290.934L255.172 289.363L260.848 287.383L266.371 285.012L271.711 282.254L276.848 279.125L281.746 275.645L286.391 271.824L290.75 267.688L294.809 263.254L298.547 258.547L301.941 253.586L304.977 248.395L307.641 243.008L309.918 237.441L311.793 231.73L313.266 225.902L314.32 219.984L314.953 214.008L315.168 208Z" stroke="black" stroke-opacity="0.5" stroke-width="0.3" stroke-miterlimit="2"/>
<path d="M400.336 208L399.91 195.984L398.641 184.031L396.527 172.195L393.586 160.535L389.832 149.113L385.281 137.988L379.953 127.207L373.883 116.832L367.094 106.91L359.621 97.4922L351.504 88.625L342.781 80.3516L333.492 72.7109L323.691 65.75L313.426 59.4961L302.742 53.9805L291.695 49.2305L280.344 45.2773L268.738 42.1289L256.941 39.8086L245.012 38.3281L233.008 37.6914L220.984 37.9062L209.008 38.9648L197.137 40.8672L185.43 43.6016L173.945 47.1523L162.738 51.5078L151.867 56.6445L141.387 62.5312L131.344 69.1445L121.797 76.4492L112.785 84.4102L104.359 92.9844L96.5586 102.133L89.4258 111.812L82.9883 121.965L77.2891 132.551L72.3438 143.512L68.1875 154.793L64.8398 166.34L62.3125 178.094L60.6211 189.996L59.7734 201.988V214.012L60.6211 226.004L62.3125 237.906L64.8398 249.66L68.1875 261.207L72.3438 272.488L77.2891 283.449L82.9883 294.035L89.4258 304.188L96.5586 313.867L104.359 323.016L112.785 331.59L121.797 339.551L131.344 346.855L141.387 353.469L151.867 359.355L162.738 364.492L173.945 368.848L185.43 372.398L197.137 375.133L209.008 377.035L220.984 378.094L233.008 378.309L245.012 377.672L256.941 376.191L268.738 373.871L280.344 370.723L291.695 366.77L302.742 362.02L313.426 356.504L323.691 350.25L333.492 343.289L342.781 335.648L351.504 327.375L359.621 318.508L367.094 309.09L373.883 299.168L379.953 288.793L385.281 278.012L389.832 266.887L393.586 255.465L396.527 243.805L398.641 231.969L399.91 220.016L400.336 208Z" stroke="black" stroke-opacity="0.5" stroke-width="0.3" stroke-miterlimit="2"/>
<path d="M230 208H408.438" stroke="black" stroke-opacity="0.5" stroke-width="0.3" stroke-miterlimit="1.1547"/>
<path d="M230 208L356.172 81.8281" stroke="black" stroke-opacity="0.5" stroke-width="0.3" stroke-miterlimit="1.1547"/>
<path d="M230 208V29.5625" stroke="black" stroke-opacity="0.5" stroke-width="0.3" stroke-miterlimit="1.1547"/>
<path d="M230 208L103.828 81.8281" stroke="black" stroke-opacity="0.5" stroke-width="0.3" stroke-miterlimit="1.1547"/>
<path d="M230 208H51.5625" stroke="black" stroke-opacity="0.5" stroke-width="0.3" stroke-miterlimit="1.1547"/>
<path d="M230 208L103.828 334.172" stroke="black" stroke-opacity="0.5" stroke-width="0.3" stroke-miterlimit="1.1547"/>
<path d="M230 208V386.438" stroke="black" stroke-opacity="0.5" stroke-width="0.3" stroke-miterlimit="1.1547"/>
<path d="M230 208L356.172 334.172" stroke="black" stroke-opacity="0.5" stroke-width="0.3" stroke-miterlimit="1.1547"/>
<path d="M106.141 95.4531L111.789 98.5547L117.891 101.949L124.488 105.672L131.641 109.77L139.395 114.289L147.805 119.273L156.914 124.773L166.758 130.828L177.348 137.477L188.664 144.734L200.66 152.594L213.234 161.02L226.242 169.938L239.488 179.234L252.754 188.77L265.824 198.375L278.48 207.898L290.555 217.184L301.926 226.113L312.512 234.605L322.293 242.598L331.27 250.074L339.48 257.027L346.977 263.48L353.812 269.453L360.055 274.98L365.758 280.098L370.98 284.844L375.777 289.246" stroke="#7F7F7F" stroke-width="0.25" stroke-miterlimit="2"/>
<path d="M288.875 365.312L290.297 358.664L291.758 351.512L293.25 343.812L294.758 335.516L296.266 326.578L297.758 316.957L299.199 306.617L300.562 295.543L301.812 283.727L302.902 271.199L303.797 258.016L304.449 244.262L304.824 230.07L304.898 215.594L304.66 201.008L304.109 186.508L303.262 172.266L302.148 158.449L300.812 145.188L299.289 132.574L297.633 120.672L295.883 109.512L294.074 99.0898L292.242 89.3945L290.414 80.3906L288.609 72.0352L286.844 64.2852L285.129 57.0938L283.477 50.4141" stroke="#7F7F7F" stroke-width="0.25" stroke-miterlimit="2"/>
<path d="M162.477 53.0938L166.621 54.457L170.867 55.8984L175.223 57.4219L179.684 59.0312L184.25 60.7266L188.93 62.5195L193.715 64.4141L198.609 66.4062L203.609 68.5117L208.711 70.7266L213.914 73.0547L219.215 75.5039L224.605 78.0742L230.082 80.7734L235.637 83.5938L241.258 86.543L246.941 89.6211L252.672 92.8242L258.441 96.1523L264.234 99.6016L270.043 103.168L275.852 106.848L281.641 110.633L287.406 114.516L293.125 118.488L298.789 122.543L304.383 126.668L309.895 130.855L315.312 135.09L320.629 139.367L325.828 143.668L330.906 147.988L335.852 152.316L340.664 156.637L345.34 160.945L349.867 165.23L354.254 169.488L358.496 173.703L362.59 177.875L366.543 181.996L370.352 186.062L374.02 190.066L377.555 194.004L380.953 197.875L384.223 201.676L387.367 205.406L390.391 209.062L393.297 212.648L396.09 216.156L398.781 219.594" stroke="#7F7F7F" stroke-width="0.25" stroke-miterlimit="2"/>
<path d="M255.051 376.09L255.727 370.082L256.43 363.609L257.164 356.625L257.926 349.074L258.707 340.906L259.508 332.062L260.312 322.488L261.117 312.133L261.898 300.969L262.641 288.973L263.32 276.16L263.914 262.582L264.402 248.328L264.754 233.535L264.961 218.387L265.004 203.09L264.887 187.871L264.617 172.945L264.207 158.5L263.68 144.695L263.062 131.629L262.371 119.371L261.637 107.938L260.875 97.3281L260.105 87.5117L259.34 78.4375L258.59 70.0625L257.859 62.3203L257.156 55.1641L256.48 48.5352L255.84 42.3828" stroke="#7F7F7F" stroke-width="0.25" stroke-miterlimit="2"/>
<path d="M75.957 137.168L79.7891 133.672L83.7422 130.152L87.8125 126.625L92.0039 123.09L96.3164 119.551L100.746 116.02L105.289 112.496L109.953 108.992L114.723 105.508L119.602 102.059L124.586 98.6406L129.664 95.2695L134.836 91.9531L140.094 88.6914L145.43 85.4922L150.836 82.3672L156.301 79.3164L161.816 76.3516L167.379 73.4727L172.973 70.6875L178.59 67.9961L184.223 65.4062L189.859 62.918L195.492 60.5352L201.109 58.2578L206.703 56.0859L212.262 54.0195L217.785 52.0625L223.262 50.207L228.684 48.457L234.043 46.8125L239.34 45.2617L244.566 43.8125L249.719 42.457L254.789 41.1914" stroke="#7F7F7F" stroke-width="0.25" stroke-miterlimit="2"/>
<path d="M212.512 373.844L212.145 367.652L211.77 360.973L211.398 353.758L211.027 345.953L210.668 337.5L210.32 328.344L210 318.422L209.715 307.695L209.477 296.137L209.297 283.73L209.195 270.512L209.18 256.539L209.27 241.934L209.473 226.848L209.793 211.484L210.227 196.066L210.77 180.824L211.41 165.977L212.129 151.695L212.906 138.121L213.727 125.34L214.574 113.398L215.434 102.297L216.289 92.0195L217.133 82.5312L217.965 73.7695L218.773 65.6875L219.559 58.2266L220.316 51.3242L221.051 44.9297L221.758 38.9961" stroke="#7F7F7F" stroke-width="0.25" stroke-miterlimit="2"/>
<path d="M59.9648 209.875L62.7344 206.406L65.6172 202.871L68.6094 199.266L71.7227 195.594L74.9531 191.852L78.3125 188.051L81.8008 184.184L85.4258 180.258L89.1836 176.277L93.0781 172.242L97.1172 168.164L101.293 164.043L105.613 159.891L110.078 155.707L114.68 151.508L119.418 147.293L124.293 143.078L129.297 138.871L134.422 134.684L139.66 130.52L145.008 126.398L150.453 122.324L155.984 118.305L161.59 114.359L167.262 110.488L172.98 106.703L178.738 103.016L184.516 99.4297L190.305 95.9492L196.094 92.5859L201.863 89.3359L207.609 86.2109L213.312 83.207L218.969 80.3281L224.562 77.5742L230.086 74.9414L235.539 72.4336L240.902 70.0469L246.18 67.7734L251.367 65.6172L256.453 63.5742L261.438 61.6367L266.32 59.8008L271.098 58.0664L275.77 56.4258L280.336 54.8711L284.797 53.4062L289.156 52.0234L293.41 50.7148" stroke="#7F7F7F" stroke-width="0.25" stroke-miterlimit="2"/>
<path d="M173.871 368.336L172.633 361.922L171.371 355.023L170.094 347.598L168.816 339.598L167.555 330.977L166.324 321.684L165.148 311.684L164.059 300.945L163.094 289.457L162.281 277.223L161.672 264.281L161.297 250.707L161.199 236.609L161.398 222.129L161.914 207.441L162.746 192.738L163.883 178.207L165.289 164.027L166.934 150.355L168.77 137.305L170.75 124.953L172.832 113.352L174.973 102.512L177.137 92.4219L179.297 83.0547L181.434 74.375L183.531 66.332L185.57 58.875L187.551 51.9609L189.469 45.5391" stroke="#7F7F7F" stroke-width="0.25" stroke-miterlimit="2"/>
<path d="M338.477 338.164L342.125 333.781L345.742 329.305L349.328 324.742L352.867 320.102L356.363 315.379L359.805 310.59L363.184 305.734L366.5 300.824L369.742 295.859L372.914 290.855L376.004 285.812L379.012 280.746L381.934 275.656L384.766 270.555L387.504 265.449L390.148 260.348L392.703 255.258" stroke="#7F7F7F" stroke-width="0.25" stroke-miterlimit="2"/>
<path d="M136.418 344.445L134.629 336.719L132.867 328.453L131.148 319.621L129.512 310.188L127.98 300.141L126.602 289.469L125.41 278.18L124.457 266.301L123.781 253.883L123.43 240.996L123.434 227.738L123.82 214.23L124.605 200.609L125.777 187.016L127.328 173.598L129.219 160.48L131.41 147.781L133.855 135.594L136.5 123.98L139.293 112.988L142.191 102.629L145.145 92.9141L148.125 83.8203L151.094 75.3281L154.031 67.4062L156.918 60.0195L159.742 53.1289" stroke="#7F7F7F" stroke-width="0.25" stroke-miterlimit="2"/>
<path d="M122.805 79.8008L125.77 81.8828L128.832 84.0508L131.988 86.3008L135.25 88.6445L138.613 91.082L142.086 93.6211L145.676 96.2695L149.383 99.0234L153.211 101.898L157.168 104.891L161.25 108.012L165.465 111.262L169.812 114.648L174.293 118.172L178.91 121.836L183.66 125.648L188.539 129.602L193.547 133.703L198.68 137.949L203.926 142.336L209.281 146.863L214.73 151.523L220.262 156.305L225.867 161.199L231.523 166.199L237.219 171.289L242.93 176.453L248.645 181.68L254.34 186.945L259.996 192.234L265.594 197.531L271.121 202.816L276.559 208.074L281.891 213.289L287.105 218.445L292.191 223.527L297.141 228.523L301.941 233.426L306.598 238.227L311.102 242.914L315.445 247.484L319.641 251.938L323.68 256.266L327.566 260.473L331.309 264.555L334.902 268.512L338.355 272.348L341.676 276.062L344.867 279.66L347.93 283.145L350.875 286.52L353.707 289.785L356.43 292.945L359.047 296.012L361.566 298.977L363.996 301.852L366.332 304.641" stroke="#7F7F7F" stroke-width="0.25" stroke-miterlimit="2"/>
<path d="M74.2031 273.859L80.5703 282.762L87.375 291.688L94.6016 300.578L102.223 309.359L110.195 317.969L118.473 326.344L126.996 334.422L135.699 342.152L144.52 349.496L153.391 356.422L162.25 362.906" stroke="#7F7F7F" stroke-width="0.25" stroke-miterlimit="2"/>
<path d="M62.1406 182.852L67.8047 177.355L73.9219 171.641L80.5273 165.711L87.6484 159.586L95.3242 153.285L103.566 146.836L112.391 140.285L121.793 133.684L131.762 127.086L142.254 120.559L153.219 114.176L164.574 108.008L176.234 102.129L188.086 96.5938L200.02 91.457L211.918 86.7539L223.676 82.5L235.195 78.707L246.395 75.3594L257.211 72.4453L267.59 69.9258L277.512 67.7773L286.957 65.9609L295.918 64.4414L304.402 63.1797L312.426 62.1445" stroke="#7F7F7F" stroke-width="0.25" stroke-miterlimit="2"/>
<path d="M101.25 313.766L106.492 309.875L112.191 305.645L118.398 301.039L125.18 296.012L132.59 290.512L140.688 284.496L149.527 277.914L159.156 270.738L169.594 262.941L180.824 254.523L192.793 245.523L205.402 236.016L218.48 226.109L231.824 215.965L245.191 205.762L258.348 195.68L271.07 185.895L283.184 176.543L294.57 167.723L305.164 159.5L314.945 151.887L323.926 144.887L332.152 138.465L339.672 132.59L346.551 127.215L352.848 122.297L358.625 117.785L363.938 113.645L368.832 109.836" stroke="#7F7F7F" stroke-width="0.25" stroke-miterlimit="2"/>
<path d="M78.1758 136.535L79.9961 140.168L81.8906 143.91L83.8633 147.762L85.9258 151.727L88.0742 155.805L90.3203 160L92.6641 164.316L95.1133 168.75L97.668 173.309L100.34 177.98L103.129 182.773L106.039 187.684L109.07 192.707L112.234 197.84L115.523 203.074L118.949 208.402L122.504 213.82L126.188 219.32L130 224.883L133.938 230.504L137.996 236.168L142.172 241.859L146.449 247.562L150.828 253.266L155.293 258.949L159.836 264.598L164.441 270.199L169.102 275.73L173.801 281.184L178.523 286.547L183.258 291.801L187.988 296.941L192.707 301.957L197.398 306.836L202.055 311.582L206.66 316.18L211.211 320.633L215.695 324.938L220.109 329.094L224.441 333.102L228.691 336.965L232.852 340.684L236.926 344.262L240.906 347.703L244.789 351.012L248.578 354.195L252.273 357.254L255.875 360.195L259.383 363.02L262.801 365.742L266.125 368.355L269.359 370.875" stroke="#7F7F7F" stroke-width="0.25" stroke-miterlimit="2"/>
<path d="M226.242 169.938L239.488 179.234L252.754 188.77L265.824 198.375" stroke="#0000FF" stroke-width="3" stroke-miterlimit="2"/>
<path d="M304.824 230.07L304.898 215.594L304.66 201.008L304.109 186.508" stroke="#0012F6" stroke-width="3" stroke-miterlimit="2"/>
<path d="M281.641 110.633L287.406 114.516L293.125 118.488L298.789 122.543L304.383 126.668" stroke="#0024ED" stroke-width="3" stroke-miterlimit="2"/>
<path d="M264.754 233.535L264.961 218.387L265.004 203.09L264.887 187.871" stroke="#0037E4" stroke-width="3" stroke-miterlimit="2"/>
<path d="M150.836 82.3672L156.301 79.3164L161.816 76.3516L167.379 73.4727" stroke="#0049DB" stroke-width="3" stroke-miterlimit="2"/>
<path d="M209.473 226.848L209.793 211.484L210.227 196.066L210.77 180.824" stroke="#005BD1" stroke-width="3" stroke-miterlimit="2"/>
<path d="M155.984 118.305L161.59 114.359L167.262 110.488L172.98 106.703" stroke="#006DC8" stroke-width="3" stroke-miterlimit="2"/>
<path d="M161.199 236.609L161.398 222.129L161.914 207.441L162.746 192.738L163.883 178.207" stroke="#0080BF" stroke-width="3" stroke-miterlimit="2"/>
<path d="M363.184 305.734L366.5 300.824L369.742 295.859L372.914 290.855" stroke="#0092B6" stroke-width="3" stroke-miterlimit="2"/>
<path d="M123.82 214.23L124.605 200.609L125.777 187.016L127.328 173.598" stroke="#00A4AD" stroke-width="3" stroke-miterlimit="2"/>
<path d="M242.93 176.453L248.645 181.68L254.34 186.945L259.996 192.234" stroke="#00B6A4" stroke-width="3" stroke-miterlimit="2"/>
<path d="M102.223 309.359L110.195 317.969L118.473 326.344L126.996 334.422" stroke="#00C89B" stroke-width="3" stroke-miterlimit="2"/>
<path d="M153.219 114.176L164.574 108.008L176.234 102.129L188.086 96.5938L200.02 91.457" stroke="#00DB92" stroke-width="3" stroke-miterlimit="2"/>
<path d="M218.48 226.109L231.824 215.965L245.191 205.762L258.348 195.68" stroke="#00ED89" stroke-width="3" stroke-miterlimit="2"/>
<path d="M150.828 253.266L155.293 258.949L159.836 264.598L164.441 270.199L169.102 275.73" stroke="#00FF80" stroke-width="3" stroke-miterlimit="2"/>
<path d="M265.824 198.375L266.621 199L267.023 199.312L267.422 199.629L268.219 200.254L268.621 200.566L269.02 200.883L269.816 201.508L270.215 201.824L270.613 202.137L271.012 202.453L271.41 202.766L271.809 203.082L272.207 203.395L273.004 204.027L273.398 204.344L273.797 204.656L274.594 205.289L274.988 205.605L275.785 206.238L276.18 206.555L276.578 206.871L276.973 207.188L277.371 207.504L277.766 207.82L278.164 208.137L278.559 208.457L278.957 208.773L279.746 209.406L280.145 209.727L280.539 210.043L280.934 210.363L281.328 210.68L281.727 211L282.121 211.316L282.91 211.957L283.305 212.273L285.672 214.195L286.062 214.516L287.641 215.797L288.031 216.117L288.426 216.438L288.816 216.762L289.605 217.402L289.996 217.727L290.391 218.047L290.781 218.367L291.172 218.691L291.566 219.012L291.957 219.336L292.352 219.66L292.742 219.98L293.523 220.629L293.918 220.953L294.309 221.273L297.434 223.867L297.824 224.195L298.605 224.844L298.992 225.168L299.383 225.496L299.773 225.82L300.164 226.148L300.551 226.473L300.941 226.797L301.328 227.125L301.719 227.453L302.109 227.777L302.883 228.434L303.273 228.758L303.66 229.086L304.051 229.414L304.824 230.07" stroke="#0000FF" stroke-miterlimit="2" stroke-dasharray="3 3"/>
<path d="M304.109 186.508L303.938 185.727L303.77 184.945L303.598 184.168L303.422 183.387L303.25 182.605L302.898 181.051L302.719 180.27L302.18 177.938L301.996 177.156L301.629 175.602L301.441 174.828L301.258 174.051L301.066 173.273L300.879 172.496L300.688 171.723L300.496 170.945L300.305 170.172L300.109 169.395L299.719 167.848L299.52 167.07L299.324 166.297L299.125 165.523L298.516 163.203L298.312 162.434L297.898 160.887L297.691 160.117L297.484 159.344L297.273 158.574L297.062 157.801L296.848 157.031L296.637 156.262L296.422 155.492L296.203 154.723L295.988 153.953L295.551 152.414L295.328 151.645L295.105 150.879L294.883 150.109L294.66 149.344L294.434 148.574L293.98 147.043L293.75 146.273L293.059 143.977L292.824 143.211L292.59 142.449L292.352 141.684L292.117 140.918L291.875 140.156L291.637 139.391L291.398 138.629L291.156 137.867L290.91 137.102L290.668 136.34L290.176 134.816L289.926 134.055L289.68 133.297L289.426 132.535L289.176 131.773L288.922 131.016L288.668 130.254L288.414 129.496L288.156 128.738L287.902 127.977L287.641 127.219L287.383 126.461L287.121 125.703L286.859 124.949L286.594 124.191L286.332 123.434L286.062 122.68L285.797 121.922L285.258 120.414L284.988 119.656L284.168 117.395L283.895 116.645L283.617 115.891L283.336 115.137L283.059 114.387L282.777 113.633L282.496 112.883L282.211 112.133L281.93 111.383L281.641 110.633" stroke="#0012F6" stroke-miterlimit="2" stroke-dasharray="3 3"/>
<path d="M304.383 126.668L303.719 128.879L303.383 129.98L302.711 132.191L302.371 133.293L302.027 134.395L301.688 135.496L301.344 136.598L300.996 137.699L300.652 138.797L300.301 139.898L299.953 140.996L299.25 143.191L298.539 145.387L298.18 146.484L297.824 147.578L297.461 148.676L297.102 149.77L296.375 151.957L295.641 154.145L295.273 155.234L294.902 156.328L294.16 158.508L293.41 160.688L292.652 162.867L291.895 165.039L291.512 166.129L291.129 167.215L290.355 169.387L289.969 170.469L289.578 171.555L289.188 172.637L288.797 173.723L287.613 176.969L287.215 178.047L286.816 179.129L286.414 180.211L286.016 181.289L285.613 182.367L283.988 186.68L283.578 187.754L283.168 188.832L282.758 189.906L281.93 192.055L281.094 194.203L280.676 195.273L280.258 196.348L279.414 198.488L278.988 199.559L278.566 200.629L278.141 201.699L277.711 202.77L277.281 203.836L276.852 204.906L276.422 205.973L275.555 208.105L275.117 209.172L274.684 210.238L274.246 211.301L273.805 212.367L272.48 215.555L271.59 217.68L271.145 218.738L270.695 219.801L269.797 221.918L268.438 225.094L267.98 226.152L267.066 228.262L266.605 229.32L265.684 231.43L265.219 232.48L264.754 233.535" stroke="#0024ED" stroke-miterlimit="2" stroke-dasharray="3 3"/>
<path d="M264.887 187.871L263.824 186.719L262.758 185.566L261.688 184.418L260.621 183.27L259.547 182.121L258.477 180.977L257.402 179.836L255.246 177.555L254.168 176.418L253.086 175.281L252 174.145L250.918 173.012L249.828 171.879L248.742 170.75L247.648 169.621L246.559 168.496L245.465 167.371L242.172 164.008L239.969 161.773L237.758 159.547L236.648 158.434L235.539 157.324L234.43 156.219L233.316 155.109L232.199 154.008L231.082 152.902L229.965 151.805L228.844 150.703L227.723 149.605L226.602 148.512L225.473 147.418L224.348 146.324L223.219 145.234L222.086 144.145L219.82 141.973L217.547 139.809L216.406 138.727L215.266 137.648L211.832 134.426L210.684 133.355L209.531 132.289L208.379 131.219L207.227 130.156L206.07 129.094L204.91 128.031L203.754 126.973L202.59 125.914L201.43 124.855L200.262 123.805L199.098 122.75L197.926 121.703L196.758 120.652L195.586 119.605L193.234 117.52L190.875 115.441L189.695 114.406L188.512 113.371L186.137 111.309L184.949 110.281L183.758 109.254L181.367 107.207L180.172 106.188L178.973 105.168L177.773 104.152L176.57 103.141L174.156 101.117L172.949 100.109L171.738 99.1055L170.523 98.1016L169.309 97.1016L165.652 94.1133L164.43 93.1211L161.977 91.1445L160.746 90.1602L159.516 89.1797L157.047 87.2188L155.809 86.2461L154.566 85.2695L152.082 83.332L150.836 82.3672" stroke="#0037E4" stroke-miterlimit="2" stroke-dasharray="3 3"/>
<path d="M167.379 73.4727L168.051 76.6211L168.73 79.7695L169.074 81.3398L169.418 82.9141L170.113 86.0547L170.465 87.625L171.176 90.7656L171.531 92.332L171.895 93.9023L172.254 95.4688L172.617 97.0352L173.352 100.168L174.094 103.301L174.844 106.426L175.219 107.992L175.598 109.555L175.98 111.117L176.363 112.676L177.137 115.801L177.523 117.359L177.914 118.918L179.098 123.594L179.895 126.711L180.297 128.266L180.703 129.82L181.105 131.379L181.512 132.934L182.332 136.043L182.746 137.594L183.16 139.148L183.574 140.699L183.992 142.254L184.41 143.805L185.254 146.906L185.68 148.457L186.105 150.004L186.531 151.555L186.961 153.102L187.395 154.648L187.824 156.199L188.262 157.746L188.695 159.293L189.133 160.836L190.016 163.93L190.457 165.473L191.793 170.102L192.242 171.645L193.148 174.73L193.602 176.27L194.059 177.812L194.973 180.891L195.895 183.969L196.359 185.508L196.824 187.043L197.293 188.582L197.758 190.117L198.23 191.652L198.699 193.188L199.176 194.723L199.648 196.258L200.602 199.328L201.562 202.391L202.047 203.926L203.016 206.988L203.504 208.52L203.992 210.047L204.484 211.578L204.977 213.105L205.469 214.637L206.957 219.219L207.457 220.746L207.961 222.27L208.461 223.797L208.969 225.32L209.473 226.848" stroke="#0049DB" stroke-miterlimit="2" stroke-dasharray="3 3"/>
<path d="M210.77 180.824L208.016 177.66L207.465 177.023L206.91 176.391L204.156 173.227L203.602 172.594L201.949 170.695L201.395 170.062L200.293 168.797L199.738 168.164L198.086 166.266L197.531 165.633L196.98 165L196.426 164.367L195.324 163.102L194.77 162.469L194.219 161.836L193.664 161.207L192.562 159.941L192.008 159.309L191.457 158.676L190.902 158.043L190.352 157.41L189.797 156.781L189.246 156.148L188.137 154.883L187.586 154.254L187.031 153.621L186.48 152.988L185.926 152.355L185.375 151.727L184.266 150.461L183.715 149.832L182.605 148.566L182.055 147.938L180.945 146.672L180.395 146.043L179.285 144.777L178.73 144.148L178.18 143.516L177.625 142.887L177.07 142.254L176.516 141.625L175.961 140.992L175.406 140.363L174.855 139.73L174.301 139.102L173.746 138.469L173.191 137.84L172.637 137.207L172.082 136.578L171.527 135.945L170.973 135.316L170.418 134.684L169.863 134.055L169.312 133.422L168.203 132.164L167.648 131.531L167.094 130.902L166.535 130.273L165.98 129.641L164.871 128.383L164.316 127.75L162.652 125.863L162.098 125.23L161.543 124.602L160.984 123.973L160.43 123.344L159.875 122.711L158.766 121.453L158.207 120.824L157.098 119.566L156.543 118.934L155.984 118.305" stroke="#005BD1" stroke-miterlimit="2" stroke-dasharray="3 3"/>
<path d="M172.98 106.703L172.711 108.004L172.445 109.301L172.184 110.602L171.926 111.902L171.672 113.199L171.418 114.5L171.168 115.801L170.922 117.105L170.68 118.406L170.441 119.707L170.203 121.012L169.973 122.312L169.742 123.617L169.289 126.227L168.852 128.836L168.637 130.141L168.426 131.445L168.219 132.75L168.016 134.059L167.812 135.363L167.613 136.672L167.418 137.977L167.035 140.594L166.848 141.902L166.668 143.211L166.484 144.52L166.133 147.137L165.965 148.445L165.793 149.758L165.629 151.066L165.469 152.379L165.309 153.688L165.152 155L165 156.312L164.848 157.621L164.414 161.559L164.141 164.184L164.008 165.496L163.879 166.809L163.754 168.121L163.629 169.438L163.508 170.75L163.391 172.062L163.277 173.379L163.164 174.691L163.059 176.008L162.949 177.32L162.746 179.953L162.652 181.266L162.555 182.582L162.375 185.215L162.293 186.531L162.207 187.848L162.129 189.16L162.051 190.477L161.98 191.793L161.906 193.113L161.773 195.746L161.711 197.062L161.652 198.379L161.543 201.012L161.492 202.332L161.445 203.648L161.402 204.965L161.359 206.285L161.32 207.602L161.285 208.918L161.25 210.238L161.219 211.555L161.191 212.875L161.168 214.191L161.148 215.512L161.129 216.828L161.113 218.148L161.098 219.465L161.09 220.785L161.082 222.102L161.078 223.422V226.059L161.082 227.375L161.09 228.695L161.102 230.016L161.113 231.332L161.133 232.652L161.152 233.969L161.172 235.289L161.199 236.609" stroke="#006DC8" stroke-miterlimit="2" stroke-dasharray="3 3"/>
<path d="M163.883 178.207L165.844 179.574L167.805 180.938L169.77 182.297L171.734 183.66L173.703 185.02L175.672 186.375L177.637 187.73L179.609 189.086L181.578 190.441L183.551 191.793L187.496 194.488L189.473 195.836L195.402 199.867L199.363 202.547L203.324 205.219L205.309 206.555L211.262 210.551L215.238 213.207L217.227 214.531L219.219 215.855L221.207 217.18L225.191 219.82L229.184 222.453L231.176 223.77L233.176 225.082L235.172 226.395L237.172 227.703L239.172 229.016L241.172 230.32L243.176 231.629L245.176 232.934L247.18 234.234L249.188 235.535L251.191 236.836L253.199 238.137L255.207 239.434L257.215 240.727L263.25 244.605L265.262 245.895L267.277 247.18L269.289 248.469L271.305 249.75L273.324 251.035L275.344 252.316L277.359 253.594L279.383 254.875L281.402 256.148L283.426 257.426L285.449 258.699L289.496 261.238L291.523 262.508L293.551 263.773L295.582 265.039L297.609 266.301L301.672 268.824L303.707 270.082L305.738 271.336L307.773 272.59L309.812 273.844L311.848 275.094L313.887 276.344L315.926 277.59L320.012 280.082L322.055 281.32L324.098 282.562L326.145 283.801L330.238 286.27L332.289 287.504L334.34 288.734L336.391 289.961L338.445 291.188L340.496 292.41L342.555 293.633L344.609 294.852L346.668 296.07L348.727 297.285L350.789 298.5L354.914 300.922L356.98 302.129L361.113 304.535L363.184 305.734" stroke="#0080BF" stroke-miterlimit="2" stroke-dasharray="3 3"/>
<path d="M372.914 290.855L370.27 290.523L367.633 290.18L364.992 289.82L362.359 289.453L359.727 289.074L357.098 288.688L354.469 288.285L351.844 287.875L349.223 287.453L346.602 287.023L343.984 286.578L341.371 286.125L338.758 285.664L336.148 285.191L333.543 284.707L330.938 284.215L328.336 283.711L325.734 283.199L323.137 282.68L320.543 282.148L317.953 281.609L315.363 281.059L312.773 280.5L310.188 279.93L307.605 279.355L305.027 278.77L302.449 278.172L299.875 277.57L297.301 276.957L294.73 276.336L292.164 275.707L289.598 275.066L287.035 274.422L284.477 273.766L281.918 273.102L279.363 272.43L276.812 271.75L274.262 271.062L271.715 270.363L269.168 269.66L266.625 268.945L264.086 268.227L261.547 267.496L259.012 266.758L256.48 266.012L253.949 265.258L251.422 264.5L248.898 263.73L246.375 262.953L243.855 262.168L241.336 261.375L238.824 260.574L236.309 259.766L233.801 258.949L231.293 258.129L228.789 257.297L226.289 256.457L223.789 255.609L221.293 254.754L218.797 253.895L216.309 253.023L213.82 252.148L211.332 251.262L208.852 250.367L206.371 249.469L203.891 248.562L201.418 247.645L198.945 246.723L196.477 245.793L194.012 244.852L191.547 243.906L189.086 242.953L186.629 241.992L184.172 241.023L181.723 240.047L179.273 239.059L176.828 238.066L174.383 237.066L171.945 236.059L169.508 235.043L167.074 234.02L164.641 232.988L162.215 231.949L159.789 230.902L157.367 229.848L154.949 228.785L152.535 227.715L150.125 226.637L147.715 225.551L145.312 224.453L142.91 223.352L140.512 222.242L138.117 221.121L135.727 219.992L133.336 218.859L130.953 217.715L128.57 216.562L126.195 215.398L123.82 214.23" stroke="#0092B6" stroke-miterlimit="2" stroke-dasharray="3 3"/>
<path d="M127.328 173.598L128.496 173.566L129.668 173.539L130.836 173.512L132.004 173.488L133.176 173.461L134.344 173.441L135.512 173.418L136.684 173.398L139.02 173.359L140.191 173.344L142.527 173.312L143.699 173.301L146.035 173.277L147.207 173.27L149.543 173.254L150.715 173.25L154.219 173.238H156.559L157.727 173.242H158.895L160.066 173.246L161.234 173.254L162.402 173.258L163.57 173.266L164.738 173.277L165.91 173.285L168.246 173.309L169.414 173.324L170.582 173.336L171.75 173.352L172.918 173.371L174.086 173.387L175.258 173.406L176.426 173.43L177.594 173.449L179.93 173.496L181.098 173.523L182.266 173.547L183.434 173.574L184.602 173.605L185.77 173.633L188.105 173.695L189.273 173.73L190.441 173.762L191.609 173.797L192.777 173.836L193.945 173.871L195.109 173.91L196.277 173.949L200.949 174.121L202.117 174.168L203.281 174.215L205.617 174.309L206.785 174.359L207.949 174.41L209.117 174.465L210.285 174.516L211.453 174.57L212.617 174.625L213.785 174.684L214.953 174.738L216.117 174.801L217.285 174.859L218.449 174.918L219.617 174.98L220.785 175.047L221.949 175.109L223.117 175.176L224.281 175.242L225.449 175.309L226.613 175.379L227.781 175.445L228.945 175.52L230.113 175.59L232.441 175.738L233.609 175.812L234.773 175.891L235.941 175.965L237.105 176.047L238.27 176.125L239.434 176.207L240.602 176.289L242.93 176.453" stroke="#00A4AD" stroke-miterlimit="2" stroke-dasharray="3 3"/>
<path d="M259.996 192.234L258.418 193.441L256.84 194.645L255.266 195.852L253.688 197.055L252.109 198.262L245.797 203.074L244.215 204.273L242.637 205.477L241.055 206.68L239.477 207.879L236.312 210.277L234.734 211.477L229.988 215.074L228.402 216.27L226.82 217.469L225.238 218.664L223.652 219.863L222.07 221.059L218.898 223.449L217.316 224.641L214.145 227.031L210.973 229.414L209.383 230.609L206.211 232.992L204.621 234.184L203.035 235.371L199.855 237.754L190.316 244.879L188.723 246.066L187.133 247.25L185.539 248.438L183.949 249.621L174.387 256.723L172.793 257.902L171.195 259.082L169.602 260.266L168.004 261.445L166.41 262.625L164.812 263.801L161.617 266.16L158.422 268.512L156.824 269.691L155.223 270.867L153.625 272.043L152.023 273.215L150.426 274.391L148.824 275.566L140.816 281.426L139.211 282.598L137.609 283.766L136.004 284.938L134.402 286.105L127.98 290.777L126.375 291.941L124.766 293.105L123.16 294.273L119.941 296.602L118.336 297.762L116.727 298.926L115.117 300.086L113.508 301.25L111.895 302.41L110.285 303.57L108.672 304.727L107.062 305.887L105.449 307.047L102.223 309.359" stroke="#00B6A4" stroke-miterlimit="2" stroke-dasharray="3 3"/>
<path d="M126.996 334.422L126.617 332.141L126.254 329.859L125.906 327.578L125.574 325.297L125.254 323.012L124.953 320.73L124.664 318.449L124.391 316.164L124.133 313.883L123.887 311.602L123.656 309.316L123.441 307.035L123.242 304.754L123.055 302.473L122.883 300.191L122.723 297.91L122.578 295.629L122.445 293.352L122.328 291.07L122.223 288.793L122.133 286.512L122.055 284.234L121.992 281.957L121.941 279.684L121.906 277.406L121.883 275.133L121.871 272.859L121.875 270.586L121.887 268.316L121.918 266.043L121.957 263.773L122.012 261.508L122.078 259.238L122.16 256.973L122.25 254.707L122.355 252.445L122.473 250.184L122.602 247.922L122.746 245.66L122.902 243.402L123.066 241.148L123.246 238.891L123.441 236.641L123.645 234.387L123.859 232.137L124.09 229.887L124.332 227.641L124.582 225.398L124.848 223.152L125.125 220.91L125.414 218.672L125.715 216.434L126.027 214.199L126.355 211.965L126.691 209.734L127.039 207.504L127.402 205.277L127.773 203.051L128.16 200.828L128.555 198.605L128.965 196.387L129.383 194.172L129.816 191.957L130.262 189.746L130.715 187.535L131.184 185.328L131.66 183.125L132.152 180.922L132.656 178.727L133.168 176.527L133.695 174.336L134.234 172.145L134.781 169.953L135.344 167.77L135.918 165.586L136.504 163.406L137.098 161.23L137.707 159.055L138.328 156.883L138.957 154.719L139.602 152.551L140.258 150.391L140.926 148.23L141.605 146.078L142.293 143.926L142.996 141.777L143.711 139.633L144.438 137.488L145.176 135.352L145.926 133.219L146.688 131.086L147.465 128.961L148.25 126.836L149.047 124.715L149.855 122.602L150.68 120.488L151.512 118.379L152.359 116.277L153.219 114.176" stroke="#00C89B" stroke-miterlimit="2" stroke-dasharray="3 3"/>
<path d="M200.02 91.457L200.168 92.8242L200.32 94.1875L200.473 95.5547L200.625 96.918L200.777 98.2852L201.246 102.375L201.402 103.742L201.559 105.105L201.719 106.469L201.875 107.832L202.035 109.199L202.195 110.562L202.359 111.926L202.52 113.289L203.176 118.742L203.512 121.469L203.676 122.832L203.848 124.195L204.016 125.555L204.184 126.918L204.527 129.645L204.699 131.004L204.871 132.367L205.047 133.73L205.219 135.094L205.395 136.453L205.57 137.816L205.746 139.176L205.926 140.539L206.102 141.898L206.281 143.262L206.461 144.621L206.641 145.984L206.82 147.344L207.004 148.707L207.184 150.066L207.367 151.426L207.551 152.789L207.734 154.148L207.922 155.508L208.105 156.867L208.293 158.23L208.855 162.309L209.047 163.668L209.234 165.027L209.426 166.387L209.617 167.75L209.809 169.109L210 170.465L210.391 173.184L210.582 174.543L210.777 175.902L210.977 177.262L211.367 179.98L211.566 181.336L212.164 185.414L212.367 186.77L212.566 188.129L212.77 189.488L212.973 190.844L213.176 192.203L213.379 193.559L213.586 194.918L213.789 196.273L213.996 197.633L214.203 198.988L214.41 200.348L214.617 201.703L214.828 203.059L215.039 204.418L215.246 205.773L215.668 208.484L215.883 209.844L216.094 211.199L217.168 217.977L217.387 219.332L217.602 220.688L218.258 224.754L218.48 226.109" stroke="#00DB92" stroke-miterlimit="2" stroke-dasharray="3 3"/>
<path d="M258.348 195.68L257.266 196.266L256.18 196.852L255.098 197.438L254.012 198.023L252.93 198.609L251.844 199.195L250.762 199.781L249.676 200.367L248.594 200.953L247.508 201.535L246.426 202.121L244.254 203.293L243.172 203.875L242.086 204.461L241.004 205.047L239.918 205.633L238.832 206.215L237.75 206.801L236.664 207.383L235.578 207.969L234.496 208.555L233.41 209.137L232.324 209.723L231.242 210.305L230.156 210.891L227.984 212.055L226.902 212.641L224.73 213.805L223.645 214.391L222.559 214.973L221.477 215.555L220.391 216.141L217.133 217.887L216.047 218.473L212.789 220.219L211.707 220.801L201.934 226.039L200.844 226.617L196.5 228.945L195.414 229.523L193.242 230.688L192.156 231.266L191.066 231.848L189.98 232.43L188.895 233.008L187.809 233.59L186.723 234.168L185.633 234.75L184.547 235.328L183.461 235.91L182.375 236.488L181.285 237.07L180.199 237.648L179.113 238.23L178.023 238.809L176.938 239.387L175.852 239.969L174.762 240.547L173.676 241.125L172.586 241.703L171.5 242.285L170.414 242.863L169.324 243.441L168.238 244.02L167.148 244.598L166.062 245.176L164.973 245.754L163.887 246.332L162.797 246.91L161.711 247.488L160.621 248.066L159.535 248.645L158.445 249.223L157.359 249.801L155.18 250.957L154.094 251.535L153.004 252.113L151.918 252.688L150.828 253.266" stroke="#00ED89" stroke-miterlimit="2" stroke-dasharray="3 3"/>
<mask id="mask0_41_1585" style="mask-type:luminance" maskUnits="userSpaceOnUse" x="-4" y="-26" width="468" height="468">
<path d="M-4 -26H464V442H-4V-26Z" fill="white"/>
</mask>
<g mask="url(#mask0_41_1585)">
<path fill-rule="evenodd" clip-rule="evenodd" d="M-1.78413e+06 1.78457e+06V-1.78415e+06H1.78459e+06V1.78457e+06H-1.78413e+06ZM408.5 208L408 195.375L406.625 182.875L404.5 170.5L401.375 158.25L397.375 146.25L392.625 134.625L387.125 123.375L380.75 112.5L373.625 102.125L365.75 92.25L357.25 83L348.125 74.25L338.375 66.25L328.125 59L317.375 52.375L306.25 46.625L294.625 41.625L282.75 37.5L270.625 34.25L258.25 31.75L245.75 30.25L233.125 29.625L220.5 29.75L208 30.875L195.625 32.875L183.25 35.75L171.25 39.5L159.5 44.125L148.125 49.5L137.125 55.625L126.625 62.5L116.625 70.25L107.25 78.5L98.375 87.5L90.25 97.125L82.75 107.25L76 117.875L70 129L64.875 140.5L60.5 152.25L57 164.375L54.375 176.625L52.5 189.125L51.625 201.75V214.25L52.5 226.875L54.375 239.375L57 251.625L60.5 263.75L64.875 275.5L70 287L76 298.125L82.75 308.75L90.25 318.875L98.375 328.5L107.25 337.5L116.625 345.75L126.625 353.5L137.125 360.375L148.125 366.5L159.5 371.875L171.25 376.5L183.25 380.25L195.625 383.125L208 385.125L220.5 386.25L233.125 386.375L245.75 385.75L258.25 384.25L270.625 381.75L282.75 378.5L294.625 374.375L306.25 369.375L317.375 363.625L328.125 357L338.375 349.75L348.125 341.75L357.25 333L365.75 323.75L373.625 313.875L380.75 303.5L387.125 292.625L392.625 281.375L397.375 269.75L401.375 257.75L404.5 245.5L406.625 233.125L408 220.625L408.5 208Z" fill="white"/>
</g>
<path d="M408.438 208L407.992 195.414L406.66 182.891L404.449 170.492L401.367 158.277L397.434 146.312L392.664 134.656L387.086 123.367L380.727 112.496L373.613 102.102L365.785 92.2344L357.281 82.9453L348.145 74.2773L338.418 66.2773L328.148 58.9844L317.395 52.4297L306.203 46.6523L294.633 41.6797L282.738 37.5352L270.582 34.2383L258.223 31.8086L245.727 30.2578L233.148 29.5938L220.555 29.8125L208.012 30.9258L195.574 32.918L183.312 35.7812L171.277 39.5039L159.539 44.0664L148.152 49.4453L137.172 55.6133L126.652 62.5391L116.648 70.1914L107.211 78.5312L98.3828 87.5156L90.2148 97.0977L82.7383 107.234L75.9961 117.875L70.0234 128.961L64.8477 140.445L60.4922 152.262L56.9844 164.355L54.3359 176.672L52.5625 189.141L51.6758 201.703V214.297L52.5625 226.859L54.3359 239.328L56.9844 251.645L60.4922 263.738L64.8477 275.555L70.0234 287.039L75.9961 298.125L82.7383 308.766L90.2148 318.902L98.3828 328.484L107.211 337.469L116.648 345.809L126.652 353.461L137.172 360.387L148.152 366.555L159.539 371.934L171.277 376.496L183.312 380.219L195.574 383.082L208.012 385.074L220.555 386.188L233.148 386.406L245.727 385.742L258.223 384.191L270.582 381.762L282.738 378.465L294.633 374.32L306.203 369.348L317.395 363.57L328.148 357.016L338.418 349.723L348.145 341.723L357.281 333.055L365.785 323.766L373.613 313.898L380.727 303.504L387.086 292.633L392.664 281.344L397.434 269.688L401.367 257.723L404.449 245.508L406.66 233.109L407.992 220.586L408.438 208Z" stroke="black" stroke-width="2" stroke-miterlimit="2"/>
<path d="M228.915 225.25C228.915 230.89 226.868 234.125 223.056 234.125C220.571 234.125 218.821 232.547 218.431 229.875H220.462C220.774 231.437 221.759 232.328 223.196 232.328C225.509 232.328 226.806 230.125 226.821 226.14C225.774 227.406 224.634 227.969 223.103 227.969C220.149 227.969 218.087 225.922 218.087 222.875C218.087 219.687 220.321 217.469 223.415 217.469C227.149 217.469 228.915 220.14 228.915 225.25ZM226.712 222.828C226.712 220.719 225.29 219.25 223.399 219.25C221.54 219.25 220.149 220.64 220.149 222.719C220.149 224.906 221.368 226.172 223.337 226.172C225.306 226.172 226.712 224.828 226.712 222.828Z" fill="black"/>
<path d="M241.656 225.937C241.656 231.297 239.781 234.125 236.328 234.125C232.828 234.125 230.984 231.297 230.984 225.797C230.984 220.328 232.812 217.469 236.328 217.469C239.859 217.469 241.656 220.281 241.656 225.937ZM239.594 225.75C239.594 221.39 238.516 219.265 236.328 219.265C234.141 219.265 233.062 221.359 233.062 225.828C233.062 230.281 234.141 232.453 236.281 232.453C238.531 232.453 239.594 230.375 239.594 225.75Z" fill="black"/>
<path d="M314.176 228.719C314.176 231.922 311.942 234.125 308.848 234.125C305.113 234.125 303.363 231.437 303.363 226.359C303.363 220.672 305.41 217.469 309.207 217.469C311.692 217.469 313.442 219.062 313.832 221.734H311.817C311.488 220.172 310.504 219.265 309.067 219.265C306.754 219.265 305.457 221.469 305.442 225.453C306.317 224.265 307.582 223.64 309.192 223.64C312.113 223.64 314.176 225.687 314.176 228.719ZM312.113 228.875C312.113 226.703 310.895 225.437 308.942 225.437C306.926 225.437 305.551 226.75 305.551 228.765C305.551 230.859 306.973 232.328 308.863 232.328C310.723 232.328 312.113 230.922 312.113 228.875Z" fill="black"/>
<path d="M326.823 225.937C326.823 231.297 324.948 234.125 321.495 234.125C317.995 234.125 316.151 231.297 316.151 225.797C316.151 220.328 317.98 217.469 321.495 217.469C325.026 217.469 326.823 220.281 326.823 225.937ZM324.761 225.75C324.761 221.39 323.683 219.265 321.495 219.265C319.308 219.265 318.23 221.359 318.23 225.828C318.23 230.281 319.308 232.453 321.448 232.453C323.698 232.453 324.761 230.375 324.761 225.75Z" fill="black"/>
<path d="M399.187 229.047C399.187 232.125 397.015 234.125 393.671 234.125C390.327 234.125 388.531 232.5 388.281 228.859H390.312C390.437 231.234 391.531 232.328 393.734 232.328C395.843 232.328 397.109 231.109 397.109 229.062C397.109 227.25 395.968 226.187 393.734 226.187H392.624V224.484C395.874 224.484 396.624 223.781 396.624 222.031C396.624 220.297 395.546 219.25 393.749 219.25C391.687 219.25 390.702 220.328 390.656 222.734H388.624C388.702 219.265 390.437 217.469 393.734 217.469C396.843 217.469 398.702 219.156 398.702 221.953C398.702 223.594 397.937 224.656 396.421 225.25C398.374 225.922 399.187 227.062 399.187 229.047Z" fill="black"/>
<path d="M411.99 225.937C411.99 231.297 410.115 234.125 406.662 234.125C403.162 234.125 401.319 231.297 401.319 225.797C401.319 220.328 403.147 217.469 406.662 217.469C410.194 217.469 411.99 220.281 411.99 225.937ZM409.928 225.75C409.928 221.39 408.85 219.265 406.662 219.265C404.475 219.265 403.397 221.359 403.397 225.828C403.397 230.281 404.475 232.453 406.615 232.453C408.865 232.453 409.928 230.375 409.928 225.75Z" fill="black"/>
<path d="M424.092 208.54C424.092 213.899 422.217 216.727 418.764 216.727C415.264 216.727 413.42 213.899 413.42 208.399C413.42 202.93 415.249 200.071 418.764 200.071C422.295 200.071 424.092 202.884 424.092 208.54ZM422.03 208.352C422.03 203.993 420.952 201.868 418.764 201.868C416.577 201.868 415.499 203.962 415.499 208.43C415.499 212.884 416.577 215.055 418.717 215.055C420.967 215.055 422.03 212.977 422.03 208.352Z" fill="black"/>
<path d="M433.177 203.571C433.177 205.477 431.74 206.93 429.818 206.93C427.911 206.93 426.458 205.477 426.458 203.571C426.458 201.665 427.911 200.212 429.818 200.212C431.74 200.212 433.177 201.665 433.177 203.571ZM432.083 203.571C432.083 202.352 431.036 201.196 429.818 201.196C428.599 201.196 427.568 202.352 427.568 203.571C427.568 204.79 428.599 205.946 429.818 205.946C431.036 205.946 432.083 204.79 432.083 203.571Z" fill="black"/>
<path d="M370.955 70.078H368.549V73.9843H366.517V70.078H359.642V67.9374L367.049 57.6718H368.549V68.2499H370.955V70.078ZM366.517 68.2499V61.1249L361.424 68.2499H366.517Z" fill="black"/>
<path d="M383.587 68.578C383.587 72.0311 381.29 74.328 377.993 74.328C375.102 74.328 373.258 73.0468 372.602 69.7968H374.618C375.102 71.6405 376.18 72.5311 377.946 72.5311C380.165 72.5311 381.524 71.203 381.524 68.8593C381.524 66.4374 380.133 65.0311 377.946 65.0311C376.696 65.0311 375.899 65.4218 374.962 66.5624H373.102L374.321 58.0155H382.743V60.0155H375.946L375.305 64.2343C376.258 63.5468 377.165 63.2499 378.321 63.2499C381.446 63.2499 383.587 65.3593 383.587 68.578Z" fill="black"/>
<path d="M392.531 61.1718C392.531 63.078 391.093 64.5311 389.171 64.5311C387.265 64.5311 385.812 63.078 385.812 61.1718C385.812 59.2655 387.265 57.8124 389.171 57.8124C391.093 57.8124 392.531 59.2655 392.531 61.1718ZM391.437 61.1718C391.437 59.953 390.39 58.7968 389.171 58.7968C387.953 58.7968 386.921 59.953 386.921 61.1718C386.921 62.3905 387.953 63.5468 389.171 63.5468C390.39 63.5468 391.437 62.3905 391.437 61.1718Z" fill="black"/>
<path d="M224.315 12.0188C224.315 17.6594 222.268 20.8938 218.456 20.8938C215.971 20.8938 214.221 19.3157 213.831 16.6438H215.862C216.174 18.2063 217.159 19.0969 218.596 19.0969C220.909 19.0969 222.206 16.8938 222.221 12.9094C221.174 14.175 220.034 14.7375 218.503 14.7375C215.549 14.7375 213.487 12.6907 213.487 9.6438C213.487 6.4563 215.721 4.23755 218.815 4.23755C222.549 4.23755 224.315 6.90942 224.315 12.0188ZM222.112 9.59692C222.112 7.48755 220.69 6.0188 218.799 6.0188C216.94 6.0188 215.549 7.40942 215.549 9.48755C215.549 11.675 216.768 12.9407 218.737 12.9407C220.706 12.9407 222.112 11.5969 222.112 9.59692Z" fill="black"/>
<path d="M237.056 12.7063C237.056 18.0657 235.181 20.8938 231.728 20.8938C228.228 20.8938 226.384 18.0657 226.384 12.5657C226.384 7.09692 228.212 4.23755 231.728 4.23755C235.259 4.23755 237.056 7.05005 237.056 12.7063ZM234.994 12.5188C234.994 8.15942 233.916 6.03442 231.728 6.03442C229.541 6.03442 228.462 8.12817 228.462 12.5969C228.462 17.05 229.541 19.2219 231.681 19.2219C233.931 19.2219 234.994 17.1438 234.994 12.5188Z" fill="black"/>
<path d="M246.141 7.73755C246.141 9.6438 244.704 11.0969 242.782 11.0969C240.875 11.0969 239.422 9.6438 239.422 7.73755C239.422 5.8313 240.875 4.37817 242.782 4.37817C244.704 4.37817 246.141 5.8313 246.141 7.73755ZM245.047 7.73755C245.047 6.5188 244 5.36255 242.782 5.36255C241.563 5.36255 240.532 6.5188 240.532 7.73755C240.532 8.9563 241.563 10.1125 242.782 10.1125C244 10.1125 245.047 8.9563 245.047 7.73755Z" fill="black"/>
<path d="M61.4186 73.9843H59.3874V62.3749H55.778V60.9218C58.903 60.5311 59.3718 60.1874 60.0749 57.6718H61.4186V73.9843Z" fill="black"/>
<path d="M77.8629 69.2499C77.8629 72.328 75.691 74.328 72.3473 74.328C69.0035 74.328 67.2066 72.703 66.9566 69.0624H68.9879C69.1129 71.4374 70.2066 72.5311 72.4098 72.5311C74.5191 72.5311 75.7848 71.3124 75.7848 69.2655C75.7848 67.453 74.6441 66.3905 72.4098 66.3905H71.3004V64.6874C74.5504 64.6874 75.3004 63.9843 75.3004 62.2343C75.3004 60.4999 74.2223 59.453 72.4254 59.453C70.3629 59.453 69.3785 60.5311 69.3316 62.9374H67.3004C67.3785 59.4686 69.1129 57.6718 72.4098 57.6718C75.5191 57.6718 77.3785 59.3593 77.3785 62.1561C77.3785 63.7968 76.6129 64.8593 75.0973 65.453C77.0504 66.1249 77.8629 67.2655 77.8629 69.2499Z" fill="black"/>
<path d="M90.8071 68.578C90.8071 72.0311 88.5103 74.328 85.2134 74.328C82.3228 74.328 80.479 73.0468 79.8228 69.7968H81.8384C82.3228 71.6405 83.4009 72.5311 85.1665 72.5311C87.3853 72.5311 88.7446 71.203 88.7446 68.8593C88.7446 66.4374 87.354 65.0311 85.1665 65.0311C83.9165 65.0311 83.1196 65.4218 82.1821 66.5624H80.3228L81.5415 58.0155H89.9634V60.0155H83.1665L82.5259 64.2343C83.479 63.5468 84.3853 63.2499 85.5415 63.2499C88.6665 63.2499 90.8071 65.3593 90.8071 68.578Z" fill="black"/>
<path d="M99.7514 61.1718C99.7514 63.078 98.3139 64.5311 96.392 64.5311C94.4857 64.5311 93.0326 63.078 93.0326 61.1718C93.0326 59.2655 94.4857 57.8124 96.392 57.8124C98.3139 57.8124 99.7514 59.2655 99.7514 61.1718ZM98.6576 61.1718C98.6576 59.953 97.6107 58.7968 96.392 58.7968C95.1732 58.7968 94.142 59.953 94.142 61.1718C94.142 62.3905 95.1732 63.5468 96.392 63.5468C97.6107 63.5468 98.6576 62.3905 98.6576 61.1718Z" fill="black"/>
<path d="M7.98438 216.384H5.95312V204.774H2.34375V203.321C5.46875 202.93 5.9375 202.587 6.64062 200.071H7.98438V216.384Z" fill="black"/>
<path d="M24.5849 211.79C24.5849 214.743 22.3349 216.727 19.1161 216.727C15.8974 216.727 13.6317 214.743 13.6317 211.759C13.6317 209.962 14.5536 208.696 16.4286 207.805C14.7724 206.774 14.2099 205.946 14.2099 204.43C14.2099 201.868 16.2411 200.071 19.1161 200.071C22.0067 200.071 24.0067 201.868 24.0067 204.43C24.0067 205.962 23.4599 206.79 21.788 207.805C23.663 208.696 24.5849 209.962 24.5849 211.79ZM21.9442 204.477C21.9442 202.884 20.8349 201.868 19.1161 201.868C17.413 201.868 16.288 202.884 16.288 204.446C16.288 205.993 17.413 206.993 19.1161 206.993C20.8192 206.993 21.9442 205.993 21.9442 204.477ZM22.5224 211.805C22.5224 209.899 21.1317 208.696 19.1161 208.696C17.0849 208.696 15.7099 209.899 15.7099 211.805C15.7099 213.712 17.0849 214.93 19.0692 214.93C21.1317 214.93 22.5224 213.743 22.5224 211.805Z" fill="black"/>
<path d="M37.2322 208.54C37.2322 213.899 35.3572 216.727 31.9041 216.727C28.4041 216.727 26.5604 213.899 26.5604 208.399C26.5604 202.93 28.3885 200.071 31.9041 200.071C35.4354 200.071 37.2322 202.884 37.2322 208.54ZM35.1697 208.352C35.1697 203.993 34.0916 201.868 31.9041 201.868C29.7166 201.868 28.6385 203.962 28.6385 208.43C28.6385 212.884 29.7166 215.055 31.8572 215.055C34.1072 215.055 35.1697 212.977 35.1697 208.352Z" fill="black"/>
<path d="M46.3171 203.571C46.3171 205.477 44.8796 206.93 42.9578 206.93C41.0515 206.93 39.5984 205.477 39.5984 203.571C39.5984 201.665 41.0515 200.212 42.9578 200.212C44.8796 200.212 46.3171 201.665 46.3171 203.571ZM45.2234 203.571C45.2234 202.352 44.1765 201.196 42.9578 201.196C41.739 201.196 40.7078 202.352 40.7078 203.571C40.7078 204.79 41.739 205.946 42.9578 205.946C44.1765 205.946 45.2234 204.79 45.2234 203.571Z" fill="black"/>
<path d="M65.1843 347.267C65.1843 349.267 64.0124 350.97 61.7311 352.189L59.4343 353.423C57.4343 354.595 56.6999 355.455 56.4968 356.783H65.0749V358.783H54.2155C54.403 355.189 55.3874 353.658 58.7936 351.72L60.903 350.533C62.3561 349.705 63.1218 348.595 63.1218 347.298C63.1218 345.564 61.7311 344.251 59.903 344.251C57.903 344.251 56.7624 345.392 56.6061 348.126H54.5905C54.6999 344.173 56.6374 342.47 59.9655 342.47C63.0436 342.47 65.1843 344.501 65.1843 347.267Z" fill="black"/>
<path d="M77.9723 347.267C77.9723 349.267 76.8004 350.97 74.5191 352.189L72.2223 353.423C70.2223 354.595 69.4879 355.455 69.2848 356.783H77.8629V358.783H67.0035C67.191 355.189 68.1754 353.658 71.5816 351.72L73.691 350.533C75.1441 349.705 75.9098 348.595 75.9098 347.298C75.9098 345.564 74.5191 344.251 72.691 344.251C70.691 344.251 69.5504 345.392 69.3941 348.126H67.3785C67.4879 344.173 69.4254 342.47 72.7535 342.47C75.8316 342.47 77.9723 344.501 77.9723 347.267Z" fill="black"/>
<path d="M90.8071 353.376C90.8071 356.83 88.5103 359.126 85.2134 359.126C82.3228 359.126 80.479 357.845 79.8228 354.595H81.8384C82.3228 356.439 83.4009 357.33 85.1665 357.33C87.3853 357.33 88.7446 356.001 88.7446 353.658C88.7446 351.236 87.354 349.83 85.1665 349.83C83.9165 349.83 83.1196 350.22 82.1821 351.361H80.3228L81.5415 342.814H89.9634V344.814H83.1665L82.5259 349.033C83.479 348.345 84.3853 348.048 85.5415 348.048C88.6665 348.048 90.8071 350.158 90.8071 353.376Z" fill="black"/>
<path d="M99.7514 345.97C99.7514 347.876 98.3139 349.33 96.392 349.33C94.4857 349.33 93.0326 347.876 93.0326 345.97C93.0326 344.064 94.4857 342.611 96.392 342.611C98.3139 342.611 99.7514 344.064 99.7514 345.97ZM98.6576 345.97C98.6576 344.751 97.6107 343.595 96.392 343.595C95.1732 343.595 94.142 344.751 94.142 345.97C94.142 347.189 95.1732 348.345 96.392 348.345C97.6107 348.345 98.6576 347.189 98.6576 345.97Z" fill="black"/>
<path d="M217.968 400.701C217.968 402.701 216.796 404.405 214.515 405.623L212.218 406.858C210.218 408.03 209.484 408.889 209.281 410.217H217.859V412.217H206.999C207.187 408.623 208.171 407.092 211.577 405.155L213.687 403.967C215.14 403.139 215.906 402.03 215.906 400.733C215.906 398.998 214.515 397.686 212.687 397.686C210.687 397.686 209.546 398.826 209.39 401.561H207.374C207.484 397.608 209.421 395.905 212.749 395.905C215.827 395.905 217.968 397.936 217.968 400.701Z" fill="black"/>
<path d="M230.959 397.951C227.537 402.03 225.24 406.951 224.35 412.217H222.178C223.334 407.108 225.631 402.358 228.865 398.248H220.069V396.248H230.959V397.951Z" fill="black"/>
<path d="M243.45 404.373C243.45 409.733 241.575 412.561 238.122 412.561C234.622 412.561 232.778 409.733 232.778 404.233C232.778 398.764 234.607 395.905 238.122 395.905C241.653 395.905 243.45 398.717 243.45 404.373ZM241.388 404.186C241.388 399.826 240.31 397.701 238.122 397.701C235.935 397.701 234.857 399.795 234.857 404.264C234.857 408.717 235.935 410.889 238.075 410.889C240.325 410.889 241.388 408.811 241.388 404.186Z" fill="black"/>
<path d="M252.535 399.405C252.535 401.311 251.098 402.764 249.176 402.764C247.27 402.764 245.816 401.311 245.816 399.405C245.816 397.498 247.27 396.045 249.176 396.045C251.098 396.045 252.535 397.498 252.535 399.405ZM251.441 399.405C251.441 398.186 250.395 397.03 249.176 397.03C247.957 397.03 246.926 398.186 246.926 399.405C246.926 400.623 247.957 401.78 249.176 401.78C250.395 401.78 251.441 400.623 251.441 399.405Z" fill="black"/>
<path d="M370.642 354.048C370.642 357.126 368.47 359.126 365.127 359.126C361.783 359.126 359.986 357.501 359.736 353.861H361.767C361.892 356.236 362.986 357.33 365.189 357.33C367.299 357.33 368.564 356.111 368.564 354.064C368.564 352.251 367.424 351.189 365.189 351.189H364.08V349.486C367.33 349.486 368.08 348.783 368.08 347.033C368.08 345.298 367.002 344.251 365.205 344.251C363.142 344.251 362.158 345.33 362.111 347.736H360.08C360.158 344.267 361.892 342.47 365.189 342.47C368.299 342.47 370.158 344.158 370.158 346.955C370.158 348.595 369.392 349.658 367.877 350.251C369.83 350.923 370.642 352.064 370.642 354.048Z" fill="black"/>
<path d="M379.774 358.783H377.743V347.173H374.133V345.72C377.258 345.33 377.727 344.986 378.43 342.47H379.774V358.783Z" fill="black"/>
<path d="M396.375 353.376C396.375 356.83 394.078 359.126 390.781 359.126C387.89 359.126 386.046 357.845 385.39 354.595H387.406C387.89 356.439 388.968 357.33 390.734 357.33C392.953 357.33 394.312 356.001 394.312 353.658C394.312 351.236 392.921 349.83 390.734 349.83C389.484 349.83 388.687 350.22 387.75 351.361H385.89L387.109 342.814H395.531V344.814H388.734L388.093 349.033C389.046 348.345 389.953 348.048 391.109 348.048C394.234 348.048 396.375 350.158 396.375 353.376Z" fill="black"/>
<path d="M405.319 345.97C405.319 347.876 403.881 349.33 401.959 349.33C400.053 349.33 398.6 347.876 398.6 345.97C398.6 344.064 400.053 342.611 401.959 342.611C403.881 342.611 405.319 344.064 405.319 345.97ZM404.225 345.97C404.225 344.751 403.178 343.595 401.959 343.595C400.741 343.595 399.709 344.751 399.709 345.97C399.709 347.189 400.741 348.345 401.959 348.345C403.178 348.345 404.225 347.189 404.225 345.97Z" fill="black"/>
</g>
</g>
<defs>
<clipPath id="clip0_41_1585">
<rect width="438" height="416" fill="white"/>
</clipPath>
<clipPath id="clip1_41_1585">
<rect width="500" height="500" fill="white" transform="translate(-20 -42)"/>
</clipPath>
</defs>
</svg>
