<svg width="438" height="416" viewBox="0 0 438 416" fill="none" xmlns="http://www.w3.org/2000/svg">
<g clip-path="url(#clip0_41_1578)">
<rect width="438" height="416" fill="white"/>
<g clip-path="url(#clip1_41_1578)">
<path d="M530 -91H-70V509H530V-91Z" fill="white"/>
<path d="M-4 -25H464V443H-4V-25Z" fill="white"/>
<path d="M315.352 209L315.141 202.98L314.504 196.988L313.445 191.059L311.973 185.215L310.09 179.492L307.809 173.918L305.141 168.516L302.098 163.316L298.695 158.344L294.953 153.625L290.883 149.18L286.512 145.035L281.859 141.207L276.949 137.719L271.805 134.586L266.449 131.82L260.914 129.441L255.227 127.461L249.414 125.883L243.5 124.723L237.523 123.98L231.508 123.66L225.484 123.766L219.48 124.297L213.531 125.25L207.668 126.621L201.91 128.402L196.297 130.582L190.848 133.156L185.598 136.105L180.566 139.422L175.781 143.082L171.266 147.07L167.043 151.367L163.133 155.953L159.559 160.801L156.336 165.891L153.477 171.191L151 176.684L148.918 182.34L147.238 188.125L145.973 194.016L145.125 199.977L144.699 205.988V212.012L145.125 218.023L145.973 223.984L147.238 229.875L148.918 235.66L151 241.316L153.477 246.809L156.336 252.109L159.559 257.199L163.133 262.047L167.043 266.633L171.266 270.93L175.781 274.918L180.566 278.578L185.598 281.895L190.848 284.844L196.297 287.418L201.91 289.598L207.668 291.379L213.531 292.75L219.48 293.703L225.484 294.234L231.508 294.34L237.523 294.02L243.5 293.277L249.414 292.117L255.227 290.539L260.914 288.559L266.449 286.18L271.805 283.414L276.949 280.281L281.859 276.793L286.512 272.965L290.883 268.82L294.953 264.375L298.695 259.656L302.098 254.684L305.141 249.484L307.809 244.082L310.09 238.508L311.973 232.785L313.445 226.941L314.504 221.012L315.141 215.02L315.352 209Z" stroke="black" stroke-opacity="0.5" stroke-width="0.3" stroke-miterlimit="2"/>
<path d="M400.707 209L400.281 196.957L399.008 184.977L396.891 173.117L393.945 161.434L390.18 149.988L385.621 138.836L380.281 128.031L374.195 117.633L367.391 107.688L359.902 98.25L351.77 89.3633L343.027 81.0703L333.719 73.418L323.898 66.4375L313.609 60.1719L302.902 54.6445L291.832 49.8867L280.453 45.9219L268.824 42.7656L257 40.4414L245.043 38.957L233.012 38.3203L220.965 38.5312L208.965 39.5938L197.066 41.5L185.332 44.2422L173.824 47.8008L162.59 52.168L151.695 57.3125L141.191 63.2148L131.129 69.8398L121.559 77.1602L112.531 85.1406L104.086 93.7344L96.2695 102.902L89.1172 112.602L82.668 122.777L76.9531 133.387L72 144.371L67.8359 155.676L64.4805 167.246L61.9453 179.027L60.25 190.957L59.3984 202.977V215.023L60.25 227.043L61.9453 238.973L64.4805 250.754L67.8359 262.324L72 273.629L76.9531 284.613L82.668 295.223L89.1172 305.398L96.2695 315.098L104.086 324.266L112.531 332.859L121.559 340.84L131.129 348.16L141.191 354.785L151.695 360.688L162.59 365.832L173.824 370.199L185.332 373.758L197.066 376.5L208.965 378.406L220.965 379.469L233.012 379.68L245.043 379.043L257 377.559L268.824 375.234L280.453 372.078L291.832 368.113L302.902 363.355L313.609 357.828L323.898 351.562L333.719 344.582L343.027 336.93L351.77 328.637L359.902 319.75L367.391 310.312L374.195 300.367L380.281 289.969L385.621 279.164L390.18 268.016L393.945 256.566L396.891 244.883L399.008 233.023L400.281 221.043L400.707 209Z" stroke="black" stroke-opacity="0.5" stroke-width="0.3" stroke-miterlimit="2"/>
<path d="M230 209H408.438" stroke="black" stroke-opacity="0.5" stroke-width="0.3" stroke-miterlimit="1.1547"/>
<path d="M230 209L356.172 82.8281" stroke="black" stroke-opacity="0.5" stroke-width="0.3" stroke-miterlimit="1.1547"/>
<path d="M230 209V30.5625" stroke="black" stroke-opacity="0.5" stroke-width="0.3" stroke-miterlimit="1.1547"/>
<path d="M230 209L103.828 82.8281" stroke="black" stroke-opacity="0.5" stroke-width="0.3" stroke-miterlimit="1.1547"/>
<path d="M230 209H51.5625" stroke="black" stroke-opacity="0.5" stroke-width="0.3" stroke-miterlimit="1.1547"/>
<path d="M230 209L103.828 335.172" stroke="black" stroke-opacity="0.5" stroke-width="0.3" stroke-miterlimit="1.1547"/>
<path d="M230 209V387.438" stroke="black" stroke-opacity="0.5" stroke-width="0.3" stroke-miterlimit="1.1547"/>
<path d="M230 209L356.172 335.172" stroke="black" stroke-opacity="0.5" stroke-width="0.3" stroke-miterlimit="1.1547"/>
<path d="M215.465 378.902L218.902 376.266L222.418 373.527L226.02 370.68L229.699 367.723L233.461 364.648L237.305 361.453L241.227 358.137L245.227 354.688L249.297 351.105L253.441 347.391L257.652 343.539L261.922 339.547L266.25 335.41L270.625 331.137L275.043 326.723L279.492 322.172L283.965 317.484L288.453 312.668L292.945 307.723L297.426 302.664L301.891 297.496L306.324 292.227L310.719 286.867L315.055 281.434L319.332 275.934L323.531 270.379L327.648 264.789L331.672 259.176L335.594 253.551L339.406 247.93L343.109 242.324L346.691 236.75L350.156 231.219L353.496 225.738L356.711 220.32L359.801 214.977L362.766 209.711L365.613 204.535L368.336 199.449L370.945 194.465L373.438 189.582L375.82 184.805L378.098 180.133L380.273 175.574L382.355 171.121L384.34 166.777L386.238 162.543L388.051 158.418L389.785 154.398" stroke="#7F7F7F" stroke-width="0.25" stroke-miterlimit="2"/>
<path d="M165.109 361.562L163.707 354.59L162.293 347.098L160.879 339.031L159.484 330.352L158.129 321.012L156.84 310.98L155.648 300.227L154.594 288.746L153.715 276.547L153.055 263.672L152.652 250.195L152.551 236.219L152.773 221.887L153.34 207.363L154.246 192.832L155.48 178.469L157.008 164.453L158.797 150.918L160.793 137.988L162.953 125.738L165.223 114.207L167.562 103.418L169.934 93.3633L172.309 84.0117L174.66 75.3359L176.969 67.2852L179.223 59.8164L181.41 52.8828L183.527 46.4375" stroke="#7F7F7F" stroke-width="0.25" stroke-miterlimit="2"/>
<path d="M130.105 344.879L128.254 337.191L126.43 328.98L124.652 320.219L122.961 310.883L121.379 300.953L119.949 290.422L118.715 279.301L117.719 267.613L117.008 255.402L116.617 242.734L116.586 229.707L116.941 216.426L117.695 203.016L118.848 189.617L120.387 176.355L122.281 163.363L124.488 150.754L126.969 138.613L129.664 127.012L132.531 116L135.516 105.594L138.574 95.8086L141.672 86.6328L144.77 78.043L147.844 70.0156L150.879 62.5234" stroke="#7F7F7F" stroke-width="0.25" stroke-miterlimit="2"/>
<path d="M95.8555 308.668L94.168 299.484L92.6367 289.82L91.293 279.684L90.1758 269.086L89.3242 258.062L88.7734 246.656L88.5586 234.922L88.7031 222.934L89.2266 210.773L90.1406 198.531L91.4414 186.305L93.1211 174.188L95.1523 162.273L97.5078 150.645L100.148 139.367L103.031 128.508L106.113 118.098L109.352 108.176L112.699 98.75L116.125 89.8242L119.59 81.4023" stroke="#7F7F7F" stroke-width="0.25" stroke-miterlimit="2"/>
<path d="M176.59 367.684L183.941 364.258L191.766 360.453L200.086 356.227L208.902 351.527L218.223 346.312L228.027 340.531L238.281 334.148L248.922 327.141L259.871 319.508L271.023 311.262L282.25 302.449L293.41 293.148L304.359 283.453L314.965 273.492L325.102 263.387L334.68 253.273L343.637 243.273L351.934 233.496L359.562 224.023L366.543 214.918L372.902 206.223L378.684 197.965L383.93 190.152L388.691 182.781L393.02 175.836" stroke="#7F7F7F" stroke-width="0.25" stroke-miterlimit="2"/>
<path d="M245.32 40.9258L256.047 44.0117L266.891 47.5117L277.773 51.4219L288.633 55.7344L299.391 60.4297L309.973 65.4766L320.309 70.8359L330.34 76.4609L340.012 82.3086L349.281 88.3242" stroke="#7F7F7F" stroke-width="0.25" stroke-miterlimit="2"/>
<path d="M149.816 355.219L147.605 346.379L145.379 336.707L143.18 326.129L141.055 314.57L139.062 301.984L137.281 288.336L135.793 273.656L134.695 258.012L134.074 241.551L134 224.484L134.516 207.09L135.641 189.672L137.336 172.551L139.543 156.004L142.168 140.262L145.113 125.48L148.273 111.746L151.562 99.0898L154.898 87.4844L158.223 76.8828L161.492 67.2109L164.672 58.3906L167.742 50.3359" stroke="#7F7F7F" stroke-width="0.25" stroke-miterlimit="2"/>
<path d="M62.9844 242.844L65.3398 247.91L67.7969 253.008L70.3477 258.129L73 263.266L75.7422 268.41L78.582 273.555L81.5156 278.691L84.5352 283.812L87.6445 288.91L90.832 293.973L94.1016 298.996L97.4414 303.973L100.848 308.895L104.32 313.75L107.848 318.539L111.422 323.254L115.043 327.883L118.703 332.43L122.395 336.883L126.109 341.242L129.844 345.5L133.59 349.66" stroke="#7F7F7F" stroke-width="0.25" stroke-miterlimit="2"/>
<path d="M222.219 376.742L230.402 372.914L238.914 368.695L247.734 364.062L256.828 358.992L266.156 353.465L275.672 347.473L285.305 341.016L294.984 334.109L304.637 326.777L314.176 319.066L323.52 311.027L332.594 302.727L341.328 294.234L349.668 285.621L357.57 276.969L365 268.348L371.949 259.824L378.41 251.449L384.395 243.273L389.918 235.336L395 227.66L399.676 220.266" stroke="#7F7F7F" stroke-width="0.25" stroke-miterlimit="2"/>
<path d="M81.3398 290.332L86.0039 285.98L91.082 281.297L96.625 276.246L102.688 270.793L109.332 264.902L116.617 258.543L124.609 251.684L133.359 244.305L142.91 236.406L153.277 228.004L164.449 219.141L176.367 209.902L188.918 200.395L201.949 190.762L215.25 181.168L228.605 171.773L241.789 162.73L254.598 154.16L266.863 146.148L278.48 138.742L289.371 131.949L299.516 125.766L308.914 120.152L317.598 115.066L325.605 110.465L332.992 106.293L339.809 102.512L346.102 99.0703L351.93 95.9336" stroke="#7F7F7F" stroke-width="0.25" stroke-miterlimit="2"/>
<path d="M392.414 256.605L393.109 246.176L393.52 235.488L393.621 224.598L393.391 213.562L392.828 202.441L391.922 191.309L390.684 180.23L389.125 169.273L387.262 158.5L385.121 147.969L382.73 137.73L380.125 127.82" stroke="#7F7F7F" stroke-width="0.25" stroke-miterlimit="2"/>
<path d="M67.2148 253.82L71.9336 248.547L77.0938 242.918L82.7422 236.914L88.9414 230.512L95.7461 223.699L103.215 216.461L111.402 208.809L120.352 200.762L130.086 192.359L140.605 183.664L151.875 174.766L163.82 165.781L176.32 156.84L189.215 148.078L202.328 139.637L215.457 131.625L228.414 124.141L241.031 117.242L253.176 110.953L264.746 105.27L275.684 100.176L285.961 95.6289L295.57 91.582L304.535 87.9844L312.883 84.7812L320.645 81.9336L327.867 79.3906L334.594 77.1172" stroke="#7F7F7F" stroke-width="0.25" stroke-miterlimit="2"/>
<path d="M79.9648 289.246L82.2305 286.344L84.582 283.355L87.0273 280.281L89.5703 277.109L92.2148 273.844L94.9688 270.48L97.8359 267.016L100.82 263.445L103.93 259.77L107.172 255.984L110.547 252.086L114.062 248.082L117.723 243.961L121.535 239.734L125.496 235.395L129.613 230.949L133.891 226.398L138.324 221.75L142.914 217.012L147.66 212.188L152.559 207.285L157.602 202.32L162.781 197.301L168.09 192.246L173.516 187.16L179.047 182.07L184.664 176.984L190.359 171.918L196.105 166.895L201.891 161.922L207.699 157.023L213.504 152.207L219.293 147.488L225.051 142.875L230.754 138.383L236.395 134.02L241.957 129.789L247.43 125.695L252.797 121.746L258.059 117.938L263.203 114.273L268.227 110.754L273.121 107.371L277.891 104.133L282.531 101.023L287.043 98.0508L291.422 95.2031L295.676 92.4766L299.805 89.8633L303.809 87.3672L307.695 84.9766L311.461 82.6836L315.117 80.4922L318.664 78.3906L322.105 76.375L325.445 74.4414L328.688 72.5859" stroke="#7F7F7F" stroke-width="0.25" stroke-miterlimit="2"/>
<path d="M362.199 311.914L364.078 302.809L365.828 293.215L367.41 283.141L368.793 272.605L369.934 261.629L370.793 250.266L371.34 238.566L371.547 226.605L371.395 214.461L370.863 202.234L369.961 190.016L368.695 177.898L367.086 165.984L365.156 154.348L362.953 143.062L360.512 132.188L357.871 121.766L355.078 111.824L352.172 102.379L349.188 93.4336L346.16 84.9844" stroke="#7F7F7F" stroke-width="0.25" stroke-miterlimit="2"/>
<path d="M324.785 350.828L326.738 343.438L328.699 335.535L330.641 327.09L332.547 318.07L334.383 308.457L336.113 298.23L337.699 287.398L339.098 275.969L340.262 263.98L341.152 251.488L341.727 238.578L341.945 225.355L341.797 211.938L341.262 198.461L340.352 185.066L339.086 171.887L337.492 159.039L335.613 146.633L333.5 134.742L331.195 123.422L328.754 112.715L326.219 102.625L323.625 93.1523L321.012 84.2812L318.406 75.9883L315.828 68.2383L313.305 61.0039" stroke="#7F7F7F" stroke-width="0.25" stroke-miterlimit="2"/>
<path d="M310.719 286.867L315.055 281.434L319.332 275.934L323.531 270.379" stroke="#0000FF" stroke-width="3" stroke-miterlimit="2"/>
<path d="M152.773 221.887L153.34 207.363L154.246 192.832L155.48 178.469" stroke="#0012F6" stroke-width="3" stroke-miterlimit="2"/>
<path d="M116.586 229.707L116.941 216.426L117.695 203.016L118.848 189.617L120.387 176.355" stroke="#0024ED" stroke-width="3" stroke-miterlimit="2"/>
<path d="M89.2266 210.773L90.1406 198.531L91.4414 186.305L93.1211 174.188" stroke="#0037E4" stroke-width="3" stroke-miterlimit="2"/>
<path d="M282.25 302.449L293.41 293.148L304.359 283.453L314.965 273.492" stroke="#0049DB" stroke-width="3" stroke-miterlimit="2"/>
<path d="M277.773 51.4219L288.633 55.7344L299.391 60.4297L309.973 65.4766L320.309 70.8359" stroke="#005BD1" stroke-width="3" stroke-miterlimit="2"/>
<path d="M134 224.484L134.516 207.09L135.641 189.672L137.336 172.551" stroke="#006DC8" stroke-width="3" stroke-miterlimit="2"/>
<path d="M87.6445 288.91L90.832 293.973L94.1016 298.996L97.4414 303.973L100.848 308.895" stroke="#0080BF" stroke-width="3" stroke-miterlimit="2"/>
<path d="M304.637 326.777L314.176 319.066L323.52 311.027L332.594 302.727L341.328 294.234" stroke="#0092B6" stroke-width="3" stroke-miterlimit="2"/>
<path d="M188.918 200.395L201.949 190.762L215.25 181.168L228.605 171.773" stroke="#00A4AD" stroke-width="3" stroke-miterlimit="2"/>
<path d="M393.391 213.562L392.828 202.441L391.922 191.309L390.684 180.23L389.125 169.273" stroke="#00B6A4" stroke-width="3" stroke-miterlimit="2"/>
<path d="M163.82 165.781L176.32 156.84L189.215 148.078L202.328 139.637L215.457 131.625" stroke="#00C89B" stroke-width="3" stroke-miterlimit="2"/>
<path d="M184.664 176.984L190.359 171.918L196.105 166.895L201.891 161.922" stroke="#00DB92" stroke-width="3" stroke-miterlimit="2"/>
<path d="M371.395 214.461L370.863 202.234L369.961 190.016L368.695 177.898" stroke="#00ED89" stroke-width="3" stroke-miterlimit="2"/>
<path d="M341.945 225.355L341.797 211.938L341.262 198.461L340.352 185.066" stroke="#00FF80" stroke-width="3" stroke-miterlimit="2"/>
<path d="M323.531 270.379L321.766 270.039L320 269.695L318.238 269.348L316.477 268.996L314.711 268.641L312.953 268.281L311.191 267.922L309.43 267.555L307.672 267.188L305.914 266.816L302.398 266.066L298.891 265.301L297.137 264.914L295.383 264.523L293.629 264.129L291.879 263.734L288.379 262.93L284.879 262.117L283.133 261.703L281.383 261.289L279.637 260.871L277.895 260.449L276.148 260.027L272.664 259.168L269.18 258.301L267.438 257.859L265.699 257.418L263.961 256.973L260.484 256.074L258.75 255.621L257.012 255.164L253.543 254.242L251.812 253.777L250.078 253.309L246.617 252.363L244.887 251.887L243.156 251.406L239.703 250.438L237.977 249.949L236.25 249.457L234.523 248.961L232.801 248.465L231.078 247.965L227.633 246.957L225.914 246.449L224.195 245.938L220.758 244.906L219.039 244.387L215.609 243.34L210.465 241.746L207.043 240.668L205.332 240.125L203.625 239.582L201.914 239.031L200.207 238.48L196.793 237.371L195.09 236.812L193.387 236.25L189.98 235.117L188.281 234.547L186.578 233.973L183.18 232.816L181.484 232.234L179.785 231.648L178.09 231.059L176.398 230.469L174.703 229.875L171.32 228.68L167.938 227.469L164.562 226.25L162.875 225.637L161.188 225.02L159.504 224.398L156.137 223.148L154.457 222.52L152.773 221.887" stroke="#0000FF" stroke-miterlimit="2" stroke-dasharray="3 3"/>
<path d="M155.48 178.469L155.055 178.961L154.633 179.457L154.215 179.949L153.793 180.441L153.371 180.938L152.953 181.434L152.535 181.926L152.113 182.422L151.695 182.918L151.281 183.418L150.863 183.914L150.445 184.414L150.031 184.91L147.961 187.41L147.551 187.914L147.141 188.414L146.727 188.918L146.316 189.422L145.91 189.926L145.09 190.934L144.684 191.438L144.277 191.945L143.867 192.449L143.465 192.957L142.652 193.973L142.25 194.48L141.844 194.988L141.441 195.5L141.039 196.008L140.234 197.031L139.836 197.539L139.434 198.051L139.035 198.566L138.238 199.59L137.84 200.105L137.445 200.621L137.047 201.133L136.652 201.648L136.258 202.168L135.469 203.199L135.074 203.719L134.684 204.234L134.289 204.754L133.117 206.312L132.73 206.832L132.34 207.355L131.953 207.875L131.562 208.398L130.789 209.445L130.406 209.969L130.02 210.492L129.637 211.016L129.25 211.543L128.867 212.066L128.102 213.121L127.723 213.648L127.34 214.176L126.961 214.703L126.582 215.234L126.203 215.762L125.824 216.293L125.449 216.824L125.07 217.352L124.695 217.883L124.32 218.418L123.57 219.48L123.195 220.016L122.824 220.551L122.449 221.086L122.078 221.617L121.707 222.156L121.34 222.691L120.969 223.227L120.602 223.766L120.23 224.301L119.129 225.918L118.766 226.457L118.398 227L118.035 227.539L117.672 228.082L117.309 228.621L116.945 229.164L116.586 229.707" stroke="#0012F6" stroke-miterlimit="2" stroke-dasharray="3 3"/>
<path d="M120.387 176.355L120.055 176.684L119.723 177.016L119.059 177.672L118.066 178.664L117.738 178.996L117.406 179.328L116.094 180.656L115.766 180.992L115.438 181.324L115.109 181.66L114.781 181.992L114.457 182.328L114.129 182.664L113.805 183L113.477 183.336L113.152 183.672L112.828 184.012L112.504 184.348L112.18 184.688L111.855 185.023L111.531 185.363L111.211 185.703L110.887 186.039L110.566 186.379L110.242 186.719L109.922 187.062L109.281 187.742L108.957 188.086L108.641 188.426L107.68 189.457L107.363 189.801L107.043 190.145L106.727 190.488L106.406 190.832L106.09 191.18L105.773 191.523L105.457 191.871L105.141 192.215L104.824 192.562L104.512 192.91L103.879 193.605L103.566 193.953L103.254 194.305L102.938 194.652L102.625 195L101.688 196.055L101.375 196.402L101.066 196.754L100.754 197.105L100.445 197.461L100.133 197.812L99.8242 198.164L99.5156 198.52L99.207 198.871L97.6641 200.648L97.3594 201.004L97.0508 201.359L96.7461 201.719L96.4414 202.074L95.832 202.793L95.5273 203.148L94.918 203.867L94.6172 204.227L94.3125 204.59L94.0117 204.949L93.707 205.309L93.1055 206.035L92.8047 206.395L92.2031 207.121L91.9062 207.484L91.3047 208.211L91.0078 208.578L90.7109 208.941L90.4102 209.309L90.1133 209.672L89.8164 210.039L89.5234 210.406L89.2266 210.773" stroke="#0024ED" stroke-miterlimit="2" stroke-dasharray="3 3"/>
<path d="M93.1211 174.188L94.7969 175.812L96.4805 177.426L98.168 179.035L99.8633 180.637L101.562 182.23L103.27 183.816L104.984 185.395L106.699 186.965L108.426 188.531L110.152 190.09L111.887 191.641L113.629 193.184L115.375 194.719L117.125 196.25L118.883 197.77L120.645 199.285L122.41 200.797L124.184 202.297L125.957 203.793L127.742 205.281L129.527 206.766L131.32 208.238L133.117 209.707L134.918 211.172L136.727 212.625L138.539 214.074L140.355 215.516L142.176 216.953L144 218.383L145.832 219.805L147.668 221.223L149.508 222.633L151.352 224.035L153.199 225.434L155.055 226.824L156.91 228.207L158.773 229.586L160.641 230.957L162.512 232.32L164.387 233.68L166.266 235.031L168.152 236.379L170.039 237.719L171.934 239.051L173.832 240.379L175.73 241.699L177.637 243.016L179.547 244.324L181.461 245.625L183.379 246.922L185.301 248.211L187.23 249.492L189.16 250.77L191.094 252.039L193.035 253.305L194.977 254.562L196.922 255.812L198.875 257.059L200.828 258.297L202.789 259.531L204.75 260.758L206.719 261.977L208.688 263.191L210.664 264.398L212.645 265.598L214.625 266.793L216.613 267.98L218.605 269.16L220.598 270.336L222.598 271.504L224.598 272.664L226.605 273.82L228.617 274.969L230.629 276.113L232.648 277.246L234.672 278.375L236.695 279.5L238.727 280.613L240.762 281.723L242.797 282.828L244.84 283.922L246.883 285.012L248.934 286.094L250.988 287.168L253.043 288.238L255.105 289.297L257.168 290.352L259.238 291.398L261.309 292.441L263.387 293.473L265.465 294.5L267.551 295.52L269.637 296.531L271.73 297.535L273.824 298.535L275.926 299.523L278.031 300.508L280.137 301.48L282.25 302.449" stroke="#0037E4" stroke-miterlimit="2" stroke-dasharray="3 3"/>
<path d="M314.965 273.492L315.121 271.203L315.266 268.914L315.402 266.625L315.523 264.336L315.637 262.051L315.738 259.762L315.832 257.473L315.91 255.184L315.98 252.895L316.039 250.605L316.086 248.32L316.121 246.031L316.145 243.742L316.16 241.457L316.164 239.168L316.16 236.883L316.141 234.594L316.113 232.309L316.074 230.023L316.023 227.738L315.965 225.453L315.895 223.168L315.812 220.883L315.723 218.602L315.621 216.316L315.508 214.035L315.383 211.754L315.25 209.473L315.105 207.191L314.949 204.914L314.785 202.633L314.609 200.355L314.422 198.078L314.223 195.801L314.016 193.527L313.801 191.254L313.57 188.98L313.332 186.707L313.082 184.434L312.82 182.164L312.551 179.895L312.27 177.625L311.977 175.359L311.676 173.094L311.363 170.828L311.039 168.562L310.703 166.301L310.359 164.039L310.004 161.781L309.637 159.523L309.262 157.266L308.871 155.012L308.473 152.758L308.066 150.504L307.645 148.254L307.215 146.004L306.773 143.754L306.32 141.508L305.855 139.266L305.383 137.023L304.895 134.781L304.398 132.543L303.891 130.305L303.375 128.07L302.844 125.836L302.301 123.605L301.75 121.375L301.188 119.148L300.609 116.922L300.023 114.699L299.426 112.48L298.816 110.262L298.195 108.047L297.562 105.832L296.922 103.621L296.266 101.41L295.598 99.2031L294.918 97L294.227 94.8008L293.523 92.6016L292.809 90.4062L292.078 88.2109L291.34 86.0234L290.586 83.8359L289.824 81.6523L289.047 79.4688L288.258 77.293L287.453 75.1172L286.641 72.9453L285.812 70.7773L284.973 68.6133L284.117 66.4492L283.254 64.293L282.375 62.1367L281.48 59.9883L280.574 57.8398L279.656 55.6953L278.723 53.5586L277.773 51.4219" stroke="#0049DB" stroke-miterlimit="2" stroke-dasharray="3 3"/>
<path d="M320.309 70.8359L318.125 72.0078L315.945 73.1875L313.773 74.3789L311.609 75.5781L309.449 76.7891L307.301 78.0117L305.156 79.2422L303.016 80.4805L300.887 81.7305L298.762 82.9883L296.645 84.2578L294.531 85.5352L292.43 86.8203L290.328 88.1133L288.238 89.418L286.152 90.7266L284.074 92.0469L282 93.3789L279.934 94.7148L277.875 96.0586L275.82 97.4141L273.773 98.7734L271.73 100.145L269.695 101.523L267.664 102.91L265.641 104.301L263.625 105.703L261.613 107.113L259.609 108.531L257.609 109.953L255.617 111.387L253.629 112.824L251.648 114.273L249.676 115.727L247.703 117.188L245.742 118.656L243.785 120.133L241.832 121.617L239.887 123.105L237.949 124.602L236.012 126.105L234.086 127.617L232.164 129.137L230.246 130.66L228.336 132.195L226.434 133.734L224.531 135.277L222.641 136.832L220.754 138.391L218.871 139.953L216.996 141.527L215.125 143.105L213.262 144.691L211.402 146.285L209.551 147.883L207.703 149.488L205.863 151.098L204.027 152.719L202.199 154.344L200.375 155.973L198.559 157.609L196.746 159.254L194.941 160.902L193.141 162.559L191.348 164.223L189.559 165.891L187.777 167.566L186 169.25L184.23 170.938L182.465 172.633L180.707 174.332L178.953 176.039L177.207 177.754L175.469 179.473L173.734 181.195L172.004 182.93L170.281 184.668L168.566 186.41L166.855 188.16L165.152 189.918L163.457 191.68L161.766 193.449L160.078 195.227L158.402 197.008L156.727 198.793L155.062 200.59L153.402 202.391L151.75 204.195L150.102 206.008L148.461 207.828L146.828 209.652L145.199 211.484L143.582 213.324L141.965 215.168L140.359 217.016L138.758 218.875L137.164 220.738L135.578 222.609L134 224.484" stroke="#005BD1" stroke-miterlimit="2" stroke-dasharray="3 3"/>
<path d="M137.336 172.551L136 174.715L135.336 175.801L134.676 176.891L134.02 177.98L132.715 180.168L132.066 181.262L131.422 182.359L130.781 183.461L130.145 184.562L129.508 185.668L128.875 186.773L128.246 187.879L127.621 188.988L127 190.102L126.383 191.215L125.766 192.332L125.152 193.449L124.543 194.566L123.938 195.688L122.734 197.938L121.547 200.195L120.957 201.324L120.371 202.457L119.207 204.73L118.633 205.867L118.059 207.008L117.488 208.152L116.922 209.297L116.359 210.441L115.801 211.59L114.691 213.895L114.141 215.047L113.055 217.359L112.516 218.52L111.98 219.68L110.918 222.008L109.871 224.344L108.84 226.688L108.328 227.863L107.82 229.039L107.32 230.219L106.816 231.398L106.32 232.578L105.828 233.762L105.34 234.949L104.371 237.324L103.418 239.707L102.949 240.902L102.48 242.102L102.016 243.297L101.559 244.5L101.102 245.699L100.648 246.906L100.199 248.109L99.7539 249.316L98.8789 251.738L98.4453 252.953L98.0156 254.164L97.5898 255.383L97.168 256.602L96.75 257.82L96.3359 259.043L95.9258 260.266L95.1211 262.719L94.7227 263.949L94.3281 265.18L93.9375 266.414L93.1719 268.883L92.7969 270.121L92.4219 271.363L91.6875 273.848L91.3281 275.094L90.9727 276.34L90.6172 277.59L90.2695 278.84L89.9258 280.094L89.5859 281.348L89.2539 282.602L88.9219 283.859L88.2734 286.383L87.957 287.645L87.6445 288.91" stroke="#006DC8" stroke-miterlimit="2" stroke-dasharray="3 3"/>
<path d="M100.848 308.895L102.824 309.699L104.805 310.488L106.789 311.266L108.777 312.031L110.766 312.781L112.762 313.516L114.758 314.238L116.758 314.949L118.762 315.645L120.77 316.324L122.777 316.996L124.793 317.652L126.805 318.293L128.824 318.922L130.848 319.539L132.871 320.141L134.895 320.73L136.926 321.309L138.957 321.875L140.988 322.426L143.027 322.961L145.066 323.488L147.105 324L149.148 324.5L151.191 324.988L153.238 325.461L155.289 325.922L157.34 326.371L159.391 326.809L161.445 327.23L163.504 327.641L165.559 328.039L167.621 328.426L169.68 328.801L171.742 329.16L173.809 329.508L175.875 329.844L177.941 330.168L180.008 330.48L182.078 330.777L184.148 331.066L186.219 331.34L188.293 331.602L190.367 331.852L192.441 332.09L194.52 332.312L196.594 332.527L198.672 332.727L200.754 332.914L202.832 333.09L204.91 333.254L206.992 333.406L209.074 333.547L211.156 333.672L213.238 333.789L215.32 333.891L217.402 333.984L219.488 334.062L221.57 334.129L223.656 334.184L225.742 334.227L227.824 334.258L229.91 334.273L231.996 334.281L234.078 334.273L236.164 334.254L238.25 334.227L240.332 334.184L242.418 334.129L244.504 334.062L246.586 333.98L248.672 333.891L250.754 333.789L252.836 333.672L254.918 333.543L257 333.402L259.082 333.254L261.164 333.086L263.246 332.91L265.324 332.723L267.402 332.52L269.48 332.309L271.559 332.082L273.633 331.844L275.711 331.594L277.785 331.332L279.859 331.055L281.93 330.77L284 330.469L286.07 330.156L288.141 329.832L290.207 329.492L292.273 329.145L294.336 328.781L296.398 328.406L298.461 328.016L300.52 327.617L302.578 327.203L304.637 326.777" stroke="#0080BF" stroke-miterlimit="2" stroke-dasharray="3 3"/>
<path d="M341.328 294.234L336.605 291.562L335.031 290.668L333.457 289.777L331.887 288.879L330.316 287.984L328.746 287.086L327.176 286.184L325.605 285.285L324.039 284.383L322.473 283.477L320.906 282.574L319.34 281.668L317.777 280.758L316.211 279.852L314.648 278.938L313.086 278.027L311.527 277.113L309.965 276.199L308.406 275.285L302.172 271.613L300.617 270.691L299.062 269.766L297.508 268.844L295.953 267.918L294.402 266.992L292.848 266.062L291.297 265.137L289.746 264.207L286.645 262.34L285.098 261.41L283.551 260.473L282 259.539L280.457 258.602L278.91 257.664L277.363 256.723L275.82 255.785L274.277 254.844L272.734 253.898L271.191 252.957L269.648 252.012L268.109 251.066L266.566 250.117L261.949 247.27L260.414 246.316L258.875 245.367L257.34 244.414L252.734 241.543L249.672 239.629L248.137 238.668L246.605 237.707L245.074 236.742L243.547 235.781L242.016 234.816L240.488 233.852L238.961 232.883L237.434 231.918L235.906 230.949L234.379 229.977L232.855 229.008L228.285 226.09L225.238 224.137L222.199 222.184L220.676 221.203L219.16 220.223L217.641 219.242L216.121 218.258L211.574 215.305L210.059 214.316L208.543 213.332L207.031 212.34L205.516 211.352L200.98 208.375L199.473 207.383L197.961 206.387L194.945 204.395L191.93 202.395L190.426 201.395L188.918 200.395" stroke="#0092B6" stroke-miterlimit="2" stroke-dasharray="3 3"/>
<path d="M228.605 171.773L230.301 172.059L231.992 172.348L235.375 172.934L237.066 173.23L238.754 173.527L240.445 173.828L242.137 174.133L245.512 174.75L248.887 175.375L252.262 176.016L253.945 176.336L255.633 176.664L257.316 176.988L259 177.32L260.688 177.652L262.371 177.988L264.051 178.328L265.734 178.668L267.418 179.012L269.098 179.359L270.781 179.707L272.461 180.062L274.141 180.414L275.82 180.773L277.496 181.133L280.855 181.859L282.531 182.227L284.207 182.598L287.559 183.348L289.234 183.727L290.91 184.109L292.582 184.492L294.258 184.879L297.602 185.66L299.273 186.055L300.945 186.453L302.613 186.855L304.285 187.258L305.953 187.664L309.289 188.484L310.957 188.902L312.625 189.316L314.289 189.738L315.957 190.16L317.621 190.59L319.285 191.016L320.949 191.449L322.609 191.883L324.273 192.32L325.934 192.762L327.598 193.207L329.258 193.652L330.914 194.102L332.574 194.555L334.234 195.012L335.891 195.469L337.547 195.93L339.203 196.395L340.859 196.863L342.512 197.336L344.168 197.809L345.82 198.285L347.473 198.766L349.121 199.25L350.773 199.734L352.422 200.227L354.074 200.719L355.723 201.215L357.367 201.715L359.016 202.215L362.305 203.23L363.949 203.742L365.594 204.258L367.238 204.777L368.879 205.301L372.16 206.355L373.797 206.887L375.438 207.426L377.074 207.965L378.711 208.508L380.344 209.055L381.98 209.605L383.613 210.16L385.246 210.719L386.875 211.277L388.508 211.844L391.766 212.984L393.391 213.562" stroke="#00A4AD" stroke-miterlimit="2" stroke-dasharray="3 3"/>
<path d="M389.125 169.273L386.855 168.883L384.586 168.5L382.32 168.125L380.047 167.758L377.777 167.402L375.508 167.055L373.234 166.715L370.965 166.387L368.691 166.062L366.418 165.75L364.145 165.445L361.871 165.145L359.594 164.855L357.32 164.574L355.043 164.301L352.77 164.035L350.492 163.777L348.215 163.527L345.938 163.285L343.66 163.051L341.383 162.824L339.105 162.605L336.828 162.395L334.547 162.188L332.27 161.992L329.992 161.801L327.711 161.621L325.434 161.445L323.152 161.277L320.871 161.113L318.594 160.961L316.312 160.812L314.031 160.672L311.754 160.539L309.473 160.414L307.191 160.297L304.91 160.184L302.629 160.078L300.348 159.977L298.07 159.887L295.789 159.801L293.508 159.723L291.227 159.648L286.664 159.523L284.383 159.473L282.102 159.426L279.824 159.387L277.543 159.355L275.262 159.328L272.98 159.309L270.699 159.297L268.422 159.289H266.141L263.859 159.293L261.578 159.305L259.301 159.324L257.02 159.352L254.742 159.379L252.461 159.418L250.184 159.461L247.902 159.512L245.625 159.57L243.348 159.633L241.07 159.699L238.789 159.773L236.512 159.855L234.234 159.945L231.957 160.039L229.68 160.137L227.406 160.246L225.129 160.359L222.852 160.477L220.578 160.602L218.301 160.734L216.027 160.871L213.75 161.016L211.477 161.164L209.203 161.32L206.93 161.484L204.656 161.652L202.383 161.828L200.109 162.008L197.84 162.199L195.566 162.391L193.297 162.594L191.027 162.801L188.758 163.012L186.484 163.23L184.219 163.457L181.949 163.691L179.68 163.93L177.414 164.172L175.145 164.426L172.879 164.684L170.613 164.949L168.348 165.219L166.082 165.496L163.82 165.781" stroke="#00B6A4" stroke-miterlimit="2" stroke-dasharray="3 3"/>
<path d="M215.457 131.625L215.129 132.07L214.801 132.52L214.473 132.965L214.145 133.414L213.82 133.859L213.164 134.758L212.84 135.203L212.516 135.652L212.188 136.102L210.891 137.898L210.57 138.348L210.246 138.801L209.922 139.25L209.602 139.699L209.277 140.152L208.957 140.602L208.316 141.508L207.996 141.957L206.715 143.77L206.398 144.223L206.078 144.676L205.762 145.129L205.441 145.582L205.125 146.035L204.809 146.492L204.176 147.398L203.859 147.855L203.543 148.309L203.227 148.766L202.914 149.223L202.598 149.676L201.973 150.59L201.656 151.047L200.094 153.332L199.785 153.793L199.473 154.25L199.164 154.707L198.852 155.168L198.543 155.625L198.234 156.086L197.922 156.543L197.305 157.465L196.996 157.922L196.691 158.383L196.074 159.305L195.77 159.766L195.461 160.227L195.156 160.688L194.852 161.152L194.547 161.613L194.238 162.074L193.934 162.539L193.633 163L193.328 163.461L192.719 164.391L192.418 164.852L192.113 165.316L191.211 166.711L190.906 167.172L190.605 167.637L190.309 168.105L189.406 169.5L189.109 169.965L188.809 170.434L188.512 170.898L188.215 171.367L187.918 171.832L187.617 172.301L187.32 172.766L187.027 173.234L186.434 174.172L186.137 174.637L185.844 175.105L185.547 175.574L184.961 176.512L184.664 176.984" stroke="#00C89B" stroke-miterlimit="2" stroke-dasharray="3 3"/>
<path d="M201.891 161.922L205.398 162.68L207.148 163.062L208.902 163.449L212.402 164.23L214.152 164.629L215.898 165.027L217.648 165.43L219.395 165.832L222.887 166.652L224.629 167.066L226.375 167.484L228.117 167.902L231.602 168.754L233.344 169.184L235.082 169.617L236.824 170.051L238.562 170.488L240.297 170.93L242.035 171.375L243.773 171.824L245.508 172.273L247.242 172.727L248.977 173.184L250.711 173.645L254.172 174.574L255.902 175.043L257.633 175.516L259.363 175.992L261.09 176.469L262.82 176.949L264.547 177.434L266.27 177.922L267.996 178.414L269.719 178.906L271.445 179.402L273.168 179.902L274.887 180.406L276.609 180.91L278.328 181.418L280.047 181.934L281.766 182.445L283.484 182.965L286.914 184.012L288.629 184.539L290.344 185.07L292.055 185.602L295.477 186.68L297.188 187.223L298.898 187.77L300.605 188.32L304.02 189.43L305.723 189.988L307.43 190.551L309.133 191.117L310.836 191.688L312.535 192.258L314.238 192.836L315.938 193.414L317.633 193.996L319.332 194.582L321.027 195.168L322.723 195.762L324.418 196.359L326.109 196.957L327.805 197.559L329.492 198.164L331.184 198.773L332.875 199.387L334.562 200L336.246 200.621L337.934 201.246L339.617 201.871L341.301 202.5L342.984 203.133L344.664 203.77L346.344 204.41L348.023 205.055L349.699 205.703L353.051 207.008L354.727 207.668L358.07 208.996L359.738 209.668L361.41 210.34L363.074 211.02L364.742 211.699L366.406 212.383L369.734 213.766L371.395 214.461" stroke="#00DB92" stroke-miterlimit="2" stroke-dasharray="3 3"/>
<path d="M368.695 177.898L368.219 178.898L367.977 179.398L367.738 179.898L367.496 180.395L367.254 180.895L366.77 181.887L366.523 182.383L366.281 182.879L365.543 184.367L365.297 184.859L365.047 185.355L364.801 185.848L364.551 186.344L364.051 187.328L363.797 187.82L363.547 188.312L363.293 188.801L363.039 189.293L362.785 189.781L362.531 190.273L362.277 190.762L362.02 191.25L361.766 191.738L360.992 193.203L360.73 193.691L360.473 194.176L360.211 194.664L359.164 196.602L358.898 197.086L358.637 197.57L358.371 198.055L358.105 198.535L357.84 199.02L357.57 199.5L357.305 199.98L357.035 200.465L356.496 201.426L356.227 201.902L355.688 202.863L355.414 203.34L355.141 203.82L354.047 205.727L353.492 206.68L353.215 207.152L352.938 207.629L352.66 208.102L352.383 208.578L352.102 209.051L351.824 209.523L350.98 210.941L350.695 211.41L350.414 211.883L350.129 212.352L349.848 212.824L349.277 213.762L348.988 214.23L348.418 215.168L348.129 215.633L347.551 216.57L346.973 217.5L346.68 217.965L346.391 218.43L345.512 219.824L345.219 220.285L344.922 220.75L344.629 221.211L344.332 221.676L343.145 223.52L342.848 223.977L342.246 224.898L341.945 225.355" stroke="#00ED89" stroke-miterlimit="2" stroke-dasharray="3 3"/>
<mask id="mask0_41_1578" style="mask-type:luminance" maskUnits="userSpaceOnUse" x="-4" y="-25" width="468" height="468">
<path d="M-4 -25H464V443H-4V-25Z" fill="white"/>
</mask>
<g mask="url(#mask0_41_1578)">
<path fill-rule="evenodd" clip-rule="evenodd" d="M-1.78413e+06 1.78457e+06V-1.78415e+06H1.78459e+06V1.78457e+06H-1.78413e+06ZM408.5 209L408 196.375L406.625 183.875L404.5 171.5L401.375 159.25L397.375 147.25L392.625 135.625L387.125 124.375L380.75 113.5L373.625 103.125L365.75 93.25L357.25 84L348.125 75.25L338.375 67.25L328.125 60L317.375 53.375L306.25 47.625L294.625 42.625L282.75 38.5L270.625 35.25L258.25 32.75L245.75 31.25L233.125 30.625L220.5 30.75L208 31.875L195.625 33.875L183.25 36.75L171.25 40.5L159.5 45.125L148.125 50.5L137.125 56.625L126.625 63.5L116.625 71.25L107.25 79.5L98.375 88.5L90.25 98.125L82.75 108.25L76 118.875L70 130L64.875 141.5L60.5 153.25L57 165.375L54.375 177.625L52.5 190.125L51.625 202.75V215.25L52.5 227.875L54.375 240.375L57 252.625L60.5 264.75L64.875 276.5L70 288L76 299.125L82.75 309.75L90.25 319.875L98.375 329.5L107.25 338.5L116.625 346.75L126.625 354.5L137.125 361.375L148.125 367.5L159.5 372.875L171.25 377.5L183.25 381.25L195.625 384.125L208 386.125L220.5 387.25L233.125 387.375L245.75 386.75L258.25 385.25L270.625 382.75L282.75 379.5L294.625 375.375L306.25 370.375L317.375 364.625L328.125 358L338.375 350.75L348.125 342.75L357.25 334L365.75 324.75L373.625 314.875L380.75 304.5L387.125 293.625L392.625 282.375L397.375 270.75L401.375 258.75L404.5 246.5L406.625 234.125L408 221.625L408.5 209Z" fill="white"/>
</g>
<path d="M408.438 209L407.992 196.414L406.66 183.891L404.449 171.492L401.367 159.277L397.434 147.312L392.664 135.656L387.086 124.367L380.727 113.496L373.613 103.102L365.785 93.2344L357.281 83.9453L348.145 75.2773L338.418 67.2773L328.148 59.9844L317.395 53.4297L306.203 47.6523L294.633 42.6797L282.738 38.5352L270.582 35.2383L258.223 32.8086L245.727 31.2578L233.148 30.5938L220.555 30.8125L208.012 31.9258L195.574 33.918L183.312 36.7812L171.277 40.5039L159.539 45.0664L148.152 50.4453L137.172 56.6133L126.652 63.5391L116.648 71.1914L107.211 79.5312L98.3828 88.5156L90.2148 98.0977L82.7383 108.234L75.9961 118.875L70.0234 129.961L64.8477 141.445L60.4922 153.262L56.9844 165.355L54.3359 177.672L52.5625 190.141L51.6758 202.703V215.297L52.5625 227.859L54.3359 240.328L56.9844 252.645L60.4922 264.738L64.8477 276.555L70.0234 288.039L75.9961 299.125L82.7383 309.766L90.2148 319.902L98.3828 329.484L107.211 338.469L116.648 346.809L126.652 354.461L137.172 361.387L148.152 367.555L159.539 372.934L171.277 377.496L183.312 381.219L195.574 384.082L208.012 386.074L220.555 387.188L233.148 387.406L245.727 386.742L258.223 385.191L270.582 382.762L282.738 379.465L294.633 375.32L306.203 370.348L317.395 364.57L328.148 358.016L338.418 350.723L348.145 342.723L357.281 334.055L365.785 324.766L373.613 314.898L380.727 304.504L387.086 293.633L392.664 282.344L397.434 270.688L401.367 258.723L404.449 246.508L406.66 234.109L407.992 221.586L408.438 209Z" stroke="black" stroke-width="2" stroke-miterlimit="2"/>
<path d="M228.915 226.25C228.915 231.89 226.868 235.125 223.056 235.125C220.571 235.125 218.821 233.547 218.431 230.875H220.462C220.774 232.437 221.759 233.328 223.196 233.328C225.509 233.328 226.806 231.125 226.821 227.14C225.774 228.406 224.634 228.969 223.103 228.969C220.149 228.969 218.087 226.922 218.087 223.875C218.087 220.687 220.321 218.469 223.415 218.469C227.149 218.469 228.915 221.14 228.915 226.25ZM226.712 223.828C226.712 221.719 225.29 220.25 223.399 220.25C221.54 220.25 220.149 221.64 220.149 223.719C220.149 225.906 221.368 227.172 223.337 227.172C225.306 227.172 226.712 225.828 226.712 223.828Z" fill="black"/>
<path d="M241.656 226.937C241.656 232.297 239.781 235.125 236.328 235.125C232.828 235.125 230.984 232.297 230.984 226.797C230.984 221.328 232.812 218.469 236.328 218.469C239.859 218.469 241.656 221.281 241.656 226.937ZM239.594 226.75C239.594 222.39 238.516 220.265 236.328 220.265C234.141 220.265 233.062 222.359 233.062 226.828C233.062 231.281 234.141 233.453 236.281 233.453C238.531 233.453 239.594 231.375 239.594 226.75Z" fill="black"/>
<path d="M314.362 229.719C314.362 232.922 312.128 235.125 309.034 235.125C305.299 235.125 303.549 232.437 303.549 227.359C303.549 221.672 305.596 218.469 309.393 218.469C311.878 218.469 313.628 220.062 314.018 222.734H312.003C311.674 221.172 310.69 220.265 309.253 220.265C306.94 220.265 305.643 222.469 305.628 226.453C306.503 225.265 307.768 224.64 309.378 224.64C312.299 224.64 314.362 226.687 314.362 229.719ZM312.299 229.875C312.299 227.703 311.081 226.437 309.128 226.437C307.112 226.437 305.737 227.75 305.737 229.765C305.737 231.859 307.159 233.328 309.049 233.328C310.909 233.328 312.299 231.922 312.299 229.875Z" fill="black"/>
<path d="M327.009 226.937C327.009 232.297 325.134 235.125 321.681 235.125C318.181 235.125 316.337 232.297 316.337 226.797C316.337 221.328 318.166 218.469 321.681 218.469C325.212 218.469 327.009 221.281 327.009 226.937ZM324.947 226.75C324.947 222.39 323.869 220.265 321.681 220.265C319.494 220.265 318.416 222.359 318.416 226.828C318.416 231.281 319.494 233.453 321.634 233.453C323.884 233.453 324.947 231.375 324.947 226.75Z" fill="black"/>
<path d="M399.559 230.047C399.559 233.125 397.387 235.125 394.043 235.125C390.699 235.125 388.903 233.5 388.653 229.859H390.684C390.809 232.234 391.903 233.328 394.106 233.328C396.215 233.328 397.481 232.109 397.481 230.062C397.481 228.25 396.34 227.187 394.106 227.187H392.996V225.484C396.246 225.484 396.996 224.781 396.996 223.031C396.996 221.297 395.918 220.25 394.121 220.25C392.059 220.25 391.074 221.328 391.028 223.734H388.996C389.074 220.265 390.809 218.469 394.106 218.469C397.215 218.469 399.074 220.156 399.074 222.953C399.074 224.594 398.309 225.656 396.793 226.25C398.746 226.922 399.559 228.062 399.559 230.047Z" fill="black"/>
<path d="M412.362 226.937C412.362 232.297 410.487 235.125 407.034 235.125C403.534 235.125 401.691 232.297 401.691 226.797C401.691 221.328 403.519 218.469 407.034 218.469C410.566 218.469 412.362 221.281 412.362 226.937ZM410.3 226.75C410.3 222.39 409.222 220.265 407.034 220.265C404.847 220.265 403.769 222.359 403.769 226.828C403.769 231.281 404.847 233.453 406.987 233.453C409.237 233.453 410.3 231.375 410.3 226.75Z" fill="black"/>
<path d="M424.092 209.54C424.092 214.899 422.217 217.727 418.764 217.727C415.264 217.727 413.42 214.899 413.42 209.399C413.42 203.93 415.249 201.071 418.764 201.071C422.295 201.071 424.092 203.883 424.092 209.54ZM422.03 209.352C422.03 204.993 420.952 202.868 418.764 202.868C416.577 202.868 415.499 204.962 415.499 209.43C415.499 213.883 416.577 216.055 418.717 216.055C420.967 216.055 422.03 213.977 422.03 209.352Z" fill="black"/>
<path d="M433.177 204.571C433.177 206.477 431.74 207.93 429.818 207.93C427.911 207.93 426.458 206.477 426.458 204.571C426.458 202.665 427.911 201.212 429.818 201.212C431.74 201.212 433.177 202.665 433.177 204.571ZM432.083 204.571C432.083 203.352 431.036 202.196 429.818 202.196C428.599 202.196 427.568 203.352 427.568 204.571C427.568 205.79 428.599 206.946 429.818 206.946C431.036 206.946 432.083 205.79 432.083 204.571Z" fill="black"/>
<path d="M370.955 71.078H368.549V74.9843H366.517V71.078H359.642V68.9374L367.049 58.6718H368.549V69.2499H370.955V71.078ZM366.517 69.2499V62.1249L361.424 69.2499H366.517Z" fill="black"/>
<path d="M383.587 69.578C383.587 73.0311 381.29 75.328 377.993 75.328C375.102 75.328 373.258 74.0468 372.602 70.7968H374.618C375.102 72.6405 376.18 73.5311 377.946 73.5311C380.165 73.5311 381.524 72.203 381.524 69.8593C381.524 67.4374 380.133 66.0311 377.946 66.0311C376.696 66.0311 375.899 66.4218 374.962 67.5624H373.102L374.321 59.0155H382.743V61.0155H375.946L375.305 65.2343C376.258 64.5468 377.165 64.2499 378.321 64.2499C381.446 64.2499 383.587 66.3593 383.587 69.578Z" fill="black"/>
<path d="M392.531 62.1718C392.531 64.078 391.093 65.5311 389.171 65.5311C387.265 65.5311 385.812 64.078 385.812 62.1718C385.812 60.2655 387.265 58.8124 389.171 58.8124C391.093 58.8124 392.531 60.2655 392.531 62.1718ZM391.437 62.1718C391.437 60.953 390.39 59.7968 389.171 59.7968C387.953 59.7968 386.921 60.953 386.921 62.1718C386.921 63.3905 387.953 64.5468 389.171 64.5468C390.39 64.5468 391.437 63.3905 391.437 62.1718Z" fill="black"/>
<path d="M224.315 13.0187C224.315 18.6594 222.268 21.8937 218.456 21.8937C215.971 21.8937 214.221 20.3156 213.831 17.6437H215.862C216.174 19.2062 217.159 20.0969 218.596 20.0969C220.909 20.0969 222.206 17.8937 222.221 13.9094C221.174 15.175 220.034 15.7375 218.503 15.7375C215.549 15.7375 213.487 13.6906 213.487 10.6437C213.487 7.45624 215.721 5.23749 218.815 5.23749C222.549 5.23749 224.315 7.90936 224.315 13.0187ZM222.112 10.5969C222.112 8.48749 220.69 7.01874 218.799 7.01874C216.94 7.01874 215.549 8.40936 215.549 10.4875C215.549 12.675 216.768 13.9406 218.737 13.9406C220.706 13.9406 222.112 12.5969 222.112 10.5969Z" fill="black"/>
<path d="M237.056 13.7062C237.056 19.0656 235.181 21.8937 231.728 21.8937C228.228 21.8937 226.384 19.0656 226.384 13.5656C226.384 8.09686 228.212 5.23749 231.728 5.23749C235.259 5.23749 237.056 8.04999 237.056 13.7062ZM234.994 13.5187C234.994 9.15936 233.916 7.03436 231.728 7.03436C229.541 7.03436 228.462 9.12811 228.462 13.5969C228.462 18.05 229.541 20.2219 231.681 20.2219C233.931 20.2219 234.994 18.1437 234.994 13.5187Z" fill="black"/>
<path d="M246.141 8.73749C246.141 10.6437 244.704 12.0969 242.782 12.0969C240.875 12.0969 239.422 10.6437 239.422 8.73749C239.422 6.83124 240.875 5.37811 242.782 5.37811C244.704 5.37811 246.141 6.83124 246.141 8.73749ZM245.047 8.73749C245.047 7.51874 244 6.36249 242.782 6.36249C241.563 6.36249 240.532 7.51874 240.532 8.73749C240.532 9.95624 241.563 11.1125 242.782 11.1125C244 11.1125 245.047 9.95624 245.047 8.73749Z" fill="black"/>
<path d="M61.4186 74.9843H59.3874V63.3749H55.778V61.9218C58.903 61.5311 59.3718 61.1874 60.0749 58.6718H61.4186V74.9843Z" fill="black"/>
<path d="M77.8629 70.2499C77.8629 73.328 75.691 75.328 72.3473 75.328C69.0035 75.328 67.2066 73.703 66.9566 70.0624H68.9879C69.1129 72.4374 70.2066 73.5311 72.4098 73.5311C74.5191 73.5311 75.7848 72.3124 75.7848 70.2655C75.7848 68.453 74.6441 67.3905 72.4098 67.3905H71.3004V65.6874C74.5504 65.6874 75.3004 64.9843 75.3004 63.2343C75.3004 61.4999 74.2223 60.453 72.4254 60.453C70.3629 60.453 69.3785 61.5311 69.3316 63.9374H67.3004C67.3785 60.4686 69.1129 58.6718 72.4098 58.6718C75.5191 58.6718 77.3785 60.3593 77.3785 63.1561C77.3785 64.7968 76.6129 65.8593 75.0973 66.453C77.0504 67.1249 77.8629 68.2655 77.8629 70.2499Z" fill="black"/>
<path d="M90.8071 69.578C90.8071 73.0311 88.5103 75.328 85.2134 75.328C82.3228 75.328 80.479 74.0468 79.8228 70.7968H81.8384C82.3228 72.6405 83.4009 73.5311 85.1665 73.5311C87.3853 73.5311 88.7446 72.203 88.7446 69.8593C88.7446 67.4374 87.354 66.0311 85.1665 66.0311C83.9165 66.0311 83.1196 66.4218 82.1821 67.5624H80.3228L81.5415 59.0155H89.9634V61.0155H83.1665L82.5259 65.2343C83.479 64.5468 84.3853 64.2499 85.5415 64.2499C88.6665 64.2499 90.8071 66.3593 90.8071 69.578Z" fill="black"/>
<path d="M99.7514 62.1718C99.7514 64.078 98.3139 65.5311 96.392 65.5311C94.4857 65.5311 93.0326 64.078 93.0326 62.1718C93.0326 60.2655 94.4857 58.8124 96.392 58.8124C98.3139 58.8124 99.7514 60.2655 99.7514 62.1718ZM98.6576 62.1718C98.6576 60.953 97.6107 59.7968 96.392 59.7968C95.1732 59.7968 94.142 60.953 94.142 62.1718C94.142 63.3905 95.1732 64.5468 96.392 64.5468C97.6107 64.5468 98.6576 63.3905 98.6576 62.1718Z" fill="black"/>
<path d="M7.98438 217.384H5.95312V205.774H2.34375V204.321C5.46875 203.93 5.9375 203.587 6.64062 201.071H7.98438V217.384Z" fill="black"/>
<path d="M24.5849 212.79C24.5849 215.743 22.3349 217.727 19.1161 217.727C15.8974 217.727 13.6318 215.743 13.6318 212.759C13.6318 210.962 14.5536 209.696 16.4286 208.805C14.7724 207.774 14.2099 206.946 14.2099 205.43C14.2099 202.868 16.2411 201.071 19.1161 201.071C22.0068 201.071 24.0068 202.868 24.0068 205.43C24.0068 206.962 23.4599 207.79 21.788 208.805C23.663 209.696 24.5849 210.962 24.5849 212.79ZM21.9443 205.477C21.9443 203.884 20.8349 202.868 19.1161 202.868C17.413 202.868 16.288 203.884 16.288 205.446C16.288 206.993 17.413 207.993 19.1161 207.993C20.8193 207.993 21.9443 206.993 21.9443 205.477ZM22.5224 212.805C22.5224 210.899 21.1318 209.696 19.1161 209.696C17.0849 209.696 15.7099 210.899 15.7099 212.805C15.7099 214.712 17.0849 215.93 19.0693 215.93C21.1318 215.93 22.5224 214.743 22.5224 212.805Z" fill="black"/>
<path d="M37.2322 209.54C37.2322 214.899 35.3572 217.727 31.9041 217.727C28.4041 217.727 26.5604 214.899 26.5604 209.399C26.5604 203.93 28.3885 201.071 31.9041 201.071C35.4354 201.071 37.2322 203.884 37.2322 209.54ZM35.1697 209.352C35.1697 204.993 34.0916 202.868 31.9041 202.868C29.7166 202.868 28.6385 204.962 28.6385 209.43C28.6385 213.884 29.7166 216.055 31.8572 216.055C34.1072 216.055 35.1697 213.977 35.1697 209.352Z" fill="black"/>
<path d="M46.3171 204.571C46.3171 206.477 44.8796 207.93 42.9577 207.93C41.0515 207.93 39.5984 206.477 39.5984 204.571C39.5984 202.665 41.0515 201.212 42.9577 201.212C44.8796 201.212 46.3171 202.665 46.3171 204.571ZM45.2234 204.571C45.2234 203.352 44.1765 202.196 42.9577 202.196C41.739 202.196 40.7077 203.352 40.7077 204.571C40.7077 205.79 41.739 206.946 42.9577 206.946C44.1765 206.946 45.2234 205.79 45.2234 204.571Z" fill="black"/>
<path d="M65.1843 348.267C65.1843 350.267 64.0124 351.97 61.7311 353.189L59.4343 354.423C57.4343 355.595 56.6999 356.455 56.4968 357.783H65.0749V359.783H54.2155C54.403 356.189 55.3874 354.658 58.7936 352.72L60.903 351.533C62.3561 350.705 63.1218 349.595 63.1218 348.298C63.1218 346.564 61.7311 345.251 59.903 345.251C57.903 345.251 56.7624 346.392 56.6061 349.126H54.5905C54.6999 345.173 56.6374 343.47 59.9655 343.47C63.0436 343.47 65.1843 345.501 65.1843 348.267Z" fill="black"/>
<path d="M77.9723 348.267C77.9723 350.267 76.8004 351.97 74.5191 353.189L72.2223 354.423C70.2223 355.595 69.4879 356.455 69.2848 357.783H77.8629V359.783H67.0035C67.191 356.189 68.1754 354.658 71.5816 352.72L73.691 351.533C75.1441 350.705 75.9098 349.595 75.9098 348.298C75.9098 346.564 74.5191 345.251 72.691 345.251C70.691 345.251 69.5504 346.392 69.3941 349.126H67.3785C67.4879 345.173 69.4254 343.47 72.7535 343.47C75.8316 343.47 77.9723 345.501 77.9723 348.267Z" fill="black"/>
<path d="M90.8071 354.376C90.8071 357.83 88.5103 360.126 85.2134 360.126C82.3228 360.126 80.479 358.845 79.8228 355.595H81.8384C82.3228 357.439 83.4009 358.33 85.1665 358.33C87.3853 358.33 88.7446 357.001 88.7446 354.658C88.7446 352.236 87.354 350.83 85.1665 350.83C83.9165 350.83 83.1196 351.22 82.1821 352.361H80.3228L81.5415 343.814H89.9634V345.814H83.1665L82.5259 350.033C83.479 349.345 84.3853 349.048 85.5415 349.048C88.6665 349.048 90.8071 351.158 90.8071 354.376Z" fill="black"/>
<path d="M99.7514 346.97C99.7514 348.876 98.3139 350.33 96.392 350.33C94.4857 350.33 93.0326 348.876 93.0326 346.97C93.0326 345.064 94.4857 343.611 96.392 343.611C98.3139 343.611 99.7514 345.064 99.7514 346.97ZM98.6576 346.97C98.6576 345.751 97.6107 344.595 96.392 344.595C95.1732 344.595 94.142 345.751 94.142 346.97C94.142 348.189 95.1732 349.345 96.392 349.345C97.6107 349.345 98.6576 348.189 98.6576 346.97Z" fill="black"/>
<path d="M217.968 401.701C217.968 403.701 216.796 405.405 214.515 406.623L212.218 407.858C210.218 409.03 209.484 409.889 209.281 411.217H217.859V413.217H206.999C207.187 409.623 208.171 408.092 211.577 406.155L213.687 404.967C215.14 404.139 215.906 403.03 215.906 401.733C215.906 399.998 214.515 398.686 212.687 398.686C210.687 398.686 209.546 399.826 209.39 402.561H207.374C207.484 398.608 209.421 396.905 212.749 396.905C215.827 396.905 217.968 398.936 217.968 401.701Z" fill="black"/>
<path d="M230.959 398.951C227.537 403.03 225.24 407.951 224.35 413.217H222.178C223.334 408.108 225.631 403.358 228.865 399.248H220.069V397.248H230.959V398.951Z" fill="black"/>
<path d="M243.45 405.373C243.45 410.733 241.575 413.561 238.122 413.561C234.622 413.561 232.778 410.733 232.778 405.233C232.778 399.764 234.607 396.905 238.122 396.905C241.653 396.905 243.45 399.717 243.45 405.373ZM241.388 405.186C241.388 400.826 240.31 398.701 238.122 398.701C235.935 398.701 234.857 400.795 234.857 405.264C234.857 409.717 235.935 411.889 238.075 411.889C240.325 411.889 241.388 409.811 241.388 405.186Z" fill="black"/>
<path d="M252.535 400.405C252.535 402.311 251.098 403.764 249.176 403.764C247.27 403.764 245.816 402.311 245.816 400.405C245.816 398.498 247.27 397.045 249.176 397.045C251.098 397.045 252.535 398.498 252.535 400.405ZM251.441 400.405C251.441 399.186 250.395 398.03 249.176 398.03C247.957 398.03 246.926 399.186 246.926 400.405C246.926 401.623 247.957 402.78 249.176 402.78C250.395 402.78 251.441 401.623 251.441 400.405Z" fill="black"/>
<path d="M370.642 355.048C370.642 358.126 368.47 360.126 365.127 360.126C361.783 360.126 359.986 358.501 359.736 354.861H361.767C361.892 357.236 362.986 358.33 365.189 358.33C367.299 358.33 368.564 357.111 368.564 355.064C368.564 353.251 367.424 352.189 365.189 352.189H364.08V350.486C367.33 350.486 368.08 349.783 368.08 348.033C368.08 346.298 367.002 345.251 365.205 345.251C363.142 345.251 362.158 346.33 362.111 348.736H360.08C360.158 345.267 361.892 343.47 365.189 343.47C368.299 343.47 370.158 345.158 370.158 347.955C370.158 349.595 369.392 350.658 367.877 351.251C369.83 351.923 370.642 353.064 370.642 355.048Z" fill="black"/>
<path d="M379.774 359.783H377.743V348.173H374.133V346.72C377.258 346.33 377.727 345.986 378.43 343.47H379.774V359.783Z" fill="black"/>
<path d="M396.375 354.376C396.375 357.83 394.078 360.126 390.781 360.126C387.89 360.126 386.046 358.845 385.39 355.595H387.406C387.89 357.439 388.968 358.33 390.734 358.33C392.953 358.33 394.312 357.001 394.312 354.658C394.312 352.236 392.921 350.83 390.734 350.83C389.484 350.83 388.687 351.22 387.75 352.361H385.89L387.109 343.814H395.531V345.814H388.734L388.093 350.033C389.046 349.345 389.953 349.048 391.109 349.048C394.234 349.048 396.375 351.158 396.375 354.376Z" fill="black"/>
<path d="M405.319 346.97C405.319 348.876 403.881 350.33 401.959 350.33C400.053 350.33 398.6 348.876 398.6 346.97C398.6 345.064 400.053 343.611 401.959 343.611C403.881 343.611 405.319 345.064 405.319 346.97ZM404.225 346.97C404.225 345.751 403.178 344.595 401.959 344.595C400.741 344.595 399.709 345.751 399.709 346.97C399.709 348.189 400.741 349.345 401.959 349.345C403.178 349.345 404.225 348.189 404.225 346.97Z" fill="black"/>
</g>
</g>
<defs>
<clipPath id="clip0_41_1578">
<rect width="438" height="416" fill="white"/>
</clipPath>
<clipPath id="clip1_41_1578">
<rect width="500" height="500" fill="white" transform="translate(-20 -41)"/>
</clipPath>
</defs>
</svg>
