<svg width="438" height="416" viewBox="0 0 438 416" fill="none" xmlns="http://www.w3.org/2000/svg">
<g clip-path="url(#clip0_41_1577)">
<rect width="438" height="416" fill="white"/>
<g clip-path="url(#clip1_41_1577)">
<path d="M532 -92H-68V508H532V-92Z" fill="white"/>
<path d="M-2 -26H466V442H-2V-26Z" fill="white"/>
<path d="M317.164 208L316.949 201.992L316.316 196.016L315.262 190.098L313.789 184.27L311.91 178.559L309.637 172.996L306.973 167.605L303.938 162.418L300.543 157.457L296.809 152.75L292.75 148.316L288.387 144.18L283.746 140.359L278.844 136.879L273.711 133.75L268.371 130.992L262.848 128.621L257.172 126.641L251.367 125.07L245.473 123.91L239.504 123.168L233.504 122.852L227.492 122.957L221.504 123.488L215.57 124.438L209.715 125.805L203.973 127.582L198.371 129.758L192.938 132.324L187.695 135.27L182.676 138.574L177.902 142.227L173.395 146.207L169.184 150.496L165.285 155.07L161.715 159.906L158.5 164.984L155.648 170.277L153.176 175.758L151.098 181.398L149.426 187.172L148.16 193.047L147.312 199L146.891 204.996V211.004L147.312 217L148.16 222.953L149.426 228.828L151.098 234.602L153.176 240.242L155.648 245.723L158.5 251.016L161.715 256.094L165.285 260.93L169.184 265.504L173.395 269.793L177.902 273.773L182.676 277.426L187.695 280.73L192.938 283.676L198.371 286.242L203.973 288.418L209.715 290.195L215.57 291.562L221.504 292.512L227.492 293.043L233.504 293.148L239.504 292.832L245.473 292.09L251.367 290.93L257.172 289.359L262.848 287.379L268.371 285.008L273.711 282.25L278.844 279.121L283.746 275.641L288.387 271.82L292.75 267.684L296.809 263.25L300.543 258.543L303.938 253.582L306.973 248.395L309.637 243.004L311.91 237.441L313.789 231.73L315.262 225.902L316.316 219.984L316.949 214.008L317.164 208Z" stroke="black" stroke-opacity="0.5" stroke-width="0.3" stroke-miterlimit="2"/>
<path d="M402.324 208L401.902 195.984L400.629 184.031L398.52 172.195L395.578 160.539L391.824 149.117L387.273 137.992L381.945 127.211L375.875 116.836L369.086 106.914L361.613 97.4961L353.496 88.6289L344.773 80.3555L335.488 72.7188L325.688 65.7578L315.422 59.5039L304.738 53.9883L293.695 49.2422L282.34 45.2852L270.738 42.1367L258.941 39.8203L247.012 38.3359L235.008 37.6992L222.984 37.9141L211.012 38.9727L199.141 40.875L187.434 43.6094L175.949 47.1602L164.742 51.5156L153.871 56.6523L143.391 62.5391L133.352 69.1523L123.801 76.457L114.793 84.4141L106.367 92.9922L98.5664 102.141L91.4336 111.816L84.9961 121.973L79.2969 132.555L74.3555 143.516L70.1992 154.797L66.8477 166.34L64.3203 178.094L62.6289 189.996L61.7812 201.988V214.012L62.6289 226.004L64.3203 237.906L66.8477 249.66L70.1992 261.203L74.3555 272.484L79.2969 283.445L84.9961 294.027L91.4336 304.184L98.5664 313.859L106.367 323.008L114.793 331.586L123.801 339.543L133.352 346.848L143.391 353.461L153.871 359.348L164.742 364.484L175.949 368.84L187.434 372.391L199.141 375.125L211.012 377.027L222.984 378.086L235.008 378.301L247.012 377.664L258.941 376.18L270.738 373.863L282.34 370.715L293.695 366.758L304.738 362.012L315.422 356.496L325.688 350.242L335.488 343.281L344.773 335.645L353.496 327.371L361.613 318.504L369.086 309.086L375.875 299.164L381.945 288.789L387.273 278.008L391.824 266.883L395.578 255.461L398.52 243.805L400.629 231.969L401.902 220.016L402.324 208Z" stroke="black" stroke-opacity="0.5" stroke-width="0.3" stroke-miterlimit="2"/>
<path d="M232 208H410.438" stroke="black" stroke-opacity="0.5" stroke-width="0.3" stroke-miterlimit="1.1547"/>
<path d="M232 208L358.172 81.8281" stroke="black" stroke-opacity="0.5" stroke-width="0.3" stroke-miterlimit="1.1547"/>
<path d="M232 208V29.5625" stroke="black" stroke-opacity="0.5" stroke-width="0.3" stroke-miterlimit="1.1547"/>
<path d="M232 208L105.828 81.8281" stroke="black" stroke-opacity="0.5" stroke-width="0.3" stroke-miterlimit="1.1547"/>
<path d="M232 208H53.5625" stroke="black" stroke-opacity="0.5" stroke-width="0.3" stroke-miterlimit="1.1547"/>
<path d="M232 208L105.828 334.172" stroke="black" stroke-opacity="0.5" stroke-width="0.3" stroke-miterlimit="1.1547"/>
<path d="M232 208V386.438" stroke="black" stroke-opacity="0.5" stroke-width="0.3" stroke-miterlimit="1.1547"/>
<path d="M232 208L358.172 334.172" stroke="black" stroke-opacity="0.5" stroke-width="0.3" stroke-miterlimit="1.1547"/>
<path d="M79.832 132.375L89.1523 125.109L99.3438 117.691L110.438 110.203L122.434 102.742L135.297 95.4297L148.945 88.3984L163.262 81.7734L178.074 75.6836L193.184 70.2266L208.379 65.4727L223.445 61.4609L238.191 58.1914L252.445 55.625L266.086 53.7109L279.031 52.3711L291.23 51.5352" stroke="#7F7F7F" stroke-width="0.25" stroke-miterlimit="2"/>
<path d="M76.8398 152.141L83.1289 157.73L90.1641 163.879L98.0625 170.648L106.949 178.094L116.961 186.262L128.207 195.172L140.773 204.805L154.688 215.082L169.863 225.852L186.105 236.891L203.078 247.918L220.355 258.633L237.477 268.754L254.016 278.086L269.645 286.504L284.156 293.984L297.457 300.559L309.543 306.309L320.469 311.324L330.32 315.703L339.207 319.547L347.23 322.93L354.496 325.93" stroke="#7F7F7F" stroke-width="0.25" stroke-miterlimit="2"/>
<path d="M75.0625 156.27L81.2656 162.109L88.207 168.516L96.0078 175.555L104.793 183.273L114.688 191.707L125.805 200.871L138.23 210.73L151.98 221.199L166.98 232.109L183.027 243.227L199.801 254.273L216.891 264.949L233.844 274.984L250.25 284.195L265.789 292.469L280.254 299.793L293.547 306.207L305.656 311.797L316.625 316.656L326.547 320.887L335.508 324.586L343.617 327.832" stroke="#7F7F7F" stroke-width="0.25" stroke-miterlimit="2"/>
<path d="M121.988 78.2344L131.07 79.3438L140.996 80.7617L151.852 82.5547L163.703 84.8125L176.598 87.6289L190.543 91.1055L205.504 95.3359L221.359 100.395L237.918 106.332L254.898 113.129L271.969 120.719L288.758 128.957L304.922 137.66L320.176 146.609L334.328 155.602L347.27 164.449L358.988 173.012L369.516 181.191L378.941 188.93L387.359 196.195L394.883 202.992L401.613 209.324" stroke="#7F7F7F" stroke-width="0.25" stroke-miterlimit="2"/>
<path d="M127.008 81.0312L136.617 82.4609L147.133 84.2539L158.641 86.4883L171.191 89.2617L184.82 92.668L199.504 96.8086L215.152 101.766L231.594 107.594L248.574 114.301L265.762 121.82L282.781 130.031L299.266 138.75L314.902 147.758L329.465 156.836L342.82 165.797L354.926 174.48L365.812 182.781L375.555 190.633L384.254 198.004L392.02 204.891L398.957 211.297" stroke="#7F7F7F" stroke-width="0.25" stroke-miterlimit="2"/>
<path d="M195.508 42.7227L208.484 43.8398L222 45.5312L235.961 47.8398L250.234 50.8125L264.668 54.4609L279.098 58.7734L293.348 63.7109L307.246 69.207L320.648 75.1797L333.43 81.5195L345.508 88.1289L356.82 94.9023" stroke="#7F7F7F" stroke-width="0.25" stroke-miterlimit="2"/>
<path d="M118.121 85.1289L130.062 78.668L142.699 72.4727L155.941 66.6445L169.676 61.2773L183.758 56.4609L198.039 52.25L212.344 48.6953L226.508 45.8008L240.391 43.5547L253.859 41.9258" stroke="#7F7F7F" stroke-width="0.25" stroke-miterlimit="2"/>
<path d="M106.125 97.75L117.426 90.875L129.508 84.1445L142.316 77.6719L155.762 71.5586L169.727 65.918L184.055 60.8359L198.578 56.3828L213.113 52.6016L227.484 49.5039L241.543 47.0781L255.152 45.2852L268.207 44.0703" stroke="#7F7F7F" stroke-width="0.25" stroke-miterlimit="2"/>
<path d="M66.4258 230.703L73.0234 224.812L80.4102 218.43L88.6992 211.52L98.0156 204.07L108.48 196.074L120.195 187.559L133.227 178.602L147.578 169.316L163.148 159.883L179.746 150.52L197.047 141.473L214.656 132.969L232.152 125.199L249.145 118.281L265.316 112.25L280.461 107.09L294.465 102.723L307.305 99.0625L319.012 96.0078L329.656 93.4609L339.328 91.3359L348.121 89.5586" stroke="#7F7F7F" stroke-width="0.25" stroke-miterlimit="2"/>
<path d="M128.531 74.5938L140.871 68.6172L153.805 62.9922L167.234 57.8047L181.027 53.1367L195.043 49.0547L209.125 45.5938L223.117 42.7734L236.879 40.5898L250.285 39.0078" stroke="#7F7F7F" stroke-width="0.25" stroke-miterlimit="2"/>
<path d="M112.477 88.3398L124.051 81.7891L136.344 75.457L149.293 69.4375L162.793 63.8359L176.715 58.7422L190.91 54.2305L205.219 50.3477L219.469 47.1289L233.504 44.5664L247.191 42.6406L260.41 41.3047" stroke="#7F7F7F" stroke-width="0.25" stroke-miterlimit="2"/>
<path d="M62.418 220.082L68.9062 214.031L76.1602 207.512L84.2891 200.496L93.4062 192.977L103.625 184.957L115.047 176.48L127.727 167.621L141.676 158.508L156.82 149.309L172.98 140.23L189.887 131.508L207.176 123.352L224.461 115.938L241.367 109.367L257.582 103.688L272.883 98.8711L287.133 94.8477L300.281 91.5273L312.34 88.8086L323.352 86.5938L333.395 84.7969L342.555 83.3359" stroke="#7F7F7F" stroke-width="0.25" stroke-miterlimit="2"/>
<path d="M66.0156 213.148L73.0117 206.738L80.8398 199.852L89.6133 192.465L99.4453 184.59L110.434 176.254L122.66 167.527L136.145 158.52L150.844 149.387L166.617 140.328L183.223 131.562L200.34 123.309L217.59 115.75L234.594 109.016L251.023 103.16L266.625 98.1758L281.23 94.0078L294.766 90.5742L307.215 87.7656L318.613 85.4922L329.02 83.6602L338.52 82.1836" stroke="#7F7F7F" stroke-width="0.25" stroke-miterlimit="2"/>
<path d="M66.4805 208.34L73.6328 201.785L81.6367 194.754L90.6016 187.242L100.633 179.258L111.832 170.844L124.262 162.078L137.926 153.086L152.77 144.027L168.633 135.109L185.262 126.551L202.336 118.551L219.477 111.285L236.324 104.863L252.566 99.3203L267.969 94.6367L282.383 90.75L295.738 87.5703L308.023 84.9961L319.281 82.9297L329.574 81.2852L338.977 79.9766" stroke="#7F7F7F" stroke-width="0.25" stroke-miterlimit="2"/>
<path d="M181.395 48.4727L193.957 49.4258L207.199 50.9102L221.051 53L235.41 55.7539L250.129 59.2148L265.039 63.3945L279.945 68.2773L294.648 73.8125L308.957 79.918L322.699 86.4922L335.746 93.4141L347.996 100.562L359.398 107.816L369.938 115.074" stroke="#7F7F7F" stroke-width="0.25" stroke-miterlimit="2"/>
<path d="M148.945 88.3984L163.262 81.7734L178.074 75.6836L193.184 70.2266L208.379 65.4727" stroke="#0000FF" stroke-width="3" stroke-miterlimit="2"/>
<path d="M186.105 236.891L203.078 247.918L220.355 258.633L237.477 268.754" stroke="#0012F6" stroke-width="3" stroke-miterlimit="2"/>
<path d="M166.98 232.109L183.027 243.227L199.801 254.273L216.891 264.949L233.844 274.984" stroke="#0024ED" stroke-width="3" stroke-miterlimit="2"/>
<path d="M237.918 106.332L254.898 113.129L271.969 120.719L288.758 128.957L304.922 137.66" stroke="#0037E4" stroke-width="3" stroke-miterlimit="2"/>
<path d="M248.574 114.301L265.762 121.82L282.781 130.031L299.266 138.75" stroke="#0049DB" stroke-width="3" stroke-miterlimit="2"/>
<path d="M250.234 50.8125L264.668 54.4609L279.098 58.7734L293.348 63.7109L307.246 69.207" stroke="#005BD1" stroke-width="3" stroke-miterlimit="2"/>
<path d="M155.941 66.6445L169.676 61.2773L183.758 56.4609L198.039 52.25L212.344 48.6953" stroke="#006DC8" stroke-width="3" stroke-miterlimit="2"/>
<path d="M155.762 71.5586L169.727 65.918L184.055 60.8359L198.578 56.3828L213.113 52.6016" stroke="#0080BF" stroke-width="3" stroke-miterlimit="2"/>
<path d="M163.148 159.883L179.746 150.52L197.047 141.473L214.656 132.969L232.152 125.199" stroke="#0092B6" stroke-width="3" stroke-miterlimit="2"/>
<path d="M167.234 57.8047L181.027 53.1367L195.043 49.0547L209.125 45.5938" stroke="#00A4AD" stroke-width="3" stroke-miterlimit="2"/>
<path d="M162.793 63.8359L176.715 58.7422L190.91 54.2305L205.219 50.3477" stroke="#00B6A4" stroke-width="3" stroke-miterlimit="2"/>
<path d="M156.82 149.309L172.98 140.23L189.887 131.508L207.176 123.352L224.461 115.938" stroke="#00C89B" stroke-width="3" stroke-miterlimit="2"/>
<path d="M166.617 140.328L183.223 131.562L200.34 123.309L217.59 115.75" stroke="#00DB92" stroke-width="3" stroke-miterlimit="2"/>
<path d="M168.633 135.109L185.262 126.551L202.336 118.551L219.477 111.285" stroke="#00ED89" stroke-width="3" stroke-miterlimit="2"/>
<path d="M250.129 59.2148L265.039 63.3945L279.945 68.2773L294.648 73.8125L308.957 79.918" stroke="#00FF80" stroke-width="3" stroke-miterlimit="2"/>
<path d="M208.379 65.4727L207.969 67.1797L207.562 68.8906L207.16 70.6016L206.762 72.3086L206.367 74.0195L205.98 75.7305L205.594 77.4453L205.215 79.1562L204.836 80.8711L204.465 82.5859L204.098 84.3008L203.371 87.7305L203.016 89.4492L202.664 91.1641L202.316 92.8828L201.973 94.6016L201.633 96.3203L201.297 98.0391L200.965 99.7617L200.641 101.48L200.316 103.203L199.996 104.926L199.68 106.648L199.367 108.371L199.059 110.094L198.754 111.816L198.453 113.543L198.156 115.266L197.863 116.992L197.285 120.445L197.004 122.172L196.449 125.625L196.18 127.355L195.914 129.082L195.648 130.812L195.387 132.539L194.879 136L194.629 137.73L194.383 139.461L194.141 141.195L193.902 142.926L193.668 144.656L193.207 148.125L192.984 149.855L192.762 151.59L192.332 155.059L192.121 156.793L191.914 158.527L191.711 160.266L191.508 162L191.312 163.734L191.117 165.473L190.93 167.211L190.742 168.945L190.559 170.684L190.379 172.422L190.203 174.16L189.859 177.637L189.531 181.113L189.371 182.855L189.219 184.594L189.062 186.332L188.914 188.074L188.77 189.812L188.488 193.297L188.352 195.035L188.219 196.777L188.09 198.52L187.965 200.262L187.723 203.746L187.496 207.23L187.387 208.977L187.281 210.719L187.18 212.461L187.082 214.207L186.984 215.949L186.895 217.695L186.805 219.438L186.719 221.184L186.637 222.926L186.559 224.672L186.484 226.418L186.414 228.164L186.344 229.906L186.277 231.652L186.16 235.145L186.105 236.891" stroke="#0000FF" stroke-miterlimit="2" stroke-dasharray="3 3"/>
<path d="M237.477 268.754L236.746 268.422L236.016 268.086L235.285 267.754L234.555 267.418L233.828 267.082L233.098 266.742L232.371 266.406L231.641 266.066L229.461 265.047L227.281 264.016L226.559 263.672L225.105 262.984L222.938 261.941L222.211 261.594L221.488 261.242L220.766 260.895L220.047 260.543L218.602 259.84L217.883 259.484L217.16 259.133L216.441 258.777L215.719 258.422L215 258.066L214.281 257.707L213.562 257.352L212.125 256.633L211.41 256.273L210.691 255.914L209.977 255.551L209.258 255.188L208.543 254.828L207.828 254.465L207.113 254.098L206.395 253.734L205.684 253.367L203.539 252.266L202.828 251.898L202.113 251.527L199.27 250.043L198.559 249.668L197.848 249.297L196.426 248.547L195.719 248.168L195.008 247.793L193.594 247.035L192.883 246.656L191.469 245.898L190.766 245.516L189.352 244.75L188.648 244.367L187.941 243.984L187.238 243.598L186.531 243.211L184.422 242.051L183.719 241.66L183.02 241.273L181.613 240.492L180.914 240.098L180.215 239.707L179.512 239.312L176.715 237.734L176.02 237.336L175.32 236.938L174.625 236.539L173.926 236.141L173.23 235.742L172.535 235.34L171.836 234.938L171.141 234.535L170.449 234.133L169.754 233.73L169.059 233.324L168.367 232.922L167.672 232.516L166.98 232.109" stroke="#0012F6" stroke-miterlimit="2" stroke-dasharray="3 3"/>
<path d="M233.844 274.984L234.062 268.172L234.113 266.469L234.223 263.062L234.273 261.359L234.328 259.656L234.379 257.953L234.434 256.25L234.891 240.922L234.938 239.215L234.988 237.512L235.035 235.809L235.086 234.105L235.18 230.699L235.23 228.996L235.418 222.184L235.461 220.48L235.508 218.777L235.555 217.07L235.602 215.367L235.645 213.664L235.691 211.961L235.777 208.555L235.824 206.852L235.953 201.742L235.996 200.035L236.125 194.926L236.164 193.223L236.207 191.52L236.246 189.816L236.289 188.113L236.328 186.406L236.371 184.703L236.605 174.484L236.645 172.777L236.723 169.371L236.758 167.668L236.797 165.965L236.832 164.262L236.871 162.559L236.906 160.852L236.941 159.148L236.98 157.445L237.086 152.336L237.121 150.629L237.152 148.926L237.223 145.52L237.254 143.816L237.289 142.113L237.32 140.406L237.355 138.703L237.48 131.891L237.512 130.184L237.637 123.371L237.664 121.664L237.695 119.961L237.75 116.555L237.781 114.852L237.809 113.148L237.836 111.441L237.918 106.332" stroke="#0024ED" stroke-miterlimit="2" stroke-dasharray="3 3"/>
<path d="M304.922 137.66L303.812 137.113L303.262 136.84L302.707 136.566L301.043 135.758L300.484 135.488L299.93 135.219L299.375 134.953L298.816 134.684L298.262 134.418L297.703 134.156L297.145 133.891L296.586 133.629L296.031 133.363L295.469 133.102L294.91 132.844L294.352 132.582L293.793 132.324L293.234 132.062L292.672 131.805L292.113 131.551L291.551 131.293L290.988 131.039L290.426 130.781L289.867 130.527L289.305 130.277L288.742 130.023L288.176 129.773L287.613 129.52L286.488 129.02L285.922 128.773L285.359 128.523L283.66 127.785L283.098 127.543L282.531 127.297L281.965 127.055L281.395 126.812L280.828 126.57L280.262 126.332L279.695 126.09L279.125 125.852L278.559 125.613L277.988 125.375L277.418 125.141L276.848 124.902L276.281 124.668L275.141 124.199L274.57 123.969L273.996 123.734L272.855 123.273L272.281 123.043L271.711 122.812L271.137 122.586L270.566 122.359L268.844 121.68L265.973 120.566L265.395 120.348L264.82 120.129L264.242 119.91L263.668 119.691L263.09 119.473L261.934 119.043L261.359 118.828L260.203 118.398L259.621 118.188L257.887 117.555L257.305 117.344L256.727 117.137L256.145 116.93L255.566 116.723L254.402 116.309L251.492 115.293L250.328 114.895L249.742 114.695L249.16 114.496L248.574 114.301" stroke="#0037E4" stroke-miterlimit="2" stroke-dasharray="3 3"/>
<path d="M299.266 138.75L298.875 137.816L298.48 136.883L298.086 135.953L297.688 135.02L297.289 134.09L296.887 133.16L296.48 132.234L296.074 131.305L295.668 130.379L294.848 128.527L294.434 127.602L294.016 126.68L293.598 125.754L293.18 124.832L292.758 123.914L291.906 122.07L291.047 120.234L290.613 119.32L290.18 118.402L289.305 116.574L288.422 114.746L287.977 113.836L287.527 112.922L287.078 112.012L286.629 111.105L286.176 110.195L285.262 108.383L284.34 106.57L283.41 104.766L282.473 102.961L282 102.062L281.527 101.16L281.051 100.262L280.57 99.3672L280.09 98.4688L278.637 95.7852L278.145 94.8945L277.656 94.0039L276.168 91.332L275.668 90.4453L275.164 89.5586L274.66 88.6758L274.152 87.7891L273.645 86.9062L272.621 85.1406L272.105 84.2617L271.066 82.5039L270.547 81.6289L270.02 80.75L269.496 79.875L268.965 79L267.902 77.2578L267.367 76.3867L266.828 75.5156L266.289 74.6484L265.203 72.9141L264.656 72.0508L263.555 70.3242L263 69.4609L262.445 68.6016L261.328 66.8828L260.766 66.0273L259.633 64.3164L259.062 63.4609L258.492 62.6094L257.918 61.7578L256.762 60.0625L256.18 59.2148L255.594 58.3672L254.422 56.6797L253.828 55.8359L253.238 54.9961L252.641 54.1562L252.043 53.3203L251.441 52.4805L250.84 51.6484L250.234 50.8125" stroke="#0049DB" stroke-miterlimit="2" stroke-dasharray="3 3"/>
<path d="M307.246 69.207L305.746 68.8086L304.246 68.4219L302.746 68.0391L301.242 67.6641L299.734 67.2969L298.23 66.9375L296.723 66.5859L295.215 66.2422L293.703 65.9062L292.191 65.5781L290.68 65.2578L289.168 64.9453L287.652 64.6367L286.137 64.3398L284.617 64.0508L283.102 63.7656L281.582 63.4922L280.062 63.2227L278.539 62.9648L277.016 62.7109L275.492 62.4648L273.969 62.2305L272.445 62L270.918 61.7773L269.391 61.5625L267.863 61.3555L266.336 61.1562L264.805 60.9609L263.277 60.7773L261.746 60.6016L260.215 60.4297L258.684 60.2695L257.148 60.1133L255.617 59.9688L254.082 59.8281L252.547 59.6953L251.016 59.5742L249.477 59.457L247.941 59.3477L246.406 59.2461L244.871 59.1484L243.332 59.0625L241.797 58.9844L240.258 58.9141L238.719 58.8477L237.18 58.793L235.641 58.7422L234.102 58.6992L232.562 58.668L231.023 58.6406L229.484 58.6211L227.945 58.6094L226.406 58.6055L224.867 58.6094L223.328 58.6211L221.785 58.6406L220.246 58.6641L218.707 58.6992L217.168 58.7422L215.629 58.7891L214.09 58.8477L212.551 58.9102L211.012 58.9805L209.473 59.0625L207.934 59.1484L206.395 59.2422L204.855 59.3438L203.316 59.4531L201.781 59.5703L200.242 59.6953L198.707 59.8281L197.168 59.9648L195.633 60.1133L194.098 60.2695L192.562 60.4297L191.027 60.6016L189.496 60.7812L187.961 60.9648L186.43 61.1602L184.895 61.3594L183.363 61.5664L181.832 61.7852L180.305 62.0078L178.773 62.2383L177.246 62.4805L175.719 62.7266L174.191 62.9805L172.664 63.2422L171.137 63.5117L169.613 63.793L168.09 64.0781L166.566 64.3711L165.047 64.6719L163.527 64.9805L162.008 65.2969L160.488 65.6211L158.973 65.9531L157.453 66.2969L155.941 66.6445" stroke="#005BD1" stroke-miterlimit="2" stroke-dasharray="3 3"/>
<path d="M212.344 48.6953L211.746 48.8672L210.559 49.2188L209.969 49.3984L209.375 49.5742L208.781 49.7539L208.191 49.9375L207.598 50.1172L207.008 50.3008L206.418 50.4883L205.828 50.6719L204.648 51.0469L204.059 51.2383L203.473 51.4258L202.883 51.6211L202.297 51.8125L201.711 52.0078L201.121 52.2031L199.949 52.5938L199.367 52.793L198.781 52.9961L198.195 53.1953L197.613 53.3984L197.027 53.6016L196.445 53.8047L194.699 54.4258L194.117 54.6367L193.539 54.8477L192.957 55.0586L192.379 55.2734L191.797 55.4844L191.219 55.6992L189.484 56.3555L188.91 56.5742L188.332 56.793L187.754 57.0156L187.18 57.2383L184.883 58.1445L184.309 58.375L183.738 58.6055L183.164 58.8359L182.594 59.0664L181.453 59.5352L180.883 59.7734L180.312 60.0078L179.742 60.2461L179.172 60.4883L178.605 60.7266L178.039 60.9688L177.469 61.2109L176.902 61.457L176.34 61.6992L175.773 61.9453L175.207 62.1953L174.641 62.4414L173.516 62.9414L171.266 63.957L170.703 64.2148L169.586 64.7305L169.023 64.9883L167.906 65.5117L167.352 65.7773L166.793 66.0391L166.234 66.3047L165.68 66.5703L163.461 67.6484L162.906 67.9219L162.355 68.1953L161.801 68.4688L161.25 68.7461L160.699 69.0195L160.148 69.2969L159.598 69.5781L159.051 69.8555L158.5 70.1367L157.953 70.4219L157.402 70.7031L155.762 71.5586" stroke="#006DC8" stroke-miterlimit="2" stroke-dasharray="3 3"/>
<path d="M213.113 52.6016L212.461 53.625L211.816 54.6484L210.535 56.7031L209.898 57.7344L209.266 58.7617L208.637 59.7969L208.012 60.8281L207.387 61.8672L206.77 62.9023L205.535 64.9805L204.926 66.0195L204.32 67.0625L203.715 68.1094L203.113 69.1523L201.918 71.2461L200.738 73.3477L200.152 74.3984L199.566 75.4531L198.41 77.5625L197.836 78.6211L196.695 80.7383L196.129 81.8008L195.566 82.8633L195.008 83.9258L193.898 86.0586L193.348 87.125L192.801 88.1914L192.254 89.2617L191.715 90.332L191.176 91.4062L190.637 92.4766L190.105 93.5547L189.574 94.6289L189.047 95.7031L188.523 96.7812L188 97.8633L187.48 98.9414L186.965 100.023L185.941 102.188L185.434 103.273L184.426 105.445L183.926 106.531L183.43 107.621L182.445 109.801L181.957 110.895L180.988 113.082L180.508 114.176L180.031 115.273L179.086 117.469L178.617 118.566L178.148 119.668L176.766 122.973L175.859 125.184L174.961 127.395L174.516 128.504L174.074 129.613L173.199 131.832L172.766 132.945L172.336 134.055L171.906 135.168L171.48 136.285L171.059 137.398L170.637 138.516L170.219 139.633L169.391 141.867L168.98 142.988L168.168 145.23L167.766 146.352L167.367 147.477L166.973 148.598L166.578 149.723L166.188 150.848L165.797 151.977L165.41 153.102L165.027 154.23L164.27 156.488L163.895 157.621L163.52 158.75L163.148 159.883" stroke="#0080BF" stroke-miterlimit="2" stroke-dasharray="3 3"/>
<path d="M232.152 125.199L231.547 124.48L230.938 123.758L229.109 121.602L228.496 120.887L227.883 120.168L226.656 118.738L225.422 117.309L224.805 116.598L224.188 115.883L223.57 115.172L222.949 114.461L222.328 113.754L221.703 113.043L221.082 112.336L219.207 110.215L218.578 109.508L217.953 108.805L217.324 108.102L216.691 107.398L216.062 106.695L215.43 105.996L214.797 105.293L214.164 104.594L213.527 103.895L212.895 103.199L212.258 102.5L211.617 101.805L210.98 101.109L209.699 99.7188L209.059 99.0273L208.414 98.332L207.773 97.6406L207.125 96.9531L206.48 96.2617L205.836 95.5742L205.188 94.8828L204.539 94.1953L203.891 93.5117L203.238 92.8242L201.281 90.7734L200.625 90.0898L199.969 89.4102L199.312 88.7266L198.656 88.0469L197.996 87.3711L197.336 86.6914L196.676 86.0156L196.012 85.3398L195.352 84.6641L194.688 83.9883L194.023 83.3164L192.02 81.3008L190.68 79.9609L190.008 79.293L189.336 78.6289L188.664 77.9609L186.637 75.9688L185.957 75.3086L185.281 74.6445L184.598 73.9844L183.918 73.3242L183.234 72.668L182.555 72.0117L181.867 71.3555L181.184 70.6992L180.496 70.043L179.121 68.7383L178.43 68.0859L177.738 67.4375L177.047 66.7852L176.352 66.1367L175.66 65.4922L174.961 64.8438L174.266 64.1992L172.867 62.9102L171.469 61.6289L170.062 60.3477L167.941 58.4375L167.234 57.8047" stroke="#0092B6" stroke-miterlimit="2" stroke-dasharray="3 3"/>
<path d="M209.125 45.5938L208.641 45.7383L208.156 45.8867L207.676 46.0312L207.191 46.1797L206.711 46.332L206.227 46.4805L205.746 46.6289L205.266 46.7812L204.781 46.9336L204.301 47.0859L203.82 47.2422L203.34 47.3945L202.863 47.5508L201.422 48.0195L200.945 48.1797L200.465 48.3398L199.512 48.6602L199.031 48.8203L196.648 49.6406L196.176 49.8086L195.223 50.1445L194.75 50.3125L194.273 50.4844L193.801 50.6523L193.328 50.8242L192.852 50.9961L192.379 51.168L191.906 51.3438L191.434 51.5156L190.488 51.8672L190.02 52.0469L189.547 52.2227L189.078 52.4023L188.605 52.5781L188.137 52.7578L187.664 52.9414L187.195 53.1211L184.852 54.0391L184.383 54.2266L183.918 54.4141L183.449 54.6016L182.984 54.7891L182.516 54.9766L180.656 55.7422L180.191 55.9375L179.727 56.1289L178.797 56.5195L178.336 56.7148L177.871 56.9141L177.41 57.1094L176.945 57.3086L175.562 57.9062L173.719 58.7188L173.262 58.9219L172.801 59.1289L172.344 59.3359L171.883 59.543L170.969 59.957L170.512 60.168L170.055 60.375L169.141 60.7969L168.684 61.0117L168.23 61.2227L167.773 61.4375L167.32 61.6523L166.863 61.8672L166.41 62.082L165.957 62.3008L165.504 62.5156L164.145 63.1719L163.695 63.3945L163.242 63.6133L162.793 63.8359" stroke="#00A4AD" stroke-miterlimit="2" stroke-dasharray="3 3"/>
<path d="M205.219 50.3477L203.969 52.2305L203.348 53.1758L202.734 54.1211L202.117 55.0664L201.508 56.0156L200.297 57.9141L199.094 59.8203L197.906 61.7344L197.316 62.6914L196.73 63.6523L196.145 64.6094L195.566 65.5742L194.988 66.5352L194.41 67.5L193.84 68.4688L193.27 69.4336L192.137 71.3711L191.02 73.3164L190.465 74.2891L189.91 75.2656L189.359 76.2422L188.812 77.2188L188.27 78.1953L187.191 80.1562L186.656 81.1406L186.121 82.1211L185.59 83.1094L185.062 84.0938L184.016 86.0703L183.5 87.0586L182.98 88.0469L181.957 90.0312L181.449 91.0273L180.941 92.0195L180.441 93.0156L179.941 94.0156L179.441 95.0117L177.965 98.0117L176.996 100.02L176.516 101.023L176.035 102.031L175.559 103.035L175.086 104.043L174.617 105.051L174.148 106.062L173.219 108.086L172.758 109.098L172.301 110.109L171.395 112.141L170.945 113.156L170.496 114.176L170.051 115.195L169.609 116.215L168.734 118.254L167.867 120.301L167.441 121.324L167.012 122.352L166.59 123.375L166.168 124.402L165.75 125.43L165.332 126.461L164.918 127.488L164.508 128.52L163.695 130.582L163.289 131.617L162.492 133.688L161.703 135.758L161.312 136.797L160.922 137.832L160.539 138.871L160.156 139.914L159.773 140.953L159.395 141.996L159.02 143.035L158.648 144.082L158.277 145.125L157.91 146.168L157.543 147.215L157.18 148.262L156.82 149.309" stroke="#00B6A4" stroke-miterlimit="2" stroke-dasharray="3 3"/>
<path d="M224.461 115.938L223.859 116.145L223.262 116.352L222.66 116.562L222.062 116.77L221.465 116.98L220.867 117.195L220.266 117.406L219.668 117.621L219.07 117.832L218.477 118.051L217.281 118.48L216.684 118.699L216.09 118.918L215.492 119.137L214.305 119.574L213.707 119.797L211.926 120.465L211.332 120.691L210.738 120.914L210.148 121.141L208.961 121.594L208.371 121.824L207.777 122.055L206.598 122.516L206.004 122.746L205.414 122.977L203.645 123.68L203.059 123.914L202.469 124.152L201.879 124.387L201.293 124.625L200.703 124.863L200.117 125.105L199.531 125.344L198.941 125.586L197.184 126.312L196.598 126.559L196.012 126.801L195.43 127.047L194.844 127.293L194.258 127.543L193.676 127.789L193.094 128.039L192.508 128.289L191.344 128.789L190.762 129.043L190.18 129.293L189.016 129.801L188.434 130.059L187.855 130.312L187.273 130.57L186.695 130.828L186.113 131.086L185.535 131.344L184.957 131.605L184.379 131.863L183.223 132.387L182.645 132.652L182.066 132.914L181.492 133.18L180.914 133.445L180.34 133.711L179.762 133.977L179.188 134.246L178.613 134.512L177.465 135.051L176.891 135.324L176.316 135.594L175.168 136.141L174.598 136.414L174.023 136.688L173.453 136.965L172.879 137.238L171.738 137.793L171.168 138.074L170.598 138.352L169.457 138.914L168.891 139.195L168.32 139.477L167.754 139.758L167.184 140.043L166.617 140.328" stroke="#00C89B" stroke-miterlimit="2" stroke-dasharray="3 3"/>
<path d="M217.59 115.75L217.082 115.918L215.57 116.422L215.066 116.594L214.562 116.762L212.043 117.621L211.539 117.797L211.039 117.969L210.031 118.32L209.531 118.496L209.027 118.672L208.527 118.852L208.027 119.027L207.523 119.207L205.523 119.926L205.023 120.109L204.523 120.289L202.523 121.023L202.027 121.207L201.527 121.391L201.027 121.578L200.531 121.766L200.031 121.953L199.039 122.328L198.539 122.516L198.043 122.707L197.547 122.895L195.066 123.852L194.074 124.242L193.578 124.434L193.082 124.629L192.59 124.824L192.094 125.023L191.602 125.219L191.105 125.414L190.121 125.812L189.625 126.012L188.641 126.41L188.148 126.613L187.656 126.812L184.703 128.031L184.215 128.238L183.723 128.445L183.234 128.652L182.742 128.859L182.254 129.066L181.762 129.273L181.273 129.484L180.785 129.691L179.809 130.113L179.316 130.324L178.828 130.535L178.344 130.746L177.855 130.961L177.367 131.172L176.391 131.602L175.906 131.816L175.418 132.031L174.934 132.25L174.445 132.465L173.961 132.684L173.477 132.898L172.988 133.117L172.504 133.336L172.02 133.559L171.535 133.777L171.051 134L170.566 134.219L169.113 134.887L168.633 135.109" stroke="#00DB92" stroke-miterlimit="2" stroke-dasharray="3 3"/>
<path d="M219.477 111.285L219.762 110.75L220.332 109.672L220.621 109.137L220.906 108.598L221.195 108.062L221.484 107.523L221.77 106.988L222.059 106.453L222.352 105.918L222.641 105.379L222.93 104.844L223.223 104.309L223.512 103.773L224.098 102.703L224.391 102.172L224.977 101.102L225.273 100.57L225.566 100.035L225.863 99.5L226.156 98.9688L226.453 98.4375L226.75 97.9023L227.344 96.8398L227.645 96.3086L227.941 95.7773L228.543 94.7148L228.84 94.1836L229.141 93.6523L229.445 93.1211L229.746 92.5898L230.047 92.0625L230.352 91.5312L230.652 91.0039L230.957 90.4727L231.566 89.418L231.871 88.8867L232.176 88.3594L232.484 87.832L232.789 87.3047L233.406 86.25L233.711 85.7227L234.023 85.1953L234.332 84.6719L234.949 83.6172L235.262 83.0938L235.574 82.5664L235.883 82.043L236.195 81.5195L236.512 80.9922L237.137 79.9453L237.453 79.4219L237.766 78.8984L238.715 77.3281L239.031 76.8086L239.348 76.2852L239.668 75.7617L239.984 75.2422L240.305 74.7188L240.945 73.6797L241.266 73.1562L241.906 72.1172L242.555 71.0781L242.875 70.5586L243.199 70.0391L243.523 69.5234L243.852 69.0039L244.176 68.4883L244.5 67.9688L244.828 67.4531L245.156 66.9336L246.141 65.3867L246.469 64.8672L246.801 64.3516L247.129 63.8398L248.125 62.293L248.457 61.7812L248.789 61.2656L249.125 60.7539L249.457 60.2383L250.129 59.2148" stroke="#00ED89" stroke-miterlimit="2" stroke-dasharray="3 3"/>
<mask id="mask0_41_1577" style="mask-type:luminance" maskUnits="userSpaceOnUse" x="-2" y="-26" width="468" height="468">
<path d="M-2 -26H466V442H-2V-26Z" fill="white"/>
</mask>
<g mask="url(#mask0_41_1577)">
<path fill-rule="evenodd" clip-rule="evenodd" d="M-1.78413e+06 1.78457e+06V-1.78415e+06H1.78459e+06V1.78457e+06H-1.78413e+06ZM410.5 208L410 195.375L408.625 182.875L406.5 170.5L403.375 158.25L399.375 146.25L394.625 134.625L389.125 123.375L382.75 112.5L375.625 102.125L367.75 92.25L359.25 83L350.125 74.25L340.375 66.25L330.125 59L319.375 52.375L308.25 46.625L296.625 41.625L284.75 37.5L272.625 34.25L260.25 31.75L247.75 30.25L235.125 29.625L222.5 29.75L210 30.875L197.625 32.875L185.25 35.75L173.25 39.5L161.5 44.125L150.125 49.5L139.125 55.625L128.625 62.5L118.625 70.25L109.25 78.5L100.375 87.5L92.25 97.125L84.75 107.25L78 117.875L72 129L66.875 140.5L62.5 152.25L59 164.375L56.375 176.625L54.5 189.125L53.625 201.75V214.25L54.5 226.875L56.375 239.375L59 251.625L62.5 263.75L66.875 275.5L72 287L78 298.125L84.75 308.75L92.25 318.875L100.375 328.5L109.25 337.5L118.625 345.75L128.625 353.5L139.125 360.375L150.125 366.5L161.5 371.875L173.25 376.5L185.25 380.25L197.625 383.125L210 385.125L222.5 386.25L235.125 386.375L247.75 385.75L260.25 384.25L272.625 381.75L284.75 378.5L296.625 374.375L308.25 369.375L319.375 363.625L330.125 357L340.375 349.75L350.125 341.75L359.25 333L367.75 323.75L375.625 313.875L382.75 303.5L389.125 292.625L394.625 281.375L399.375 269.75L403.375 257.75L406.5 245.5L408.625 233.125L410 220.625L410.5 208Z" fill="white"/>
</g>
<path d="M410.438 208L409.992 195.414L408.66 182.891L406.449 170.492L403.367 158.277L399.434 146.312L394.664 134.656L389.086 123.367L382.727 112.496L375.613 102.102L367.785 92.2344L359.281 82.9453L350.145 74.2773L340.418 66.2773L330.148 58.9844L319.395 52.4297L308.203 46.6523L296.633 41.6797L284.738 37.5352L272.582 34.2383L260.223 31.8086L247.727 30.2578L235.148 29.5938L222.555 29.8125L210.012 30.9258L197.574 32.918L185.312 35.7812L173.277 39.5039L161.539 44.0664L150.152 49.4453L139.172 55.6133L128.652 62.5391L118.648 70.1914L109.211 78.5312L100.383 87.5156L92.2148 97.0977L84.7383 107.234L77.9961 117.875L72.0234 128.961L66.8477 140.445L62.4922 152.262L58.9844 164.355L56.3359 176.672L54.5625 189.141L53.6758 201.703V214.297L54.5625 226.859L56.3359 239.328L58.9844 251.645L62.4922 263.738L66.8477 275.555L72.0234 287.039L77.9961 298.125L84.7383 308.766L92.2148 318.902L100.383 328.484L109.211 337.469L118.648 345.809L128.652 353.461L139.172 360.387L150.152 366.555L161.539 371.934L173.277 376.496L185.312 380.219L197.574 383.082L210.012 385.074L222.555 386.188L235.148 386.406L247.727 385.742L260.223 384.191L272.582 381.762L284.738 378.465L296.633 374.32L308.203 369.348L319.395 363.57L330.148 357.016L340.418 349.723L350.145 341.723L359.281 333.055L367.785 323.766L375.613 313.898L382.727 303.504L389.086 292.633L394.664 281.344L399.434 269.688L403.367 257.723L406.449 245.508L408.66 233.109L409.992 220.586L410.438 208Z" stroke="black" stroke-width="2" stroke-miterlimit="2"/>
<path d="M230.915 225.25C230.915 230.89 228.868 234.125 225.056 234.125C222.571 234.125 220.821 232.547 220.431 229.875H222.462C222.775 231.437 223.759 232.328 225.196 232.328C227.509 232.328 228.806 230.125 228.821 226.14C227.775 227.406 226.634 227.969 225.103 227.969C222.15 227.969 220.087 225.922 220.087 222.875C220.087 219.687 222.321 217.469 225.415 217.469C229.15 217.469 230.915 220.14 230.915 225.25ZM228.712 222.828C228.712 220.719 227.29 219.25 225.4 219.25C223.54 219.25 222.15 220.64 222.15 222.719C222.15 224.906 223.368 226.172 225.337 226.172C227.306 226.172 228.712 224.828 228.712 222.828Z" fill="black"/>
<path d="M243.656 225.937C243.656 231.297 241.781 234.125 238.328 234.125C234.828 234.125 232.984 231.297 232.984 225.797C232.984 220.328 234.812 217.469 238.328 217.469C241.859 217.469 243.656 220.281 243.656 225.937ZM241.594 225.75C241.594 221.39 240.516 219.265 238.328 219.265C236.141 219.265 235.062 221.359 235.062 225.828C235.062 230.281 236.141 232.453 238.281 232.453C240.531 232.453 241.594 230.375 241.594 225.75Z" fill="black"/>
<path d="M316.172 228.719C316.172 231.922 313.937 234.125 310.844 234.125C307.109 234.125 305.359 231.437 305.359 226.359C305.359 220.672 307.406 217.469 311.203 217.469C313.687 217.469 315.437 219.062 315.828 221.734H313.812C313.484 220.172 312.5 219.265 311.062 219.265C308.75 219.265 307.453 221.469 307.437 225.453C308.312 224.265 309.578 223.64 311.187 223.64C314.109 223.64 316.172 225.687 316.172 228.719ZM314.109 228.875C314.109 226.703 312.89 225.437 310.937 225.437C308.922 225.437 307.547 226.75 307.547 228.765C307.547 230.859 308.969 232.328 310.859 232.328C312.719 232.328 314.109 230.922 314.109 228.875Z" fill="black"/>
<path d="M328.819 225.937C328.819 231.297 326.944 234.125 323.491 234.125C319.991 234.125 318.147 231.297 318.147 225.797C318.147 220.328 319.975 217.469 323.491 217.469C327.022 217.469 328.819 220.281 328.819 225.937ZM326.756 225.75C326.756 221.39 325.678 219.265 323.491 219.265C321.303 219.265 320.225 221.359 320.225 225.828C320.225 230.281 321.303 232.453 323.444 232.453C325.694 232.453 326.756 230.375 326.756 225.75Z" fill="black"/>
<path d="M401.178 229.047C401.178 232.125 399.006 234.125 395.662 234.125C392.319 234.125 390.522 232.5 390.272 228.859H392.303C392.428 231.234 393.522 232.328 395.725 232.328C397.834 232.328 399.1 231.109 399.1 229.062C399.1 227.25 397.959 226.187 395.725 226.187H394.615V224.484C397.865 224.484 398.615 223.781 398.615 222.031C398.615 220.297 397.537 219.25 395.74 219.25C393.678 219.25 392.694 220.328 392.647 222.734H390.615C390.694 219.265 392.428 217.469 395.725 217.469C398.834 217.469 400.694 219.156 400.694 221.953C400.694 223.594 399.928 224.656 398.412 225.25C400.365 225.922 401.178 227.062 401.178 229.047Z" fill="black"/>
<path d="M413.982 225.937C413.982 231.297 412.107 234.125 408.654 234.125C405.154 234.125 403.31 231.297 403.31 225.797C403.31 220.328 405.138 217.469 408.654 217.469C412.185 217.469 413.982 220.281 413.982 225.937ZM411.919 225.75C411.919 221.39 410.841 219.265 408.654 219.265C406.466 219.265 405.388 221.359 405.388 225.828C405.388 230.281 406.466 232.453 408.607 232.453C410.857 232.453 411.919 230.375 411.919 225.75Z" fill="black"/>
<path d="M426.092 208.54C426.092 213.899 424.217 216.727 420.764 216.727C417.264 216.727 415.42 213.899 415.42 208.399C415.42 202.93 417.249 200.071 420.764 200.071C424.295 200.071 426.092 202.883 426.092 208.54ZM424.03 208.352C424.03 203.993 422.952 201.868 420.764 201.868C418.577 201.868 417.499 203.962 417.499 208.43C417.499 212.883 418.577 215.055 420.717 215.055C422.967 215.055 424.03 212.977 424.03 208.352Z" fill="black"/>
<path d="M435.177 203.571C435.177 205.477 433.74 206.93 431.818 206.93C429.911 206.93 428.458 205.477 428.458 203.571C428.458 201.665 429.911 200.212 431.818 200.212C433.74 200.212 435.177 201.665 435.177 203.571ZM434.083 203.571C434.083 202.352 433.036 201.196 431.818 201.196C430.599 201.196 429.568 202.352 429.568 203.571C429.568 204.79 430.599 205.946 431.818 205.946C433.036 205.946 434.083 204.79 434.083 203.571Z" fill="black"/>
<path d="M372.955 70.078H370.549V73.9843H368.517V70.078H361.642V67.9374L369.049 57.6718H370.549V68.2499H372.955V70.078ZM368.517 68.2499V61.1249L363.424 68.2499H368.517Z" fill="black"/>
<path d="M385.587 68.578C385.587 72.0311 383.29 74.328 379.993 74.328C377.102 74.328 375.259 73.0468 374.602 69.7968H376.618C377.102 71.6405 378.18 72.5311 379.946 72.5311C382.165 72.5311 383.524 71.203 383.524 68.8593C383.524 66.4374 382.134 65.0311 379.946 65.0311C378.696 65.0311 377.899 65.4218 376.962 66.5624H375.102L376.321 58.0155H384.743V60.0155H377.946L377.305 64.2343C378.259 63.5468 379.165 63.2499 380.321 63.2499C383.446 63.2499 385.587 65.3593 385.587 68.578Z" fill="black"/>
<path d="M394.531 61.1718C394.531 63.078 393.093 64.5311 391.172 64.5311C389.265 64.5311 387.812 63.078 387.812 61.1718C387.812 59.2655 389.265 57.8124 391.172 57.8124C393.093 57.8124 394.531 59.2655 394.531 61.1718ZM393.437 61.1718C393.437 59.953 392.39 58.7968 391.172 58.7968C389.953 58.7968 388.922 59.953 388.922 61.1718C388.922 62.3905 389.953 63.5468 391.172 63.5468C392.39 63.5468 393.437 62.3905 393.437 61.1718Z" fill="black"/>
<path d="M226.315 12.0187C226.315 17.6594 224.268 20.8937 220.456 20.8937C217.971 20.8937 216.221 19.3156 215.831 16.6437H217.862C218.174 18.2062 219.159 19.0969 220.596 19.0969C222.909 19.0969 224.206 16.8937 224.221 12.9094C223.174 14.175 222.034 14.7375 220.503 14.7375C217.549 14.7375 215.487 12.6906 215.487 9.64374C215.487 6.45624 217.721 4.23749 220.815 4.23749C224.549 4.23749 226.315 6.90936 226.315 12.0187ZM224.112 9.59686C224.112 7.48749 222.69 6.01874 220.799 6.01874C218.94 6.01874 217.549 7.40936 217.549 9.48749C217.549 11.675 218.768 12.9406 220.737 12.9406C222.706 12.9406 224.112 11.5969 224.112 9.59686Z" fill="black"/>
<path d="M239.056 12.7062C239.056 18.0656 237.181 20.8937 233.728 20.8937C230.228 20.8937 228.384 18.0656 228.384 12.5656C228.384 7.09686 230.213 4.23749 233.728 4.23749C237.259 4.23749 239.056 7.04999 239.056 12.7062ZM236.994 12.5187C236.994 8.15936 235.916 6.03436 233.728 6.03436C231.541 6.03436 230.463 8.12811 230.463 12.5969C230.463 17.05 231.541 19.2219 233.681 19.2219C235.931 19.2219 236.994 17.1437 236.994 12.5187Z" fill="black"/>
<path d="M248.141 7.73749C248.141 9.64374 246.704 11.0969 244.782 11.0969C242.875 11.0969 241.422 9.64374 241.422 7.73749C241.422 5.83124 242.875 4.37811 244.782 4.37811C246.704 4.37811 248.141 5.83124 248.141 7.73749ZM247.047 7.73749C247.047 6.51874 246 5.36249 244.782 5.36249C243.563 5.36249 242.532 6.51874 242.532 7.73749C242.532 8.95624 243.563 10.1125 244.782 10.1125C246 10.1125 247.047 8.95624 247.047 7.73749Z" fill="black"/>
<path d="M63.4186 73.9843H61.3874V62.3749H57.778V60.9218C60.903 60.5311 61.3718 60.1874 62.0749 57.6718H63.4186V73.9843Z" fill="black"/>
<path d="M79.8629 69.2499C79.8629 72.328 77.691 74.328 74.3473 74.328C71.0035 74.328 69.2067 72.703 68.9567 69.0624H70.9879C71.1129 71.4374 72.2067 72.5311 74.4098 72.5311C76.5192 72.5311 77.7848 71.3124 77.7848 69.2655C77.7848 67.453 76.6442 66.3905 74.4098 66.3905H73.3004V64.6874C76.5504 64.6874 77.3004 63.9843 77.3004 62.2343C77.3004 60.4999 76.2223 59.453 74.4254 59.453C72.3629 59.453 71.3785 60.5311 71.3317 62.9374H69.3004C69.3785 59.4686 71.1129 57.6718 74.4098 57.6718C77.5192 57.6718 79.3785 59.3593 79.3785 62.1561C79.3785 63.7968 78.6129 64.8593 77.0973 65.453C79.0504 66.1249 79.8629 67.2655 79.8629 69.2499Z" fill="black"/>
<path d="M92.8071 68.578C92.8071 72.0311 90.5103 74.328 87.2134 74.328C84.3228 74.328 82.479 73.0468 81.8228 69.7968H83.8384C84.3228 71.6405 85.4009 72.5311 87.1665 72.5311C89.3853 72.5311 90.7446 71.203 90.7446 68.8593C90.7446 66.4374 89.354 65.0311 87.1665 65.0311C85.9165 65.0311 85.1196 65.4218 84.1821 66.5624H82.3228L83.5415 58.0155H91.9634V60.0155H85.1665L84.5259 64.2343C85.479 63.5468 86.3853 63.2499 87.5415 63.2499C90.6665 63.2499 92.8071 65.3593 92.8071 68.578Z" fill="black"/>
<path d="M101.751 61.1718C101.751 63.078 100.314 64.5311 98.392 64.5311C96.4858 64.5311 95.0327 63.078 95.0327 61.1718C95.0327 59.2655 96.4858 57.8124 98.392 57.8124C100.314 57.8124 101.751 59.2655 101.751 61.1718ZM100.658 61.1718C100.658 59.953 99.6108 58.7968 98.392 58.7968C97.1733 58.7968 96.142 59.953 96.142 61.1718C96.142 62.3905 97.1733 63.5468 98.392 63.5468C99.6108 63.5468 100.658 62.3905 100.658 61.1718Z" fill="black"/>
<path d="M9.98438 216.384H7.95312V204.774H4.34375V203.321C7.46875 202.93 7.9375 202.587 8.64062 200.071H9.98438V216.384Z" fill="black"/>
<path d="M26.5849 211.79C26.5849 214.743 24.3349 216.727 21.1161 216.727C17.8974 216.727 15.6318 214.743 15.6318 211.759C15.6318 209.962 16.5536 208.696 18.4286 207.805C16.7724 206.774 16.2099 205.946 16.2099 204.43C16.2099 201.868 18.2411 200.071 21.1161 200.071C24.0068 200.071 26.0068 201.868 26.0068 204.43C26.0068 205.962 25.4599 206.79 23.788 207.805C25.663 208.696 26.5849 209.962 26.5849 211.79ZM23.9443 204.477C23.9443 202.884 22.8349 201.868 21.1161 201.868C19.413 201.868 18.288 202.884 18.288 204.446C18.288 205.993 19.413 206.993 21.1161 206.993C22.8193 206.993 23.9443 205.993 23.9443 204.477ZM24.5224 211.805C24.5224 209.899 23.1318 208.696 21.1161 208.696C19.0849 208.696 17.7099 209.899 17.7099 211.805C17.7099 213.712 19.0849 214.93 21.0693 214.93C23.1318 214.93 24.5224 213.743 24.5224 211.805Z" fill="black"/>
<path d="M39.2322 208.54C39.2322 213.899 37.3572 216.727 33.9041 216.727C30.4041 216.727 28.5604 213.899 28.5604 208.399C28.5604 202.93 30.3885 200.071 33.9041 200.071C37.4354 200.071 39.2322 202.884 39.2322 208.54ZM37.1697 208.352C37.1697 203.993 36.0916 201.868 33.9041 201.868C31.7166 201.868 30.6385 203.962 30.6385 208.43C30.6385 212.884 31.7166 215.055 33.8572 215.055C36.1072 215.055 37.1697 212.977 37.1697 208.352Z" fill="black"/>
<path d="M48.3171 203.571C48.3171 205.477 46.8796 206.93 44.9578 206.93C43.0515 206.93 41.5984 205.477 41.5984 203.571C41.5984 201.665 43.0515 200.212 44.9578 200.212C46.8796 200.212 48.3171 201.665 48.3171 203.571ZM47.2234 203.571C47.2234 202.352 46.1765 201.196 44.9578 201.196C43.739 201.196 42.7078 202.352 42.7078 203.571C42.7078 204.79 43.739 205.946 44.9578 205.946C46.1765 205.946 47.2234 204.79 47.2234 203.571Z" fill="black"/>
<path d="M67.1843 347.267C67.1843 349.267 66.0124 350.97 63.7311 352.189L61.4343 353.423C59.4343 354.595 58.6999 355.455 58.4968 356.783H67.0749V358.783H56.2155C56.403 355.189 57.3874 353.658 60.7936 351.72L62.903 350.533C64.3561 349.705 65.1218 348.595 65.1218 347.298C65.1218 345.564 63.7311 344.251 61.903 344.251C59.903 344.251 58.7624 345.392 58.6061 348.126H56.5905C56.6999 344.173 58.6374 342.47 61.9655 342.47C65.0436 342.47 67.1843 344.501 67.1843 347.267Z" fill="black"/>
<path d="M79.9723 347.267C79.9723 349.267 78.8004 350.97 76.5192 352.189L74.2223 353.423C72.2223 354.595 71.4879 355.455 71.2848 356.783H79.8629V358.783H69.0035C69.191 355.189 70.1754 353.658 73.5817 351.72L75.691 350.533C77.1442 349.705 77.9098 348.595 77.9098 347.298C77.9098 345.564 76.5192 344.251 74.691 344.251C72.691 344.251 71.5504 345.392 71.3942 348.126H69.3785C69.4879 344.173 71.4254 342.47 74.7535 342.47C77.8317 342.47 79.9723 344.501 79.9723 347.267Z" fill="black"/>
<path d="M92.8071 353.376C92.8071 356.83 90.5103 359.126 87.2134 359.126C84.3228 359.126 82.479 357.845 81.8228 354.595H83.8384C84.3228 356.439 85.4009 357.33 87.1665 357.33C89.3853 357.33 90.7446 356.001 90.7446 353.658C90.7446 351.236 89.354 349.83 87.1665 349.83C85.9165 349.83 85.1196 350.22 84.1821 351.361H82.3228L83.5415 342.814H91.9634V344.814H85.1665L84.5259 349.033C85.479 348.345 86.3853 348.048 87.5415 348.048C90.6665 348.048 92.8071 350.158 92.8071 353.376Z" fill="black"/>
<path d="M101.751 345.97C101.751 347.876 100.314 349.33 98.392 349.33C96.4858 349.33 95.0327 347.876 95.0327 345.97C95.0327 344.064 96.4858 342.611 98.392 342.611C100.314 342.611 101.751 344.064 101.751 345.97ZM100.658 345.97C100.658 344.751 99.6108 343.595 98.392 343.595C97.1733 343.595 96.142 344.751 96.142 345.97C96.142 347.189 97.1733 348.345 98.392 348.345C99.6108 348.345 100.658 347.189 100.658 345.97Z" fill="black"/>
<path d="M219.968 400.701C219.968 402.701 218.796 404.405 216.515 405.623L214.218 406.858C212.218 408.03 211.484 408.889 211.281 410.217H219.859V412.217H208.999C209.187 408.623 210.171 407.092 213.577 405.155L215.687 403.967C217.14 403.139 217.906 402.03 217.906 400.733C217.906 398.998 216.515 397.686 214.687 397.686C212.687 397.686 211.546 398.826 211.39 401.561H209.374C209.484 397.608 211.421 395.905 214.749 395.905C217.827 395.905 219.968 397.936 219.968 400.701Z" fill="black"/>
<path d="M232.959 397.951C229.537 402.03 227.24 406.951 226.35 412.217H224.178C225.334 407.108 227.631 402.358 230.865 398.248H222.068V396.248H232.959V397.951Z" fill="black"/>
<path d="M245.45 404.373C245.45 409.733 243.575 412.561 240.122 412.561C236.622 412.561 234.778 409.733 234.778 404.233C234.778 398.764 236.606 395.905 240.122 395.905C243.653 395.905 245.45 398.717 245.45 404.373ZM243.388 404.186C243.388 399.826 242.31 397.701 240.122 397.701C237.935 397.701 236.856 399.795 236.856 404.264C236.856 408.717 237.935 410.889 240.075 410.889C242.325 410.889 243.388 408.811 243.388 404.186Z" fill="black"/>
<path d="M254.535 399.405C254.535 401.311 253.098 402.764 251.176 402.764C249.27 402.764 247.816 401.311 247.816 399.405C247.816 397.498 249.27 396.045 251.176 396.045C253.098 396.045 254.535 397.498 254.535 399.405ZM253.441 399.405C253.441 398.186 252.395 397.03 251.176 397.03C249.957 397.03 248.926 398.186 248.926 399.405C248.926 400.623 249.957 401.78 251.176 401.78C252.395 401.78 253.441 400.623 253.441 399.405Z" fill="black"/>
<path d="M372.642 354.048C372.642 357.126 370.47 359.126 367.127 359.126C363.783 359.126 361.986 357.501 361.736 353.861H363.767C363.892 356.236 364.986 357.33 367.189 357.33C369.299 357.33 370.564 356.111 370.564 354.064C370.564 352.251 369.424 351.189 367.189 351.189H366.08V349.486C369.33 349.486 370.08 348.783 370.08 347.033C370.08 345.298 369.002 344.251 367.205 344.251C365.142 344.251 364.158 345.33 364.111 347.736H362.08C362.158 344.267 363.892 342.47 367.189 342.47C370.299 342.47 372.158 344.158 372.158 346.955C372.158 348.595 371.392 349.658 369.877 350.251C371.83 350.923 372.642 352.064 372.642 354.048Z" fill="black"/>
<path d="M381.774 358.783H379.743V347.173H376.133V345.72C379.258 345.33 379.727 344.986 380.43 342.47H381.774V358.783Z" fill="black"/>
<path d="M398.375 353.376C398.375 356.83 396.078 359.126 392.781 359.126C389.89 359.126 388.046 357.845 387.39 354.595H389.406C389.89 356.439 390.968 357.33 392.734 357.33C394.953 357.33 396.312 356.001 396.312 353.658C396.312 351.236 394.921 349.83 392.734 349.83C391.484 349.83 390.687 350.22 389.75 351.361H387.89L389.109 342.814H397.531V344.814H390.734L390.093 349.033C391.046 348.345 391.953 348.048 393.109 348.048C396.234 348.048 398.375 350.158 398.375 353.376Z" fill="black"/>
<path d="M407.319 345.97C407.319 347.876 405.881 349.33 403.959 349.33C402.053 349.33 400.6 347.876 400.6 345.97C400.6 344.064 402.053 342.611 403.959 342.611C405.881 342.611 407.319 344.064 407.319 345.97ZM406.225 345.97C406.225 344.751 405.178 343.595 403.959 343.595C402.741 343.595 401.709 344.751 401.709 345.97C401.709 347.189 402.741 348.345 403.959 348.345C405.178 348.345 406.225 347.189 406.225 345.97Z" fill="black"/>
</g>
</g>
<defs>
<clipPath id="clip0_41_1577">
<rect width="438" height="416" fill="white"/>
</clipPath>
<clipPath id="clip1_41_1577">
<rect width="500" height="500" fill="white" transform="translate(-18 -42)"/>
</clipPath>
</defs>
</svg>
