<svg width="438" height="416" viewBox="0 0 438 416" fill="none" xmlns="http://www.w3.org/2000/svg">
<g clip-path="url(#clip0_41_1575)">
<rect width="438" height="416" fill="white"/>
<path d="M316.016 208L315.805 202.004L315.168 196.035L314.117 190.129L312.648 184.309L310.773 178.609L308.5 173.055L305.844 167.676L302.812 162.496L299.426 157.547L295.695 152.844L291.645 148.418L287.289 144.289L282.656 140.477L277.762 137L272.637 133.879L267.305 131.129L261.793 128.758L256.125 126.781L250.336 125.215L244.449 124.055L238.492 123.316L232.5 123L226.5 123.105L220.523 123.633L214.598 124.582L208.754 125.945L203.023 127.719L197.43 129.895L192.004 132.457L186.773 135.395L181.762 138.695L176.996 142.344L172.496 146.316L168.293 150.594L164.398 155.16L160.84 159.992L157.625 165.059L154.781 170.344L152.312 175.812L150.238 181.445L148.566 187.207L147.305 193.074L146.461 199.016L146.039 205V211L146.461 216.984L147.305 222.926L148.566 228.793L150.238 234.555L152.312 240.188L154.781 245.656L157.625 250.941L160.84 256.008L164.398 260.84L168.293 265.406L172.496 269.684L176.996 273.656L181.762 277.305L186.773 280.605L192.004 283.543L197.43 286.105L203.023 288.281L208.754 290.055L214.598 291.418L220.523 292.367L226.5 292.895L232.5 293L238.492 292.684L244.449 291.945L250.336 290.785L256.125 289.219L261.793 287.242L267.305 284.871L272.637 282.121L277.762 279L282.656 275.523L287.289 271.711L291.645 267.582L295.695 263.156L299.426 258.453L302.812 253.504L305.844 248.324L308.5 242.945L310.773 237.391L312.648 231.691L314.117 225.871L315.168 219.965L315.805 213.996L316.016 208Z" stroke="black" stroke-opacity="0.5" stroke-width="0.3" stroke-miterlimit="2"/>
<path d="M401.031 208L400.605 196.008L399.336 184.074L397.23 172.258L394.297 160.621L390.547 149.219L386.004 138.113L380.688 127.352L374.625 116.996L367.848 107.09L360.391 97.6875L352.285 88.8359L343.578 80.5781L334.309 72.9531L324.527 66.0039L314.277 59.7578L303.613 54.2539L292.586 49.5156L281.254 45.5664L269.672 42.4258L257.895 40.1094L245.984 38.6328L234 37.9961L222 38.207L210.047 39.2656L198.195 41.1641L186.512 43.8945L175.047 47.4414L163.859 51.7891L153.008 56.9141L142.543 62.7891L132.52 69.3906L122.988 76.6836L113.996 84.6289L105.586 93.1914L97.7969 102.324L90.6758 111.984L84.2539 122.121L78.5586 132.688L73.6289 143.625L69.4766 154.887L66.1328 166.414L63.6133 178.145L61.9219 190.027L61.0742 202V214L61.9219 225.973L63.6133 237.855L66.1328 249.586L69.4766 261.113L73.6289 272.375L78.5586 283.312L84.2539 293.879L90.6758 304.016L97.7969 313.676L105.586 322.809L113.996 331.371L122.988 339.316L132.52 346.609L142.543 353.211L153.008 359.086L163.859 364.211L175.047 368.559L186.512 372.105L198.195 374.836L210.047 376.734L222 377.793L234 378.004L245.984 377.367L257.895 375.891L269.672 373.574L281.254 370.434L292.586 366.484L303.613 361.746L314.277 356.242L324.527 349.996L334.309 343.047L343.578 335.422L352.285 327.164L360.391 318.312L367.848 308.91L374.625 299.004L380.688 288.648L386.004 277.887L390.547 266.781L394.297 255.379L397.23 243.742L399.336 231.926L400.605 219.992L401.031 208Z" stroke="black" stroke-opacity="0.5" stroke-width="0.3" stroke-miterlimit="2"/>
<path d="M231 208H409.438" stroke="black" stroke-opacity="0.5" stroke-width="0.3" stroke-miterlimit="1.1547"/>
<path d="M231 208L357.172 81.8281" stroke="black" stroke-opacity="0.5" stroke-width="0.3" stroke-miterlimit="1.1547"/>
<path d="M231 208V29.5625" stroke="black" stroke-opacity="0.5" stroke-width="0.3" stroke-miterlimit="1.1547"/>
<path d="M231 208L104.828 81.8281" stroke="black" stroke-opacity="0.5" stroke-width="0.3" stroke-miterlimit="1.1547"/>
<path d="M231 208H52.5625" stroke="black" stroke-opacity="0.5" stroke-width="0.3" stroke-miterlimit="1.1547"/>
<path d="M231 208L104.828 334.172" stroke="black" stroke-opacity="0.5" stroke-width="0.3" stroke-miterlimit="1.1547"/>
<path d="M231 208V386.438" stroke="black" stroke-opacity="0.5" stroke-width="0.3" stroke-miterlimit="1.1547"/>
<path d="M231 208L357.172 334.172" stroke="black" stroke-opacity="0.5" stroke-width="0.3" stroke-miterlimit="1.1547"/>
<path d="M91.4336 304.918L89.7852 295.859L88.293 286.348L86.9961 276.387L85.9219 266.004L85.1133 255.219L84.6016 244.082L84.418 232.637L84.5859 220.961L85.125 209.121L86.0469 197.203L87.3477 185.297L89.0156 173.488L91.0312 161.859L93.3672 150.492L95.9883 139.449L98.8594 128.785L101.93 118.547L105.164 108.758L108.523 99.4414L111.965 90.5977" stroke="#7F7F7F" stroke-width="0.25" stroke-miterlimit="2"/>
<path d="M140.434 66.7695L143.84 68.4141L147.344 70.1328L150.941 71.9258L154.645 73.8008L158.449 75.7578L162.363 77.8047L166.387 79.9453L170.523 82.1836L174.773 84.5234L179.141 86.9688L183.621 89.5273L188.223 92.1992L192.938 94.9922L197.77 97.9062L202.711 100.949L207.762 104.121L212.918 107.422L218.172 110.855L223.516 114.418L228.941 118.109L234.441 121.934L240 125.879L245.609 129.945L251.254 134.125L256.918 138.41L262.59 142.789L268.25 147.258L273.883 151.801L279.477 156.406L285.012 161.062L290.473 165.754L295.852 170.469L301.129 175.195L306.297 179.918L311.344 184.625L316.266 189.305L321.051 193.941L325.695 198.535L330.195 203.066L334.551 207.531L338.758 211.926L342.816 216.242L346.73 220.473L350.496 224.617L354.125 228.668L357.613 232.629L360.969 236.5L364.191 240.273L367.289 243.953L370.27 247.539L373.133 251.035L375.883 254.441L378.527 257.758L381.074 260.984L383.523 264.129L385.879 267.191L388.148 270.172" stroke="#7F7F7F" stroke-width="0.25" stroke-miterlimit="2"/>
<path d="M61.8359 224.441L62.2109 213.84L62.918 203.133L63.9648 192.379L65.3398 181.637L67.0469 170.965L69.0625 160.426L71.375 150.07" stroke="#7F7F7F" stroke-width="0.25" stroke-miterlimit="2"/>
<path d="M80.0625 280.703L82.3789 277.711L84.7852 274.633L87.2891 271.461L89.8906 268.199L92.6016 264.84L95.4258 261.383L98.3672 257.824L101.43 254.16L104.621 250.391L107.945 246.516L111.41 242.535L115.02 238.445L118.773 234.25L122.68 229.949L126.742 225.543L130.961 221.043L135.336 216.445L139.867 211.762L144.555 206.996L149.395 202.164L154.383 197.27L159.508 192.324L164.766 187.344L170.145 182.344L175.629 177.332L181.207 172.332L186.867 167.355L192.586 162.422L198.352 157.539L204.145 152.73L209.945 148L215.734 143.371L221.5 138.848L227.223 134.445L232.887 130.164L238.477 126.016L243.984 122.008L249.398 118.137L254.707 114.41L259.906 110.824L264.988 107.379L269.949 104.074L274.781 100.906L279.492 97.875L284.07 94.9688L288.527 92.1914L292.852 89.5312L297.055 86.9922L301.137 84.5586L305.098 82.2344L308.941 80.0078L312.672 77.8789L316.289 75.8398L319.805 73.8867L323.219 72.0156L326.531 70.2188" stroke="#7F7F7F" stroke-width="0.25" stroke-miterlimit="2"/>
<path d="M135.766 68.1875L139.094 69.9102L142.52 71.7109L146.043 73.5859L149.676 75.5469L153.414 77.5938L157.266 79.7344L161.234 81.9766L165.32 84.3164L169.527 86.7656L173.859 89.3281L178.316 92.0078L182.895 94.8125L187.605 97.7422L192.438 100.805L197.395 104L202.473 107.336L207.668 110.809L212.977 114.426L218.387 118.18L223.891 122.078L229.48 126.113L235.145 130.281L240.867 134.578L246.633 138.996L252.43 143.523L258.238 148.156L264.043 152.875L269.824 157.676L275.562 162.535L281.246 167.441L286.852 172.383L292.367 177.34L297.781 182.301L303.074 187.246L308.242 192.164L313.27 197.043L318.152 201.871L322.887 206.633L327.465 211.32L331.887 215.93L336.152 220.453L340.262 224.879L344.215 229.211L348.016 233.438L351.668 237.562L355.176 241.586L358.539 245.5L361.773 249.312L364.875 253.02L367.852 256.625L370.707 260.133L373.453 263.539L376.086 266.852L378.617 270.066L381.055 273.195L383.395 276.234" stroke="#7F7F7F" stroke-width="0.25" stroke-miterlimit="2"/>
<path d="M387.434 268.23L388.469 258.027L389.242 247.5L389.73 236.695L389.898 225.668L389.738 214.48L389.238 203.195L388.387 191.895L387.195 180.641L385.676 169.512L383.848 158.574L381.734 147.887L379.367 137.504L376.785 127.469L374.02 117.816" stroke="#7F7F7F" stroke-width="0.25" stroke-miterlimit="2"/>
<path d="M353.602 322.688L355.598 314.109L357.504 305.023L359.297 295.426L360.938 285.316L362.383 274.711L363.598 263.633L364.539 252.133L365.176 240.262L365.469 228.098L365.398 215.727L364.953 203.254L364.125 190.777L362.93 178.406L361.387 166.242L359.523 154.371L357.379 142.871L354.996 131.809L352.418 121.227L349.691 111.152L346.855 101.598L343.949 92.5742L341.004 84.0664L338.055 76.0586" stroke="#7F7F7F" stroke-width="0.25" stroke-miterlimit="2"/>
<path d="M357.461 321.414L360.875 316.754L364.234 312.023L367.535 307.23L370.773 302.383L373.941 297.484L377.035 292.543L380.055 287.566L382.988 282.562L385.844 277.535" stroke="#7F7F7F" stroke-width="0.25" stroke-miterlimit="2"/>
<path d="M316.848 353.301L318.703 346.098L320.574 338.379L322.445 330.113L324.293 321.262L326.09 311.797L327.809 301.699L329.402 290.957L330.836 279.582L332.066 267.602L333.039 255.066L333.719 242.062L334.066 228.684L334.055 215.066L333.672 201.348L332.918 187.68L331.812 174.203L330.379 161.062L328.668 148.363L326.715 136.199L324.574 124.629L322.297 113.695L319.922 103.41L317.496 93.7695L315.051 84.7578L312.609 76.3477L310.203 68.5078L307.844 61.1992" stroke="#7F7F7F" stroke-width="0.25" stroke-miterlimit="2"/>
<path d="M105.512 96.0586L107.922 98.5977L110.414 101.227L112.992 103.949L115.66 106.77L118.422 109.695L121.281 112.73L124.246 115.879L127.316 119.145L130.5 122.531L133.805 126.043L137.227 129.688L140.781 133.469L144.461 137.383L148.277 141.441L152.23 145.641L156.32 149.984L160.551 154.473L164.918 159.102L169.426 163.867L174.07 168.77L178.84 173.797L183.734 178.945L188.746 184.207L193.859 189.562L199.066 195.004L204.352 200.512L209.699 206.07L215.09 211.66L220.512 217.27L225.941 222.871L231.363 228.445L236.758 233.98L242.105 239.453L247.391 244.848L252.602 250.152L257.719 255.352L262.738 260.434L267.641 265.387L272.422 270.211L277.074 274.895L281.594 279.438L285.98 283.836L290.227 288.086L294.336 292.195L298.309 296.16L302.145 299.988L305.848 303.68L309.422 307.234L312.871 310.664L316.195 313.969L319.402 317.152L322.492 320.227L325.477 323.188L328.355 326.047L331.133 328.805L333.812 331.473L336.406 334.047L338.906 336.535" stroke="#7F7F7F" stroke-width="0.25" stroke-miterlimit="2"/>
<path d="M282.141 365.488L283.414 358.824L284.727 351.652L286.066 343.914L287.43 335.57L288.793 326.562L290.145 316.855L291.453 306.406L292.695 295.199L293.836 283.227L294.832 270.523L295.648 257.141L296.246 243.18L296.594 228.777L296.664 214.102L296.449 199.336L295.953 184.684L295.195 170.328L294.195 156.438L293.004 143.141L291.652 130.531L290.184 118.664L288.641 107.562L287.051 97.2227L285.449 87.6211L283.855 78.7188L282.289 70.4727L280.758 62.832L279.281 55.7461L277.855 49.168" stroke="#7F7F7F" stroke-width="0.25" stroke-miterlimit="2"/>
<path d="M243.465 374.867L243.836 368.77L244.23 362.199L244.648 355.102L245.082 347.418L245.539 339.098L246.008 330.082L246.488 320.309L246.973 309.738L247.453 298.336L247.922 286.086L248.363 273.008L248.766 259.168L249.117 244.664L249.402 229.656L249.609 214.336L249.738 198.926L249.781 183.656L249.746 168.75L249.637 154.387L249.469 140.711L249.254 127.82L249.004 115.758L248.727 104.547L248.438 94.1602L248.141 84.5625L247.848 75.707L247.559 67.5352L247.281 59.9922L247.016 53.0156L246.766 46.5547L246.531 40.5586" stroke="#7F7F7F" stroke-width="0.25" stroke-miterlimit="2"/>
<path d="M85.9023 122.191L90.0156 118.773L94.2422 115.355L98.5859 111.941L103.039 108.539L107.609 105.152L112.285 101.785L117.066 98.4492L121.953 95.1484L126.938 91.8867L132.012 88.6758L137.172 85.5195L142.414 82.4219L147.73 79.3906L153.109 76.4336L158.547 73.5547L164.031 70.7578L169.559 68.0508L175.113 65.4336L180.691 62.9102L186.281 60.4844L191.871 58.1641L197.461 55.9414L203.031 53.8203L208.582 51.8086L214.102 49.8945L219.582 48.0859L225.02 46.3789L230.402 44.7734L235.73 43.2656L240.992 41.8555L246.191 40.5352L251.316 39.3086" stroke="#7F7F7F" stroke-width="0.25" stroke-miterlimit="2"/>
<path d="M205.48 372.918L204.914 366.707L204.344 360.012L203.766 352.785L203.188 344.969L202.617 336.504L202.062 327.344L201.539 317.426L201.059 306.711L200.641 295.172L200.301 282.805L200.066 269.633L199.953 255.727L199.984 241.199L200.172 226.203L200.527 210.941L201.047 195.633L201.727 180.496L202.543 165.75L203.477 151.562L204.5 138.07L205.594 125.359L206.723 113.473L207.875 102.422L209.031 92.1836L210.176 82.7227L211.301 73.9883L212.395 65.9219L213.457 58.4727L214.488 51.582L215.477 45.1992L216.434 39.2695" stroke="#7F7F7F" stroke-width="0.25" stroke-miterlimit="2"/>
<path d="M216.52 377.23L219.945 374.605L223.449 371.875L227.035 369.039L230.699 366.094L234.449 363.031L238.277 359.852L242.184 356.543L246.164 353.109L250.223 349.543L254.348 345.844L258.543 342.004L262.797 338.027L267.105 333.91L271.465 329.652L275.863 325.258L280.297 320.723L284.754 316.055L289.223 311.258L293.695 306.332L298.16 301.293L302.605 296.145L307.023 290.898L311.398 285.559L315.719 280.145L319.977 274.668L324.16 269.137L328.262 263.57L332.27 257.977L336.176 252.375L339.973 246.773L343.66 241.191L347.23 235.641L350.68 230.129L354.004 224.672L357.207 219.273L360.285 213.953L363.242 208.707L366.074 203.551L368.789 198.488L371.387 193.523L373.871 188.66L376.242 183.902L378.512 179.25L380.68 174.707L382.75 170.27L384.727 165.945L386.617 161.727L388.422 157.617L390.152 153.613" stroke="#7F7F7F" stroke-width="0.25" stroke-miterlimit="2"/>
<path d="M84.5859 220.961L85.125 209.121L86.0469 197.203L87.3477 185.297L89.0156 173.488" stroke="#0000FF" stroke-width="3" stroke-miterlimit="2"/>
<path d="M268.25 147.258L273.883 151.801L279.477 156.406L285.012 161.062" stroke="#0012F6" stroke-width="3" stroke-miterlimit="2"/>
<path d="M62.918 203.133L63.9648 192.379L65.3398 181.637L67.0469 170.965" stroke="#0024ED" stroke-width="3" stroke-miterlimit="2"/>
<path d="M181.207 172.332L186.867 167.355L192.586 162.422L198.352 157.539L204.145 152.73" stroke="#0037E4" stroke-width="3" stroke-miterlimit="2"/>
<path d="M258.238 148.156L264.043 152.875L269.824 157.676L275.562 162.535L281.246 167.441" stroke="#0049DB" stroke-width="3" stroke-miterlimit="2"/>
<path d="M389.738 214.48L389.238 203.195L388.387 191.895L387.195 180.641L385.676 169.512" stroke="#005BD1" stroke-width="3" stroke-miterlimit="2"/>
<path d="M365.398 215.727L364.953 203.254L364.125 190.777L362.93 178.406" stroke="#006DC8" stroke-width="3" stroke-miterlimit="2"/>
<path d="M367.535 307.23L370.773 302.383L373.941 297.484L377.035 292.543" stroke="#0080BF" stroke-width="3" stroke-miterlimit="2"/>
<path d="M334.066 228.684L334.055 215.066L333.672 201.348L332.918 187.68" stroke="#0092B6" stroke-width="3" stroke-miterlimit="2"/>
<path d="M209.699 206.07L215.09 211.66L220.512 217.27L225.941 222.871L231.363 228.445" stroke="#00A4AD" stroke-width="3" stroke-miterlimit="2"/>
<path d="M296.594 228.777L296.664 214.102L296.449 199.336L295.953 184.684" stroke="#00B6A4" stroke-width="3" stroke-miterlimit="2"/>
<path d="M249.402 229.656L249.609 214.336L249.738 198.926L249.781 183.656" stroke="#00C89B" stroke-width="3" stroke-miterlimit="2"/>
<path d="M153.109 76.4336L158.547 73.5547L164.031 70.7578L169.559 68.0508L175.113 65.4336" stroke="#00DB92" stroke-width="3" stroke-miterlimit="2"/>
<path d="M200.172 226.203L200.527 210.941L201.047 195.633L201.727 180.496" stroke="#00ED89" stroke-width="3" stroke-miterlimit="2"/>
<path d="M311.398 285.559L315.719 280.145L319.977 274.668L324.16 269.137" stroke="#00FF80" stroke-width="3" stroke-miterlimit="2"/>
<path d="M89.0156 173.488L90.7852 172.957L92.5586 172.43L94.332 171.91L96.1055 171.398L97.8828 170.891L99.6602 170.391L101.441 169.898L103.219 169.41L105 168.926L106.781 168.449L108.566 167.98L110.348 167.516L112.137 167.059L113.922 166.605L115.707 166.156L117.496 165.715L119.285 165.281L121.078 164.852L122.867 164.426L124.66 164.008L128.246 163.188L130.043 162.785L131.84 162.391L133.637 162L135.434 161.613L137.23 161.234L139.031 160.859L140.832 160.492L142.633 160.129L144.434 159.77L146.234 159.418L148.039 159.07L149.844 158.727L151.648 158.391L153.453 158.059L155.262 157.73L157.066 157.41L158.875 157.094L162.492 156.477L164.301 156.176L166.113 155.883L167.922 155.59L169.734 155.305L173.359 154.75L175.176 154.48L176.988 154.215L178.805 153.957L180.617 153.703L182.434 153.453L184.25 153.207L186.066 152.965L187.883 152.73L189.703 152.5L191.52 152.277L193.34 152.055L195.16 151.84L198.801 151.426L200.621 151.227L202.441 151.031L204.266 150.84L206.086 150.652L207.91 150.473L209.73 150.297L211.555 150.125L213.379 149.961L215.203 149.801L217.027 149.645L218.855 149.492L222.504 149.203L224.332 149.066L226.16 148.938L227.984 148.809L229.812 148.688L231.641 148.57L233.469 148.457L237.125 148.246L238.953 148.148L240.781 148.059L242.613 147.969L244.441 147.887L246.273 147.809L248.102 147.734L249.934 147.668L251.762 147.605L253.594 147.547L255.426 147.492L257.258 147.445L259.09 147.402L260.922 147.363L262.754 147.328L264.586 147.301L266.418 147.277L268.25 147.258" stroke="#0000FF" stroke-miterlimit="2" stroke-dasharray="3 3"/>
<path d="M285.012 161.062L282.727 161.211L280.445 161.367L278.164 161.527L275.883 161.691L273.605 161.863L271.324 162.043L269.047 162.227L266.77 162.414L264.488 162.605L262.211 162.809L259.938 163.012L257.66 163.223L255.383 163.438L253.109 163.66L250.836 163.887L248.562 164.117L246.289 164.355L241.742 164.848L239.473 165.102L234.934 165.625L230.395 166.172L228.125 166.453L225.859 166.738L223.594 167.031L221.328 167.328L219.062 167.629L216.797 167.938L214.531 168.25L212.27 168.57L210.008 168.895L207.746 169.223L205.484 169.559L203.227 169.898L200.965 170.242L198.707 170.594L196.449 170.949L194.191 171.312L191.938 171.68L189.68 172.051L187.426 172.43L185.172 172.816L182.922 173.203L180.668 173.598L176.168 174.402L171.668 175.23L167.176 176.082L164.93 176.516L162.684 176.957L160.441 177.398L158.199 177.852L155.957 178.309L153.715 178.77L151.477 179.238L149.238 179.711L147 180.191L144.762 180.676L142.527 181.168L140.293 181.664L138.059 182.168L135.828 182.676L133.598 183.191L131.367 183.711L129.137 184.238L126.91 184.773L124.684 185.312L122.457 185.859L120.234 186.41L118.012 186.969L115.789 187.535L113.57 188.105L111.352 188.684L109.133 189.266L106.918 189.855L104.703 190.453L102.488 191.059L100.277 191.668L98.0664 192.285L95.8594 192.91L93.6523 193.539L91.4453 194.18L89.2422 194.824L87.0391 195.477L84.8359 196.133L82.6367 196.801L80.4375 197.473L78.2422 198.156L76.0469 198.844L73.8555 199.539L71.6641 200.242L69.4766 200.953L67.2891 201.672L65.1016 202.398L62.918 203.133" stroke="#0012F6" stroke-miterlimit="2" stroke-dasharray="3 3"/>
<path d="M67.0469 170.965L68.2031 170.914L69.3555 170.859L70.5117 170.812L71.668 170.762L72.8242 170.715L76.293 170.586L77.4453 170.547L79.7578 170.469L82.0703 170.398L83.2227 170.363L84.3789 170.332L85.5352 170.305L86.6914 170.273L87.8438 170.246L90.1562 170.199L91.3086 170.176L92.4648 170.152L93.6211 170.133L94.7734 170.117L95.9297 170.098L97.0859 170.082L98.2383 170.066L99.3945 170.055L100.547 170.043L101.703 170.035L102.855 170.023L104.012 170.016L105.168 170.012L106.32 170.008L107.477 170.004L108.629 170H112.09L113.246 170.004L114.398 170.008L115.555 170.016L117.859 170.031L119.016 170.039L121.32 170.062L122.477 170.074L124.781 170.105L125.934 170.125L127.09 170.141L128.242 170.16L129.395 170.184L130.547 170.203L131.699 170.227L132.855 170.254L134.008 170.277L136.312 170.332L140.922 170.457L144.379 170.562L147.836 170.68L148.988 170.723L150.141 170.762L151.289 170.809L152.441 170.852L155.898 170.992L157.047 171.043L158.199 171.09L159.352 171.145L160.504 171.195L161.652 171.25L163.957 171.359L165.105 171.418L166.258 171.477L167.406 171.535L168.559 171.594L169.707 171.656L170.859 171.719L172.008 171.785L173.16 171.848L174.309 171.914L175.461 171.98L176.609 172.051L177.758 172.117L178.91 172.188L180.059 172.262L181.207 172.332" stroke="#0024ED" stroke-miterlimit="2" stroke-dasharray="3 3"/>
<path d="M204.145 152.73L204.688 152.66L205.234 152.594L206.32 152.461L206.867 152.398L207.41 152.332L207.957 152.266L208.5 152.203L209.047 152.141L209.59 152.078L210.137 152.012L210.68 151.949L211.227 151.891L211.77 151.828L212.316 151.766L212.859 151.707L213.406 151.645L213.949 151.586L214.496 151.527L215.039 151.465L215.586 151.406L216.133 151.352L216.676 151.293L217.223 151.234L217.77 151.18L218.312 151.121L219.406 151.012L219.949 150.953L221.043 150.844L221.586 150.793L222.68 150.684L223.227 150.633L223.77 150.582L224.316 150.527L225.957 150.375L226.5 150.324L227.047 150.277L227.594 150.227L228.141 150.18L228.688 150.129L229.781 150.035L230.324 149.988L231.965 149.848L232.512 149.805L233.059 149.758L234.152 149.672L234.699 149.625L236.34 149.496L236.887 149.457L237.434 149.414L237.98 149.375L238.527 149.332L242.355 149.059L242.902 149.023L243.449 148.984L244 148.949L246.734 148.773L247.281 148.742L247.832 148.707L248.379 148.676L248.926 148.641L250.02 148.578L250.57 148.547L251.664 148.484L252.211 148.457L252.762 148.426L253.309 148.398L253.855 148.367L254.402 148.34L254.953 148.312L256.047 148.258L256.594 148.234L257.145 148.207L257.691 148.18L258.238 148.156" stroke="#0037E4" stroke-miterlimit="2" stroke-dasharray="3 3"/>
<path d="M281.246 167.441L282.375 167.82L285.762 168.969L286.887 169.355L288.016 169.746L290.266 170.527L292.516 171.316L293.641 171.715L294.762 172.117L295.887 172.516L297.008 172.922L298.129 173.324L299.25 173.73L300.371 174.141L301.488 174.551L302.609 174.965L303.727 175.379L307.078 176.633L308.195 177.055L311.535 178.332L312.648 178.762L314.875 179.629L315.984 180.062L317.098 180.5L318.207 180.941L319.316 181.379L320.422 181.824L321.531 182.27L322.637 182.715L323.746 183.164L324.852 183.617L325.957 184.066L327.059 184.523L328.164 184.98L329.266 185.438L330.367 185.898L333.672 187.293L334.77 187.762L338.062 189.18L339.16 189.656L340.254 190.137L341.352 190.617L342.445 191.098L343.539 191.582L344.629 192.07L345.723 192.559L347.902 193.543L350.082 194.535L352.254 195.535L353.34 196.039L355.512 197.055L356.594 197.562L357.68 198.078L358.762 198.59L359.84 199.105L360.922 199.625L362 200.145L363.078 200.668L365.234 201.723L366.309 202.25L367.383 202.781L369.531 203.852L370.605 204.391L373.816 206.02L374.883 206.566L375.949 207.117L377.02 207.672L378.082 208.227L379.148 208.781L380.211 209.34L382.336 210.465L383.398 211.031L385.516 212.172L386.574 212.746L387.629 213.32L388.684 213.898L389.738 214.48" stroke="#0049DB" stroke-miterlimit="2" stroke-dasharray="3 3"/>
<path d="M385.676 169.512L385.16 170.965L384.984 171.449L384.812 171.934L384.637 172.414L384.461 172.898L384.281 173.379L384.105 173.863L383.93 174.344L383.211 176.266L382.844 177.227L382.664 177.703L382.48 178.184L382.293 178.66L382.109 179.141L381.926 179.617L381.176 181.523L380.984 182L380.797 182.477L380.605 182.949L380.414 183.426L380.223 183.898L380.031 184.375L379.641 185.32L379.449 185.793L379.254 186.266L379.055 186.738L378.859 187.211L378.664 187.68L378.465 188.152L378.266 188.621L378.066 189.094L377.668 190.031L376.652 192.375L376.449 192.84L376.242 193.309L376.039 193.773L375.832 194.242L375.625 194.707L375.414 195.172L375.207 195.637L374.996 196.102L374.789 196.566L374.578 197.031L374.367 197.492L374.156 197.957L373.941 198.418L373.73 198.883L372.871 200.727L372.652 201.188L372.438 201.648L372.219 202.109L372 202.566L371.781 203.027L371.562 203.484L371.344 203.945L370.898 204.859L370.68 205.316L370.457 205.773L370.23 206.23L370.008 206.688L369.785 207.141L369.559 207.598L369.332 208.051L369.105 208.508L368.652 209.414L368.422 209.867L368.195 210.32L367.734 211.227L367.504 211.676L367.273 212.129L367.039 212.578L366.809 213.031L365.637 215.277L365.398 215.727" stroke="#005BD1" stroke-miterlimit="2" stroke-dasharray="3 3"/>
<path d="M362.93 178.406L363.227 179.672L363.52 180.938L364.09 183.477L364.367 184.746L364.637 186.016L364.906 187.289L365.168 188.562L365.426 189.836L365.676 191.109L365.926 192.387L366.168 193.664L366.406 194.945L366.637 196.223L366.867 197.504L367.09 198.785L367.309 200.066L367.52 201.352L367.727 202.633L367.93 203.918L368.129 205.207L368.324 206.492L368.512 207.781L368.695 209.07L368.871 210.359L369.043 211.648L369.211 212.941L369.375 214.234L369.535 215.527L369.688 216.82L369.836 218.113L369.977 219.41L370.117 220.703L370.25 222L370.375 223.301L370.5 224.598L370.617 225.895L370.836 228.496L370.938 229.797L371.035 231.098L371.129 232.402L371.215 233.703L371.297 235.008L371.371 236.312L371.441 237.617L371.508 238.922L371.57 240.227L371.625 241.531L371.676 242.84L371.723 244.148L371.762 245.453L371.797 246.762L371.828 248.074L371.852 249.383L371.871 250.691L371.883 252L371.891 253.312L371.895 254.625V255.934L371.887 257.246L371.875 258.559L371.855 259.871L371.832 261.184L371.805 262.496L371.77 263.812L371.73 265.125L371.684 266.438L371.633 267.754L371.578 269.066L371.516 270.383L371.449 271.699L371.379 273.012L371.301 274.328L371.219 275.645L371.129 276.961L371.035 278.277L370.934 279.594L370.828 280.906L370.719 282.223L370.602 283.539L370.48 284.855L370.352 286.172L370.219 287.488L370.082 288.809L369.938 290.125L369.785 291.441L369.629 292.758L369.469 294.074L369.301 295.391L369.129 296.707L368.949 298.023L368.766 299.336L368.574 300.652L368.379 301.969L368.176 303.285L367.969 304.602L367.754 305.918L367.535 307.23" stroke="#006DC8" stroke-miterlimit="2" stroke-dasharray="3 3"/>
<path d="M377.035 292.543L376.648 291.863L376.262 291.18L375.871 290.5L375.48 289.824L375.09 289.145L374.695 288.465L374.305 287.789L373.91 287.113L373.512 286.438L373.117 285.766L372.719 285.09L372.32 284.418L371.918 283.746L371.52 283.074L371.117 282.402L370.715 281.734L370.309 281.062L369.906 280.395L369.5 279.727L369.09 279.062L368.684 278.395L367.043 275.738L366.629 275.078L366.215 274.414L365.801 273.754L365.383 273.094L364.969 272.438L364.551 271.777L364.133 271.121L363.289 269.809L362.871 269.152L362.445 268.496L362.023 267.844L361.598 267.188L361.172 266.535L360.746 265.887L360.32 265.234L359.891 264.582L359.465 263.934L359.035 263.285L358.602 262.637L358.172 261.988L357.738 261.344L357.305 260.695L356.871 260.051L356.434 259.406L356 258.762L355.562 258.121L355.125 257.477L354.684 256.836L354.246 256.195L353.363 254.914L352.922 254.277L352.477 253.641L352.031 253L351.59 252.363L351.141 251.73L350.25 250.457L349.352 249.191L348.898 248.559L348.449 247.926L347.996 247.297L347.547 246.668L347.09 246.035L346.637 245.406L346.184 244.781L345.27 243.523L344.812 242.898L344.352 242.273L343.895 241.648L343.434 241.023L342.973 240.402L342.512 239.777L342.051 239.156L340.656 237.293L340.191 236.676L339.723 236.055L339.258 235.438L338.32 234.203L337.852 233.59L337.379 232.973L336.91 232.359L335.492 230.52L335.016 229.906L334.543 229.297L334.066 228.684" stroke="#0080BF" stroke-miterlimit="2" stroke-dasharray="3 3"/>
<path d="M332.918 187.68L331.672 187.852L324.195 188.906L322.949 189.086L320.457 189.438L319.211 189.617L316.719 189.969L314.227 190.328L312.98 190.504L311.734 190.684L310.492 190.863L303.016 191.941L301.773 192.121L300.527 192.301L299.281 192.484L298.035 192.664L296.789 192.848L295.543 193.027L294.301 193.211L293.055 193.391L290.562 193.758L289.32 193.938L285.582 194.488L284.34 194.672L281.848 195.039L280.605 195.223L279.359 195.406L278.113 195.594L276.871 195.777L275.625 195.961L274.379 196.148L273.137 196.332L270.645 196.707L269.402 196.891L268.156 197.078L266.914 197.266L265.668 197.449L264.422 197.637L263.18 197.824L261.934 198.012L260.691 198.199L259.445 198.387L258.203 198.574L256.957 198.766L255.711 198.953L254.469 199.141L253.223 199.328L251.98 199.52L250.734 199.707L249.492 199.898L248.246 200.086L247.004 200.277L245.758 200.469L244.516 200.656L243.273 200.848L242.027 201.039L240.785 201.23L239.539 201.422L238.297 201.613L237.051 201.805L234.566 202.188L233.32 202.379L232.078 202.57L230.836 202.766L229.59 202.957L228.348 203.148L227.102 203.344L225.859 203.535L223.375 203.926L222.129 204.117L219.645 204.508L218.398 204.703L217.156 204.895L214.672 205.285L213.426 205.48L212.184 205.676L210.941 205.875L209.699 206.07" stroke="#0092B6" stroke-miterlimit="2" stroke-dasharray="3 3"/>
<path d="M231.363 228.445L232.02 228.461L232.68 228.477L233.34 228.488L233.996 228.504L235.316 228.527L235.973 228.543L237.293 228.566L237.949 228.582L238.609 228.594L239.266 228.605L240.586 228.629L241.242 228.641L241.902 228.648L242.562 228.66L243.219 228.672L243.879 228.684L244.539 228.691L245.195 228.703L245.855 228.711L246.516 228.723L247.172 228.73L247.832 228.738L248.492 228.75L249.148 228.758L250.469 228.773L251.125 228.781L252.445 228.797L253.102 228.805L253.762 228.812L254.422 228.816L255.078 228.824L255.738 228.832L256.398 228.836L257.055 228.844L257.715 228.848L258.375 228.855L259.031 228.859L260.352 228.867L261.008 228.875L262.328 228.883L262.984 228.887L264.305 228.895H264.965L265.621 228.898L266.941 228.906H267.598L268.258 228.91H268.918L269.574 228.914H271.551L272.211 228.918H275.508L276.164 228.914H277.484L278.141 228.91H279.461L280.117 228.906L280.777 228.902H281.438L282.094 228.898L283.414 228.891H284.074L284.73 228.887L286.051 228.879L286.707 228.871L288.027 228.863L288.684 228.859L289.344 228.852L290.004 228.848L290.664 228.84L291.32 228.836L292.641 228.82L293.297 228.816L295.277 228.793L295.934 228.785L296.594 228.777" stroke="#00A4AD" stroke-miterlimit="2" stroke-dasharray="3 3"/>
<path d="M295.953 184.684L295.496 185.148L294.113 186.543L293.656 187.008L292.734 187.938L291.809 188.863L291.348 189.328L290.887 189.789L290.426 190.254L289.961 190.715L289.5 191.176L289.039 191.641L288.109 192.562L287.648 193.023L286.719 193.945L286.258 194.406L284.398 196.25L283.934 196.707L283.469 197.168L283 197.629L282.07 198.543L281.605 199.004L281.137 199.461L280.672 199.918L280.203 200.379L279.738 200.836L278.801 201.75L278.336 202.207L276.93 203.578L276.461 204.031L275.523 204.945L275.055 205.398L274.586 205.855L274.113 206.309L273.645 206.766L273.176 207.219L272.703 207.672L272.234 208.125L271.762 208.582L271.293 209.035L270.82 209.488L270.352 209.941L269.406 210.848L268.934 211.297L267.516 212.656L267.043 213.105L266.57 213.559L266.098 214.008L265.625 214.461L265.152 214.91L264.676 215.359L264.203 215.812L263.727 216.262L263.254 216.711L262.777 217.16L262.305 217.609L261.352 218.508L260.879 218.957L260.402 219.406L259.926 219.852L258.973 220.75L258.496 221.195L258.02 221.645L257.543 222.09L257.066 222.539L256.59 222.984L256.109 223.43L255.633 223.875L255.156 224.324L254.676 224.77L254.199 225.215L253.238 226.105L252.762 226.551L252.281 226.992L251.32 227.883L250.844 228.328L250.363 228.77L249.883 229.215L249.402 229.656" stroke="#00B6A4" stroke-miterlimit="2" stroke-dasharray="3 3"/>
<path d="M249.781 183.656L248.867 182.52L247.953 181.387L247.039 180.25L246.121 179.117L245.207 177.984L244.285 176.852L243.367 175.723L241.523 173.465L240.598 172.336L239.676 171.211L238.75 170.082L237.82 168.961L236.891 167.836L235.961 166.715L235.031 165.59L234.098 164.473L233.164 163.352L232.23 162.234L229.418 158.883L226.594 155.543L225.648 154.434L224.703 153.32L223.758 152.211L222.812 151.105L221.863 149.996L220.91 148.891L219.961 147.785L218.055 145.582L217.098 144.477L216.141 143.379L215.184 142.277L214.227 141.18L212.305 138.984L209.41 135.703L208.445 134.613L207.477 133.52L206.504 132.43L205.535 131.344L204.562 130.254L203.59 129.168L202.613 128.086L201.637 127L200.66 125.918L199.68 124.836L198.703 123.754L197.719 122.676L196.738 121.598L195.754 120.52L194.766 119.445L193.781 118.371L192.793 117.297L191.801 116.223L190.812 115.152L189.816 114.082L188.824 113.016L187.828 111.945L186.832 110.879L185.836 109.816L184.836 108.75L183.832 107.688L182.832 106.629L181.828 105.566L180.82 104.508L179.816 103.453L178.809 102.395L176.785 100.285L174.762 98.1836L173.746 97.1328L170.688 93.9922L169.668 92.9492L167.621 90.8633L165.566 88.7852L164.535 87.75L163.504 86.7109L162.473 85.6797L161.441 84.6445L160.402 83.6133L159.367 82.582L157.289 80.5273L156.246 79.5L155.203 78.4766L154.156 77.4531L153.109 76.4336" stroke="#00C89B" stroke-miterlimit="2" stroke-dasharray="3 3"/>
<path d="M175.113 65.4336L175.234 67.0781L175.484 70.3672L175.75 73.6562L175.887 75.3008L176.027 76.9453L176.316 80.2266L176.465 81.8711L176.617 83.5117L176.773 85.1523L177.094 88.4336L177.258 90.0742L177.426 91.7109L177.594 93.3516L177.766 94.9883L177.941 96.6289L178.121 98.2656L178.672 103.176L178.863 104.809L179.055 106.445L179.25 108.082L179.648 111.348L179.852 112.984L180.266 116.25L180.477 117.879L180.691 119.512L180.91 121.145L181.129 122.773L181.348 124.406L181.801 127.664L182.262 130.922L182.496 132.551L182.734 134.18L182.973 135.805L183.215 137.434L183.707 140.684L183.957 142.312L184.207 143.938L184.461 145.559L184.719 147.184L185.242 150.434L185.504 152.055L185.77 153.676L186.039 155.301L186.586 158.543L186.863 160.164L187.141 161.781L187.703 165.023L187.988 166.641L188.566 169.875L188.859 171.492L189.453 174.727L190.055 177.961L190.664 181.188L190.973 182.805L191.598 186.031L191.914 187.645L192.23 189.254L192.551 190.867L192.875 192.477L193.199 194.09L193.855 197.309L194.188 198.918L195.195 203.746L195.539 205.352L195.879 206.957L196.227 208.566L196.922 211.777L197.273 213.383L197.629 214.988L197.984 216.59L198.344 218.195L199.434 223L199.801 224.602L200.172 226.203" stroke="#00DB92" stroke-miterlimit="2" stroke-dasharray="3 3"/>
<path d="M201.727 180.496L203.938 182.621L205.047 183.684L207.258 185.809L208.367 186.871L209.473 187.934L210.582 188.992L211.688 190.055L212.797 191.117L215.008 193.242L216.117 194.305L217.223 195.367L218.332 196.426L219.438 197.488L220.547 198.551L221.652 199.613L222.762 200.676L223.867 201.738L224.973 202.797L226.082 203.859L227.188 204.922L228.297 205.984L229.402 207.047L230.512 208.105L231.617 209.168L232.727 210.23L233.832 211.293L234.941 212.352L236.047 213.414L237.156 214.477L238.262 215.539L239.371 216.602L240.477 217.66L242.695 219.785L243.801 220.848L244.91 221.906L246.016 222.969L247.125 224.031L248.23 225.09L249.34 226.152L250.445 227.215L251.555 228.277L252.664 229.336L253.77 230.398L254.879 231.461L255.984 232.52L258.203 234.645L259.309 235.703L260.418 236.766L261.523 237.828L262.633 238.887L263.742 239.949L264.848 241.012L265.957 242.07L267.066 243.133L268.172 244.195L269.281 245.254L270.387 246.316L271.496 247.375L272.605 248.438L273.711 249.5L274.82 250.559L275.93 251.621L277.035 252.68L279.254 254.805L280.363 255.863L281.469 256.926L282.578 257.984L283.688 259.047L284.793 260.105L287.012 262.23L288.121 263.289L289.227 264.352L290.336 265.41L291.445 266.473L292.551 267.531L293.66 268.594L294.77 269.652L295.879 270.715L296.984 271.773L298.094 272.836L299.203 273.895L300.312 274.957L301.422 276.016L302.527 277.078L303.637 278.137L304.746 279.199L305.855 280.258L306.965 281.32L308.07 282.379L309.18 283.441L311.398 285.559" stroke="#00ED89" stroke-miterlimit="2" stroke-dasharray="3 3"/>
<path d="M409.438 208L408.992 195.414L407.66 182.891L405.449 170.492L402.367 158.277L398.434 146.312L393.664 134.656L388.086 123.367L381.727 112.496L374.613 102.102L366.785 92.2344L358.281 82.9453L349.145 74.2773L339.418 66.2773L329.148 58.9844L318.395 52.4297L307.203 46.6523L295.633 41.6797L283.738 37.5352L271.582 34.2383L259.223 31.8086L246.727 30.2578L234.148 29.5938L221.555 29.8125L209.012 30.9258L196.574 32.918L184.312 35.7812L172.277 39.5039L160.539 44.0664L149.152 49.4453L138.172 55.6133L127.652 62.5391L117.648 70.1914L108.211 78.5312L99.3828 87.5156L91.2148 97.0977L83.7383 107.234L76.9961 117.875L71.0234 128.961L65.8477 140.445L61.4922 152.262L57.9844 164.355L55.3359 176.672L53.5625 189.141L52.6758 201.703V214.297L53.5625 226.859L55.3359 239.328L57.9844 251.645L61.4922 263.738L65.8477 275.555L71.0234 287.039L76.9961 298.125L83.7383 308.766L91.2148 318.902L99.3828 328.484L108.211 337.469L117.648 345.809L127.652 353.461L138.172 360.387L149.152 366.555L160.539 371.934L172.277 376.496L184.312 380.219L196.574 383.082L209.012 385.074L221.555 386.188L234.148 386.406L246.727 385.742L259.223 384.191L271.582 381.762L283.738 378.465L295.633 374.32L307.203 369.348L318.395 363.57L329.148 357.016L339.418 349.723L349.145 341.723L358.281 333.055L366.785 323.766L374.613 313.898L381.727 303.504L388.086 292.633L393.664 281.344L398.434 269.688L402.367 257.723L405.449 245.508L407.66 233.109L408.992 220.586L409.438 208Z" stroke="black" stroke-width="2" stroke-miterlimit="2"/>
<path d="M229.915 225.25C229.915 230.89 227.868 234.125 224.056 234.125C221.571 234.125 219.821 232.547 219.431 229.875H221.462C221.774 231.437 222.759 232.328 224.196 232.328C226.509 232.328 227.806 230.125 227.821 226.14C226.774 227.406 225.634 227.969 224.103 227.969C221.149 227.969 219.087 225.922 219.087 222.875C219.087 219.687 221.321 217.469 224.415 217.469C228.149 217.469 229.915 220.14 229.915 225.25ZM227.712 222.828C227.712 220.719 226.29 219.25 224.399 219.25C222.54 219.25 221.149 220.64 221.149 222.719C221.149 224.906 222.368 226.172 224.337 226.172C226.306 226.172 227.712 224.828 227.712 222.828Z" fill="black"/>
<path d="M242.656 225.937C242.656 231.297 240.781 234.125 237.328 234.125C233.828 234.125 231.984 231.297 231.984 225.797C231.984 220.328 233.812 217.469 237.328 217.469C240.859 217.469 242.656 220.281 242.656 225.937ZM240.594 225.75C240.594 221.39 239.516 219.265 237.328 219.265C235.141 219.265 234.062 221.359 234.062 225.828C234.062 230.281 235.141 232.453 237.281 232.453C239.531 232.453 240.594 230.375 240.594 225.75Z" fill="black"/>
<path d="M315.024 228.719C315.024 231.922 312.789 234.125 309.696 234.125C305.961 234.125 304.211 231.437 304.211 226.359C304.211 220.672 306.258 217.469 310.055 217.469C312.539 217.469 314.289 219.062 314.68 221.734H312.664C312.336 220.172 311.352 219.265 309.914 219.265C307.602 219.265 306.305 221.469 306.289 225.453C307.164 224.265 308.43 223.64 310.039 223.64C312.961 223.64 315.024 225.687 315.024 228.719ZM312.961 228.875C312.961 226.703 311.743 225.437 309.789 225.437C307.774 225.437 306.399 226.75 306.399 228.765C306.399 230.859 307.821 232.328 309.711 232.328C311.571 232.328 312.961 230.922 312.961 228.875Z" fill="black"/>
<path d="M327.671 225.937C327.671 231.297 325.796 234.125 322.343 234.125C318.843 234.125 316.999 231.297 316.999 225.797C316.999 220.328 318.827 217.469 322.343 217.469C325.874 217.469 327.671 220.281 327.671 225.937ZM325.609 225.75C325.609 221.39 324.531 219.265 322.343 219.265C320.156 219.265 319.077 221.359 319.077 225.828C319.077 230.281 320.156 232.453 322.296 232.453C324.546 232.453 325.609 230.375 325.609 225.75Z" fill="black"/>
<path d="M399.883 229.047C399.883 232.125 397.711 234.125 394.367 234.125C391.023 234.125 389.226 232.5 388.976 228.859H391.008C391.133 231.234 392.226 232.328 394.429 232.328C396.539 232.328 397.804 231.109 397.804 229.062C397.804 227.25 396.664 226.187 394.429 226.187H393.32V224.484C396.57 224.484 397.32 223.781 397.32 222.031C397.32 220.297 396.242 219.25 394.445 219.25C392.383 219.25 391.398 220.328 391.351 222.734H389.32C389.398 219.265 391.133 217.469 394.429 217.469C397.539 217.469 399.398 219.156 399.398 221.953C399.398 223.594 398.633 224.656 397.117 225.25C399.07 225.922 399.883 227.062 399.883 229.047Z" fill="black"/>
<path d="M412.686 225.937C412.686 231.297 410.811 234.125 407.358 234.125C403.858 234.125 402.014 231.297 402.014 225.797C402.014 220.328 403.842 217.469 407.358 217.469C410.889 217.469 412.686 220.281 412.686 225.937ZM410.624 225.75C410.624 221.39 409.546 219.265 407.358 219.265C405.171 219.265 404.092 221.359 404.092 225.828C404.092 230.281 405.171 232.453 407.311 232.453C409.561 232.453 410.624 230.375 410.624 225.75Z" fill="black"/>
<path d="M425.092 208.54C425.092 213.899 423.217 216.727 419.764 216.727C416.264 216.727 414.42 213.899 414.42 208.399C414.42 202.93 416.249 200.071 419.764 200.071C423.295 200.071 425.092 202.883 425.092 208.54ZM423.03 208.352C423.03 203.993 421.952 201.868 419.764 201.868C417.577 201.868 416.499 203.962 416.499 208.43C416.499 212.883 417.577 215.055 419.717 215.055C421.967 215.055 423.03 212.977 423.03 208.352Z" fill="black"/>
<path d="M434.177 203.571C434.177 205.477 432.74 206.93 430.818 206.93C428.911 206.93 427.458 205.477 427.458 203.571C427.458 201.665 428.911 200.212 430.818 200.212C432.74 200.212 434.177 201.665 434.177 203.571ZM433.083 203.571C433.083 202.352 432.036 201.196 430.818 201.196C429.599 201.196 428.568 202.352 428.568 203.571C428.568 204.79 429.599 205.946 430.818 205.946C432.036 205.946 433.083 204.79 433.083 203.571Z" fill="black"/>
<path d="M371.955 70.078H369.549V73.9843H367.517V70.078H360.642V67.9374L368.049 57.6718H369.549V68.2499H371.955V70.078ZM367.517 68.2499V61.1249L362.424 68.2499H367.517Z" fill="black"/>
<path d="M384.587 68.578C384.587 72.0311 382.29 74.328 378.993 74.328C376.102 74.328 374.258 73.0468 373.602 69.7968H375.618C376.102 71.6405 377.18 72.5311 378.946 72.5311C381.165 72.5311 382.524 71.203 382.524 68.8593C382.524 66.4374 381.133 65.0311 378.946 65.0311C377.696 65.0311 376.899 65.4218 375.962 66.5624H374.102L375.321 58.0155H383.743V60.0155H376.946L376.305 64.2343C377.258 63.5468 378.165 63.2499 379.321 63.2499C382.446 63.2499 384.587 65.3593 384.587 68.578Z" fill="black"/>
<path d="M393.531 61.1718C393.531 63.078 392.093 64.5311 390.171 64.5311C388.265 64.5311 386.812 63.078 386.812 61.1718C386.812 59.2655 388.265 57.8124 390.171 57.8124C392.093 57.8124 393.531 59.2655 393.531 61.1718ZM392.437 61.1718C392.437 59.953 391.39 58.7968 390.171 58.7968C388.953 58.7968 387.921 59.953 387.921 61.1718C387.921 62.3905 388.953 63.5468 390.171 63.5468C391.39 63.5468 392.437 62.3905 392.437 61.1718Z" fill="black"/>
<path d="M225.315 12.0187C225.315 17.6594 223.268 20.8937 219.456 20.8937C216.971 20.8937 215.221 19.3156 214.831 16.6437H216.862C217.174 18.2062 218.159 19.0969 219.596 19.0969C221.909 19.0969 223.206 16.8937 223.221 12.9094C222.174 14.175 221.034 14.7375 219.503 14.7375C216.549 14.7375 214.487 12.6906 214.487 9.64374C214.487 6.45624 216.721 4.23749 219.815 4.23749C223.549 4.23749 225.315 6.90936 225.315 12.0187ZM223.112 9.59686C223.112 7.48749 221.69 6.01874 219.799 6.01874C217.94 6.01874 216.549 7.40936 216.549 9.48749C216.549 11.675 217.768 12.9406 219.737 12.9406C221.706 12.9406 223.112 11.5969 223.112 9.59686Z" fill="black"/>
<path d="M238.056 12.7062C238.056 18.0656 236.181 20.8937 232.728 20.8937C229.228 20.8937 227.384 18.0656 227.384 12.5656C227.384 7.09686 229.212 4.23749 232.728 4.23749C236.259 4.23749 238.056 7.04999 238.056 12.7062ZM235.994 12.5187C235.994 8.15936 234.916 6.03436 232.728 6.03436C230.541 6.03436 229.462 8.12811 229.462 12.5969C229.462 17.05 230.541 19.2219 232.681 19.2219C234.931 19.2219 235.994 17.1437 235.994 12.5187Z" fill="black"/>
<path d="M247.141 7.73749C247.141 9.64374 245.704 11.0969 243.782 11.0969C241.875 11.0969 240.422 9.64374 240.422 7.73749C240.422 5.83124 241.875 4.37811 243.782 4.37811C245.704 4.37811 247.141 5.83124 247.141 7.73749ZM246.047 7.73749C246.047 6.51874 245 5.36249 243.782 5.36249C242.563 5.36249 241.532 6.51874 241.532 7.73749C241.532 8.95624 242.563 10.1125 243.782 10.1125C245 10.1125 246.047 8.95624 246.047 7.73749Z" fill="black"/>
<path d="M62.4186 73.9843H60.3874V62.3749H56.778V60.9218C59.903 60.5311 60.3718 60.1874 61.0749 57.6718H62.4186V73.9843Z" fill="black"/>
<path d="M78.8629 69.2499C78.8629 72.328 76.691 74.328 73.3473 74.328C70.0035 74.328 68.2066 72.703 67.9566 69.0624H69.9879C70.1129 71.4374 71.2066 72.5311 73.4098 72.5311C75.5191 72.5311 76.7848 71.3124 76.7848 69.2655C76.7848 67.453 75.6441 66.3905 73.4098 66.3905H72.3004V64.6874C75.5504 64.6874 76.3004 63.9843 76.3004 62.2343C76.3004 60.4999 75.2223 59.453 73.4254 59.453C71.3629 59.453 70.3785 60.5311 70.3316 62.9374H68.3004C68.3785 59.4686 70.1129 57.6718 73.4098 57.6718C76.5191 57.6718 78.3785 59.3593 78.3785 62.1561C78.3785 63.7968 77.6129 64.8593 76.0973 65.453C78.0504 66.1249 78.8629 67.2655 78.8629 69.2499Z" fill="black"/>
<path d="M91.8071 68.578C91.8071 72.0311 89.5103 74.328 86.2134 74.328C83.3228 74.328 81.479 73.0468 80.8228 69.7968H82.8384C83.3228 71.6405 84.4009 72.5311 86.1665 72.5311C88.3853 72.5311 89.7446 71.203 89.7446 68.8593C89.7446 66.4374 88.354 65.0311 86.1665 65.0311C84.9165 65.0311 84.1196 65.4218 83.1821 66.5624H81.3228L82.5415 58.0155H90.9634V60.0155H84.1665L83.5259 64.2343C84.479 63.5468 85.3853 63.2499 86.5415 63.2499C89.6665 63.2499 91.8071 65.3593 91.8071 68.578Z" fill="black"/>
<path d="M100.751 61.1718C100.751 63.078 99.3139 64.5311 97.392 64.5311C95.4857 64.5311 94.0326 63.078 94.0326 61.1718C94.0326 59.2655 95.4857 57.8124 97.392 57.8124C99.3139 57.8124 100.751 59.2655 100.751 61.1718ZM99.6576 61.1718C99.6576 59.953 98.6107 58.7968 97.392 58.7968C96.1732 58.7968 95.142 59.953 95.142 61.1718C95.142 62.3905 96.1732 63.5468 97.392 63.5468C98.6107 63.5468 99.6576 62.3905 99.6576 61.1718Z" fill="black"/>
<path d="M8.98438 216.384H6.95312V204.774H3.34375V203.321C6.46875 202.93 6.9375 202.587 7.64062 200.071H8.98438V216.384Z" fill="black"/>
<path d="M25.5849 211.79C25.5849 214.743 23.3349 216.727 20.1161 216.727C16.8974 216.727 14.6317 214.743 14.6317 211.759C14.6317 209.962 15.5536 208.696 17.4286 207.805C15.7724 206.774 15.2099 205.946 15.2099 204.43C15.2099 201.868 17.2411 200.071 20.1161 200.071C23.0067 200.071 25.0067 201.868 25.0067 204.43C25.0067 205.962 24.4599 206.79 22.788 207.805C24.663 208.696 25.5849 209.962 25.5849 211.79ZM22.9442 204.477C22.9442 202.884 21.8349 201.868 20.1161 201.868C18.413 201.868 17.288 202.884 17.288 204.446C17.288 205.993 18.413 206.993 20.1161 206.993C21.8192 206.993 22.9442 205.993 22.9442 204.477ZM23.5224 211.805C23.5224 209.899 22.1317 208.696 20.1161 208.696C18.0849 208.696 16.7099 209.899 16.7099 211.805C16.7099 213.712 18.0849 214.93 20.0692 214.93C22.1317 214.93 23.5224 213.743 23.5224 211.805Z" fill="black"/>
<path d="M38.2322 208.54C38.2322 213.899 36.3572 216.727 32.9041 216.727C29.4041 216.727 27.5604 213.899 27.5604 208.399C27.5604 202.93 29.3885 200.071 32.9041 200.071C36.4354 200.071 38.2322 202.884 38.2322 208.54ZM36.1697 208.352C36.1697 203.993 35.0916 201.868 32.9041 201.868C30.7166 201.868 29.6385 203.962 29.6385 208.43C29.6385 212.884 30.7166 215.055 32.8572 215.055C35.1072 215.055 36.1697 212.977 36.1697 208.352Z" fill="black"/>
<path d="M47.3171 203.571C47.3171 205.477 45.8796 206.93 43.9578 206.93C42.0515 206.93 40.5984 205.477 40.5984 203.571C40.5984 201.665 42.0515 200.212 43.9578 200.212C45.8796 200.212 47.3171 201.665 47.3171 203.571ZM46.2234 203.571C46.2234 202.352 45.1765 201.196 43.9578 201.196C42.739 201.196 41.7078 202.352 41.7078 203.571C41.7078 204.79 42.739 205.946 43.9578 205.946C45.1765 205.946 46.2234 204.79 46.2234 203.571Z" fill="black"/>
<path d="M66.1843 347.267C66.1843 349.267 65.0124 350.97 62.7311 352.189L60.4343 353.423C58.4343 354.595 57.6999 355.455 57.4968 356.783H66.0749V358.783H55.2155C55.403 355.189 56.3874 353.658 59.7936 351.72L61.903 350.533C63.3561 349.705 64.1218 348.595 64.1218 347.298C64.1218 345.564 62.7311 344.251 60.903 344.251C58.903 344.251 57.7624 345.392 57.6061 348.126H55.5905C55.6999 344.173 57.6374 342.47 60.9655 342.47C64.0436 342.47 66.1843 344.501 66.1843 347.267Z" fill="black"/>
<path d="M78.9723 347.267C78.9723 349.267 77.8004 350.97 75.5191 352.189L73.2223 353.423C71.2223 354.595 70.4879 355.455 70.2848 356.783H78.8629V358.783H68.0035C68.191 355.189 69.1754 353.658 72.5816 351.72L74.691 350.533C76.1441 349.705 76.9098 348.595 76.9098 347.298C76.9098 345.564 75.5191 344.251 73.691 344.251C71.691 344.251 70.5504 345.392 70.3941 348.126H68.3785C68.4879 344.173 70.4254 342.47 73.7535 342.47C76.8316 342.47 78.9723 344.501 78.9723 347.267Z" fill="black"/>
<path d="M91.8071 353.376C91.8071 356.83 89.5103 359.126 86.2134 359.126C83.3228 359.126 81.479 357.845 80.8228 354.595H82.8384C83.3228 356.439 84.4009 357.33 86.1665 357.33C88.3853 357.33 89.7446 356.001 89.7446 353.658C89.7446 351.236 88.354 349.83 86.1665 349.83C84.9165 349.83 84.1196 350.22 83.1821 351.361H81.3228L82.5415 342.814H90.9634V344.814H84.1665L83.5259 349.033C84.479 348.345 85.3853 348.048 86.5415 348.048C89.6665 348.048 91.8071 350.158 91.8071 353.376Z" fill="black"/>
<path d="M100.751 345.97C100.751 347.876 99.3139 349.33 97.392 349.33C95.4857 349.33 94.0326 347.876 94.0326 345.97C94.0326 344.064 95.4857 342.611 97.392 342.611C99.3139 342.611 100.751 344.064 100.751 345.97ZM99.6576 345.97C99.6576 344.751 98.6107 343.595 97.392 343.595C96.1732 343.595 95.142 344.751 95.142 345.97C95.142 347.189 96.1732 348.345 97.392 348.345C98.6107 348.345 99.6576 347.189 99.6576 345.97Z" fill="black"/>
<path d="M218.968 400.701C218.968 402.701 217.796 404.405 215.515 405.623L213.218 406.858C211.218 408.03 210.484 408.889 210.281 410.217H218.859V412.217H207.999C208.187 408.623 209.171 407.092 212.577 405.155L214.687 403.967C216.14 403.139 216.906 402.03 216.906 400.733C216.906 398.998 215.515 397.686 213.687 397.686C211.687 397.686 210.546 398.826 210.39 401.561H208.374C208.484 397.608 210.421 395.905 213.749 395.905C216.827 395.905 218.968 397.936 218.968 400.701Z" fill="black"/>
<path d="M231.959 397.951C228.537 402.03 226.24 406.951 225.35 412.217H223.178C224.334 407.108 226.631 402.358 229.865 398.248H221.069V396.248H231.959V397.951Z" fill="black"/>
<path d="M244.45 404.373C244.45 409.733 242.575 412.561 239.122 412.561C235.622 412.561 233.778 409.733 233.778 404.233C233.778 398.764 235.607 395.905 239.122 395.905C242.653 395.905 244.45 398.717 244.45 404.373ZM242.388 404.186C242.388 399.826 241.31 397.701 239.122 397.701C236.935 397.701 235.857 399.795 235.857 404.264C235.857 408.717 236.935 410.889 239.075 410.889C241.325 410.889 242.388 408.811 242.388 404.186Z" fill="black"/>
<path d="M253.535 399.405C253.535 401.311 252.098 402.764 250.176 402.764C248.27 402.764 246.816 401.311 246.816 399.405C246.816 397.498 248.27 396.045 250.176 396.045C252.098 396.045 253.535 397.498 253.535 399.405ZM252.441 399.405C252.441 398.186 251.395 397.03 250.176 397.03C248.957 397.03 247.926 398.186 247.926 399.405C247.926 400.623 248.957 401.78 250.176 401.78C251.395 401.78 252.441 400.623 252.441 399.405Z" fill="black"/>
<path d="M371.642 354.048C371.642 357.126 369.47 359.126 366.127 359.126C362.783 359.126 360.986 357.501 360.736 353.861H362.767C362.892 356.236 363.986 357.33 366.189 357.33C368.299 357.33 369.564 356.111 369.564 354.064C369.564 352.251 368.424 351.189 366.189 351.189H365.08V349.486C368.33 349.486 369.08 348.783 369.08 347.033C369.08 345.298 368.002 344.251 366.205 344.251C364.142 344.251 363.158 345.33 363.111 347.736H361.08C361.158 344.267 362.892 342.47 366.189 342.47C369.299 342.47 371.158 344.158 371.158 346.955C371.158 348.595 370.392 349.658 368.877 350.251C370.83 350.923 371.642 352.064 371.642 354.048Z" fill="black"/>
<path d="M380.774 358.783H378.743V347.173H375.133V345.72C378.258 345.33 378.727 344.986 379.43 342.47H380.774V358.783Z" fill="black"/>
<path d="M397.375 353.376C397.375 356.83 395.078 359.126 391.781 359.126C388.89 359.126 387.046 357.845 386.39 354.595H388.406C388.89 356.439 389.968 357.33 391.734 357.33C393.953 357.33 395.312 356.001 395.312 353.658C395.312 351.236 393.921 349.83 391.734 349.83C390.484 349.83 389.687 350.22 388.75 351.361H386.89L388.109 342.814H396.531V344.814H389.734L389.093 349.033C390.046 348.345 390.953 348.048 392.109 348.048C395.234 348.048 397.375 350.158 397.375 353.376Z" fill="black"/>
<path d="M406.319 345.97C406.319 347.876 404.881 349.33 402.959 349.33C401.053 349.33 399.6 347.876 399.6 345.97C399.6 344.064 401.053 342.611 402.959 342.611C404.881 342.611 406.319 344.064 406.319 345.97ZM405.225 345.97C405.225 344.751 404.178 343.595 402.959 343.595C401.741 343.595 400.709 344.751 400.709 345.97C400.709 347.189 401.741 348.345 402.959 348.345C404.178 348.345 405.225 347.189 405.225 345.97Z" fill="black"/>
</g>
<defs>
<clipPath id="clip0_41_1575">
<rect width="438" height="416" fill="white"/>
</clipPath>
</defs>
</svg>
