<svg width="438" height="416" viewBox="0 0 438 416" fill="none" xmlns="http://www.w3.org/2000/svg">
<g clip-path="url(#clip0_41_1582)">
<rect width="438" height="416" fill="white"/>
<g clip-path="url(#clip1_41_1582)">
<path d="M529 -92H-71V508H529V-92Z" fill="white"/>
<path d="M-5 -26H463V442H-5V-26Z" fill="white"/>
<path d="M314.102 208L313.887 201.996L313.254 196.023L312.199 190.109L310.73 184.285L308.852 178.582L306.578 173.02L303.918 167.637L300.883 162.453L297.492 157.496L293.758 152.789L289.703 148.359L285.344 144.227L280.707 140.41L275.809 136.93L270.68 133.805L265.344 131.051L259.824 128.68L254.152 126.703L248.355 125.129L242.461 123.973L236.5 123.23L230.5 122.914L224.496 123.02L218.512 123.547L212.582 124.5L206.734 125.863L200.996 127.641L195.395 129.816L189.965 132.383L184.727 135.324L179.711 138.625L174.941 142.277L170.438 146.254L166.23 150.539L162.332 155.109L158.77 159.945L155.555 165.016L152.703 170.305L150.234 175.781L148.16 181.418L146.484 187.188L145.223 193.059L144.375 199.004L143.953 204.996V211.004L144.375 216.996L145.223 222.941L146.484 228.812L148.16 234.582L150.234 240.219L152.703 245.695L155.555 250.984L158.77 256.055L162.332 260.891L166.23 265.461L170.438 269.746L174.941 273.723L179.711 277.375L184.727 280.676L189.965 283.617L195.395 286.184L200.996 288.359L206.734 290.137L212.582 291.5L218.512 292.453L224.496 292.98L230.5 293.086L236.5 292.77L242.461 292.027L248.355 290.871L254.152 289.297L259.824 287.32L265.344 284.949L270.68 282.195L275.809 279.07L280.707 275.59L285.344 271.773L289.703 267.641L293.758 263.211L297.492 258.504L300.883 253.547L303.918 248.363L306.578 242.98L308.852 237.418L310.73 231.715L312.199 225.891L313.254 219.977L313.887 214.004L314.102 208Z" stroke="black" stroke-opacity="0.5" stroke-width="0.3" stroke-miterlimit="2"/>
<path d="M399.199 208L398.777 195.996L397.508 184.047L395.398 172.223L392.457 160.574L388.707 149.16L384.156 138.043L378.836 127.273L372.77 116.902L365.984 106.988L358.52 97.5781L350.406 88.7188L341.691 80.4492L332.414 72.8203L322.621 65.8633L312.359 59.6133L301.684 54.1016L290.648 49.3594L279.305 45.4023L267.711 42.2617L255.922 39.9414L244 38.4609L232.004 37.8281L219.992 38.0391L208.027 39.0977L196.164 40.9961L184.465 43.7305L172.988 47.2812L161.793 51.6328L150.93 56.7617L140.457 62.6445L130.422 69.2539L120.883 76.5547L111.879 84.5078L103.461 93.0781L95.6641 102.219L88.5352 111.887L82.1055 122.035L76.4062 132.609L71.4688 143.562L67.3164 154.836L63.9688 166.371L61.4453 178.117L59.7539 190.012L58.9062 201.992V214.008L59.7539 225.988L61.4453 237.883L63.9688 249.629L67.3164 261.164L71.4688 272.438L76.4062 283.391L82.1055 293.965L88.5352 304.113L95.6641 313.781L103.461 322.922L111.879 331.492L120.883 339.445L130.422 346.746L140.457 353.355L150.93 359.238L161.793 364.367L172.988 368.719L184.465 372.27L196.164 375.004L208.027 376.902L219.992 377.961L232.004 378.172L244 377.539L255.922 376.059L267.711 373.738L279.305 370.598L290.648 366.641L301.684 361.898L312.359 356.387L322.621 350.137L332.414 343.18L341.691 335.551L350.406 327.281L358.52 318.422L365.984 309.012L372.77 299.098L378.836 288.727L384.156 277.957L388.707 266.84L392.457 255.426L395.398 243.777L397.508 231.953L398.777 220.004L399.199 208Z" stroke="black" stroke-opacity="0.5" stroke-width="0.3" stroke-miterlimit="2"/>
<path d="M229 208H407.438" stroke="black" stroke-opacity="0.5" stroke-width="0.3" stroke-miterlimit="1.1547"/>
<path d="M229 208L355.172 81.8281" stroke="black" stroke-opacity="0.5" stroke-width="0.3" stroke-miterlimit="1.1547"/>
<path d="M229 208V29.5625" stroke="black" stroke-opacity="0.5" stroke-width="0.3" stroke-miterlimit="1.1547"/>
<path d="M229 208L102.828 81.8281" stroke="black" stroke-opacity="0.5" stroke-width="0.3" stroke-miterlimit="1.1547"/>
<path d="M229 208H50.5625" stroke="black" stroke-opacity="0.5" stroke-width="0.3" stroke-miterlimit="1.1547"/>
<path d="M229 208L102.828 334.172" stroke="black" stroke-opacity="0.5" stroke-width="0.3" stroke-miterlimit="1.1547"/>
<path d="M229 208V386.438" stroke="black" stroke-opacity="0.5" stroke-width="0.3" stroke-miterlimit="1.1547"/>
<path d="M229 208L355.172 334.172" stroke="black" stroke-opacity="0.5" stroke-width="0.3" stroke-miterlimit="1.1547"/>
<path d="M72.4375 142.762L78.3828 147.637L85.0078 153.008L92.418 158.938L100.738 165.492L110.094 172.734L120.621 180.707L132.43 189.438L145.594 198.914L160.109 209.051L175.863 219.703L192.609 230.637L209.965 241.566L227.473 252.184L244.652 262.219L261.09 271.469L276.484 279.828L290.668 287.277L303.586 293.848L315.258 299.621L325.766 304.684L335.215 309.133L343.715 313.055L351.375 316.531" stroke="#7F7F7F" stroke-width="0.25" stroke-miterlimit="2"/>
<path d="M110.582 326.996L119.203 323.633L128.887 319.734L139.793 315.176L152.078 309.824L165.883 303.527L181.289 296.129L198.273 287.516L216.656 277.637L236.035 266.578L255.836 254.57L275.359 242.004L293.945 229.328L311.094 216.977L326.52 205.293L340.16 194.484L352.094 184.637L362.48 175.75L371.527 167.777L379.418 160.633L386.34 154.227" stroke="#7F7F7F" stroke-width="0.25" stroke-miterlimit="2"/>
<path d="M226.797 38.8047L240.453 40.9609L254.301 43.7344L268.199 47.1328L282 51.1328L295.562 55.6914L308.75 60.7539L321.445 66.2344" stroke="#7F7F7F" stroke-width="0.25" stroke-miterlimit="2"/>
<path d="M68.4297 255.062L74.793 249.918L81.9062 244.289L89.8906 238.133L98.8711 231.395L108.98 224.043L120.348 216.062L133.07 207.461L147.188 198.309L162.648 188.73L179.285 178.914L196.789 169.105L214.742 159.574L232.672 150.578L250.117 142.305L266.707 134.875L282.184 128.32L296.426 122.613L309.395 117.68L321.137 113.434L331.742 109.777L341.309 106.625L349.949 103.895L357.773 101.516" stroke="#7F7F7F" stroke-width="0.25" stroke-miterlimit="2"/>
<path d="M194.977 41.8984L207.988 43.0508L221.512 44.7695L235.445 47.1133L249.66 50.1094L264.004 53.7734L278.309 58.0898L292.41 63.0117L306.141 68.4805L319.367 74.4023L331.973 80.6836L343.871 87.2148L355.02 93.9023" stroke="#7F7F7F" stroke-width="0.25" stroke-miterlimit="2"/>
<path d="M208.984 39.543L222.348 41.082L236.09 43.2188L250.082 45.9961L264.18 49.4102L278.234 53.457L292.086 58.0938L305.586 63.2617L318.605 68.8828L331.039 74.8633" stroke="#7F7F7F" stroke-width="0.25" stroke-miterlimit="2"/>
<path d="M68.8672 238.996L75.7383 233.176L83.4375 226.844L92.0938 219.961L101.836 212.5L112.781 204.453L125.035 195.848L138.652 186.758L153.602 177.312L169.754 167.695L186.848 158.141L204.52 148.91L222.324 140.238L239.82 132.312L256.621 125.242L272.449 119.059L287.129 113.73L300.602 109.18L312.871 105.32L324.004 102.051L334.086 99.2734L343.219 96.9141L351.508 94.8945" stroke="#7F7F7F" stroke-width="0.25" stroke-miterlimit="2"/>
<path d="M191.812 45.0547L204.863 46.2852L218.477 48.0938L232.559 50.5352L246.973 53.6562L261.559 57.4648L276.145 61.9531L290.547 67.0781L304.586 72.7695L318.109 78.9336L330.992 85.4688L343.137 92.2539L354.492 99.1914L365.031 106.172" stroke="#7F7F7F" stroke-width="0.25" stroke-miterlimit="2"/>
<path d="M109.871 87.3203L118.305 88.8594L127.57 90.707L137.758 92.9336L148.957 95.6172L161.246 98.8477L174.676 102.73L189.246 107.359L204.891 112.82L221.449 119.164L238.668 126.387L256.184 134.414L273.602 143.098L290.504 152.234L306.543 161.59L321.457 170.922L335.105 180.039L347.438 188.785L358.492 197.062L368.355 204.82L377.137 212.043L384.957 218.734L391.934 224.926" stroke="#7F7F7F" stroke-width="0.25" stroke-miterlimit="2"/>
<path d="M68.5 262.863L78.4258 275.152L89.6367 287.781L102.137 300.531L115.844 313.133L130.594 325.297L146.133 336.742L162.137 347.227L178.262 356.59L194.18 364.758L209.609 371.727L224.336 377.57" stroke="#7F7F7F" stroke-width="0.25" stroke-miterlimit="2"/>
<path d="M134.707 349.215L143.148 346.516L152.391 343.391L162.516 339.762L173.59 335.535L185.66 330.605L198.746 324.879L212.805 318.254L227.734 310.672L243.336 302.117L259.332 292.641L275.383 282.379L291.121 271.535L306.199 260.363L320.336 249.137L333.355 238.102L345.168 227.457L355.77 217.352L365.223 207.863L373.617 199.031L381.066 190.859L387.684 183.32L393.578 176.379" stroke="#7F7F7F" stroke-width="0.25" stroke-miterlimit="2"/>
<path d="M194.039 371.812L207.793 367.477L222.684 362.121L238.641 355.586L255.477 347.746L272.906 338.531L290.539 327.984L307.922 316.258L324.598 303.629L340.172 290.449L354.375 277.09L367.066 263.906L378.242 251.168L387.973 239.07L396.395 227.73" stroke="#7F7F7F" stroke-width="0.25" stroke-miterlimit="2"/>
<path d="M130.125 344.754L138.445 341.973L147.574 338.773L157.598 335.066L168.594 330.762L180.617 325.758L193.699 319.949L207.805 313.242L222.836 305.578L238.598 296.938L254.816 287.383L271.129 277.047L287.152 266.152L302.516 254.961L316.93 243.75L330.199 232.773L342.23 222.227L353.027 212.254L362.648 202.926L371.188 194.273L378.766 186.293L385.5 178.953L391.496 172.215" stroke="#7F7F7F" stroke-width="0.25" stroke-miterlimit="2"/>
<path d="M182.621 367.012L196.105 362.898L210.848 357.797L226.809 351.52L243.84 343.918L261.684 334.891L279.938 324.441L298.109 312.707L315.68 299.969L332.176 286.602L347.262 273.02L360.75 259.609L372.605 246.684L382.91 234.449L391.805 223.035" stroke="#7F7F7F" stroke-width="0.25" stroke-miterlimit="2"/>
<path d="M121.809 338.223L129.781 335.375L138.555 332.121L148.223 328.379L158.875 324.059L170.586 319.055L183.406 313.27L197.336 306.605L212.301 298.992L228.137 290.406L244.578 280.898L261.266 270.602L277.785 259.734L293.73 248.57L308.77 237.395L322.664 226.473L335.293 216.012L346.641 206.152L356.754 196.969L365.738 188.488L373.711 180.695L380.793 173.559L387.098 167.027" stroke="#7F7F7F" stroke-width="0.25" stroke-miterlimit="2"/>
<path d="M175.863 219.703L192.609 230.637L209.965 241.566L227.473 252.184" stroke="#0000FF" stroke-width="3" stroke-miterlimit="2"/>
<path d="M216.656 277.637L236.035 266.578L255.836 254.57L275.359 242.004L293.945 229.328" stroke="#0012F6" stroke-width="3" stroke-miterlimit="2"/>
<path d="M254.301 43.7344L268.199 47.1328L282 51.1328L295.562 55.6914" stroke="#0024ED" stroke-width="3" stroke-miterlimit="2"/>
<path d="M179.285 178.914L196.789 169.105L214.742 159.574L232.672 150.578" stroke="#0037E4" stroke-width="3" stroke-miterlimit="2"/>
<path d="M249.66 50.1094L264.004 53.7734L278.309 58.0898L292.41 63.0117L306.141 68.4805" stroke="#0049DB" stroke-width="3" stroke-miterlimit="2"/>
<path d="M250.082 45.9961L264.18 49.4102L278.234 53.457L292.086 58.0938" stroke="#005BD1" stroke-width="3" stroke-miterlimit="2"/>
<path d="M169.754 167.695L186.848 158.141L204.52 148.91L222.324 140.238L239.82 132.312" stroke="#006DC8" stroke-width="3" stroke-miterlimit="2"/>
<path d="M261.559 57.4648L276.145 61.9531L290.547 67.0781L304.586 72.7695" stroke="#0080BF" stroke-width="3" stroke-miterlimit="2"/>
<path d="M221.449 119.164L238.668 126.387L256.184 134.414L273.602 143.098L290.504 152.234" stroke="#0092B6" stroke-width="3" stroke-miterlimit="2"/>
<path d="M115.844 313.133L130.594 325.297L146.133 336.742L162.137 347.227" stroke="#00A4AD" stroke-width="3" stroke-miterlimit="2"/>
<path d="M243.336 302.117L259.332 292.641L275.383 282.379L291.121 271.535L306.199 260.363" stroke="#00B6A4" stroke-width="3" stroke-miterlimit="2"/>
<path d="M272.906 338.531L290.539 327.984L307.922 316.258L324.598 303.629L340.172 290.449" stroke="#00C89B" stroke-width="3" stroke-miterlimit="2"/>
<path d="M238.598 296.938L254.816 287.383L271.129 277.047L287.152 266.152L302.516 254.961" stroke="#00DB92" stroke-width="3" stroke-miterlimit="2"/>
<path d="M261.684 334.891L279.938 324.441L298.109 312.707L315.68 299.969L332.176 286.602" stroke="#00ED89" stroke-width="3" stroke-miterlimit="2"/>
<path d="M228.137 290.406L244.578 280.898L261.266 270.602L277.785 259.734L293.73 248.57" stroke="#00FF80" stroke-width="3" stroke-miterlimit="2"/>
<path d="M227.473 252.184L227.363 252.441L227.258 252.699L227.039 253.215L226.934 253.473L226.715 253.988L226.609 254.246L226.5 254.5L226.391 254.758L226.285 255.016L226.066 255.531L225.961 255.789L225.742 256.305L225.637 256.562L225.309 257.336L225.203 257.594L225.094 257.848L224.766 258.621L224.66 258.879L224.223 259.91L224.117 260.164L223.461 261.711L223.355 261.969L223.246 262.223L222.699 263.512L222.59 263.766L222.043 265.055L221.934 265.309L221.496 266.34L221.387 266.594L220.949 267.625L220.84 267.879L220.512 268.652L220.402 268.906L219.965 269.938L219.852 270.191L219.523 270.965L219.414 271.219L219.195 271.734L219.082 271.992L218.973 272.246L218.754 272.762L218.645 273.016L218.531 273.273L218.312 273.789L218.203 274.043L218.09 274.301L217.98 274.559L217.871 274.812L217.762 275.07L217.648 275.328L217.539 275.582L217.32 276.098L217.207 276.355L217.098 276.609L216.988 276.867L216.875 277.125L216.766 277.379L216.656 277.637" stroke="#0000FF" stroke-miterlimit="2" stroke-dasharray="3 3"/>
<path d="M293.945 229.328L293.836 227.41L293.719 225.496L293.594 223.582L293.465 221.672L293.332 219.758L293.191 217.844L293.047 215.934L292.895 214.02L292.738 212.109L292.574 210.199L292.406 208.289L292.23 206.379L292.051 204.473L291.867 202.562L291.676 200.656L291.48 198.746L291.277 196.84L291.07 194.934L290.855 193.027L290.637 191.125L290.41 189.219L290.18 187.316L289.945 185.414L289.703 183.512L289.457 181.609L289.203 179.707L288.945 177.809L288.68 175.91L288.41 174.008L288.133 172.109L287.852 170.215L287.562 168.316L287.27 166.422L286.973 164.527L286.668 162.633L286.355 160.738L286.039 158.844L285.719 156.953L285.391 155.062L285.059 153.172L284.719 151.281L284.375 149.395L284.023 147.508L283.668 145.621L283.305 143.734L282.934 141.848L282.562 139.965L282.18 138.082L281.793 136.199L281.402 134.32L281.004 132.438L280.602 130.559L280.191 128.684L279.773 126.805L279.352 124.93L278.922 123.055L278.488 121.18L278.047 119.309L277.602 117.438L277.148 115.566L276.688 113.695L276.223 111.828L275.754 109.961L275.273 108.098L274.789 106.23L274.301 104.367L273.801 102.508L273.301 100.645L272.789 98.7852L272.273 96.9297L271.75 95.0742L271.223 93.2188L270.684 91.3633L270.145 89.5117L269.594 87.6602L269.039 85.8086L268.477 83.9609L267.906 82.1172L267.328 80.2695L266.746 78.4258L266.156 76.5859L265.559 74.7461L264.957 72.9062L264.344 71.0703L263.727 69.2344L263.102 67.4023L262.469 65.5703L261.828 63.7383L261.184 61.9102L260.527 60.0859L259.867 58.2617L259.199 56.4375L258.52 54.6172L257.836 52.7969L257.145 50.9805L256.445 49.168L255.738 47.3555L255.023 45.543L254.301 43.7344" stroke="#0012F6" stroke-miterlimit="2" stroke-dasharray="3 3"/>
<path d="M295.562 55.6914L294.211 56.7734L292.859 57.8594L291.512 58.9453L290.172 60.0391L288.832 61.1367L287.5 62.2383L286.168 63.3438L284.844 64.4531L283.52 65.5664L282.203 66.6836L280.891 67.8047L279.578 68.9297L278.273 70.0586L276.973 71.1914L275.676 72.3281L274.379 73.4688L273.09 74.6133L271.805 75.7617L270.523 76.9102L269.242 78.0664L266.695 80.3867L265.43 81.5508L262.906 83.8945L261.652 85.0703L260.398 86.25L259.148 87.4336L257.906 88.6172L256.664 89.8086L255.426 91L254.191 92.1953L252.961 93.3945L251.734 94.5977L249.289 97.0117L248.074 98.2266L246.863 99.4414L245.652 100.66L244.445 101.879L242.047 104.332L240.852 105.562L239.66 106.797L237.285 109.273L236.105 110.516L234.926 111.762L232.582 114.262L231.414 115.516L230.25 116.773L229.09 118.035L227.934 119.297L226.777 120.562L225.629 121.832L224.48 123.105L223.336 124.379L222.195 125.656L221.059 126.938L219.926 128.219L218.793 129.504L217.668 130.793L216.543 132.086L215.422 133.379L214.305 134.676L213.191 135.973L212.082 137.277L210.973 138.578L209.867 139.887L208.77 141.195L207.672 142.508L205.484 145.141L204.398 146.461L203.312 147.785L202.234 149.109L201.156 150.438L200.082 151.77L199.012 153.102L197.941 154.438L195.816 157.117L194.758 158.461L193.703 159.809L192.652 161.156L190.559 163.859L189.52 165.215L188.48 166.574L187.445 167.938L185.383 170.664L183.336 173.406L182.32 174.777L181.305 176.152L180.293 177.531L179.285 178.914" stroke="#0024ED" stroke-miterlimit="2" stroke-dasharray="3 3"/>
<path d="M232.672 150.578L233.164 147.531L233.328 146.512L233.82 143.465L233.988 142.449L234.48 139.402L234.648 138.387L234.977 136.355L235.145 135.34L235.309 134.324L235.477 133.309L235.641 132.293L235.977 130.262L236.141 129.246L236.645 126.199L236.809 125.184L237.984 118.074L238.156 117.059L238.66 114.012L238.832 112.996L239 111.984L239.168 110.969L239.34 109.953L239.508 108.938L239.68 107.922L239.848 106.906L240.191 104.875L240.359 103.863L241.047 99.8008L241.215 98.7891L241.73 95.7422L241.906 94.7266L242.078 93.7148L242.594 90.668L242.77 89.6562L243.113 87.625L243.289 86.6094L243.461 85.5977L243.637 84.582L243.809 83.5664L243.984 82.5547L244.16 81.5391L244.332 80.5234L244.508 79.5117L244.859 77.4805L245.035 76.4688L245.211 75.4531L245.383 74.4375L245.562 73.4258L245.738 72.4102L245.914 71.3984L246.266 69.3672L246.441 68.3555L246.621 67.3398L246.797 66.3281L246.973 65.3125L247.152 64.3008L247.328 63.2852L247.508 62.2734L247.688 61.2578L247.863 60.2422L248.043 59.2305L248.223 58.2148L248.402 57.2031L248.578 56.1914L248.758 55.1758L248.938 54.1641L249.117 53.1484L249.297 52.1367L249.48 51.1211L249.66 50.1094" stroke="#0037E4" stroke-miterlimit="2" stroke-dasharray="3 3"/>
<path d="M306.141 68.4805L305.602 68.1992L303.973 67.3555L302.887 66.8008L302.34 66.5273L301.797 66.25L301.25 65.9766L300.703 65.707L300.156 65.4336L299.062 64.8945L298.512 64.6289L297.965 64.3594L296.863 63.8281L294.66 62.7812L294.105 62.5234L293.555 62.2656L293 62.0078L292.445 61.7539L291.891 61.4961L291.336 61.2422L290.777 60.9922L290.223 60.7422L289.664 60.4922L289.109 60.2422L288.551 59.9922L287.434 59.5L286.875 59.2578L286.312 59.0117L285.754 58.7695L285.191 58.5312L284.629 58.2891L284.07 58.0508L283.508 57.8125L282.941 57.5781L282.379 57.3398L281.816 57.1055L281.25 56.875L280.688 56.6406L279.555 56.1797L278.988 55.9531L278.422 55.7227L277.855 55.4961L277.285 55.2734L276.719 55.0469L276.148 54.8242L275.578 54.6055L275.008 54.3828L273.297 53.7266L272.727 53.5117L272.152 53.2969L271.582 53.082L269.285 52.2383L268.137 51.8242L267.559 51.6211L266.984 51.4141L265.828 51.0078L263.516 50.2109L262.938 50.0156L262.355 49.8203L261.777 49.625L260.031 49.0508L257.703 48.3008L257.117 48.1172L256.535 47.9336L255.949 47.75L254.191 47.2109L252.434 46.6836L251.844 46.5078L251.258 46.3359L250.668 46.1641L250.082 45.9961" stroke="#0049DB" stroke-miterlimit="2" stroke-dasharray="3 3"/>
<path d="M292.086 58.0938L290.664 59L289.246 59.9141L287.832 60.8281L286.422 61.75L285.016 62.6758L283.613 63.6094L282.215 64.543L280.824 65.4844L279.434 66.4297L278.047 67.3828L276.668 68.3359L275.289 69.2969L273.918 70.2617L272.547 71.2305L271.184 72.2031L269.82 73.1836L268.465 74.1641L267.109 75.1523L265.762 76.1445L264.414 77.1406L263.074 78.1406L261.734 79.1445L260.402 80.1523L259.07 81.168L257.746 82.1836L256.422 83.207L255.102 84.2344L253.789 85.2617L252.477 86.2969L251.172 87.3359L249.867 88.3789L248.566 89.4258L247.27 90.4727L245.977 91.5273L244.691 92.5859L243.406 93.6484L242.125 94.7148L240.848 95.7852L239.574 96.8594L238.305 97.9375L237.035 99.0195L235.773 100.105L233.258 102.285L232.008 103.383L229.516 105.586L228.273 106.695L227.039 107.805L225.805 108.922L224.574 110.039L223.348 111.164L222.125 112.289L220.906 113.418L219.691 114.551L218.48 115.688L217.27 116.828L216.066 117.969L214.863 119.117L213.668 120.266L212.473 121.422L211.285 122.578L210.098 123.738L208.914 124.902L207.734 126.07L206.559 127.242L205.387 128.414L204.215 129.594L203.051 130.773L201.891 131.957L200.73 133.145L199.574 134.336L197.277 136.727L196.133 137.93L194.992 139.133L193.855 140.34L192.723 141.551L191.594 142.762L189.344 145.199L188.227 146.422L187.109 147.648L184.891 150.109L183.785 151.348L182.684 152.586L181.586 153.828L180.492 155.07L179.402 156.32L178.316 157.57L177.234 158.824L176.152 160.082L175.078 161.344L174.004 162.609L172.938 163.875L171.871 165.145L170.809 166.418L169.754 167.695" stroke="#005BD1" stroke-miterlimit="2" stroke-dasharray="3 3"/>
<path d="M239.82 132.312L240.242 130.797L240.457 130.039L241.09 127.766L241.305 127.008L241.516 126.25L241.73 125.492L241.941 124.734L242.156 123.977L242.367 123.219L242.797 121.703L243.008 120.945L244.941 114.125L245.156 113.371L245.801 111.098L246.02 110.34L246.234 109.582L246.449 108.828L246.668 108.07L246.883 107.312L247.102 106.555L247.316 105.801L247.535 105.043L247.75 104.285L247.969 103.531L248.188 102.773L248.402 102.016L248.621 101.258L248.84 100.504L249.059 99.7461L249.277 98.9922L249.715 97.4766L249.934 96.7227L250.152 95.9648L250.371 95.2109L250.809 93.6953L251.031 92.9414L251.25 92.1836L251.469 91.4297L251.691 90.6719L251.91 89.918L252.133 89.1602L252.352 88.4062L252.574 87.6484L252.793 86.8945L253.016 86.1406L253.238 85.3828L253.457 84.6289L253.68 83.8711L254.125 82.3633L254.348 81.6055L254.793 80.0977L255.016 79.3398L255.461 77.832L255.684 77.0742L255.906 76.3203L256.133 75.5664L256.355 74.8125L256.582 74.0586L256.805 73.3008L257.027 72.5469L257.48 71.0391L257.703 70.2852L257.93 69.5273L258.156 68.7734L258.379 68.0195L260.191 61.9883L260.422 61.2344L260.875 59.7266L261.105 58.9727L261.559 57.4648" stroke="#006DC8" stroke-miterlimit="2" stroke-dasharray="3 3"/>
<path d="M304.586 72.7695L302.805 73.543L301.914 73.9336L301.027 74.3242L300.137 74.7188L299.254 75.1133L298.367 75.5117L296.602 76.3086L295.719 76.7109L294.836 77.1172L293.957 77.5234L292.199 78.3438L291.324 78.7539L289.574 79.582L288.703 80L287.828 80.418L286.957 80.8398L286.09 81.2617L285.219 81.6875L283.484 82.5391L282.617 82.9688L281.754 83.4023L280.891 83.832L280.027 84.2695L279.168 84.7031L278.305 85.1406L276.586 86.0234L275.73 86.4648L274.875 86.9102L274.02 87.3594L273.164 87.8047L272.312 88.2539L269.758 89.6133L268.062 90.5273L267.215 90.9883L266.371 91.4492L263.84 92.8438L262.996 93.3125L261.316 94.25L260.48 94.7227L259.641 95.1953L257.969 96.1484L255.473 97.5898L253.809 98.5586L252.98 99.043L252.152 99.5312L251.324 100.023L250.5 100.512L249.676 101.004L248.027 101.996L246.387 102.988L245.566 103.488L244.746 103.992L243.93 104.492L243.113 105L242.297 105.504L241.48 106.012L240.668 106.52L239.043 107.543L238.234 108.055L236.617 109.086L235.809 109.605L235.004 110.125L234.195 110.645L233.395 111.164L232.59 111.688L231.789 112.215L230.984 112.738L230.188 113.266L229.387 113.797L226.996 115.391L226.199 115.926L225.406 116.461L223.82 117.539L223.031 118.078L222.238 118.621L221.449 119.164" stroke="#0080BF" stroke-miterlimit="2" stroke-dasharray="3 3"/>
<path d="M290.504 152.234L288.746 153.867L285.223 157.125L283.465 158.754L278.18 163.641L276.422 165.27L267.613 173.414L265.855 175.043L264.094 176.672L262.332 178.297L257.047 183.184L255.285 184.809L250 189.695L248.234 191.32L246.473 192.949L244.711 194.574L241.188 197.832L239.426 199.457L237.66 201.086L235.898 202.711L234.137 204.34L232.375 205.965L230.609 207.59L228.848 209.219L227.086 210.844L225.32 212.473L221.797 215.723L220.031 217.352L218.27 218.977L216.504 220.602L214.742 222.227L212.977 223.855L211.215 225.48L209.449 227.105L207.688 228.73L204.156 231.98L202.395 233.605L198.863 236.855L197.102 238.484L195.336 240.109L193.57 241.73L191.809 243.355L184.746 249.855L182.984 251.48L181.219 253.105L179.453 254.727L174.156 259.602L172.391 261.223L168.859 264.473L167.094 266.094L165.328 267.719L163.562 269.34L160.031 272.59L158.262 274.211L156.496 275.836L152.965 279.078L151.199 280.703L149.43 282.324L147.664 283.949L145.898 285.57L144.129 287.191L142.363 288.812L140.598 290.438L138.828 292.059L137.062 293.68L135.293 295.301L133.527 296.922L131.758 298.543L129.992 300.164L128.223 301.789L126.453 303.41L124.688 305.031L122.918 306.652L121.148 308.27L119.383 309.891L115.844 313.133" stroke="#0092B6" stroke-miterlimit="2" stroke-dasharray="3 3"/>
<path d="M162.137 347.227L163.012 346.855L163.883 346.484L164.754 346.109L165.625 345.73L166.496 345.355L168.23 344.59L169.094 344.207L169.961 343.82L170.824 343.434L171.688 343.043L172.547 342.652L174.266 341.863L175.125 341.465L176.836 340.668L177.691 340.262L178.547 339.859L179.398 339.453L181.102 338.633L181.949 338.223L183.645 337.395L184.492 336.977L185.336 336.559L187.023 335.715L187.863 335.293L188.703 334.867L190.383 334.008L191.219 333.578L192.891 332.711L193.727 332.273L195.391 331.398L196.223 330.957L199.535 329.176L200.359 328.723L201.184 328.273L202.008 327.82L202.828 327.367L204.469 326.453L205.289 325.992L206.922 325.07L207.738 324.605L208.555 324.137L209.367 323.672L210.18 323.203L210.992 322.73L212.609 321.785L214.227 320.832L215.031 320.355L215.836 319.875L216.641 319.391L217.441 318.91L218.246 318.426L219.047 317.938L219.844 317.449L220.645 316.961L222.238 315.977L223.031 315.484L223.828 314.988L224.621 314.492L225.414 313.992L226.992 312.992L228.57 311.984L230.926 310.461L231.711 309.949L233.273 308.926L234.055 308.41L234.832 307.891L235.613 307.375L236.391 306.855L237.164 306.336L237.941 305.812L238.715 305.289L239.488 304.762L240.258 304.238L241.027 303.707L241.797 303.18L243.336 302.117" stroke="#00A4AD" stroke-miterlimit="2" stroke-dasharray="3 3"/>
<path d="M306.199 260.363L305.938 261.176L305.676 261.992L305.41 262.805L305.145 263.621L304.879 264.434L304.34 266.059L304.066 266.871L303.797 267.68L303.52 268.492L303.246 269.301L302.969 270.113L302.125 272.539L301.555 274.156L301.27 274.961L300.98 275.77L300.402 277.379L300.109 278.188L299.816 278.992L299.52 279.793L299.223 280.598L298.922 281.402L298.621 282.203L298.32 283.008L298.02 283.809L297.715 284.609L296.789 287.012L296.48 287.809L296.168 288.609L294.902 291.797L294.262 293.391L293.938 294.184L293.613 294.98L292.629 297.359L291.965 298.945L291.633 299.734L291.297 300.527L290.957 301.316L290.621 302.105L290.281 302.895L289.594 304.473L289.25 305.258L288.902 306.047L288.207 307.617L287.855 308.402L287.5 309.188L287.148 309.973L286.793 310.754L286.434 311.535L286.074 312.32L285.715 313.102L285.352 313.883L284.988 314.66L284.621 315.441L284.258 316.219L283.887 317L282.773 319.332L282.398 320.105L282.02 320.883L281.262 322.43L280.113 324.75L279.727 325.52L279.34 326.293L278.559 327.832L278.164 328.602L277.77 329.367L277.375 330.137L276.578 331.668L275.773 333.199L275.367 333.965L274.555 335.488L273.734 337.012L273.32 337.773L272.906 338.531" stroke="#00B6A4" stroke-miterlimit="2" stroke-dasharray="3 3"/>
<path d="M340.172 290.449L339.148 290.633L338.125 290.812L337.105 290.992L336.082 291.172L334.035 291.516L333.012 291.684L331.992 291.852L330.969 292.016L329.941 292.176L328.918 292.336L327.895 292.492L325.848 292.797L324.824 292.945L323.797 293.09L322.773 293.234L321.75 293.375L320.723 293.512L319.699 293.648L318.672 293.781L317.648 293.914L316.621 294.043L315.598 294.168L314.57 294.293L313.547 294.414L311.492 294.648L310.469 294.762L309.441 294.875L308.414 294.984L307.387 295.09L306.363 295.195L305.336 295.297L303.281 295.492L301.227 295.68L300.203 295.77L298.148 295.941L296.094 296.105L295.066 296.184L293.012 296.332L290.957 296.473L289.93 296.539L287.875 296.664L286.848 296.723L283.766 296.887L282.738 296.938L281.711 296.984L278.629 297.113L277.602 297.152L275.547 297.223L274.52 297.254L272.465 297.309L270.41 297.355L268.355 297.395L267.328 297.41L264.246 297.445L262.191 297.453L261.168 297.457H260.141L258.086 297.449L257.059 297.441L256.035 297.434L253.98 297.41L252.953 297.395L251.93 297.375L250.902 297.355L249.879 297.332L248.852 297.309L247.824 297.281L246.801 297.25L245.773 297.219L244.75 297.188L243.723 297.152L242.699 297.113L241.672 297.074L240.648 297.031L239.625 296.984L238.598 296.938" stroke="#00C89B" stroke-miterlimit="2" stroke-dasharray="3 3"/>
<path d="M302.516 254.961L302.184 255.801L301.848 256.641L301.168 258.32L300.828 259.156L300.484 259.996L299.797 261.668L299.102 263.34L298.75 264.176L298.047 265.84L297.691 266.676L297.336 267.508L296.977 268.34L296.617 269.168L296.258 270L295.531 271.656L294.797 273.312L294.055 274.969L293.312 276.617L292.934 277.441L292.559 278.266L292.18 279.09L291.801 279.91L291.418 280.734L290.652 282.375L290.266 283.195L289.875 284.012L289.488 284.832L289.094 285.648L288.703 286.465L287.914 288.098L287.516 288.914L287.117 289.727L286.715 290.543L285.91 292.168L285.504 292.977L285.098 293.789L283.867 296.215L283.039 297.832L282.621 298.637L282.203 299.445L281.781 300.25L281.363 301.055L280.938 301.855L280.516 302.66L280.086 303.461L279.66 304.262L278.801 305.863L278.367 306.66L277.93 307.461L277.496 308.258L277.059 309.055L276.617 309.852L276.176 310.645L275.734 311.441L274.844 313.027L274.398 313.816L273.949 314.609L272.137 317.766L271.676 318.555L271.219 319.34L270.297 320.91L269.832 321.695L269.367 322.477L268.43 324.039L267.484 325.602L267.012 326.379L266.059 327.934L265.098 329.488L263.645 331.809L263.156 332.578L262.668 333.352L261.684 334.891" stroke="#00DB92" stroke-miterlimit="2" stroke-dasharray="3 3"/>
<path d="M332.176 286.602L331.129 286.754L330.078 286.906L329.031 287.055L326.93 287.344L325.879 287.484L324.832 287.625L323.781 287.762L322.73 287.895L319.578 288.281L318.527 288.406L317.477 288.527L315.375 288.762L313.273 288.988L312.223 289.098L310.121 289.309L308.02 289.512L306.965 289.609L304.863 289.797L303.812 289.887L302.758 289.973L301.707 290.059L299.605 290.223L298.551 290.301L297.5 290.379L296.449 290.453L295.395 290.523L294.344 290.594L293.293 290.66L292.238 290.723L291.188 290.785L290.137 290.844L289.082 290.902L286.98 291.012L285.926 291.062L283.824 291.156L282.77 291.199L281.719 291.242L280.664 291.281L278.562 291.352L277.508 291.387L275.406 291.441L274.352 291.469L273.301 291.492L271.199 291.531L270.145 291.551L268.043 291.574L266.988 291.586L265.938 291.594L263.836 291.602H261.73L259.629 291.594L258.578 291.586L255.426 291.551L252.273 291.492L250.172 291.445L249.121 291.418L247.02 291.355L245.973 291.32L244.922 291.285L243.871 291.246L241.77 291.16L240.723 291.117L239.672 291.07L238.625 291.02L237.574 290.969L236.523 290.914L235.477 290.859L234.426 290.801L232.332 290.676L231.281 290.613L230.234 290.547L229.188 290.477L228.137 290.406" stroke="#00ED89" stroke-miterlimit="2" stroke-dasharray="3 3"/>
<mask id="mask0_41_1582" style="mask-type:luminance" maskUnits="userSpaceOnUse" x="-5" y="-26" width="468" height="468">
<path d="M-5 -26H463V442H-5V-26Z" fill="white"/>
</mask>
<g mask="url(#mask0_41_1582)">
<path fill-rule="evenodd" clip-rule="evenodd" d="M-1.78413e+06 1.78457e+06V-1.78415e+06H1.78459e+06V1.78457e+06H-1.78413e+06ZM407.5 208L407 195.375L405.625 182.875L403.5 170.5L400.375 158.25L396.375 146.25L391.625 134.625L386.125 123.375L379.75 112.5L372.625 102.125L364.75 92.25L356.25 83L347.125 74.25L337.375 66.25L327.125 59L316.375 52.375L305.25 46.625L293.625 41.625L281.75 37.5L269.625 34.25L257.25 31.75L244.75 30.25L232.125 29.625L219.5 29.75L207 30.875L194.625 32.875L182.25 35.75L170.25 39.5L158.5 44.125L147.125 49.5L136.125 55.625L125.625 62.5L115.625 70.25L106.25 78.5L97.375 87.5L89.25 97.125L81.75 107.25L75 117.875L69 129L63.875 140.5L59.5 152.25L56 164.375L53.375 176.625L51.5 189.125L50.625 201.75V214.25L51.5 226.875L53.375 239.375L56 251.625L59.5 263.75L63.875 275.5L69 287L75 298.125L81.75 308.75L89.25 318.875L97.375 328.5L106.25 337.5L115.625 345.75L125.625 353.5L136.125 360.375L147.125 366.5L158.5 371.875L170.25 376.5L182.25 380.25L194.625 383.125L207 385.125L219.5 386.25L232.125 386.375L244.75 385.75L257.25 384.25L269.625 381.75L281.75 378.5L293.625 374.375L305.25 369.375L316.375 363.625L327.125 357L337.375 349.75L347.125 341.75L356.25 333L364.75 323.75L372.625 313.875L379.75 303.5L386.125 292.625L391.625 281.375L396.375 269.75L400.375 257.75L403.5 245.5L405.625 233.125L407 220.625L407.5 208Z" fill="white"/>
</g>
<path d="M407.438 208L406.992 195.414L405.66 182.891L403.449 170.492L400.367 158.277L396.434 146.312L391.664 134.656L386.086 123.367L379.727 112.496L372.613 102.102L364.785 92.2344L356.281 82.9453L347.145 74.2773L337.418 66.2773L327.148 58.9844L316.395 52.4297L305.203 46.6523L293.633 41.6797L281.738 37.5352L269.582 34.2383L257.223 31.8086L244.727 30.2578L232.148 29.5938L219.555 29.8125L207.012 30.9258L194.574 32.918L182.312 35.7812L170.277 39.5039L158.539 44.0664L147.152 49.4453L136.172 55.6133L125.652 62.5391L115.648 70.1914L106.211 78.5312L97.3828 87.5156L89.2148 97.0977L81.7383 107.234L74.9961 117.875L69.0234 128.961L63.8477 140.445L59.4922 152.262L55.9844 164.355L53.3359 176.672L51.5625 189.141L50.6758 201.703V214.297L51.5625 226.859L53.3359 239.328L55.9844 251.645L59.4922 263.738L63.8477 275.555L69.0234 287.039L74.9961 298.125L81.7383 308.766L89.2148 318.902L97.3828 328.484L106.211 337.469L115.648 345.809L125.652 353.461L136.172 360.387L147.152 366.555L158.539 371.934L170.277 376.496L182.312 380.219L194.574 383.082L207.012 385.074L219.555 386.188L232.148 386.406L244.727 385.742L257.223 384.191L269.582 381.762L281.738 378.465L293.633 374.32L305.203 369.348L316.395 363.57L327.148 357.016L337.418 349.723L347.145 341.723L356.281 333.055L364.785 323.766L372.613 313.898L379.727 303.504L386.086 292.633L391.664 281.344L396.434 269.688L400.367 257.723L403.449 245.508L405.66 233.109L406.992 220.586L407.438 208Z" stroke="black" stroke-width="2" stroke-miterlimit="2"/>
<path d="M227.915 225.25C227.915 230.89 225.868 234.125 222.056 234.125C219.571 234.125 217.821 232.547 217.431 229.875H219.462C219.775 231.437 220.759 232.328 222.196 232.328C224.509 232.328 225.806 230.125 225.821 226.14C224.775 227.406 223.634 227.969 222.103 227.969C219.15 227.969 217.087 225.922 217.087 222.875C217.087 219.687 219.321 217.469 222.415 217.469C226.15 217.469 227.915 220.14 227.915 225.25ZM225.712 222.828C225.712 220.719 224.29 219.25 222.4 219.25C220.54 219.25 219.15 220.64 219.15 222.719C219.15 224.906 220.368 226.172 222.337 226.172C224.306 226.172 225.712 224.828 225.712 222.828Z" fill="black"/>
<path d="M240.656 225.937C240.656 231.297 238.781 234.125 235.328 234.125C231.828 234.125 229.984 231.297 229.984 225.797C229.984 220.328 231.812 217.469 235.328 217.469C238.859 217.469 240.656 220.281 240.656 225.937ZM238.594 225.75C238.594 221.39 237.516 219.265 235.328 219.265C233.141 219.265 232.062 221.359 232.062 225.828C232.062 230.281 233.141 232.453 235.281 232.453C237.531 232.453 238.594 230.375 238.594 225.75Z" fill="black"/>
<path d="M313.109 228.719C313.109 231.922 310.874 234.125 307.781 234.125C304.046 234.125 302.296 231.437 302.296 226.359C302.296 220.672 304.343 217.469 308.14 217.469C310.624 217.469 312.374 219.062 312.765 221.734H310.749C310.421 220.172 309.437 219.265 307.999 219.265C305.687 219.265 304.39 221.469 304.374 225.453C305.249 224.265 306.515 223.64 308.124 223.64C311.046 223.64 313.109 225.687 313.109 228.719ZM311.046 228.875C311.046 226.703 309.828 225.437 307.874 225.437C305.859 225.437 304.484 226.75 304.484 228.765C304.484 230.859 305.906 232.328 307.796 232.328C309.656 232.328 311.046 230.922 311.046 228.875Z" fill="black"/>
<path d="M325.756 225.937C325.756 231.297 323.881 234.125 320.428 234.125C316.928 234.125 315.084 231.297 315.084 225.797C315.084 220.328 316.912 217.469 320.428 217.469C323.959 217.469 325.756 220.281 325.756 225.937ZM323.694 225.75C323.694 221.39 322.615 219.265 320.428 219.265C318.24 219.265 317.162 221.359 317.162 225.828C317.162 230.281 318.24 232.453 320.381 232.453C322.631 232.453 323.694 230.375 323.694 225.75Z" fill="black"/>
<path d="M398.052 229.047C398.052 232.125 395.88 234.125 392.537 234.125C389.193 234.125 387.396 232.5 387.146 228.859H389.177C389.302 231.234 390.396 232.328 392.599 232.328C394.709 232.328 395.974 231.109 395.974 229.062C395.974 227.25 394.834 226.187 392.599 226.187H391.49V224.484C394.74 224.484 395.49 223.781 395.49 222.031C395.49 220.297 394.412 219.25 392.615 219.25C390.552 219.25 389.568 220.328 389.521 222.734H387.49C387.568 219.265 389.302 217.469 392.599 217.469C395.709 217.469 397.568 219.156 397.568 221.953C397.568 223.594 396.802 224.656 395.287 225.25C397.24 225.922 398.052 227.062 398.052 229.047Z" fill="black"/>
<path d="M410.856 225.937C410.856 231.297 408.981 234.125 405.528 234.125C402.028 234.125 400.184 231.297 400.184 225.797C400.184 220.328 402.012 217.469 405.528 217.469C409.059 217.469 410.856 220.281 410.856 225.937ZM408.793 225.75C408.793 221.39 407.715 219.265 405.528 219.265C403.34 219.265 402.262 221.359 402.262 225.828C402.262 230.281 403.34 232.453 405.481 232.453C407.731 232.453 408.793 230.375 408.793 225.75Z" fill="black"/>
<path d="M423.092 208.54C423.092 213.899 421.217 216.727 417.764 216.727C414.264 216.727 412.42 213.899 412.42 208.399C412.42 202.93 414.249 200.071 417.764 200.071C421.295 200.071 423.092 202.884 423.092 208.54ZM421.03 208.352C421.03 203.993 419.952 201.868 417.764 201.868C415.577 201.868 414.499 203.962 414.499 208.43C414.499 212.884 415.577 215.055 417.717 215.055C419.967 215.055 421.03 212.977 421.03 208.352Z" fill="black"/>
<path d="M432.177 203.571C432.177 205.477 430.74 206.93 428.818 206.93C426.911 206.93 425.458 205.477 425.458 203.571C425.458 201.665 426.911 200.212 428.818 200.212C430.74 200.212 432.177 201.665 432.177 203.571ZM431.083 203.571C431.083 202.352 430.036 201.196 428.818 201.196C427.599 201.196 426.568 202.352 426.568 203.571C426.568 204.79 427.599 205.946 428.818 205.946C430.036 205.946 431.083 204.79 431.083 203.571Z" fill="black"/>
<path d="M369.955 70.078H367.549V73.9843H365.517V70.078H358.642V67.9374L366.049 57.6718H367.549V68.2499H369.955V70.078ZM365.517 68.2499V61.1249L360.424 68.2499H365.517Z" fill="black"/>
<path d="M382.587 68.578C382.587 72.0311 380.29 74.328 376.993 74.328C374.102 74.328 372.259 73.0468 371.602 69.7968H373.618C374.102 71.6405 375.18 72.5311 376.946 72.5311C379.165 72.5311 380.524 71.203 380.524 68.8593C380.524 66.4374 379.134 65.0311 376.946 65.0311C375.696 65.0311 374.899 65.4218 373.962 66.5624H372.102L373.321 58.0155H381.743V60.0155H374.946L374.305 64.2343C375.259 63.5468 376.165 63.2499 377.321 63.2499C380.446 63.2499 382.587 65.3593 382.587 68.578Z" fill="black"/>
<path d="M391.531 61.1718C391.531 63.078 390.093 64.5311 388.172 64.5311C386.265 64.5311 384.812 63.078 384.812 61.1718C384.812 59.2655 386.265 57.8124 388.172 57.8124C390.093 57.8124 391.531 59.2655 391.531 61.1718ZM390.437 61.1718C390.437 59.953 389.39 58.7968 388.172 58.7968C386.953 58.7968 385.922 59.953 385.922 61.1718C385.922 62.3905 386.953 63.5468 388.172 63.5468C389.39 63.5468 390.437 62.3905 390.437 61.1718Z" fill="black"/>
<path d="M223.315 12.0188C223.315 17.6594 221.268 20.8938 217.456 20.8938C214.971 20.8938 213.221 19.3157 212.831 16.6438H214.862C215.174 18.2063 216.159 19.0969 217.596 19.0969C219.909 19.0969 221.206 16.8938 221.221 12.9094C220.174 14.175 219.034 14.7375 217.503 14.7375C214.549 14.7375 212.487 12.6907 212.487 9.6438C212.487 6.4563 214.721 4.23755 217.815 4.23755C221.549 4.23755 223.315 6.90942 223.315 12.0188ZM221.112 9.59692C221.112 7.48755 219.69 6.0188 217.799 6.0188C215.94 6.0188 214.549 7.40942 214.549 9.48755C214.549 11.675 215.768 12.9407 217.737 12.9407C219.706 12.9407 221.112 11.5969 221.112 9.59692Z" fill="black"/>
<path d="M236.056 12.7063C236.056 18.0657 234.181 20.8938 230.728 20.8938C227.228 20.8938 225.384 18.0657 225.384 12.5657C225.384 7.09692 227.213 4.23755 230.728 4.23755C234.259 4.23755 236.056 7.05005 236.056 12.7063ZM233.994 12.5188C233.994 8.15942 232.916 6.03442 230.728 6.03442C228.541 6.03442 227.463 8.12817 227.463 12.5969C227.463 17.05 228.541 19.2219 230.681 19.2219C232.931 19.2219 233.994 17.1438 233.994 12.5188Z" fill="black"/>
<path d="M245.141 7.73755C245.141 9.6438 243.704 11.0969 241.782 11.0969C239.875 11.0969 238.422 9.6438 238.422 7.73755C238.422 5.8313 239.875 4.37817 241.782 4.37817C243.704 4.37817 245.141 5.8313 245.141 7.73755ZM244.047 7.73755C244.047 6.5188 243 5.36255 241.782 5.36255C240.563 5.36255 239.532 6.5188 239.532 7.73755C239.532 8.9563 240.563 10.1125 241.782 10.1125C243 10.1125 244.047 8.9563 244.047 7.73755Z" fill="black"/>
<path d="M60.4186 73.9843H58.3874V62.3749H54.778V60.9218C57.903 60.5311 58.3718 60.1874 59.0749 57.6718H60.4186V73.9843Z" fill="black"/>
<path d="M76.8629 69.2499C76.8629 72.328 74.691 74.328 71.3473 74.328C68.0035 74.328 66.2067 72.703 65.9567 69.0624H67.9879C68.1129 71.4374 69.2067 72.5311 71.4098 72.5311C73.5192 72.5311 74.7848 71.3124 74.7848 69.2655C74.7848 67.453 73.6442 66.3905 71.4098 66.3905H70.3004V64.6874C73.5504 64.6874 74.3004 63.9843 74.3004 62.2343C74.3004 60.4999 73.2223 59.453 71.4254 59.453C69.3629 59.453 68.3785 60.5311 68.3317 62.9374H66.3004C66.3785 59.4686 68.1129 57.6718 71.4098 57.6718C74.5192 57.6718 76.3785 59.3593 76.3785 62.1561C76.3785 63.7968 75.6129 64.8593 74.0973 65.453C76.0504 66.1249 76.8629 67.2655 76.8629 69.2499Z" fill="black"/>
<path d="M89.8071 68.578C89.8071 72.0311 87.5103 74.328 84.2134 74.328C81.3228 74.328 79.479 73.0468 78.8228 69.7968H80.8384C81.3228 71.6405 82.4009 72.5311 84.1665 72.5311C86.3853 72.5311 87.7446 71.203 87.7446 68.8593C87.7446 66.4374 86.354 65.0311 84.1665 65.0311C82.9165 65.0311 82.1196 65.4218 81.1821 66.5624H79.3228L80.5415 58.0155H88.9634V60.0155H82.1665L81.5259 64.2343C82.479 63.5468 83.3853 63.2499 84.5415 63.2499C87.6665 63.2499 89.8071 65.3593 89.8071 68.578Z" fill="black"/>
<path d="M98.7514 61.1718C98.7514 63.078 97.3139 64.5311 95.392 64.5311C93.4858 64.5311 92.0327 63.078 92.0327 61.1718C92.0327 59.2655 93.4858 57.8124 95.392 57.8124C97.3139 57.8124 98.7514 59.2655 98.7514 61.1718ZM97.6577 61.1718C97.6577 59.953 96.6108 58.7968 95.392 58.7968C94.1733 58.7968 93.142 59.953 93.142 61.1718C93.142 62.3905 94.1733 63.5468 95.392 63.5468C96.6108 63.5468 97.6577 62.3905 97.6577 61.1718Z" fill="black"/>
<path d="M6.98438 216.384H4.95312V204.774H1.34375V203.321C4.46875 202.93 4.9375 202.587 5.64062 200.071H6.98438V216.384Z" fill="black"/>
<path d="M23.5849 211.79C23.5849 214.743 21.3349 216.727 18.1161 216.727C14.8974 216.727 12.6318 214.743 12.6318 211.759C12.6318 209.962 13.5536 208.696 15.4286 207.805C13.7724 206.774 13.2099 205.946 13.2099 204.43C13.2099 201.868 15.2411 200.071 18.1161 200.071C21.0068 200.071 23.0068 201.868 23.0068 204.43C23.0068 205.962 22.4599 206.79 20.788 207.805C22.663 208.696 23.5849 209.962 23.5849 211.79ZM20.9443 204.477C20.9443 202.884 19.8349 201.868 18.1161 201.868C16.413 201.868 15.288 202.884 15.288 204.446C15.288 205.993 16.413 206.993 18.1161 206.993C19.8193 206.993 20.9443 205.993 20.9443 204.477ZM21.5224 211.805C21.5224 209.899 20.1318 208.696 18.1161 208.696C16.0849 208.696 14.7099 209.899 14.7099 211.805C14.7099 213.712 16.0849 214.93 18.0693 214.93C20.1318 214.93 21.5224 213.743 21.5224 211.805Z" fill="black"/>
<path d="M36.2322 208.54C36.2322 213.899 34.3572 216.727 30.9041 216.727C27.4041 216.727 25.5604 213.899 25.5604 208.399C25.5604 202.93 27.3885 200.071 30.9041 200.071C34.4354 200.071 36.2322 202.884 36.2322 208.54ZM34.1697 208.352C34.1697 203.993 33.0916 201.868 30.9041 201.868C28.7166 201.868 27.6385 203.962 27.6385 208.43C27.6385 212.884 28.7166 215.055 30.8572 215.055C33.1072 215.055 34.1697 212.977 34.1697 208.352Z" fill="black"/>
<path d="M45.3171 203.571C45.3171 205.477 43.8796 206.93 41.9578 206.93C40.0515 206.93 38.5984 205.477 38.5984 203.571C38.5984 201.665 40.0515 200.212 41.9578 200.212C43.8796 200.212 45.3171 201.665 45.3171 203.571ZM44.2234 203.571C44.2234 202.352 43.1765 201.196 41.9578 201.196C40.739 201.196 39.7078 202.352 39.7078 203.571C39.7078 204.79 40.739 205.946 41.9578 205.946C43.1765 205.946 44.2234 204.79 44.2234 203.571Z" fill="black"/>
<path d="M64.1843 347.267C64.1843 349.267 63.0124 350.97 60.7311 352.189L58.4343 353.423C56.4343 354.595 55.6999 355.455 55.4968 356.783H64.0749V358.783H53.2155C53.403 355.189 54.3874 353.658 57.7936 351.72L59.903 350.533C61.3561 349.705 62.1218 348.595 62.1218 347.298C62.1218 345.564 60.7311 344.251 58.903 344.251C56.903 344.251 55.7624 345.392 55.6061 348.126H53.5905C53.6999 344.173 55.6374 342.47 58.9655 342.47C62.0436 342.47 64.1843 344.501 64.1843 347.267Z" fill="black"/>
<path d="M76.9723 347.267C76.9723 349.267 75.8004 350.97 73.5192 352.189L71.2223 353.423C69.2223 354.595 68.4879 355.455 68.2848 356.783H76.8629V358.783H66.0035C66.191 355.189 67.1754 353.658 70.5817 351.72L72.691 350.533C74.1442 349.705 74.9098 348.595 74.9098 347.298C74.9098 345.564 73.5192 344.251 71.691 344.251C69.691 344.251 68.5504 345.392 68.3942 348.126H66.3785C66.4879 344.173 68.4254 342.47 71.7535 342.47C74.8317 342.47 76.9723 344.501 76.9723 347.267Z" fill="black"/>
<path d="M89.8071 353.376C89.8071 356.83 87.5103 359.126 84.2134 359.126C81.3228 359.126 79.479 357.845 78.8228 354.595H80.8384C81.3228 356.439 82.4009 357.33 84.1665 357.33C86.3853 357.33 87.7446 356.001 87.7446 353.658C87.7446 351.236 86.354 349.83 84.1665 349.83C82.9165 349.83 82.1196 350.22 81.1821 351.361H79.3228L80.5415 342.814H88.9634V344.814H82.1665L81.5259 349.033C82.479 348.345 83.3853 348.048 84.5415 348.048C87.6665 348.048 89.8071 350.158 89.8071 353.376Z" fill="black"/>
<path d="M98.7514 345.97C98.7514 347.876 97.3139 349.33 95.392 349.33C93.4858 349.33 92.0327 347.876 92.0327 345.97C92.0327 344.064 93.4858 342.611 95.392 342.611C97.3139 342.611 98.7514 344.064 98.7514 345.97ZM97.6577 345.97C97.6577 344.751 96.6108 343.595 95.392 343.595C94.1733 343.595 93.142 344.751 93.142 345.97C93.142 347.189 94.1733 348.345 95.392 348.345C96.6108 348.345 97.6577 347.189 97.6577 345.97Z" fill="black"/>
<path d="M216.968 400.701C216.968 402.701 215.796 404.405 213.515 405.623L211.218 406.858C209.218 408.03 208.484 408.889 208.281 410.217H216.859V412.217H205.999C206.187 408.623 207.171 407.092 210.577 405.155L212.687 403.967C214.14 403.139 214.906 402.03 214.906 400.733C214.906 398.998 213.515 397.686 211.687 397.686C209.687 397.686 208.546 398.826 208.39 401.561H206.374C206.484 397.608 208.421 395.905 211.749 395.905C214.827 395.905 216.968 397.936 216.968 400.701Z" fill="black"/>
<path d="M229.959 397.951C226.537 402.03 224.24 406.951 223.35 412.217H221.178C222.334 407.108 224.631 402.358 227.865 398.248H219.068V396.248H229.959V397.951Z" fill="black"/>
<path d="M242.45 404.373C242.45 409.733 240.575 412.561 237.122 412.561C233.622 412.561 231.778 409.733 231.778 404.233C231.778 398.764 233.606 395.905 237.122 395.905C240.653 395.905 242.45 398.717 242.45 404.373ZM240.388 404.186C240.388 399.826 239.31 397.701 237.122 397.701C234.935 397.701 233.856 399.795 233.856 404.264C233.856 408.717 234.935 410.889 237.075 410.889C239.325 410.889 240.388 408.811 240.388 404.186Z" fill="black"/>
<path d="M251.535 399.405C251.535 401.311 250.098 402.764 248.176 402.764C246.27 402.764 244.816 401.311 244.816 399.405C244.816 397.498 246.27 396.045 248.176 396.045C250.098 396.045 251.535 397.498 251.535 399.405ZM250.441 399.405C250.441 398.186 249.395 397.03 248.176 397.03C246.957 397.03 245.926 398.186 245.926 399.405C245.926 400.623 246.957 401.78 248.176 401.78C249.395 401.78 250.441 400.623 250.441 399.405Z" fill="black"/>
<path d="M369.642 354.048C369.642 357.126 367.47 359.126 364.127 359.126C360.783 359.126 358.986 357.501 358.736 353.861H360.767C360.892 356.236 361.986 357.33 364.189 357.33C366.299 357.33 367.564 356.111 367.564 354.064C367.564 352.251 366.424 351.189 364.189 351.189H363.08V349.486C366.33 349.486 367.08 348.783 367.08 347.033C367.08 345.298 366.002 344.251 364.205 344.251C362.142 344.251 361.158 345.33 361.111 347.736H359.08C359.158 344.267 360.892 342.47 364.189 342.47C367.299 342.47 369.158 344.158 369.158 346.955C369.158 348.595 368.392 349.658 366.877 350.251C368.83 350.923 369.642 352.064 369.642 354.048Z" fill="black"/>
<path d="M378.774 358.783H376.743V347.173H373.133V345.72C376.258 345.33 376.727 344.986 377.43 342.47H378.774V358.783Z" fill="black"/>
<path d="M395.375 353.376C395.375 356.83 393.078 359.126 389.781 359.126C386.89 359.126 385.046 357.845 384.39 354.595H386.406C386.89 356.439 387.968 357.33 389.734 357.33C391.953 357.33 393.312 356.001 393.312 353.658C393.312 351.236 391.921 349.83 389.734 349.83C388.484 349.83 387.687 350.22 386.75 351.361H384.89L386.109 342.814H394.531V344.814H387.734L387.093 349.033C388.046 348.345 388.953 348.048 390.109 348.048C393.234 348.048 395.375 350.158 395.375 353.376Z" fill="black"/>
<path d="M404.319 345.97C404.319 347.876 402.881 349.33 400.959 349.33C399.053 349.33 397.6 347.876 397.6 345.97C397.6 344.064 399.053 342.611 400.959 342.611C402.881 342.611 404.319 344.064 404.319 345.97ZM403.225 345.97C403.225 344.751 402.178 343.595 400.959 343.595C399.741 343.595 398.709 344.751 398.709 345.97C398.709 347.189 399.741 348.345 400.959 348.345C402.178 348.345 403.225 347.189 403.225 345.97Z" fill="black"/>
</g>
</g>
<defs>
<clipPath id="clip0_41_1582">
<rect width="438" height="416" fill="white"/>
</clipPath>
<clipPath id="clip1_41_1582">
<rect width="500" height="500" fill="white" transform="translate(-21 -42)"/>
</clipPath>
</defs>
</svg>
