<svg width="438" height="416" viewBox="0 0 438 416" fill="none" xmlns="http://www.w3.org/2000/svg">
<g clip-path="url(#clip0_41_1586)">
<rect width="438" height="416" fill="white"/>
<g clip-path="url(#clip1_41_1586)">
<path d="M531 -93H-69V507H531V-93Z" fill="white"/>
<path d="M-3 -27H465V441H-3V-27Z" fill="white"/>
<path d="M316.02 207L315.809 201.004L315.172 195.035L314.121 189.129L312.652 183.309L310.777 177.609L308.504 172.055L305.848 166.676L302.816 161.496L299.426 156.543L295.699 151.84L291.645 147.414L287.293 143.285L282.656 139.473L277.766 135.996L272.641 132.875L267.309 130.125L261.793 127.754L256.129 125.777L250.336 124.207L244.449 123.051L238.492 122.312L232.5 121.992L226.5 122.102L220.523 122.629L214.598 123.578L208.754 124.941L203.02 126.715L197.426 128.891L192 131.453L186.77 134.391L181.758 137.691L176.992 141.34L172.496 145.312L168.289 149.594L164.395 154.16L160.836 158.988L157.621 164.059L154.777 169.34L152.309 174.812L150.234 180.441L148.562 186.207L147.301 192.074L146.457 198.012L146.035 204V210L146.457 215.988L147.301 221.926L148.562 227.793L150.234 233.559L152.309 239.188L154.777 244.66L157.621 249.941L160.836 255.012L164.395 259.84L168.289 264.406L172.496 268.688L176.992 272.66L181.758 276.309L186.77 279.609L192 282.547L197.426 285.109L203.02 287.285L208.754 289.059L214.598 290.422L220.523 291.371L226.5 291.898L232.5 292.008L238.492 291.688L244.449 290.949L250.336 289.793L256.129 288.223L261.793 286.246L267.309 283.875L272.641 281.125L277.766 278.004L282.656 274.527L287.293 270.715L291.645 266.586L295.699 262.16L299.426 257.457L302.816 252.504L305.848 247.324L308.504 241.945L310.777 236.391L312.652 230.691L314.121 224.871L315.172 218.965L315.809 212.996L316.02 207Z" stroke="black" stroke-opacity="0.5" stroke-width="0.3" stroke-miterlimit="2"/>
<path d="M401.039 207L400.613 195.004L399.348 183.07L397.238 171.254L394.305 159.617L390.555 148.219L386.012 137.109L380.695 126.348L374.633 115.988L367.855 106.086L360.395 96.6836L352.293 87.832L343.582 79.5703L334.312 71.9492L324.531 64.9961L314.281 58.7539L303.617 53.2461L292.59 48.5078L281.258 44.5586L269.672 41.418L257.895 39.1016L245.984 37.625L234 36.9883L222 37.1992L210.047 38.2578L198.195 40.1562L186.508 42.8867L175.043 46.4336L163.855 50.7812L153.004 55.9062L142.539 61.7852L132.516 68.3867L122.984 75.6758L113.988 83.625L105.578 92.1836L97.793 101.316L90.668 110.977L84.2461 121.117L78.5508 131.684L73.6211 142.621L69.4688 153.883L66.125 165.41L63.6016 177.145L61.9141 189.027L61.0664 201V213L61.9141 224.973L63.6016 236.855L66.125 248.59L69.4688 260.117L73.6211 271.379L78.5508 282.316L84.2461 292.883L90.668 303.023L97.793 312.684L105.578 321.816L113.988 330.375L122.984 338.324L132.516 345.613L142.539 352.215L153.004 358.094L163.855 363.219L175.043 367.566L186.508 371.113L198.195 373.844L210.047 375.742L222 376.801L234 377.012L245.984 376.375L257.895 374.898L269.672 372.582L281.258 369.441L292.59 365.492L303.617 360.754L314.281 355.246L324.531 349.004L334.312 342.051L343.582 334.43L352.293 326.168L360.395 317.316L367.855 307.914L374.633 298.008L380.695 287.652L386.012 276.891L390.555 265.781L394.305 254.383L397.238 242.746L399.348 230.93L400.613 218.996L401.039 207Z" stroke="black" stroke-opacity="0.5" stroke-width="0.3" stroke-miterlimit="2"/>
<path d="M231 207H409.438" stroke="black" stroke-opacity="0.5" stroke-width="0.3" stroke-miterlimit="1.1547"/>
<path d="M231 207L357.172 80.8281" stroke="black" stroke-opacity="0.5" stroke-width="0.3" stroke-miterlimit="1.1547"/>
<path d="M231 207V28.5625" stroke="black" stroke-opacity="0.5" stroke-width="0.3" stroke-miterlimit="1.1547"/>
<path d="M231 207L104.828 80.8281" stroke="black" stroke-opacity="0.5" stroke-width="0.3" stroke-miterlimit="1.1547"/>
<path d="M231 207H52.5625" stroke="black" stroke-opacity="0.5" stroke-width="0.3" stroke-miterlimit="1.1547"/>
<path d="M231 207L104.828 333.172" stroke="black" stroke-opacity="0.5" stroke-width="0.3" stroke-miterlimit="1.1547"/>
<path d="M231 207V385.438" stroke="black" stroke-opacity="0.5" stroke-width="0.3" stroke-miterlimit="1.1547"/>
<path d="M231 207L357.172 333.172" stroke="black" stroke-opacity="0.5" stroke-width="0.3" stroke-miterlimit="1.1547"/>
<path d="M399.855 220.965L399.578 210.277L398.98 199.512L398.059 188.73L396.812 178L395.262 167.379L393.414 156.922" stroke="#7F7F7F" stroke-width="0.25" stroke-miterlimit="2"/>
<path d="M126.973 339.898L129.496 337.453L132.105 334.926L134.805 332.309L137.598 329.602L140.492 326.793L143.492 323.879L146.594 320.859L149.812 317.727L153.148 314.477L156.602 311.102L160.18 307.598L163.887 303.961L167.723 300.188L171.695 296.277L175.797 292.219L180.039 288.016L184.41 283.668L188.918 279.172L193.555 274.531L198.312 269.746L203.191 264.828L208.18 259.773L213.266 254.602L218.441 249.312L223.688 243.93L228.996 238.457L234.348 232.918L239.723 227.328L245.105 221.703L250.477 216.066L255.816 210.434L261.109 204.824L266.34 199.258L271.492 193.754L276.547 188.324L281.5 182.988L286.336 177.754L291.051 172.633L295.633 167.637L300.082 162.77L304.391 158.043L308.562 153.453L312.594 149.004L316.484 144.699L320.242 140.535L323.863 136.512L327.355 132.629L330.719 128.879L333.965 125.262L337.09 121.773L340.102 118.406L343.008 115.16L345.809 112.031L348.516 109.012L351.125 106.094L353.648 103.281L356.086 100.562L358.445 97.9375" stroke="#7F7F7F" stroke-width="0.25" stroke-miterlimit="2"/>
<path d="M334.434 339.84L336.441 332.039L338.426 323.719L340.367 314.852L342.234 305.418L343.992 295.406L345.602 284.816L347.02 273.664L348.207 261.98L349.113 249.824L349.703 237.266L349.941 224.398L349.812 211.332L349.297 198.195L348.398 185.109L347.137 172.199L345.543 159.586L343.652 147.363L341.504 135.609L339.156 124.387L336.648 113.734L334.031 103.664L331.344 94.1836L328.621 85.2852L325.891 76.9414L323.184 69.1367" stroke="#7F7F7F" stroke-width="0.25" stroke-miterlimit="2"/>
<path d="M297.477 362.047L299.039 355.332L300.637 348.117L302.258 340.355L303.895 332.008L305.52 323.031L307.117 313.383L308.652 303.039L310.094 291.988L311.398 280.227L312.523 267.785L313.426 254.73L314.066 241.141L314.406 227.152L314.418 212.906L314.094 198.574L313.434 184.332L312.461 170.352L311.207 156.781L309.711 143.746L308.02 131.336L306.18 119.609L304.238 108.594L302.234 98.2969L300.203 88.6953L298.176 79.7695L296.168 71.4727L294.203 63.7695L292.289 56.6094L290.438 49.9492" stroke="#7F7F7F" stroke-width="0.25" stroke-miterlimit="2"/>
<path d="M261.496 371.387L262.305 365.141L263.148 358.41L264.023 351.141L264.922 343.285L265.844 334.781L266.773 325.578L267.699 315.629L268.609 304.887L269.477 293.332L270.281 280.961L270.996 267.809L271.594 253.938L272.043 239.473L272.324 224.562L272.418 209.41L272.324 194.223L272.039 179.223L271.586 164.613L270.98 150.559L270.25 137.188L269.43 124.586L268.539 112.797L267.609 101.824L266.66 91.6484L265.707 82.2383L264.766 73.543L263.848 65.5078L262.961 58.082L262.105 51.2031L261.289 44.8242" stroke="#7F7F7F" stroke-width="0.25" stroke-miterlimit="2"/>
<path d="M221.156 37.4883L226.414 38.7773L231.734 40.1602L237.105 41.6367L242.523 43.2148L247.984 44.8867L253.48 46.6641L259.004 48.5352L264.547 50.5117L270.105 52.5898L275.664 54.7617L281.223 57.0352L286.766 59.4023L292.285 61.8633L297.777 64.418L303.23 67.0547L308.637 69.7734L313.988 72.5703L319.273 75.4414L324.492 78.3789L329.633 81.375L334.691 84.4297L339.664 87.5352L344.539 90.6836L349.32 93.8711L353.996 97.0898L358.57 100.336L363.035 103.602L367.391 106.879" stroke="#7F7F7F" stroke-width="0.25" stroke-miterlimit="2"/>
<path d="M222.512 372.172L222.363 365.941L222.223 359.215L222.086 351.949L221.957 344.082L221.84 335.555L221.742 326.312L221.664 316.297L221.609 305.469L221.586 293.793L221.605 281.266L221.668 267.926L221.781 253.836L221.953 239.121L222.184 223.949L222.477 208.527L222.824 193.082L223.219 177.852L223.66 163.043L224.133 148.836L224.633 135.355L225.145 122.684L225.66 110.863L226.18 99.8867L226.691 89.7383L227.191 80.3672L227.684 71.7266L228.164 63.7539L228.625 56.3906L229.078 49.5859L229.512 43.2773L229.938 37.4219" stroke="#7F7F7F" stroke-width="0.25" stroke-miterlimit="2"/>
<path d="M185.543 368.445L184.523 362.066L183.484 355.199L182.434 347.797L181.379 339.809L180.336 331.184L179.32 321.867L178.352 311.82L177.453 301.004L176.66 289.406L176.004 277.031L175.516 263.914L175.23 250.137L175.184 235.805L175.395 221.082L175.879 206.152L176.633 191.211L177.641 176.473L178.883 162.121L180.32 148.312L181.91 135.168L183.617 122.766L185.398 111.145L187.219 100.312L189.055 90.2578L190.883 80.9453L192.68 72.3242L194.438 64.3516L196.148 56.9727L197.801 50.1367L199.398 43.793" stroke="#7F7F7F" stroke-width="0.25" stroke-miterlimit="2"/>
<path d="M100.266 312.93L102.59 310.258L105 307.504L107.5 304.656L110.094 301.719L112.789 298.68L115.59 295.543L118.5 292.297L121.527 288.941L124.676 285.473L127.949 281.883L131.355 278.172L134.895 274.34L138.574 270.379L142.402 266.293L146.375 262.074L150.496 257.727L154.77 253.25L159.191 248.648L163.766 243.922L168.488 239.082L173.355 234.129L178.355 229.078L183.484 223.938L188.734 218.715L194.086 213.434L199.531 208.102L205.051 202.738L210.633 197.359L216.254 191.988L221.898 186.637L227.543 181.328L233.172 176.074L238.766 170.898L244.309 165.809L249.785 160.824L255.176 155.949L260.473 151.203L265.664 146.586L270.738 142.109L275.691 137.773L280.512 133.578L285.203 129.535L289.762 125.633L294.18 121.879L298.465 118.262L302.613 114.785L306.629 111.445L310.516 108.234L314.277 105.152L317.914 102.188L321.43 99.3398L324.832 96.6055L328.125 93.9766L331.312 91.4492L334.395 89.0156L337.383 86.6797L340.277 84.4258L343.082 82.2578" stroke="#7F7F7F" stroke-width="0.25" stroke-miterlimit="2"/>
<path d="M146.676 351.855L144.973 344.629L143.27 336.883L141.59 328.582L139.949 319.688L138.379 310.176L136.914 300.02L135.59 289.207L134.449 277.75L133.539 265.668L132.898 253.02L132.574 239.883L132.602 226.359L133.004 212.586L133.793 198.707L134.965 184.875L136.496 171.246L138.352 157.957L140.492 145.125L142.867 132.848L145.426 121.184L148.113 110.176L150.883 99.8359L153.699 90.1562L156.523 81.125L159.328 72.7109L162.094 64.875L164.805 57.5781L167.445 50.7812" stroke="#7F7F7F" stroke-width="0.25" stroke-miterlimit="2"/>
<path d="M378.93 123.277L381.895 133.121L384.633 143.281L387.113 153.719L389.309 164.391L391.195 175.234L392.75 186.191L393.965 197.199L394.832 208.191L395.355 219.102L395.543 229.871L395.41 240.441L394.98 250.766" stroke="#7F7F7F" stroke-width="0.25" stroke-miterlimit="2"/>
<path d="M113.367 327.789L111.48 319.527L109.668 310.762L107.965 301.469L106.398 291.648L105.008 281.297L103.84 270.434L102.93 259.09L102.32 247.305L102.047 235.152L102.141 222.703L102.621 210.062L103.504 197.336L104.781 184.629L106.441 172.059L108.453 159.73L110.789 147.73L113.398 136.148L116.238 125.031L119.258 114.434L122.418 104.375L125.668 94.8672L128.973 85.9062L132.297 77.4844L135.613 69.5781" stroke="#7F7F7F" stroke-width="0.25" stroke-miterlimit="2"/>
<path d="M94.5664 307.891L92.7539 298.598L91.0977 288.805L89.6406 278.508L88.418 267.73L87.4727 256.504L86.8477 244.871L86.5781 232.898L86.6914 220.652L87.2109 208.227L88.1445 195.723L89.4961 183.234L91.25 170.875L93.375 158.73L95.8477 146.895L98.6172 135.441L101.637 124.43L104.867 113.898L108.25 103.883L111.75 94.3867L115.316 85.4219" stroke="#7F7F7F" stroke-width="0.25" stroke-miterlimit="2"/>
<path d="M343.5 83.5078L346.945 92.0898L350.336 101.168L353.633 110.738L356.801 120.797L359.793 131.316L362.57 142.273L365.086 153.609L367.305 165.27L369.188 177.172L370.707 189.242L371.852 201.379L372.605 213.492L372.977 225.488V237.281L372.633 248.797L371.965 259.965L371.012 270.738L369.812 281.082L368.402 290.965L366.816 300.375L365.09 309.316" stroke="#7F7F7F" stroke-width="0.25" stroke-miterlimit="2"/>
<path d="M79.9453 280.168L78.7539 270.328L77.8008 260.105L77.1133 249.527L76.7266 238.637L76.6602 227.488L76.9453 216.137L77.5898 204.656L78.6016 193.117L79.9766 181.602L81.707 170.184L83.7773 158.941L86.1523 147.941L88.8047 137.242L91.6992 126.891L94.7969 116.93L98.0625 107.387L101.449 98.2734" stroke="#7F7F7F" stroke-width="0.25" stroke-miterlimit="2"/>
<path d="M399.578 210.277L398.98 199.512L398.059 188.73L396.812 178L395.262 167.379" stroke="#0000FF" stroke-width="3" stroke-miterlimit="2"/>
<path d="M234.348 232.918L239.723 227.328L245.105 221.703L250.477 216.066L255.816 210.434" stroke="#0012F6" stroke-width="3" stroke-miterlimit="2"/>
<path d="M349.941 224.398L349.812 211.332L349.297 198.195L348.398 185.109" stroke="#0024ED" stroke-width="3" stroke-miterlimit="2"/>
<path d="M314.406 227.152L314.418 212.906L314.094 198.574L313.434 184.332" stroke="#0037E4" stroke-width="3" stroke-miterlimit="2"/>
<path d="M272.043 239.473L272.324 224.562L272.418 209.41L272.324 194.223L272.039 179.223" stroke="#0049DB" stroke-width="3" stroke-miterlimit="2"/>
<path d="M286.766 59.4023L292.285 61.8633L297.777 64.418L303.23 67.0547L308.637 69.7734" stroke="#005BD1" stroke-width="3" stroke-miterlimit="2"/>
<path d="M222.184 223.949L222.477 208.527L222.824 193.082L223.219 177.852" stroke="#006DC8" stroke-width="3" stroke-miterlimit="2"/>
<path d="M175.184 235.805L175.395 221.082L175.879 206.152L176.633 191.211L177.641 176.473" stroke="#0080BF" stroke-width="3" stroke-miterlimit="2"/>
<path d="M205.051 202.738L210.633 197.359L216.254 191.988L221.898 186.637L227.543 181.328" stroke="#0092B6" stroke-width="3" stroke-miterlimit="2"/>
<path d="M132.602 226.359L133.004 212.586L133.793 198.707L134.965 184.875L136.496 171.246" stroke="#00A4AD" stroke-width="3" stroke-miterlimit="2"/>
<path d="M389.309 164.391L391.195 175.234L392.75 186.191L393.965 197.199L394.832 208.191" stroke="#00B6A4" stroke-width="3" stroke-miterlimit="2"/>
<path d="M102.141 222.703L102.621 210.062L103.504 197.336L104.781 184.629L106.441 172.059" stroke="#00C89B" stroke-width="3" stroke-miterlimit="2"/>
<path d="M86.6914 220.652L87.2109 208.227L88.1445 195.723L89.4961 183.234L91.25 170.875" stroke="#00DB92" stroke-width="3" stroke-miterlimit="2"/>
<path d="M369.188 177.172L370.707 189.242L371.852 201.379L372.605 213.492" stroke="#00ED89" stroke-width="3" stroke-miterlimit="2"/>
<path d="M77.5898 204.656L78.6016 193.117L79.9766 181.602L81.707 170.184" stroke="#00FF80" stroke-width="3" stroke-miterlimit="2"/>
<path d="M395.262 167.379L392.098 168.926L390.516 169.695L388.93 170.461L385.758 171.984L384.168 172.742L382.582 173.496L380.992 174.25L379.398 175L377.809 175.75L374.621 177.234L373.023 177.977L371.43 178.711L368.234 180.18L366.633 180.91L363.43 182.363L361.828 183.082L360.227 183.805L358.621 184.523L357.016 185.238L353.805 186.66L350.586 188.074L348.977 188.777L347.363 189.48L345.754 190.18L342.527 191.57L340.914 192.262L339.297 192.953L337.684 193.641L336.066 194.328L334.445 195.012L331.211 196.371L329.59 197.051L327.969 197.727L326.348 198.398L324.723 199.07L323.102 199.738L321.477 200.406L319.852 201.07L318.223 201.73L316.598 202.391L314.969 203.051L313.344 203.707L311.715 204.363L310.082 205.016L308.453 205.664L306.82 206.312L301.922 208.246L300.289 208.887L298.652 209.523L297.02 210.16L293.746 211.426L292.105 212.059L290.469 212.688L287.188 213.938L282.266 215.801L280.621 216.418L277.332 217.645L274.043 218.863L272.395 219.473L270.75 220.078L265.805 221.883L264.156 222.48L262.504 223.074L260.852 223.672L259.203 224.262L257.551 224.852L255.895 225.441L252.59 226.613L249.277 227.777L245.965 228.934L244.305 229.508L242.648 230.082L239.328 231.223L236.008 232.355L234.348 232.918" stroke="#0000FF" stroke-miterlimit="2" stroke-dasharray="3 3"/>
<path d="M255.816 210.434L256.766 210.574L257.719 210.715L258.668 210.855L259.621 210.996L261.52 211.277L262.473 211.418L263.422 211.559L264.375 211.699L265.324 211.84L266.273 211.984L267.227 212.125L268.176 212.266L269.129 212.406L271.027 212.688L271.98 212.828L272.93 212.969L273.883 213.109L275.781 213.391L276.734 213.531L277.684 213.672L278.637 213.812L279.586 213.953L280.539 214.094L281.488 214.238L282.438 214.379L283.391 214.52L284.34 214.66L285.293 214.801L287.191 215.082L288.145 215.223L289.094 215.363L290.047 215.504L291.945 215.785L292.898 215.93L293.848 216.07L294.801 216.211L296.699 216.492L297.652 216.633L298.602 216.773L299.555 216.914L301.453 217.195L302.406 217.34L303.355 217.48L304.309 217.621L306.207 217.902L307.16 218.043L308.109 218.184L309.062 218.324L310.012 218.465L310.961 218.609L311.914 218.75L312.863 218.891L313.816 219.031L315.715 219.312L316.668 219.453L317.617 219.594L318.57 219.738L320.469 220.02L321.422 220.16L323.32 220.441L324.273 220.582L325.223 220.727L326.176 220.867L328.074 221.148L329.027 221.289L329.977 221.43L330.93 221.57L331.879 221.715L332.828 221.855L333.781 221.996L334.73 222.137L335.684 222.277L336.633 222.418L337.582 222.562L338.535 222.703L339.484 222.844L340.438 222.984L342.336 223.266L343.289 223.41L345.188 223.691L346.141 223.832L347.09 223.973L348.043 224.113L348.992 224.258L349.941 224.398" stroke="#0012F6" stroke-miterlimit="2" stroke-dasharray="3 3"/>
<path d="M348.398 185.109L348.078 185.551L347.754 185.996L347.434 186.438L346.785 187.32L346.461 187.766L346.137 188.203L345.809 188.645L345.16 189.527L344.832 189.965L344.504 190.406L344.18 190.844L343.523 191.719L343.191 192.156L342.535 193.031L342.203 193.469L341.875 193.906L341.543 194.34L341.211 194.777L340.215 196.078L339.879 196.512L339.547 196.945L339.211 197.379L338.879 197.812L338.543 198.246L338.207 198.676L337.871 199.109L337.199 199.969L336.859 200.402L336.523 200.832L336.184 201.262L335.848 201.688L335.168 202.547L334.828 202.973L334.488 203.402L334.148 203.828L333.809 204.258L333.465 204.684L333.125 205.109L332.094 206.387L331.75 206.809L331.406 207.234L331.062 207.656L330.719 208.082L330.371 208.504L330.027 208.926L329.332 209.77L328.988 210.191L328.293 211.035L327.941 211.457L327.594 211.875L327.246 212.297L326.895 212.715L326.547 213.133L324.438 215.641L324.086 216.055L323.73 216.473L323.379 216.887L320.891 219.785L320.535 220.195L320.176 220.609L319.82 221.02L319.461 221.434L317.664 223.484L317.305 223.891L316.941 224.301L316.582 224.707L316.219 225.117L315.855 225.523L315.496 225.93L315.133 226.34L314.406 227.152" stroke="#0024ED" stroke-miterlimit="2" stroke-dasharray="3 3"/>
<path d="M313.434 184.332L313.043 184.91L312.254 186.059L311.859 186.637L310.676 188.359L310.277 188.934L309.879 189.504L309.484 190.078L309.086 190.648L308.688 191.223L308.285 191.793L307.488 192.934L307.086 193.508L306.684 194.074L305.477 195.785L305.074 196.352L304.668 196.918L304.266 197.488L302.234 200.32L301.828 200.883L301.418 201.449L301.012 202.016L299.781 203.703L299.371 204.27L298.961 204.832L298.547 205.391L298.137 205.953L297.309 207.078L296.48 208.195L296.066 208.758L295.652 209.316L295.234 209.875L294.82 210.434L293.984 211.551L293.566 212.105L293.148 212.664L292.73 213.219L292.312 213.777L291.891 214.332L291.473 214.887L289.363 217.66L288.938 218.211L288.516 218.766L287.664 219.867L287.238 220.422L286.387 221.523L285.961 222.07L285.535 222.621L285.105 223.172L284.676 223.719L284.25 224.27L283.82 224.816L283.391 225.367L282.961 225.914L282.527 226.461L282.098 227.008L281.664 227.555L281.234 228.098L280.367 229.191L279.5 230.277L279.062 230.824L278.195 231.91L277.32 232.996L276.883 233.535L276.008 234.621L275.57 235.16L275.129 235.699L274.691 236.242L273.367 237.859L272.926 238.395L272.043 239.473" stroke="#0037E4" stroke-miterlimit="2" stroke-dasharray="3 3"/>
<path d="M272.039 179.223L272.258 178.023L272.477 176.828L272.691 175.629L272.902 174.43L273.117 173.23L273.328 172.027L273.539 170.828L273.953 168.43L274.16 167.227L274.367 166.027L274.57 164.824L274.773 163.625L275.172 161.219L275.371 160.02L276.152 155.207L276.344 154.004L276.531 152.801L276.723 151.594L276.91 150.391L277.094 149.188L277.281 147.984L277.465 146.777L277.645 145.574L278.004 143.16L278.184 141.957L278.535 139.543L278.707 138.336L278.883 137.129L279.051 135.922L279.223 134.715L279.559 132.301L279.723 131.094L279.887 129.883L280.051 128.676L280.211 127.465L280.371 126.258L280.527 125.047L280.684 123.84L280.84 122.629L280.992 121.418L281.145 120.211L281.297 119L281.742 115.367L282.031 112.945L282.172 111.73L282.453 109.309L282.59 108.094L282.727 106.883L282.859 105.668L282.992 104.457L283.125 103.242L283.254 102.027L283.383 100.816L283.758 97.1719L284 94.7422L284.234 92.3125L284.352 91.0938L284.578 88.6641L284.688 87.4453L284.797 86.2305L284.906 85.0117L285.012 83.7969L285.117 82.5781L285.219 81.3594L285.32 80.1445L285.516 77.707L285.797 74.0508L285.977 71.6133L286.062 70.3906L286.148 69.1719L286.23 67.9531L286.312 66.7305L286.395 65.5117L286.473 64.2891L286.547 63.0703L286.695 60.625L286.766 59.4023" stroke="#0049DB" stroke-miterlimit="2" stroke-dasharray="3 3"/>
<path d="M308.637 69.7734L292.957 97.8281L292.082 99.3828L288.598 105.617L287.723 107.176L286.852 108.734L285.98 110.289L285.109 111.848L284.234 113.406L282.492 116.523L281.617 118.082L280.746 119.637L279.875 121.195L279 122.754L278.129 124.312L277.254 125.867L275.512 128.984L274.637 130.543L273.766 132.098L272.891 133.656L272.02 135.215L271.145 136.773L270.273 138.328L269.398 139.887L268.527 141.445L267.652 143L266.781 144.559L265.906 146.117L265.035 147.672L263.285 150.789L262.414 152.344L261.539 153.902L260.668 155.461L259.793 157.016L258.918 158.574L258.047 160.129L256.297 163.246L255.426 164.801L254.551 166.359L253.676 167.914L252.801 169.473L251.93 171.027L250.18 174.145L249.305 175.699L248.434 177.258L247.559 178.812L246.684 180.371L245.809 181.926L244.934 183.484L244.059 185.039L243.188 186.598L242.312 188.152L241.438 189.711L240.562 191.266L239.688 192.824L238.812 194.379L237.938 195.938L237.062 197.492L236.188 199.051L234.438 202.16L233.562 203.719L232.688 205.273L231.812 206.832L230.062 209.941L229.188 211.5L228.312 213.055L227.438 214.613L225.688 217.723L224.812 219.281L223.062 222.391L222.184 223.949" stroke="#005BD1" stroke-miterlimit="2" stroke-dasharray="3 3"/>
<path d="M223.219 177.852L222.723 178.426L222.223 179L221.727 179.574L221.227 180.148L220.73 180.723L220.23 181.297L219.734 181.875L218.742 183.023L218.246 183.602L217.75 184.176L216.758 185.332L216.262 185.906L215.766 186.484L215.273 187.062L214.281 188.219L213.297 189.375L212.801 189.953L211.816 191.109L211.324 191.691L210.34 192.848L209.848 193.43L209.355 194.008L208.867 194.59L208.375 195.172L207.883 195.75L207.395 196.332L206.902 196.914L205.926 198.078L205.434 198.66L203.969 200.406L203.48 200.992L202.504 202.156L202.02 202.742L201.531 203.324L201.043 203.91L200.559 204.492L200.07 205.078L199.102 206.25L198.617 206.832L198.129 207.418L196.676 209.176L196.191 209.766L195.711 210.352L194.742 211.523L194.262 212.113L193.777 212.699L193.297 213.289L192.812 213.875L191.371 215.645L190.887 216.23L190.406 216.82L189.93 217.41L188.488 219.18L188.008 219.773L187.531 220.363L187.051 220.953L186.574 221.543L186.098 222.137L185.617 222.727L184.664 223.914L184.188 224.504L182.758 226.285L182.281 226.875L181.809 227.469L181.332 228.062L180.859 228.66L180.383 229.254L179.91 229.848L179.434 230.441L178.961 231.039L178.016 232.227L177.07 233.422L176.598 234.016L175.652 235.211L175.184 235.805" stroke="#006DC8" stroke-miterlimit="2" stroke-dasharray="3 3"/>
<path d="M177.641 176.473L177.918 176.742L178.191 177.008L178.469 177.273L178.742 177.543L179.016 177.809L179.293 178.078L179.566 178.344L179.844 178.609L180.117 178.879L180.395 179.145L180.668 179.41L180.945 179.68L181.219 179.945L181.496 180.211L181.77 180.477L182.047 180.746L182.32 181.012L182.875 181.543L183.148 181.812L183.426 182.078L183.699 182.344L184.254 182.875L184.527 183.145L185.082 183.676L185.355 183.941L185.91 184.473L186.184 184.742L186.738 185.273L187.012 185.539L187.844 186.336L188.117 186.602L189.227 187.664L189.5 187.93L190.887 189.258L191.16 189.523L191.992 190.32L192.27 190.582L193.656 191.91L193.934 192.172L195.043 193.234L195.32 193.496L196.152 194.293L196.43 194.555L197.262 195.352L197.539 195.613L198.094 196.145L198.375 196.406L198.93 196.938L199.207 197.199L199.484 197.465L199.762 197.727L200.039 197.992L200.32 198.258L200.598 198.52L200.875 198.785L201.152 199.047L201.434 199.312L201.711 199.574L201.988 199.84L202.266 200.102L202.547 200.367L202.824 200.629L203.102 200.895L203.379 201.156L203.66 201.422L203.938 201.684L204.215 201.949L204.496 202.211L204.773 202.477L205.051 202.738" stroke="#0080BF" stroke-miterlimit="2" stroke-dasharray="3 3"/>
<path d="M227.543 181.328L226.57 181.75L225.594 182.172L222.676 183.449L221.707 183.875L219.762 184.727L218.789 185.156L217.82 185.582L216.848 186.012L215.879 186.441L214.906 186.871L213.938 187.305L212.969 187.734L208.125 189.902L207.156 190.34L206.191 190.777L205.223 191.211L204.254 191.648L203.289 192.09L202.324 192.527L201.355 192.969L200.391 193.406L197.496 194.73L196.531 195.176L195.566 195.617L193.637 196.508L192.676 196.953L191.711 197.398L190.75 197.844L189.785 198.293L188.824 198.738L187.863 199.188L186.898 199.637L185.938 200.086L184.977 200.539L184.016 200.988L183.055 201.441L182.098 201.895L180.176 202.801L179.219 203.254L178.258 203.711L177.301 204.168L176.34 204.621L175.383 205.078L174.426 205.539L173.469 205.996L172.512 206.457L171.555 206.914L169.641 207.836L168.684 208.301L167.73 208.762L166.773 209.227L165.82 209.688L164.863 210.152L163.91 210.617L162.957 211.086L162.004 211.551L161.051 212.02L160.098 212.484L159.145 212.953L158.191 213.426L157.238 213.895L156.289 214.363L155.336 214.836L154.387 215.309L153.434 215.781L152.484 216.254L151.535 216.73L150.586 217.203L149.633 217.68L148.688 218.156L146.789 219.109L145.84 219.59L144.891 220.066L143 221.027L142.051 221.508L141.105 221.992L140.16 222.473L136.379 224.41L134.488 225.387L133.547 225.871L132.602 226.359" stroke="#0092B6" stroke-miterlimit="2" stroke-dasharray="3 3"/>
<path d="M136.496 171.246L139.02 170.777L141.543 170.316L144.066 169.867L146.594 169.422L149.121 168.988L151.652 168.562L154.184 168.145L156.715 167.738L159.246 167.336L161.777 166.945L164.312 166.559L166.848 166.184L169.383 165.816L171.922 165.457L174.461 165.105L177 164.762L179.539 164.426L182.078 164.098L184.621 163.777L187.164 163.465L189.707 163.16L192.25 162.863L194.797 162.574L197.34 162.297L199.887 162.023L202.434 161.758L204.98 161.5L207.531 161.25L210.078 161.008L212.629 160.773L215.18 160.551L217.73 160.332L220.281 160.121L222.832 159.918L225.387 159.723L227.938 159.535L230.492 159.355L233.047 159.184L235.602 159.02L238.156 158.863L240.715 158.715L243.27 158.57L245.828 158.438L248.383 158.312L250.941 158.195L253.5 158.086L256.059 157.984L258.617 157.891L261.176 157.805L263.738 157.723L266.297 157.652L268.859 157.59L271.418 157.535L273.98 157.488L276.543 157.449L279.105 157.418L281.664 157.398L284.227 157.383L286.789 157.375H289.352L291.918 157.387L294.48 157.406L297.043 157.43L299.605 157.465L302.172 157.508L304.734 157.559L307.297 157.617L309.863 157.688L312.426 157.766L314.992 157.848L317.555 157.941L320.121 158.047L322.684 158.156L325.25 158.277L327.812 158.406L330.379 158.547L332.941 158.691L335.508 158.848L338.07 159.016L340.637 159.188L343.199 159.371L345.766 159.566L348.328 159.77L350.891 159.98L353.453 160.203L356.02 160.438L358.582 160.68L361.145 160.93L363.707 161.191L366.27 161.465L368.828 161.746L371.391 162.039L373.953 162.344L376.512 162.656L379.074 162.98L381.633 163.316L384.191 163.664L386.75 164.02L389.309 164.391" stroke="#00A4AD" stroke-miterlimit="2" stroke-dasharray="3 3"/>
<path d="M394.832 208.191L391.887 208.5L388.938 208.805L385.988 209.105L383.043 209.402L380.094 209.695L377.145 209.984L374.195 210.27L371.246 210.551L365.348 211.098L362.398 211.367L359.449 211.633L356.496 211.895L353.547 212.152L350.594 212.406L347.645 212.66L344.691 212.906L341.742 213.148L338.789 213.391L332.883 213.859L329.93 214.09L326.977 214.316L324.027 214.539L321.07 214.762L315.164 215.191L312.211 215.402L309.258 215.609L306.305 215.812L303.348 216.016L300.395 216.215L297.438 216.41L294.484 216.602L291.527 216.789L288.574 216.977L285.617 217.156L282.664 217.336L279.707 217.516L276.75 217.688L273.797 217.859L270.84 218.027L264.926 218.355L256.055 218.824L250.141 219.121L247.184 219.266L241.27 219.547L238.312 219.68L235.352 219.816L232.395 219.945L226.48 220.195L223.52 220.316L220.562 220.438L217.602 220.555L214.645 220.664L211.688 220.777L208.727 220.883L205.77 220.988L202.809 221.09L199.848 221.188L196.891 221.281L193.93 221.375L190.973 221.465L185.051 221.637L182.09 221.715L179.133 221.793L173.211 221.941L167.289 222.074L164.328 222.137L161.371 222.199L155.449 222.309L152.488 222.359L149.527 222.406L146.566 222.449L140.645 222.527L137.68 222.562L134.719 222.59L131.758 222.621L128.797 222.645L125.836 222.664L122.875 222.68L119.91 222.695L116.949 222.707L113.988 222.715H108.062L105.102 222.711L102.141 222.703" stroke="#00B6A4" stroke-miterlimit="2" stroke-dasharray="3 3"/>
<path d="M106.441 172.059L106.203 172.531L105.969 173.008L105.738 173.48L105.504 173.953L105.273 174.43L105.039 174.906L104.809 175.379L104.578 175.855L104.352 176.332L104.121 176.809L103.668 177.762L103.441 178.242L102.988 179.195L102.766 179.676L102.539 180.156L102.316 180.633L102.094 181.113L101.875 181.594L101.652 182.074L101.434 182.555L101.215 183.039L100.777 184L100.559 184.484L100.344 184.965L100.125 185.449L99.6953 186.418L99.4844 186.902L99.2695 187.387L98.8477 188.355L98.6367 188.844L98.4258 189.328L98.2148 189.816L98.0078 190.301L97.1797 192.254L96.9766 192.742L96.7695 193.23L96.3633 194.207L96.1641 194.699L95.9609 195.188L95.3633 196.664L95.1641 197.152L94.9648 197.645L94.7695 198.137L94.5742 198.633L94.1836 199.617L93.9883 200.113L93.7969 200.605L93.6016 201.102L93.4102 201.594L93.2188 202.09L93.0312 202.586L92.8398 203.082L92.2773 204.57L92.0898 205.07L91.9062 205.566L91.7188 206.066L91.5352 206.562L91.168 207.562L90.9883 208.059L90.8086 208.559L90.625 209.059L90.4453 209.559L90.2695 210.062L90.0898 210.562L89.9141 211.062L89.7344 211.566L89.5586 212.066L89.3867 212.57L89.2109 213.07L89.0391 213.574L88.8633 214.078L88.5195 215.086L88.3516 215.59L88.1797 216.094L88.0117 216.602L87.6758 217.609L87.5117 218.117L87.3438 218.625L87.1797 219.129L86.8516 220.145L86.6914 220.652" stroke="#00C89B" stroke-miterlimit="2" stroke-dasharray="3 3"/>
<path d="M91.25 170.875L94.0508 170.465L96.8555 170.07L99.6562 169.684L102.465 169.312L105.27 168.949L108.074 168.598L110.883 168.258L113.691 167.926L116.496 167.609L119.309 167.301L122.117 167.004L124.926 166.715L127.738 166.438L130.547 166.172L133.359 165.914L136.172 165.668L138.984 165.43L141.797 165.203L144.609 164.988L147.422 164.781L150.234 164.582L153.051 164.395L155.863 164.219L158.68 164.047L161.492 163.887L164.309 163.738L167.125 163.598L169.938 163.465L172.754 163.344L175.57 163.23L178.387 163.129L181.203 163.031L184.02 162.945L186.836 162.871L189.648 162.801L192.465 162.742L195.281 162.691L198.098 162.652L200.914 162.621L203.73 162.598L206.547 162.582L209.363 162.578H212.18L214.996 162.59L217.812 162.613L220.625 162.641L223.441 162.68L226.258 162.727L229.07 162.781L231.887 162.848L234.703 162.918L237.516 163L240.332 163.094L243.145 163.191L245.957 163.301L248.77 163.414L251.586 163.543L254.398 163.676L257.211 163.82L260.023 163.969L262.832 164.133L265.645 164.301L268.457 164.48L271.266 164.664L274.074 164.863L276.887 165.066L279.695 165.281L282.504 165.504L285.309 165.734L288.117 165.977L290.926 166.227L293.73 166.488L296.535 166.754L299.34 167.031L302.145 167.32L304.949 167.617L307.754 167.922L310.555 168.238L313.355 168.562L316.156 168.898L318.957 169.242L321.754 169.594L324.555 169.957L327.352 170.332L330.148 170.715L332.941 171.109L335.738 171.512L338.531 171.926L341.324 172.348L344.113 172.781L346.906 173.227L349.695 173.684L352.484 174.148L355.27 174.625L358.055 175.113L360.84 175.609L363.625 176.121L366.406 176.641L369.188 177.172" stroke="#00DB92" stroke-miterlimit="2" stroke-dasharray="3 3"/>
<path d="M372.605 213.492L366.645 213.391L360.684 213.281L357.699 213.23L354.719 213.172L348.758 213.062L339.816 212.887L330.875 212.699L327.891 212.637L321.93 212.512L312.988 212.312L310.008 212.242L307.027 212.176L295.105 211.895L289.145 211.746L286.164 211.676L283.184 211.598L277.223 211.449L265.301 211.137L262.32 211.055L259.34 210.977L253.379 210.812L250.402 210.73L247.422 210.648L229.539 210.133L220.598 209.863L217.621 209.773L214.641 209.684L208.68 209.496L205.699 209.406L202.719 209.309L199.738 209.215L196.762 209.121L184.84 208.73L181.863 208.633L169.941 208.227L166.965 208.125L163.984 208.02L161.004 207.918L158.023 207.812L155.047 207.703L149.086 207.492L146.105 207.383L143.129 207.273L140.148 207.164L137.168 207.051L134.188 206.941L131.211 206.828L125.25 206.602L122.273 206.484L119.293 206.371L116.312 206.254L113.336 206.137L110.355 206.02L107.375 205.898L104.398 205.777L101.418 205.656L98.4414 205.535L95.4609 205.414L92.4805 205.289L89.5039 205.164L86.5234 205.039L83.5469 204.91L80.5664 204.785L77.5898 204.656" stroke="#00ED89" stroke-miterlimit="2" stroke-dasharray="3 3"/>
<mask id="mask0_41_1586" style="mask-type:luminance" maskUnits="userSpaceOnUse" x="-3" y="-27" width="468" height="468">
<path d="M-3 -27H465V441H-3V-27Z" fill="white"/>
</mask>
<g mask="url(#mask0_41_1586)">
<path fill-rule="evenodd" clip-rule="evenodd" d="M-1.78413e+06 1.78457e+06V-1.78415e+06H1.78459e+06V1.78457e+06H-1.78413e+06ZM409.5 207L409 194.375L407.625 181.875L405.5 169.5L402.375 157.25L398.375 145.25L393.625 133.625L388.125 122.375L381.75 111.5L374.625 101.125L366.75 91.25L358.25 82L349.125 73.25L339.375 65.25L329.125 58L318.375 51.375L307.25 45.625L295.625 40.625L283.75 36.5L271.625 33.25L259.25 30.75L246.75 29.25L234.125 28.625L221.5 28.75L209 29.875L196.625 31.875L184.25 34.75L172.25 38.5L160.5 43.125L149.125 48.5L138.125 54.625L127.625 61.5L117.625 69.25L108.25 77.5L99.375 86.5L91.25 96.125L83.75 106.25L77 116.875L71 128L65.875 139.5L61.5 151.25L58 163.375L55.375 175.625L53.5 188.125L52.625 200.75V213.25L53.5 225.875L55.375 238.375L58 250.625L61.5 262.75L65.875 274.5L71 286L77 297.125L83.75 307.75L91.25 317.875L99.375 327.5L108.25 336.5L117.625 344.75L127.625 352.5L138.125 359.375L149.125 365.5L160.5 370.875L172.25 375.5L184.25 379.25L196.625 382.125L209 384.125L221.5 385.25L234.125 385.375L246.75 384.75L259.25 383.25L271.625 380.75L283.75 377.5L295.625 373.375L307.25 368.375L318.375 362.625L329.125 356L339.375 348.75L349.125 340.75L358.25 332L366.75 322.75L374.625 312.875L381.75 302.5L388.125 291.625L393.625 280.375L398.375 268.75L402.375 256.75L405.5 244.5L407.625 232.125L409 219.625L409.5 207Z" fill="white"/>
</g>
<path d="M409.438 207L408.992 194.414L407.66 181.891L405.449 169.492L402.367 157.277L398.434 145.312L393.664 133.656L388.086 122.367L381.727 111.496L374.613 101.102L366.785 91.2344L358.281 81.9453L349.145 73.2773L339.418 65.2773L329.148 57.9844L318.395 51.4297L307.203 45.6523L295.633 40.6797L283.738 36.5352L271.582 33.2383L259.223 30.8086L246.727 29.2578L234.148 28.5938L221.555 28.8125L209.012 29.9258L196.574 31.918L184.312 34.7812L172.277 38.5039L160.539 43.0664L149.152 48.4453L138.172 54.6133L127.652 61.5391L117.648 69.1914L108.211 77.5312L99.3828 86.5156L91.2148 96.0977L83.7383 106.234L76.9961 116.875L71.0234 127.961L65.8477 139.445L61.4922 151.262L57.9844 163.355L55.3359 175.672L53.5625 188.141L52.6758 200.703V213.297L53.5625 225.859L55.3359 238.328L57.9844 250.645L61.4922 262.738L65.8477 274.555L71.0234 286.039L76.9961 297.125L83.7383 307.766L91.2148 317.902L99.3828 327.484L108.211 336.469L117.648 344.809L127.652 352.461L138.172 359.387L149.152 365.555L160.539 370.934L172.277 375.496L184.312 379.219L196.574 382.082L209.012 384.074L221.555 385.188L234.148 385.406L246.727 384.742L259.223 383.191L271.582 380.762L283.738 377.465L295.633 373.32L307.203 368.348L318.395 362.57L329.148 356.016L339.418 348.723L349.145 340.723L358.281 332.055L366.785 322.766L374.613 312.898L381.727 302.504L388.086 291.633L393.664 280.344L398.434 268.688L402.367 256.723L405.449 244.508L407.66 232.109L408.992 219.586L409.438 207Z" stroke="black" stroke-width="2" stroke-miterlimit="2"/>
<path d="M229.915 224.25C229.915 229.89 227.868 233.125 224.056 233.125C221.571 233.125 219.821 231.547 219.431 228.875H221.462C221.774 230.437 222.759 231.328 224.196 231.328C226.509 231.328 227.806 229.125 227.821 225.14C226.774 226.406 225.634 226.969 224.103 226.969C221.149 226.969 219.087 224.922 219.087 221.875C219.087 218.687 221.321 216.469 224.415 216.469C228.149 216.469 229.915 219.14 229.915 224.25ZM227.712 221.828C227.712 219.719 226.29 218.25 224.399 218.25C222.54 218.25 221.149 219.64 221.149 221.719C221.149 223.906 222.368 225.172 224.337 225.172C226.306 225.172 227.712 223.828 227.712 221.828Z" fill="black"/>
<path d="M242.656 224.937C242.656 230.297 240.781 233.125 237.328 233.125C233.828 233.125 231.984 230.297 231.984 224.797C231.984 219.328 233.812 216.469 237.328 216.469C240.859 216.469 242.656 219.281 242.656 224.937ZM240.594 224.75C240.594 220.39 239.516 218.265 237.328 218.265C235.141 218.265 234.062 220.359 234.062 224.828C234.062 229.281 235.141 231.453 237.281 231.453C239.531 231.453 240.594 229.375 240.594 224.75Z" fill="black"/>
<path d="M315.028 227.719C315.028 230.922 312.794 233.125 309.7 233.125C305.966 233.125 304.216 230.437 304.216 225.359C304.216 219.672 306.262 216.469 310.059 216.469C312.544 216.469 314.294 218.062 314.684 220.734H312.669C312.341 219.172 311.356 218.265 309.919 218.265C307.606 218.265 306.309 220.469 306.294 224.453C307.169 223.265 308.434 222.64 310.044 222.64C312.966 222.64 315.028 224.687 315.028 227.719ZM312.966 227.875C312.966 225.703 311.747 224.437 309.794 224.437C307.778 224.437 306.403 225.75 306.403 227.765C306.403 229.859 307.825 231.328 309.716 231.328C311.575 231.328 312.966 229.922 312.966 227.875Z" fill="black"/>
<path d="M327.675 224.937C327.675 230.297 325.8 233.125 322.347 233.125C318.847 233.125 317.004 230.297 317.004 224.797C317.004 219.328 318.832 216.469 322.347 216.469C325.879 216.469 327.675 219.281 327.675 224.937ZM325.613 224.75C325.613 220.39 324.535 218.265 322.347 218.265C320.16 218.265 319.082 220.359 319.082 224.828C319.082 229.281 320.16 231.453 322.3 231.453C324.55 231.453 325.613 229.375 325.613 224.75Z" fill="black"/>
<path d="M399.891 228.047C399.891 231.125 397.719 233.125 394.375 233.125C391.032 233.125 389.235 231.5 388.985 227.859H391.016C391.141 230.234 392.235 231.328 394.438 231.328C396.547 231.328 397.813 230.109 397.813 228.062C397.813 226.25 396.672 225.187 394.438 225.187H393.329V223.484C396.579 223.484 397.329 222.781 397.329 221.031C397.329 219.297 396.25 218.25 394.454 218.25C392.391 218.25 391.407 219.328 391.36 221.734H389.329C389.407 218.265 391.141 216.469 394.438 216.469C397.547 216.469 399.407 218.156 399.407 220.953C399.407 222.594 398.641 223.656 397.125 224.25C399.079 224.922 399.891 226.062 399.891 228.047Z" fill="black"/>
<path d="M412.695 224.937C412.695 230.297 410.82 233.125 407.367 233.125C403.867 233.125 402.023 230.297 402.023 224.797C402.023 219.328 403.851 216.469 407.367 216.469C410.898 216.469 412.695 219.281 412.695 224.937ZM410.632 224.75C410.632 220.39 409.554 218.265 407.367 218.265C405.179 218.265 404.101 220.359 404.101 224.828C404.101 229.281 405.179 231.453 407.32 231.453C409.57 231.453 410.632 229.375 410.632 224.75Z" fill="black"/>
<path d="M425.092 207.54C425.092 212.899 423.217 215.727 419.764 215.727C416.264 215.727 414.42 212.899 414.42 207.399C414.42 201.93 416.249 199.071 419.764 199.071C423.295 199.071 425.092 201.884 425.092 207.54ZM423.03 207.352C423.03 202.993 421.952 200.868 419.764 200.868C417.577 200.868 416.499 202.962 416.499 207.43C416.499 211.884 417.577 214.055 419.717 214.055C421.967 214.055 423.03 211.977 423.03 207.352Z" fill="black"/>
<path d="M434.177 202.571C434.177 204.477 432.74 205.93 430.818 205.93C428.911 205.93 427.458 204.477 427.458 202.571C427.458 200.665 428.911 199.212 430.818 199.212C432.74 199.212 434.177 200.665 434.177 202.571ZM433.083 202.571C433.083 201.352 432.036 200.196 430.818 200.196C429.599 200.196 428.568 201.352 428.568 202.571C428.568 203.79 429.599 204.946 430.818 204.946C432.036 204.946 433.083 203.79 433.083 202.571Z" fill="black"/>
<path d="M371.955 69.078H369.549V72.9843H367.517V69.078H360.642V66.9374L368.049 56.6718H369.549V67.2499H371.955V69.078ZM367.517 67.2499V60.1249L362.424 67.2499H367.517Z" fill="black"/>
<path d="M384.587 67.578C384.587 71.0311 382.29 73.328 378.993 73.328C376.102 73.328 374.258 72.0468 373.602 68.7968H375.618C376.102 70.6405 377.18 71.5311 378.946 71.5311C381.165 71.5311 382.524 70.203 382.524 67.8593C382.524 65.4374 381.133 64.0311 378.946 64.0311C377.696 64.0311 376.899 64.4218 375.962 65.5624H374.102L375.321 57.0155H383.743V59.0155H376.946L376.305 63.2343C377.258 62.5468 378.165 62.2499 379.321 62.2499C382.446 62.2499 384.587 64.3593 384.587 67.578Z" fill="black"/>
<path d="M393.531 60.1718C393.531 62.078 392.093 63.5311 390.171 63.5311C388.265 63.5311 386.812 62.078 386.812 60.1718C386.812 58.2655 388.265 56.8124 390.171 56.8124C392.093 56.8124 393.531 58.2655 393.531 60.1718ZM392.437 60.1718C392.437 58.953 391.39 57.7968 390.171 57.7968C388.953 57.7968 387.921 58.953 387.921 60.1718C387.921 61.3905 388.953 62.5468 390.171 62.5468C391.39 62.5468 392.437 61.3905 392.437 60.1718Z" fill="black"/>
<path d="M225.315 11.0188C225.315 16.6594 223.268 19.8938 219.456 19.8938C216.971 19.8938 215.221 18.3157 214.831 15.6438H216.862C217.174 17.2063 218.159 18.0969 219.596 18.0969C221.909 18.0969 223.206 15.8938 223.221 11.9094C222.174 13.175 221.034 13.7375 219.503 13.7375C216.549 13.7375 214.487 11.6907 214.487 8.6438C214.487 5.4563 216.721 3.23755 219.815 3.23755C223.549 3.23755 225.315 5.90942 225.315 11.0188ZM223.112 8.59692C223.112 6.48755 221.69 5.0188 219.799 5.0188C217.94 5.0188 216.549 6.40942 216.549 8.48755C216.549 10.675 217.768 11.9407 219.737 11.9407C221.706 11.9407 223.112 10.5969 223.112 8.59692Z" fill="black"/>
<path d="M238.056 11.7063C238.056 17.0657 236.181 19.8938 232.728 19.8938C229.228 19.8938 227.384 17.0657 227.384 11.5657C227.384 6.09692 229.212 3.23755 232.728 3.23755C236.259 3.23755 238.056 6.05005 238.056 11.7063ZM235.994 11.5188C235.994 7.15942 234.916 5.03442 232.728 5.03442C230.541 5.03442 229.462 7.12817 229.462 11.5969C229.462 16.05 230.541 18.2219 232.681 18.2219C234.931 18.2219 235.994 16.1438 235.994 11.5188Z" fill="black"/>
<path d="M247.141 6.73755C247.141 8.6438 245.704 10.0969 243.782 10.0969C241.875 10.0969 240.422 8.6438 240.422 6.73755C240.422 4.8313 241.875 3.37817 243.782 3.37817C245.704 3.37817 247.141 4.8313 247.141 6.73755ZM246.047 6.73755C246.047 5.5188 245 4.36255 243.782 4.36255C242.563 4.36255 241.532 5.5188 241.532 6.73755C241.532 7.9563 242.563 9.11255 243.782 9.11255C245 9.11255 246.047 7.9563 246.047 6.73755Z" fill="black"/>
<path d="M62.4186 72.9843H60.3874V61.3749H56.778V59.9218C59.903 59.5311 60.3718 59.1874 61.0749 56.6718H62.4186V72.9843Z" fill="black"/>
<path d="M78.8629 68.2499C78.8629 71.328 76.691 73.328 73.3473 73.328C70.0035 73.328 68.2066 71.703 67.9566 68.0624H69.9879C70.1129 70.4374 71.2066 71.5311 73.4098 71.5311C75.5191 71.5311 76.7848 70.3124 76.7848 68.2655C76.7848 66.453 75.6441 65.3905 73.4098 65.3905H72.3004V63.6874C75.5504 63.6874 76.3004 62.9843 76.3004 61.2343C76.3004 59.4999 75.2223 58.453 73.4254 58.453C71.3629 58.453 70.3785 59.5311 70.3316 61.9374H68.3004C68.3785 58.4686 70.1129 56.6718 73.4098 56.6718C76.5191 56.6718 78.3785 58.3593 78.3785 61.1561C78.3785 62.7968 77.6129 63.8593 76.0973 64.453C78.0504 65.1249 78.8629 66.2655 78.8629 68.2499Z" fill="black"/>
<path d="M91.8071 67.578C91.8071 71.0311 89.5103 73.328 86.2134 73.328C83.3228 73.328 81.479 72.0468 80.8228 68.7968H82.8384C83.3228 70.6405 84.4009 71.5311 86.1665 71.5311C88.3853 71.5311 89.7446 70.203 89.7446 67.8593C89.7446 65.4374 88.354 64.0311 86.1665 64.0311C84.9165 64.0311 84.1196 64.4218 83.1821 65.5624H81.3228L82.5415 57.0155H90.9634V59.0155H84.1665L83.5259 63.2343C84.479 62.5468 85.3853 62.2499 86.5415 62.2499C89.6665 62.2499 91.8071 64.3593 91.8071 67.578Z" fill="black"/>
<path d="M100.751 60.1718C100.751 62.078 99.3139 63.5311 97.392 63.5311C95.4857 63.5311 94.0326 62.078 94.0326 60.1718C94.0326 58.2655 95.4857 56.8124 97.392 56.8124C99.3139 56.8124 100.751 58.2655 100.751 60.1718ZM99.6576 60.1718C99.6576 58.953 98.6107 57.7968 97.392 57.7968C96.1732 57.7968 95.142 58.953 95.142 60.1718C95.142 61.3905 96.1732 62.5468 97.392 62.5468C98.6107 62.5468 99.6576 61.3905 99.6576 60.1718Z" fill="black"/>
<path d="M8.98438 215.384H6.95312V203.774H3.34375V202.321C6.46875 201.93 6.9375 201.587 7.64062 199.071H8.98438V215.384Z" fill="black"/>
<path d="M25.5849 210.79C25.5849 213.743 23.3349 215.727 20.1161 215.727C16.8974 215.727 14.6318 213.743 14.6318 210.759C14.6318 208.962 15.5536 207.696 17.4286 206.805C15.7724 205.774 15.2099 204.946 15.2099 203.43C15.2099 200.868 17.2411 199.071 20.1161 199.071C23.0068 199.071 25.0068 200.868 25.0068 203.43C25.0068 204.962 24.4599 205.79 22.788 206.805C24.663 207.696 25.5849 208.962 25.5849 210.79ZM22.9443 203.477C22.9443 201.884 21.8349 200.868 20.1161 200.868C18.413 200.868 17.288 201.884 17.288 203.446C17.288 204.993 18.413 205.993 20.1161 205.993C21.8193 205.993 22.9443 204.993 22.9443 203.477ZM23.5224 210.805C23.5224 208.899 22.1318 207.696 20.1161 207.696C18.0849 207.696 16.7099 208.899 16.7099 210.805C16.7099 212.712 18.0849 213.93 20.0693 213.93C22.1318 213.93 23.5224 212.743 23.5224 210.805Z" fill="black"/>
<path d="M38.2322 207.54C38.2322 212.899 36.3572 215.727 32.9041 215.727C29.4041 215.727 27.5604 212.899 27.5604 207.399C27.5604 201.93 29.3885 199.071 32.9041 199.071C36.4354 199.071 38.2322 201.884 38.2322 207.54ZM36.1697 207.352C36.1697 202.993 35.0916 200.868 32.9041 200.868C30.7166 200.868 29.6385 202.962 29.6385 207.43C29.6385 211.884 30.7166 214.055 32.8572 214.055C35.1072 214.055 36.1697 211.977 36.1697 207.352Z" fill="black"/>
<path d="M47.3171 202.571C47.3171 204.477 45.8796 205.93 43.9577 205.93C42.0515 205.93 40.5984 204.477 40.5984 202.571C40.5984 200.665 42.0515 199.212 43.9577 199.212C45.8796 199.212 47.3171 200.665 47.3171 202.571ZM46.2234 202.571C46.2234 201.352 45.1765 200.196 43.9577 200.196C42.739 200.196 41.7077 201.352 41.7077 202.571C41.7077 203.79 42.739 204.946 43.9577 204.946C45.1765 204.946 46.2234 203.79 46.2234 202.571Z" fill="black"/>
<path d="M66.1843 346.267C66.1843 348.267 65.0124 349.97 62.7311 351.189L60.4343 352.423C58.4343 353.595 57.6999 354.455 57.4968 355.783H66.0749V357.783H55.2155C55.403 354.189 56.3874 352.658 59.7936 350.72L61.903 349.533C63.3561 348.705 64.1218 347.595 64.1218 346.298C64.1218 344.564 62.7311 343.251 60.903 343.251C58.903 343.251 57.7624 344.392 57.6061 347.126H55.5905C55.6999 343.173 57.6374 341.47 60.9655 341.47C64.0436 341.47 66.1843 343.501 66.1843 346.267Z" fill="black"/>
<path d="M78.9723 346.267C78.9723 348.267 77.8004 349.97 75.5191 351.189L73.2223 352.423C71.2223 353.595 70.4879 354.455 70.2848 355.783H78.8629V357.783H68.0035C68.191 354.189 69.1754 352.658 72.5816 350.72L74.691 349.533C76.1441 348.705 76.9098 347.595 76.9098 346.298C76.9098 344.564 75.5191 343.251 73.691 343.251C71.691 343.251 70.5504 344.392 70.3941 347.126H68.3785C68.4879 343.173 70.4254 341.47 73.7535 341.47C76.8316 341.47 78.9723 343.501 78.9723 346.267Z" fill="black"/>
<path d="M91.8071 352.376C91.8071 355.83 89.5103 358.126 86.2134 358.126C83.3228 358.126 81.479 356.845 80.8228 353.595H82.8384C83.3228 355.439 84.4009 356.33 86.1665 356.33C88.3853 356.33 89.7446 355.001 89.7446 352.658C89.7446 350.236 88.354 348.83 86.1665 348.83C84.9165 348.83 84.1196 349.22 83.1821 350.361H81.3228L82.5415 341.814H90.9634V343.814H84.1665L83.5259 348.033C84.479 347.345 85.3853 347.048 86.5415 347.048C89.6665 347.048 91.8071 349.158 91.8071 352.376Z" fill="black"/>
<path d="M100.751 344.97C100.751 346.876 99.3139 348.33 97.392 348.33C95.4857 348.33 94.0326 346.876 94.0326 344.97C94.0326 343.064 95.4857 341.611 97.392 341.611C99.3139 341.611 100.751 343.064 100.751 344.97ZM99.6576 344.97C99.6576 343.751 98.6107 342.595 97.392 342.595C96.1732 342.595 95.142 343.751 95.142 344.97C95.142 346.189 96.1732 347.345 97.392 347.345C98.6107 347.345 99.6576 346.189 99.6576 344.97Z" fill="black"/>
<path d="M218.968 399.701C218.968 401.701 217.796 403.405 215.515 404.623L213.218 405.858C211.218 407.03 210.484 407.889 210.281 409.217H218.859V411.217H207.999C208.187 407.623 209.171 406.092 212.577 404.155L214.687 402.967C216.14 402.139 216.906 401.03 216.906 399.733C216.906 397.998 215.515 396.686 213.687 396.686C211.687 396.686 210.546 397.826 210.39 400.561H208.374C208.484 396.608 210.421 394.905 213.749 394.905C216.827 394.905 218.968 396.936 218.968 399.701Z" fill="black"/>
<path d="M231.959 396.951C228.537 401.03 226.24 405.951 225.35 411.217H223.178C224.334 406.108 226.631 401.358 229.865 397.248H221.069V395.248H231.959V396.951Z" fill="black"/>
<path d="M244.45 403.373C244.45 408.733 242.575 411.561 239.122 411.561C235.622 411.561 233.778 408.733 233.778 403.233C233.778 397.764 235.607 394.905 239.122 394.905C242.653 394.905 244.45 397.717 244.45 403.373ZM242.388 403.186C242.388 398.826 241.31 396.701 239.122 396.701C236.935 396.701 235.857 398.795 235.857 403.264C235.857 407.717 236.935 409.889 239.075 409.889C241.325 409.889 242.388 407.811 242.388 403.186Z" fill="black"/>
<path d="M253.535 398.405C253.535 400.311 252.098 401.764 250.176 401.764C248.27 401.764 246.816 400.311 246.816 398.405C246.816 396.498 248.27 395.045 250.176 395.045C252.098 395.045 253.535 396.498 253.535 398.405ZM252.441 398.405C252.441 397.186 251.395 396.03 250.176 396.03C248.957 396.03 247.926 397.186 247.926 398.405C247.926 399.623 248.957 400.78 250.176 400.78C251.395 400.78 252.441 399.623 252.441 398.405Z" fill="black"/>
<path d="M371.642 353.048C371.642 356.126 369.47 358.126 366.127 358.126C362.783 358.126 360.986 356.501 360.736 352.861H362.767C362.892 355.236 363.986 356.33 366.189 356.33C368.299 356.33 369.564 355.111 369.564 353.064C369.564 351.251 368.424 350.189 366.189 350.189H365.08V348.486C368.33 348.486 369.08 347.783 369.08 346.033C369.08 344.298 368.002 343.251 366.205 343.251C364.142 343.251 363.158 344.33 363.111 346.736H361.08C361.158 343.267 362.892 341.47 366.189 341.47C369.299 341.47 371.158 343.158 371.158 345.955C371.158 347.595 370.392 348.658 368.877 349.251C370.83 349.923 371.642 351.064 371.642 353.048Z" fill="black"/>
<path d="M380.774 357.783H378.743V346.173H375.133V344.72C378.258 344.33 378.727 343.986 379.43 341.47H380.774V357.783Z" fill="black"/>
<path d="M397.375 352.376C397.375 355.83 395.078 358.126 391.781 358.126C388.89 358.126 387.046 356.845 386.39 353.595H388.406C388.89 355.439 389.968 356.33 391.734 356.33C393.953 356.33 395.312 355.001 395.312 352.658C395.312 350.236 393.921 348.83 391.734 348.83C390.484 348.83 389.687 349.22 388.75 350.361H386.89L388.109 341.814H396.531V343.814H389.734L389.093 348.033C390.046 347.345 390.953 347.048 392.109 347.048C395.234 347.048 397.375 349.158 397.375 352.376Z" fill="black"/>
<path d="M406.319 344.97C406.319 346.876 404.881 348.33 402.959 348.33C401.053 348.33 399.6 346.876 399.6 344.97C399.6 343.064 401.053 341.611 402.959 341.611C404.881 341.611 406.319 343.064 406.319 344.97ZM405.225 344.97C405.225 343.751 404.178 342.595 402.959 342.595C401.741 342.595 400.709 343.751 400.709 344.97C400.709 346.189 401.741 347.345 402.959 347.345C404.178 347.345 405.225 346.189 405.225 344.97Z" fill="black"/>
</g>
</g>
<defs>
<clipPath id="clip0_41_1586">
<rect width="438" height="416" fill="white"/>
</clipPath>
<clipPath id="clip1_41_1586">
<rect width="500" height="500" fill="white" transform="translate(-19 -43)"/>
</clipPath>
</defs>
</svg>
