<svg width="438" height="416" viewBox="0 0 438 416" fill="none" xmlns="http://www.w3.org/2000/svg">
<g clip-path="url(#clip0_41_1580)">
<rect width="438" height="416" fill="white"/>
<g clip-path="url(#clip1_41_1580)">
<path d="M531 -92H-69V508H531V-92Z" fill="white"/>
<path d="M-3 -26H465V442H-3V-26Z" fill="white"/>
<path d="M316.5 208L316.285 201.969L315.648 195.969L314.586 190.027L313.113 184.176L311.227 178.441L308.941 172.859L306.27 167.445L303.223 162.238L299.812 157.258L296.062 152.531L291.988 148.078L287.609 143.926L282.949 140.094L278.027 136.598L272.875 133.457L267.512 130.691L261.969 128.309L256.27 126.32L250.445 124.742L244.523 123.578L238.535 122.836L232.508 122.516L226.477 122.621L220.465 123.152L214.504 124.109L208.629 125.48L202.863 127.266L197.238 129.449L191.781 132.027L186.52 134.984L181.48 138.301L176.688 141.969L172.164 145.965L167.938 150.27L164.02 154.863L160.438 159.719L157.211 164.816L154.348 170.129L151.867 175.629L149.781 181.293L148.098 187.09L146.828 192.988L145.98 198.965L145.555 204.984V211.016L145.98 217.035L146.828 223.012L148.098 228.91L149.781 234.707L151.867 240.371L154.348 245.871L157.211 251.184L160.438 256.281L164.02 261.137L167.938 265.73L172.164 270.035L176.688 274.031L181.48 277.699L186.52 281.016L191.781 283.973L197.238 286.551L202.863 288.734L208.629 290.52L214.504 291.891L220.465 292.848L226.477 293.379L232.508 293.484L238.535 293.164L244.523 292.422L250.445 291.258L256.27 289.68L261.969 287.691L267.512 285.309L272.875 282.543L278.027 279.402L282.949 275.906L287.609 272.074L291.988 267.922L296.062 263.469L299.812 258.742L303.223 253.762L306.27 248.555L308.941 243.141L311.227 237.559L313.113 231.824L314.586 225.973L315.648 220.031L316.285 214.031L316.5 208Z" stroke="black" stroke-opacity="0.5" stroke-width="0.3" stroke-miterlimit="2"/>
<path d="M401.996 208L401.57 195.938L400.297 183.938L398.176 172.055L395.223 160.352L391.453 148.887L386.883 137.715L381.539 126.895L375.441 116.477L368.625 106.516L361.125 97.0625L352.977 88.1602L344.219 79.8516L334.898 72.1875L325.059 65.1953L314.75 58.918L304.023 53.3789L292.938 48.6133L281.539 44.6445L269.891 41.4844L258.047 39.1562L246.07 37.668L234.02 37.0312L221.949 37.2422L209.93 38.3086L198.012 40.2148L186.258 42.9609L174.727 46.5273L163.477 50.8984L152.562 56.0547L142.039 61.9648L131.961 68.6055L122.375 75.9375L113.332 83.9297L104.871 92.5391L97.043 101.723L89.8789 111.438L83.418 121.633L77.6953 132.258L72.7344 143.262L68.5586 154.586L65.1953 166.176L62.6602 177.977L60.9609 189.926L60.1094 201.965V214.035L60.9609 226.074L62.6602 238.023L65.1953 249.824L68.5586 261.414L72.7344 272.738L77.6953 283.742L83.418 294.367L89.8789 304.562L97.043 314.277L104.871 323.461L113.332 332.07L122.375 340.062L131.961 347.395L142.039 354.035L152.562 359.945L163.477 365.102L174.727 369.473L186.258 373.039L198.012 375.785L209.93 377.691L221.949 378.758L234.02 378.969L246.07 378.332L258.047 376.844L269.891 374.516L281.539 371.355L292.938 367.387L304.023 362.621L314.75 357.082L325.059 350.805L334.898 343.812L344.219 336.148L352.977 327.84L361.125 318.938L368.625 309.484L375.441 299.523L381.539 289.105L386.883 278.285L391.453 267.113L395.223 255.648L398.176 243.945L400.297 232.062L401.57 220.062L401.996 208Z" stroke="black" stroke-opacity="0.5" stroke-width="0.3" stroke-miterlimit="2"/>
<path d="M231 208H409.438" stroke="black" stroke-opacity="0.5" stroke-width="0.3" stroke-miterlimit="1.1547"/>
<path d="M231 208L357.172 81.8281" stroke="black" stroke-opacity="0.5" stroke-width="0.3" stroke-miterlimit="1.1547"/>
<path d="M231 208V29.5625" stroke="black" stroke-opacity="0.5" stroke-width="0.3" stroke-miterlimit="1.1547"/>
<path d="M231 208L104.828 81.8281" stroke="black" stroke-opacity="0.5" stroke-width="0.3" stroke-miterlimit="1.1547"/>
<path d="M231 208H52.5625" stroke="black" stroke-opacity="0.5" stroke-width="0.3" stroke-miterlimit="1.1547"/>
<path d="M231 208L104.828 334.172" stroke="black" stroke-opacity="0.5" stroke-width="0.3" stroke-miterlimit="1.1547"/>
<path d="M231 208V386.438" stroke="black" stroke-opacity="0.5" stroke-width="0.3" stroke-miterlimit="1.1547"/>
<path d="M231 208L357.172 334.172" stroke="black" stroke-opacity="0.5" stroke-width="0.3" stroke-miterlimit="1.1547"/>
<path d="M180.195 47.8438L192.805 48.8008L206.102 50.293L220.008 52.3906L234.422 55.1562L249.199 58.6289L264.172 62.8242L279.137 67.7266L293.898 73.2852L308.262 79.4141L322.059 86.0156L335.152 92.9648L347.453 100.141L358.902 107.422L369.48 114.707" stroke="#7F7F7F" stroke-width="0.25" stroke-miterlimit="2"/>
<path d="M132.148 70.7031L144.742 64.8906L157.895 59.4648L171.484 54.5117L185.387 50.1016L199.445 46.2969L213.516 43.1211L227.441 40.582L241.094 38.6641" stroke="#7F7F7F" stroke-width="0.25" stroke-miterlimit="2"/>
<path d="M161.855 52.4609L173.527 53.0664L185.98 54.1133L199.199 55.6914L213.121 57.875L227.656 60.7383L242.664 64.332L257.969 68.6836L273.359 73.7852L288.609 79.5898L303.504 86.0078L317.836 92.9336L331.445 100.227L344.215 107.758L356.082 115.387L367.016 123L377.027 130.504L386.16 137.816" stroke="#7F7F7F" stroke-width="0.25" stroke-miterlimit="2"/>
<path d="M160.176 53.8047L171.781 54.4414L184.188 55.5156L197.371 57.1172L211.285 59.3242L225.84 62.2109L240.895 65.8359L256.273 70.2227L271.766 75.3711L287.137 81.2305L302.164 87.7227L316.633 94.7227L330.379 102.105L343.273 109.719L355.25 117.434L366.277 125.129L376.371 132.703L385.562 140.078" stroke="#7F7F7F" stroke-width="0.25" stroke-miterlimit="2"/>
<path d="M159.18 54.0859L170.734 54.707L183.086 55.7617L196.23 57.3398L210.113 59.5195L224.648 62.3789L239.699 65.9727L255.094 70.332L270.613 75.457L286.035 81.3008L301.121 87.7812L315.66 94.7852L329.48 102.172L342.457 109.805L354.508 117.539L365.609 125.262L375.766 132.863L385.016 140.27" stroke="#7F7F7F" stroke-width="0.25" stroke-miterlimit="2"/>
<path d="M63.7852 184.121L71.3359 177.168L79.7539 169.805L89.1211 162.051L99.5273 153.949L111.035 145.57L123.672 137.027L137.418 128.453L152.176 120.02L167.777 111.914L183.988 104.316L200.516 97.3906L217.047 91.2461L233.285 85.9414L248.965 81.4883L263.902 77.8359L277.961 74.9141L291.078 72.6328L303.238 70.8945L314.461 69.6055L324.797 68.6875" stroke="#7F7F7F" stroke-width="0.25" stroke-miterlimit="2"/>
<path d="M63.5078 179.73L71.1055 172.75L79.5586 165.375L88.9531 157.629L99.375 149.559L110.879 141.242L123.492 132.789L137.184 124.332L151.859 116.043L167.355 108.102L183.438 100.684L199.832 93.9414L216.23 87.9766L232.352 82.8477L247.938 78.5547L262.801 75.0586L276.812 72.2773L289.91 70.1328L302.07 68.5195L313.312 67.3555L323.68 66.5508" stroke="#7F7F7F" stroke-width="0.25" stroke-miterlimit="2"/>
<path d="M69.875 171.102L78.2227 163.777L87.5 156.09L97.7812 148.082L109.129 139.832L121.57 131.441L135.078 123.051L149.574 114.812L164.902 106.91L180.844 99.5156L197.129 92.7773L213.461 86.8086L229.562 81.6641L245.172 77.3516L260.098 73.8359L274.203 71.0469L287.414 68.8945L299.703 67.2852L311.082 66.1328L321.582 65.3516" stroke="#7F7F7F" stroke-width="0.25" stroke-miterlimit="2"/>
<path d="M92.2344 305.508L99 301.934L106.508 297.949L114.871 293.488L124.211 288.473L134.648 282.82L146.312 276.449L159.285 269.277L173.613 261.262L189.246 252.391L206.008 242.734L223.59 232.445L241.551 221.766L259.379 210.988L276.59 200.418L292.785 190.32L307.719 180.879L321.27 172.199L333.441 164.316L344.312 157.211L353.996 150.824L362.625 145.098L370.336 139.957L377.242 135.328L383.461 131.156" stroke="#7F7F7F" stroke-width="0.25" stroke-miterlimit="2"/>
<path d="M148.781 62.4961L159.859 63.3359L171.816 64.5938L184.66 66.3477L198.379 68.6992L212.906 71.7266L228.137 75.5117L243.898 80.1016L259.969 85.5117L276.09 91.707L291.977 98.6055L307.367 106.082L322.035 113.977L335.809 122.125L348.578 130.363L360.293 138.551L370.965 146.566L380.629 154.328L389.355 161.773L397.219 168.867" stroke="#7F7F7F" stroke-width="0.25" stroke-miterlimit="2"/>
<path d="M146.148 62.7969L157.027 63.5742L168.781 64.75L181.422 66.4062L194.953 68.6367L209.316 71.5273L224.414 75.1641L240.094 79.5977L256.137 84.8516L272.293 90.9062L288.285 97.6836L303.832 105.07L318.703 112.914L332.707 121.043L345.719 129.297L357.68 137.52L368.586 145.598L378.473 153.43L387.402 160.949L395.449 168.125" stroke="#7F7F7F" stroke-width="0.25" stroke-miterlimit="2"/>
<path d="M145.059 65.7578L155.945 66.7031L167.727 68.0547L180.426 69.9023L194.039 72.3359L208.523 75.4492L223.773 79.3242L239.621 84.0117L255.855 89.5352L272.195 95.8633L288.355 102.914L304.047 110.555L319.016 118.629L333.078 126.957L346.109 135.363L358.055 143.703L368.914 151.852L378.73 159.719L387.578 167.242L395.539 174.395" stroke="#7F7F7F" stroke-width="0.25" stroke-miterlimit="2"/>
<path d="M73.0352 150.781L81.8711 143.391L91.6211 135.742L102.332 127.898L114.035 119.953L126.727 112.023L140.348 104.242L154.797 96.7656L169.906 89.7422L185.465 83.3086L201.23 77.5742L216.953 72.6094L232.395 68.4375L247.352 65.0391L261.664 62.3633L275.223 60.3438L287.969 58.8906L299.879 57.9219L310.957 57.3516" stroke="#7F7F7F" stroke-width="0.25" stroke-miterlimit="2"/>
<path d="M75.6172 140.934L81.7461 145.766L88.5703 151.094L96.207 156.992L104.781 163.516L114.422 170.738L125.262 178.699L137.41 187.43L150.93 196.914L165.801 207.066L181.895 217.734L198.934 228.68L216.516 239.609L234.164 250.219L251.395 260.238L267.809 269.469L283.117 277.816L297.176 285.258L309.941 291.832L321.453 297.617L331.801 302.703L341.094 307.18L349.453 311.141L356.98 314.66" stroke="#7F7F7F" stroke-width="0.25" stroke-miterlimit="2"/>
<path d="M121.055 334.828L130.238 331.555L140.523 327.723L152.062 323.199L164.992 317.844L179.422 311.492L195.387 303.992L212.797 295.234L231.395 285.184L250.742 273.941L270.223 261.762L289.188 249.039L307.043 236.219L323.375 223.719L337.984 211.867L350.855 200.855L362.09 190.781L371.863 181.641L380.367 173.398L387.789 165.977L394.297 159.289" stroke="#7F7F7F" stroke-width="0.25" stroke-miterlimit="2"/>
<path d="M249.199 58.6289L264.172 62.8242L279.137 67.7266L293.898 73.2852L308.262 79.4141" stroke="#0000FF" stroke-width="3" stroke-miterlimit="2"/>
<path d="M157.895 59.4648L171.484 54.5117L185.387 50.1016L199.445 46.2969L213.516 43.1211" stroke="#0012F6" stroke-width="3" stroke-miterlimit="2"/>
<path d="M257.969 68.6836L273.359 73.7852L288.609 79.5898L303.504 86.0078" stroke="#0024ED" stroke-width="3" stroke-miterlimit="2"/>
<path d="M256.273 70.2227L271.766 75.3711L287.137 81.2305L302.164 87.7227" stroke="#0037E4" stroke-width="3" stroke-miterlimit="2"/>
<path d="M255.094 70.332L270.613 75.457L286.035 81.3008L301.121 87.7812" stroke="#0049DB" stroke-width="3" stroke-miterlimit="2"/>
<path d="M152.176 120.02L167.777 111.914L183.988 104.316L200.516 97.3906L217.047 91.2461" stroke="#005BD1" stroke-width="3" stroke-miterlimit="2"/>
<path d="M151.859 116.043L167.355 108.102L183.438 100.684L199.832 93.9414L216.23 87.9766" stroke="#006DC8" stroke-width="3" stroke-miterlimit="2"/>
<path d="M164.902 106.91L180.844 99.5156L197.129 92.7773L213.461 86.8086" stroke="#0080BF" stroke-width="3" stroke-miterlimit="2"/>
<path d="M206.008 242.734L223.59 232.445L241.551 221.766L259.379 210.988L276.59 200.418" stroke="#0092B6" stroke-width="3" stroke-miterlimit="2"/>
<path d="M259.969 85.5117L276.09 91.707L291.977 98.6055L307.367 106.082" stroke="#00A4AD" stroke-width="3" stroke-miterlimit="2"/>
<path d="M256.137 84.8516L272.293 90.9062L288.285 97.6836L303.832 105.07" stroke="#00B6A4" stroke-width="3" stroke-miterlimit="2"/>
<path d="M255.855 89.5352L272.195 95.8633L288.355 102.914L304.047 110.555" stroke="#00C89B" stroke-width="3" stroke-miterlimit="2"/>
<path d="M154.797 96.7656L169.906 89.7422L185.465 83.3086L201.23 77.5742L216.953 72.6094" stroke="#00DB92" stroke-width="3" stroke-miterlimit="2"/>
<path d="M181.895 217.734L198.934 228.68L216.516 239.609L234.164 250.219" stroke="#00ED89" stroke-width="3" stroke-miterlimit="2"/>
<path d="M231.395 285.184L250.742 273.941L270.223 261.762L289.188 249.039L307.043 236.219" stroke="#00FF80" stroke-width="3" stroke-miterlimit="2"/>
<path d="M308.262 79.4141L306.82 78.8555L303.93 77.7617L302.48 77.2266L301.031 76.6992L299.578 76.1758L298.125 75.6602L296.664 75.1523L295.207 74.6523L293.742 74.1602L292.281 73.6719L290.812 73.1914L289.344 72.7188L287.875 72.2539L286.402 71.7969L284.93 71.3477L283.453 70.9023L281.973 70.4648L280.492 70.0352L279.012 69.6133L277.527 69.1992L276.039 68.793L274.551 68.3906L273.062 67.9961L271.57 67.6094L270.078 67.2305L268.582 66.8594L267.086 66.4922L265.586 66.1367L264.086 65.7852L262.586 65.4414L261.082 65.1055L259.574 64.7773L258.07 64.4531L256.559 64.1406L255.051 63.832L253.539 63.5312L252.027 63.2383L250.512 62.9531L248.996 62.6758L247.48 62.4023L245.961 62.1406L244.441 61.8828L242.918 61.6328L241.395 61.3906L239.871 61.1562L238.348 60.9297L236.82 60.7109L235.293 60.4961L233.766 60.2891L232.234 60.0938L230.703 59.9023L229.172 59.7188L227.637 59.543L226.102 59.375L224.566 59.2109L223.031 59.0586L221.492 58.9102L219.953 58.7734L218.414 58.6406L216.875 58.5156L215.332 58.4023L213.789 58.293L212.246 58.1914L210.703 58.0938L209.156 58.0078L207.613 57.9297L206.066 57.8594L204.52 57.793L202.973 57.7383L201.422 57.6875L199.875 57.6484L198.324 57.6133L196.773 57.5859L195.223 57.5703L193.672 57.5586L192.117 57.5547L190.566 57.5586L189.012 57.5703L187.461 57.5938L185.906 57.6211L184.352 57.6562L182.797 57.6992L181.242 57.75L179.688 57.8086L178.129 57.875L176.574 57.9492L175.02 58.0312L173.461 58.1211L171.906 58.2227L170.348 58.3281L168.793 58.4414L167.234 58.5625L165.68 58.6914L164.121 58.832L162.562 58.9766L161.008 59.1328L159.449 59.293L157.895 59.4648" stroke="#0000FF" stroke-miterlimit="2" stroke-dasharray="3 3"/>
<path d="M213.516 43.1211L213.988 43.3438L214.461 43.5703L214.93 43.7969L215.402 44.0234L215.871 44.25L216.344 44.4805L218.219 45.4023L218.684 45.6328L219.152 45.8672L219.617 46.1016L220.086 46.3359L221.016 46.8047L221.48 47.043L221.945 47.2773L222.406 47.5156L222.871 47.7539L223.336 47.9961L223.797 48.2344L224.258 48.4766L224.719 48.7148L225.641 49.1992L226.102 49.4453L226.562 49.6875L227.477 50.1797L227.938 50.4258L228.852 50.918L229.309 51.168L229.766 51.4141L230.219 51.6641L230.676 51.9141L231.129 52.1641L231.586 52.418L232.039 52.668L233.398 53.4297L233.848 53.6836L234.301 53.9414L234.75 54.1953L235.203 54.4531L237 55.4844L237.445 55.7461L237.895 56.0078L238.34 56.2695L238.789 56.5312L239.68 57.0547L241.016 57.8516L241.457 58.1172L241.902 58.3828L242.344 58.6484L242.789 58.918L244.113 59.7266L244.551 59.9961L244.992 60.2656L245.43 60.5391L245.871 60.8086L247.184 61.6289L247.621 61.9062L248.059 62.1797L248.496 62.457L248.93 62.7344L249.367 63.0117L250.234 63.5664L250.668 63.8477L251.102 64.125L251.969 64.6875L252.398 64.9688L252.832 65.25L253.262 65.5352L253.691 65.8164L255.41 66.957L255.836 67.2422L256.266 67.5312L256.691 67.8203L257.117 68.1055L257.969 68.6836" stroke="#0012F6" stroke-miterlimit="2" stroke-dasharray="3 3"/>
<path d="M303.504 86.0078L303.039 85.8125L302.57 85.6172L301.641 85.2344L301.176 85.0391L300.711 84.8477L300.242 84.6602L299.777 84.4688L299.309 84.2812L298.84 84.0898L298.375 83.9023L297.906 83.7148L297.438 83.5312L296.969 83.3438L295.094 82.6094L294.625 82.4297L294.152 82.2461L293.215 81.8867L292.742 81.707L292.273 81.5273L290.855 81L290.387 80.8242L289.441 80.4727L288.023 79.957L287.547 79.7852L287.074 79.6133L286.602 79.4453L286.125 79.2773L285.652 79.1094L285.176 78.9414L284.703 78.7734L284.227 78.6094L283.75 78.4414L283.277 78.2773L282.324 77.9492L281.848 77.7891L281.371 77.625L280.418 77.3047L279.938 77.1445L279.461 76.9883L278.984 76.8281L278.504 76.6719L278.027 76.5156L277.547 76.3594L277.07 76.2031L276.59 76.0508L276.113 75.8945L274.672 75.4375L274.191 75.2891L273.711 75.1367L272.27 74.6914L271.789 74.5469L271.305 74.3984L270.344 74.1094L269.859 73.9648L269.379 73.8203L268.895 73.6797L268.414 73.5352L267.445 73.2539L266.965 73.1133L266.48 72.9766L265.996 72.8359L264.059 72.2891L263.574 72.1562L263.086 72.0234L261.633 71.625L261.145 71.4922L260.66 71.3633L260.172 71.2344L259.688 71.1055L258.711 70.8477L258.227 70.7227L256.273 70.2227" stroke="#0024ED" stroke-miterlimit="2" stroke-dasharray="3 3"/>
<path d="M302.164 87.7227L301.703 87.5117L301.238 87.3008L300.777 87.0898L300.312 86.8828L299.852 86.6758L299.387 86.4688L298.926 86.2617L297.996 85.8477L296.137 85.0352L295.672 84.8359L295.207 84.6328L294.738 84.4336L294.273 84.2344L293.805 84.0352L293.34 83.8359L292.871 83.6406L292.402 83.4414L291.938 83.2461L291 82.8555L290.531 82.6641L290.062 82.4688L289.59 82.2773L288.652 81.8945L288.18 81.707L287.711 81.5156L287.238 81.3281L286.77 81.1406L285.824 80.7656L285.355 80.5781L283.465 79.8438L282.988 79.6602L282.516 79.4805L282.043 79.2969L281.566 79.1172L281.094 78.9375L280.621 78.7617L280.145 78.582L279.668 78.4062L279.195 78.2305L277.766 77.7031L277.289 77.5312L276.812 77.3555L275.859 77.0117L275.379 76.8438L274.902 76.6719L274.426 76.5039L273.945 76.3359L273.469 76.168L272.508 75.832L272.031 75.668L270.109 75.0117L268.668 74.5312L268.184 74.3711L267.223 74.0508L266.738 73.8945L266.258 73.7383L265.289 73.4258L264.809 73.2734L264.324 73.1172L262.387 72.5078L260.449 71.9141L259.961 71.7656L259.477 71.6172L258.992 71.4727L258.016 71.1836L257.531 71.0391L257.043 70.8984L256.555 70.7539L256.07 70.6133L255.094 70.332" stroke="#0037E4" stroke-miterlimit="2" stroke-dasharray="3 3"/>
<path d="M301.121 87.7812L299.559 87.8086L297.996 87.8398L296.438 87.8828L294.875 87.9297L293.316 87.9805L291.758 88.0391L290.199 88.1055L288.641 88.1797L287.086 88.2578L285.531 88.3438L283.977 88.4336L282.422 88.5352L280.871 88.6367L279.316 88.75L277.766 88.8672L276.219 88.9883L274.668 89.1211L273.121 89.2578L271.574 89.3984L270.027 89.5469L268.48 89.7031L266.938 89.8633L265.395 90.0312L263.852 90.2031L262.312 90.3828L260.77 90.5703L259.23 90.7617L257.695 90.9609L256.156 91.1641L254.621 91.375L253.086 91.5898L251.555 91.8125L250.023 92.0391L248.492 92.2734L246.961 92.5156L245.434 92.7617L243.906 93.0156L242.379 93.2734L240.855 93.5352L237.809 94.082L236.289 94.3633L234.766 94.6523L233.25 94.9453L231.73 95.2461L230.215 95.5508L228.703 95.8633L227.188 96.1836L225.676 96.5039L224.168 96.8359L222.656 97.168L221.148 97.5117L219.645 97.8555L216.637 98.5664L215.137 98.9297L213.637 99.3008L212.137 99.6758L210.641 100.059L209.145 100.445L207.648 100.84L206.156 101.238L204.668 101.641L203.176 102.051L201.691 102.469L200.203 102.891L198.719 103.316L197.238 103.75L195.754 104.191L194.277 104.633L192.797 105.086L191.324 105.539L189.848 106.004L188.375 106.469L185.438 107.422L183.969 107.906L182.504 108.398L181.039 108.895L179.578 109.395L178.117 109.902L176.66 110.418L175.203 110.938L173.75 111.461L172.297 111.992L170.848 112.527L169.398 113.07L167.953 113.617L166.508 114.172L165.066 114.73L163.625 115.293L162.188 115.863L160.75 116.441L159.316 117.023L157.883 117.609L156.453 118.203L155.023 118.805L153.598 119.406L152.176 120.02" stroke="#0049DB" stroke-miterlimit="2" stroke-dasharray="3 3"/>
<path d="M217.047 91.2461L215.688 91.6289L215.012 91.8203L213.652 92.2109L212.977 92.4062L212.301 92.6055L211.621 92.8008L210.945 93.0039L210.27 93.2031L208.918 93.6094L208.246 93.8164L206.895 94.2305L206.223 94.4375L205.551 94.6484L204.875 94.8594L204.203 95.0742L203.531 95.2852L202.859 95.5L202.188 95.7188L201.52 95.9375L200.848 96.1562L200.18 96.375L199.508 96.5938L198.84 96.8164L198.172 97.043L197.504 97.2656L196.168 97.7188L194.832 98.1797L194.168 98.4102L193.5 98.6406L192.172 99.1094L191.508 99.3477L190.844 99.582L190.18 99.8203L189.516 100.062L188.852 100.301L188.191 100.543L187.527 100.789L186.867 101.031L185.547 101.523L183.566 102.273L182.91 102.523L182.25 102.777L181.594 103.031L180.938 103.289L180.277 103.543L179.621 103.805L178.965 104.062L178.312 104.324L177.656 104.582L177 104.848L176.348 105.109L175.695 105.375L175.039 105.641L173.734 106.18L173.086 106.449L172.434 106.719L171.781 106.992L171.133 107.266L170.48 107.543L169.832 107.816L169.184 108.094L168.535 108.375L167.887 108.652L167.242 108.934L166.594 109.219L165.949 109.5L165.301 109.785L164.656 110.07L164.012 110.359L163.367 110.645L162.723 110.938L162.082 111.227L161.438 111.52L160.797 111.812L160.152 112.105L158.23 112.996L157.59 113.297L156.953 113.598L156.312 113.898L155.676 114.199L154.402 114.809L152.492 115.734L151.859 116.043" stroke="#005BD1" stroke-miterlimit="2" stroke-dasharray="3 3"/>
<path d="M216.23 87.9766L215.699 88.1328L215.168 88.2852L213.574 88.7539L213.047 88.9102L212.516 89.0664L211.984 89.2266L211.457 89.3867L210.926 89.5469L210.398 89.707L209.867 89.8711L209.34 90.0312L208.809 90.1953L208.281 90.3594L207.754 90.5273L207.227 90.6914L204.59 91.5312L204.066 91.7031L203.539 91.875L203.016 92.0469L202.488 92.2188L201.965 92.3945L201.438 92.5664L200.391 92.918L199.867 93.0977L199.344 93.2734L196.727 94.1719L196.207 94.3555L195.16 94.7227L194.121 95.0898L193.598 95.2773L191.52 96.0273L189.441 96.793L188.926 96.9844L188.406 97.1797L187.891 97.375L187.371 97.5703L186.855 97.7656L186.336 97.9609L185.82 98.1602L185.305 98.3555L184.789 98.5547L184.273 98.7578L183.242 99.1562L182.727 99.3594L182.215 99.5625L181.699 99.7656L181.188 99.9688L180.672 100.176L180.16 100.383L179.645 100.59L178.109 101.211L176.062 102.055L175.555 102.27L175.043 102.48L174.531 102.695L174.023 102.91L173.512 103.129L173.004 103.344L172.496 103.562L171.988 103.777L171.48 103.996L170.973 104.219L170.465 104.438L169.957 104.66L169.449 104.879L168.945 105.102L168.438 105.328L167.93 105.551L167.426 105.773L166.922 106L166.414 106.227L165.91 106.453L165.406 106.684L164.902 106.91" stroke="#006DC8" stroke-miterlimit="2" stroke-dasharray="3 3"/>
<path d="M213.461 86.8086L213.148 89.9492L212.996 91.5234L212.844 93.0938L212.695 94.6641L212.547 96.2383L212.258 99.3789L212.113 100.953L211.973 102.523L211.836 104.098L211.699 105.668L211.562 107.242L211.43 108.816L211.297 110.387L211.039 113.535L210.914 115.105L210.789 116.68L210.668 118.254L210.543 119.824L210.191 124.547L209.852 129.27L209.742 130.84L209.32 137.137L209.223 138.711L209.121 140.285L209.023 141.863L208.926 143.438L208.738 146.586L208.469 151.309L208.383 152.883L208.297 154.461L208.133 157.609L208.055 159.184L207.973 160.762L207.898 162.336L207.82 163.91L207.746 165.488L207.605 168.637L207.535 170.215L207.402 173.363L207.336 174.941L207.273 176.516L207.211 178.094L207.094 181.242L207.035 182.82L206.98 184.395L206.926 185.973L206.875 187.547L206.824 189.125L206.773 190.699L206.727 192.277L206.68 193.852L206.594 197.008L206.551 198.582L206.512 200.16L206.473 201.734L206.402 204.891L206.367 206.465L206.336 208.043L206.305 209.617L206.273 211.195L206.246 212.773L206.219 214.348L206.172 217.504L206.152 219.078L206.129 220.656L206.113 222.234L206.094 223.809L206.078 225.387L206.066 226.965L206.051 228.539L206.043 230.117L206.031 231.695L206.023 233.273L206.02 234.848L206.012 236.426L206.008 238.004V242.734" stroke="#0080BF" stroke-miterlimit="2" stroke-dasharray="3 3"/>
<path d="M276.59 200.418L276.41 198.082L276.316 196.914L276.223 195.742L276.129 194.574L275.934 192.238L275.629 188.734L275.523 187.57L275.418 186.402L275.09 182.898L274.977 181.734L274.75 179.398L274.633 178.234L274.512 177.066L274.391 175.902L274.27 174.734L274.148 173.57L274.023 172.402L273.895 171.238L273.77 170.074L273.637 168.906L273.508 167.742L273.375 166.578L273.238 165.414L273.105 164.246L272.965 163.082L272.828 161.918L272.688 160.754L272.254 157.262L272.105 156.102L271.809 153.773L271.656 152.609L271.504 151.449L271.191 149.121L271.031 147.961L270.871 146.797L270.711 145.637L270.547 144.473L270.383 143.312L270.215 142.152L270.047 140.988L269.879 139.828L269.535 137.508L269.184 135.188L268.645 131.707L268.461 130.547L268.277 129.391L267.902 127.07L267.711 125.914L267.52 124.754L267.328 123.598L267.133 122.438L266.938 121.281L266.738 120.121L266.539 118.965L266.133 116.652L265.926 115.496L265.723 114.34L265.09 110.871L264.66 108.559L264.441 107.406L264.223 106.25L264.004 105.098L263.781 103.941L263.328 101.637L263.102 100.48L262.641 98.1758L262.172 95.8711L261.695 93.5664L261.453 92.4141L261.211 91.2656L260.969 90.1133L260.719 88.9609L260.473 87.8125L260.223 86.6641L259.969 85.5117" stroke="#0092B6" stroke-miterlimit="2" stroke-dasharray="3 3"/>
<path d="M307.367 106.082L305.867 105.32L305.363 105.07L304.863 104.82L303.855 104.32L303.352 104.074L302.848 103.824L301.336 103.086L300.832 102.844L300.324 102.602L299.82 102.359L299.312 102.117L298.809 101.875L298.301 101.633L296.777 100.918L296.27 100.684L295.762 100.445L295.254 100.211L294.742 99.9766L294.234 99.7422L293.723 99.5078L293.211 99.2773L292.703 99.0469L292.191 98.8125L291.68 98.5859L291.168 98.3555L290.656 98.1289L290.145 97.8984L289.629 97.6719L289.117 97.4492L288.602 97.2227L288.09 97L287.574 96.7734L287.062 96.5508L286.547 96.332L286.031 96.1094L283.969 95.2344L283.449 95.0156L282.934 94.8008L282.414 94.5859L281.898 94.3711L281.379 94.1562L280.859 93.9453L280.344 93.7305L279.305 93.3086L278.785 93.1016L278.262 92.8906L277.223 92.4766L276.699 92.2695L276.18 92.0625L275.656 91.8594L275.137 91.6562L273.566 91.0469L270.949 90.0508L270.422 89.8555L269.898 89.6602L269.371 89.4648L268.848 89.2695L268.32 89.0781L267.793 88.8828L267.27 88.6914L266.215 88.3086L265.688 88.1211L265.156 87.9336L264.102 87.5586L263.57 87.3711L263.043 87.1875L262.512 87L261.984 86.8164L261.453 86.6367L260.922 86.4531L260.395 86.2734L259.863 86.0898L259.332 85.9102L258.801 85.7344L258.266 85.5547L256.672 85.0273L256.137 84.8516" stroke="#00A4AD" stroke-miterlimit="2" stroke-dasharray="3 3"/>
<path d="M303.832 105.07L303.359 104.883L302.887 104.691L302.41 104.504L301.938 104.316L300.984 103.941L300.512 103.754L297.652 102.652L296.223 102.113L295.742 101.934L295.266 101.754L294.789 101.578L294.309 101.398L293.832 101.223L292.871 100.871L292.395 100.699L291.914 100.523L289.512 99.6641L289.031 99.4961L288.551 99.3242L288.07 99.1562L287.586 98.9883L287.105 98.8242L286.625 98.6562L286.141 98.4883L285.66 98.3242L285.176 98.1602L284.695 97.9961L284.211 97.8359L283.727 97.6719L283.246 97.5117L282.762 97.3477L281.793 97.0273L281.309 96.8711L280.824 96.7109L279.855 96.3984L279.367 96.2422L278.398 95.9297L277.914 95.7773L277.426 95.6211L276.941 95.4688L276.453 95.3164L275.969 95.1641L275.48 95.0156L274.992 94.8633L274.508 94.7148L273.043 94.2695L272.555 94.125L272.066 93.9766L270.113 93.3984L269.625 93.2578L269.137 93.1133L268.645 92.9727L267.668 92.6914L267.176 92.5547L266.688 92.4141L265.703 92.1406L265.215 92.0039L264.23 91.7305L263.742 91.5977L263.25 91.4609L261.773 91.0625L261.281 90.9336L260.789 90.8008L259.805 90.543L259.309 90.4141L258.816 90.2852L258.324 90.1602L257.828 90.0352L257.336 89.9062L256.844 89.7812L256.348 89.6562L255.855 89.5352" stroke="#00B6A4" stroke-miterlimit="2" stroke-dasharray="3 3"/>
<path d="M304.047 110.555L302.578 110.133L301.113 109.711L299.645 109.297L298.176 108.891L296.707 108.488L295.234 108.09L293.762 107.699L292.285 107.316L290.812 106.938L289.336 106.562L287.855 106.199L286.379 105.836L284.898 105.48L283.414 105.133L281.934 104.789L280.449 104.449L278.965 104.117L275.988 103.469L274.5 103.156L273.012 102.848L271.52 102.543L270.031 102.246L268.539 101.953L267.043 101.668L265.551 101.391L264.055 101.113L262.559 100.848L261.059 100.582L259.562 100.328L258.062 100.074L256.562 99.8281L255.062 99.5898L253.559 99.3555L252.059 99.1289L250.555 98.9062L249.051 98.6914L247.543 98.4805L246.039 98.2734L244.531 98.0742L243.023 97.8828L241.516 97.6953L240.008 97.5117L238.496 97.3359L236.988 97.1641L235.477 97L233.965 96.8438L232.453 96.6914L230.941 96.543L229.426 96.4023L227.91 96.2656L226.398 96.1367L224.883 96.0117L223.367 95.8945L221.848 95.7812L220.332 95.6758L218.816 95.5742L217.297 95.4805L214.258 95.3086L212.738 95.2344L211.219 95.1641L209.699 95.0977L208.18 95.0391L206.656 94.9844L205.137 94.9375L203.613 94.8945L202.09 94.8594L200.566 94.832L199.043 94.8086L197.52 94.7891L195.996 94.7773L194.473 94.7734H192.949L191.426 94.7773L189.898 94.7891L188.375 94.8086L186.852 94.832L185.324 94.8633L183.797 94.8984L182.273 94.9414L180.746 94.9922L179.219 95.0469L177.695 95.1055L174.641 95.2461L173.113 95.3281L171.59 95.4102L170.062 95.5039L168.535 95.6016L167.008 95.707L165.48 95.8164L163.957 95.9336L162.43 96.0547L160.902 96.1836L159.375 96.3203L157.848 96.4609L156.324 96.6094L154.797 96.7656" stroke="#00C89B" stroke-miterlimit="2" stroke-dasharray="3 3"/>
<path d="M216.953 72.6094L216.457 74.043L215.48 76.9102L214.992 78.3477L214.031 81.2227L213.086 84.0977L212.148 86.9805L211.227 89.8633L210.77 91.3047L209.863 94.1953L208.973 97.0859L208.531 98.5312L208.09 99.9805L207.223 102.879L206.793 104.328L206.367 105.777L205.941 107.23L205.52 108.68L205.102 110.133L204.688 111.586L204.273 113.043L203.863 114.496L203.457 115.953L203.055 117.406L202.652 118.863L202.254 120.32L201.859 121.781L201.465 123.238L201.074 124.699L200.688 126.156L199.922 129.078L199.543 130.539L199.168 132.004L198.793 133.465L198.422 134.93L198.055 136.395L197.328 139.324L196.969 140.789L196.609 142.258L196.258 143.723L195.555 146.66L194.867 149.598L194.527 151.07L194.188 152.539L193.852 154.012L193.52 155.48L193.188 156.953L192.859 158.426L192.535 159.898L192.215 161.375L191.895 162.848L191.578 164.324L191.262 165.797L190.949 167.273L190.641 168.75L190.031 171.703L189.73 173.184L189.43 174.66L189.133 176.141L188.84 177.617L188.262 180.578L187.691 183.539L187.414 185.023L187.133 186.504L186.859 187.988L186.586 189.469L186.047 192.438L185.781 193.922L185.52 195.406L185.262 196.895L185.004 198.379L184.75 199.863L184.496 201.352L184.246 202.84L184 204.328L183.273 208.793L182.805 211.77L182.574 213.262L182.344 214.75L182.117 216.242L181.895 217.734" stroke="#00DB92" stroke-miterlimit="2" stroke-dasharray="3 3"/>
<path d="M234.164 250.219L234.137 250.574L234.082 251.277L234.055 251.633L234.027 251.984L234 252.34L233.973 252.691L233.945 253.047L233.922 253.398L233.895 253.75L233.867 254.105L233.84 254.457L233.812 254.812L233.758 255.516L233.73 255.871L233.703 256.223L233.676 256.578L233.648 256.93L233.621 257.285L233.566 257.988L233.539 258.344L233.512 258.695L233.484 259.051L233.457 259.402L233.43 259.758L233.375 260.461L233.348 260.816L233.32 261.168L233.289 261.523L233.234 262.227L233.207 262.582L233.18 262.934L233.152 263.289L233.125 263.641L233.098 263.996L233.043 264.699L233.016 265.055L232.984 265.406L232.957 265.762L232.902 266.465L232.875 266.82L232.848 267.172L232.82 267.527L232.793 267.879L232.762 268.23L232.734 268.586L232.707 268.938L232.68 269.293L232.652 269.645L232.621 270L232.566 270.703L232.539 271.059L232.512 271.41L232.48 271.766L232.426 272.469L232.398 272.824L232.371 273.176L232.34 273.531L232.285 274.234L232.258 274.59L232.227 274.941L232.199 275.297L232.145 276L232.113 276.355L232.086 276.707L232.059 277.062L232.027 277.414L232 277.766L231.973 278.121L231.941 278.473L231.914 278.828L231.887 279.18L231.855 279.531L231.828 279.887L231.801 280.238L231.77 280.594L231.715 281.297L231.684 281.652L231.656 282.004L231.629 282.359L231.598 282.711L231.57 283.062L231.539 283.418L231.512 283.77L231.484 284.125L231.453 284.477L231.426 284.828L231.395 285.184" stroke="#00ED89" stroke-miterlimit="2" stroke-dasharray="3 3"/>
<mask id="mask0_41_1580" style="mask-type:luminance" maskUnits="userSpaceOnUse" x="-3" y="-26" width="468" height="468">
<path d="M-3 -26H465V442H-3V-26Z" fill="white"/>
</mask>
<g mask="url(#mask0_41_1580)">
<path fill-rule="evenodd" clip-rule="evenodd" d="M-1.78413e+06 1.78457e+06V-1.78415e+06H1.78459e+06V1.78457e+06H-1.78413e+06ZM409.5 208L409 195.375L407.625 182.875L405.5 170.5L402.375 158.25L398.375 146.25L393.625 134.625L388.125 123.375L381.75 112.5L374.625 102.125L366.75 92.25L358.25 83L349.125 74.25L339.375 66.25L329.125 59L318.375 52.375L307.25 46.625L295.625 41.625L283.75 37.5L271.625 34.25L259.25 31.75L246.75 30.25L234.125 29.625L221.5 29.75L209 30.875L196.625 32.875L184.25 35.75L172.25 39.5L160.5 44.125L149.125 49.5L138.125 55.625L127.625 62.5L117.625 70.25L108.25 78.5L99.375 87.5L91.25 97.125L83.75 107.25L77 117.875L71 129L65.875 140.5L61.5 152.25L58 164.375L55.375 176.625L53.5 189.125L52.625 201.75V214.25L53.5 226.875L55.375 239.375L58 251.625L61.5 263.75L65.875 275.5L71 287L77 298.125L83.75 308.75L91.25 318.875L99.375 328.5L108.25 337.5L117.625 345.75L127.625 353.5L138.125 360.375L149.125 366.5L160.5 371.875L172.25 376.5L184.25 380.25L196.625 383.125L209 385.125L221.5 386.25L234.125 386.375L246.75 385.75L259.25 384.25L271.625 381.75L283.75 378.5L295.625 374.375L307.25 369.375L318.375 363.625L329.125 357L339.375 349.75L349.125 341.75L358.25 333L366.75 323.75L374.625 313.875L381.75 303.5L388.125 292.625L393.625 281.375L398.375 269.75L402.375 257.75L405.5 245.5L407.625 233.125L409 220.625L409.5 208Z" fill="white"/>
</g>
<path d="M409.438 208L408.992 195.414L407.66 182.891L405.449 170.492L402.367 158.277L398.434 146.312L393.664 134.656L388.086 123.367L381.727 112.496L374.613 102.102L366.785 92.2344L358.281 82.9453L349.145 74.2773L339.418 66.2773L329.148 58.9844L318.395 52.4297L307.203 46.6523L295.633 41.6797L283.738 37.5352L271.582 34.2383L259.223 31.8086L246.727 30.2578L234.148 29.5938L221.555 29.8125L209.012 30.9258L196.574 32.918L184.312 35.7812L172.277 39.5039L160.539 44.0664L149.152 49.4453L138.172 55.6133L127.652 62.5391L117.648 70.1914L108.211 78.5312L99.3828 87.5156L91.2148 97.0977L83.7383 107.234L76.9961 117.875L71.0234 128.961L65.8477 140.445L61.4922 152.262L57.9844 164.355L55.3359 176.672L53.5625 189.141L52.6758 201.703V214.297L53.5625 226.859L55.3359 239.328L57.9844 251.645L61.4922 263.738L65.8477 275.555L71.0234 287.039L76.9961 298.125L83.7383 308.766L91.2148 318.902L99.3828 328.484L108.211 337.469L117.648 345.809L127.652 353.461L138.172 360.387L149.152 366.555L160.539 371.934L172.277 376.496L184.312 380.219L196.574 383.082L209.012 385.074L221.555 386.188L234.148 386.406L246.727 385.742L259.223 384.191L271.582 381.762L283.738 378.465L295.633 374.32L307.203 369.348L318.395 363.57L329.148 357.016L339.418 349.723L349.145 341.723L358.281 333.055L366.785 323.766L374.613 313.898L381.727 303.504L388.086 292.633L393.664 281.344L398.434 269.688L402.367 257.723L405.449 245.508L407.66 233.109L408.992 220.586L409.438 208Z" stroke="black" stroke-width="2" stroke-miterlimit="2"/>
<path d="M229.915 225.25C229.915 230.89 227.868 234.125 224.056 234.125C221.571 234.125 219.821 232.547 219.431 229.875H221.462C221.775 231.437 222.759 232.328 224.196 232.328C226.509 232.328 227.806 230.125 227.821 226.14C226.775 227.406 225.634 227.969 224.103 227.969C221.15 227.969 219.087 225.922 219.087 222.875C219.087 219.687 221.321 217.469 224.415 217.469C228.15 217.469 229.915 220.14 229.915 225.25ZM227.712 222.828C227.712 220.719 226.29 219.25 224.4 219.25C222.54 219.25 221.15 220.64 221.15 222.719C221.15 224.906 222.368 226.172 224.337 226.172C226.306 226.172 227.712 224.828 227.712 222.828Z" fill="black"/>
<path d="M242.656 225.937C242.656 231.297 240.781 234.125 237.328 234.125C233.828 234.125 231.984 231.297 231.984 225.797C231.984 220.328 233.812 217.469 237.328 217.469C240.859 217.469 242.656 220.281 242.656 225.937ZM240.594 225.75C240.594 221.39 239.516 219.265 237.328 219.265C235.141 219.265 234.062 221.359 234.062 225.828C234.062 230.281 235.141 232.453 237.281 232.453C239.531 232.453 240.594 230.375 240.594 225.75Z" fill="black"/>
<path d="M315.507 228.719C315.507 231.922 313.273 234.125 310.179 234.125C306.445 234.125 304.695 231.437 304.695 226.359C304.695 220.672 306.742 217.469 310.538 217.469C313.023 217.469 314.773 219.062 315.163 221.734H313.148C312.82 220.172 311.835 219.265 310.398 219.265C308.085 219.265 306.788 221.469 306.773 225.453C307.648 224.265 308.913 223.64 310.523 223.64C313.445 223.64 315.507 225.687 315.507 228.719ZM313.445 228.875C313.445 226.703 312.226 225.437 310.273 225.437C308.257 225.437 306.882 226.75 306.882 228.765C306.882 230.859 308.304 232.328 310.195 232.328C312.054 232.328 313.445 230.922 313.445 228.875Z" fill="black"/>
<path d="M328.155 225.937C328.155 231.297 326.28 234.125 322.826 234.125C319.326 234.125 317.483 231.297 317.483 225.797C317.483 220.328 319.311 217.469 322.826 217.469C326.358 217.469 328.155 220.281 328.155 225.937ZM326.092 225.75C326.092 221.39 325.014 219.265 322.826 219.265C320.639 219.265 319.561 221.359 319.561 225.828C319.561 230.281 320.639 232.453 322.78 232.453C325.03 232.453 326.092 230.375 326.092 225.75Z" fill="black"/>
<path d="M400.849 229.047C400.849 232.125 398.677 234.125 395.334 234.125C391.99 234.125 390.193 232.5 389.943 228.859H391.974C392.099 231.234 393.193 232.328 395.396 232.328C397.505 232.328 398.771 231.109 398.771 229.062C398.771 227.25 397.63 226.187 395.396 226.187H394.287V224.484C397.537 224.484 398.287 223.781 398.287 222.031C398.287 220.297 397.209 219.25 395.412 219.25C393.349 219.25 392.365 220.328 392.318 222.734H390.287C390.365 219.265 392.099 217.469 395.396 217.469C398.505 217.469 400.365 219.156 400.365 221.953C400.365 223.594 399.599 224.656 398.084 225.25C400.037 225.922 400.849 227.062 400.849 229.047Z" fill="black"/>
<path d="M413.653 225.937C413.653 231.297 411.778 234.125 408.325 234.125C404.825 234.125 402.981 231.297 402.981 225.797C402.981 220.328 404.809 217.469 408.325 217.469C411.856 217.469 413.653 220.281 413.653 225.937ZM411.59 225.75C411.59 221.39 410.512 219.265 408.325 219.265C406.137 219.265 405.059 221.359 405.059 225.828C405.059 230.281 406.137 232.453 408.278 232.453C410.528 232.453 411.59 230.375 411.59 225.75Z" fill="black"/>
<path d="M425.092 208.54C425.092 213.899 423.217 216.727 419.764 216.727C416.264 216.727 414.42 213.899 414.42 208.399C414.42 202.93 416.249 200.071 419.764 200.071C423.295 200.071 425.092 202.883 425.092 208.54ZM423.03 208.352C423.03 203.993 421.952 201.868 419.764 201.868C417.577 201.868 416.499 203.962 416.499 208.43C416.499 212.883 417.577 215.055 419.717 215.055C421.967 215.055 423.03 212.977 423.03 208.352Z" fill="black"/>
<path d="M434.177 203.571C434.177 205.477 432.74 206.93 430.818 206.93C428.911 206.93 427.458 205.477 427.458 203.571C427.458 201.665 428.911 200.212 430.818 200.212C432.74 200.212 434.177 201.665 434.177 203.571ZM433.083 203.571C433.083 202.352 432.036 201.196 430.818 201.196C429.599 201.196 428.568 202.352 428.568 203.571C428.568 204.79 429.599 205.946 430.818 205.946C432.036 205.946 433.083 204.79 433.083 203.571Z" fill="black"/>
<path d="M371.955 70.078H369.549V73.9843H367.517V70.078H360.642V67.9374L368.049 57.6718H369.549V68.2499H371.955V70.078ZM367.517 68.2499V61.1249L362.424 68.2499H367.517Z" fill="black"/>
<path d="M384.587 68.578C384.587 72.0311 382.29 74.328 378.993 74.328C376.102 74.328 374.259 73.0468 373.602 69.7968H375.618C376.102 71.6405 377.18 72.5311 378.946 72.5311C381.165 72.5311 382.524 71.203 382.524 68.8593C382.524 66.4374 381.134 65.0311 378.946 65.0311C377.696 65.0311 376.899 65.4218 375.962 66.5624H374.102L375.321 58.0155H383.743V60.0155H376.946L376.305 64.2343C377.259 63.5468 378.165 63.2499 379.321 63.2499C382.446 63.2499 384.587 65.3593 384.587 68.578Z" fill="black"/>
<path d="M393.531 61.1718C393.531 63.078 392.093 64.5311 390.172 64.5311C388.265 64.5311 386.812 63.078 386.812 61.1718C386.812 59.2655 388.265 57.8124 390.172 57.8124C392.093 57.8124 393.531 59.2655 393.531 61.1718ZM392.437 61.1718C392.437 59.953 391.39 58.7968 390.172 58.7968C388.953 58.7968 387.922 59.953 387.922 61.1718C387.922 62.3905 388.953 63.5468 390.172 63.5468C391.39 63.5468 392.437 62.3905 392.437 61.1718Z" fill="black"/>
<path d="M225.315 12.0187C225.315 17.6594 223.268 20.8937 219.456 20.8937C216.971 20.8937 215.221 19.3156 214.831 16.6437H216.862C217.174 18.2062 218.159 19.0969 219.596 19.0969C221.909 19.0969 223.206 16.8937 223.221 12.9094C222.174 14.175 221.034 14.7375 219.503 14.7375C216.549 14.7375 214.487 12.6906 214.487 9.64374C214.487 6.45624 216.721 4.23749 219.815 4.23749C223.549 4.23749 225.315 6.90936 225.315 12.0187ZM223.112 9.59686C223.112 7.48749 221.69 6.01874 219.799 6.01874C217.94 6.01874 216.549 7.40936 216.549 9.48749C216.549 11.675 217.768 12.9406 219.737 12.9406C221.706 12.9406 223.112 11.5969 223.112 9.59686Z" fill="black"/>
<path d="M238.056 12.7062C238.056 18.0656 236.181 20.8937 232.728 20.8937C229.228 20.8937 227.384 18.0656 227.384 12.5656C227.384 7.09686 229.213 4.23749 232.728 4.23749C236.259 4.23749 238.056 7.04999 238.056 12.7062ZM235.994 12.5187C235.994 8.15936 234.916 6.03436 232.728 6.03436C230.541 6.03436 229.463 8.12811 229.463 12.5969C229.463 17.05 230.541 19.2219 232.681 19.2219C234.931 19.2219 235.994 17.1437 235.994 12.5187Z" fill="black"/>
<path d="M247.141 7.73749C247.141 9.64374 245.704 11.0969 243.782 11.0969C241.875 11.0969 240.422 9.64374 240.422 7.73749C240.422 5.83124 241.875 4.37811 243.782 4.37811C245.704 4.37811 247.141 5.83124 247.141 7.73749ZM246.047 7.73749C246.047 6.51874 245 5.36249 243.782 5.36249C242.563 5.36249 241.532 6.51874 241.532 7.73749C241.532 8.95624 242.563 10.1125 243.782 10.1125C245 10.1125 246.047 8.95624 246.047 7.73749Z" fill="black"/>
<path d="M62.4187 73.9843H60.3875V62.3749H56.7781V60.9218C59.9031 60.5311 60.3718 60.1874 61.075 57.6718H62.4187V73.9843Z" fill="black"/>
<path d="M78.8629 69.2499C78.8629 72.328 76.691 74.328 73.3473 74.328C70.0035 74.328 68.2067 72.703 67.9567 69.0624H69.9879C70.1129 71.4374 71.2067 72.5311 73.4098 72.5311C75.5192 72.5311 76.7848 71.3124 76.7848 69.2655C76.7848 67.453 75.6442 66.3905 73.4098 66.3905H72.3004V64.6874C75.5504 64.6874 76.3004 63.9843 76.3004 62.2343C76.3004 60.4999 75.2223 59.453 73.4254 59.453C71.3629 59.453 70.3785 60.5311 70.3317 62.9374H68.3004C68.3785 59.4686 70.1129 57.6718 73.4098 57.6718C76.5192 57.6718 78.3785 59.3593 78.3785 62.1561C78.3785 63.7968 77.6129 64.8593 76.0973 65.453C78.0504 66.1249 78.8629 67.2655 78.8629 69.2499Z" fill="black"/>
<path d="M91.8071 68.578C91.8071 72.0311 89.5103 74.328 86.2134 74.328C83.3228 74.328 81.479 73.0468 80.8228 69.7968H82.8384C83.3228 71.6405 84.4009 72.5311 86.1665 72.5311C88.3853 72.5311 89.7446 71.203 89.7446 68.8593C89.7446 66.4374 88.354 65.0311 86.1665 65.0311C84.9165 65.0311 84.1196 65.4218 83.1821 66.5624H81.3228L82.5415 58.0155H90.9634V60.0155H84.1665L83.5259 64.2343C84.479 63.5468 85.3853 63.2499 86.5415 63.2499C89.6665 63.2499 91.8071 65.3593 91.8071 68.578Z" fill="black"/>
<path d="M100.751 61.1718C100.751 63.078 99.3138 64.5311 97.392 64.5311C95.4857 64.5311 94.0326 63.078 94.0326 61.1718C94.0326 59.2655 95.4857 57.8124 97.392 57.8124C99.3138 57.8124 100.751 59.2655 100.751 61.1718ZM99.6576 61.1718C99.6576 59.953 98.6107 58.7968 97.392 58.7968C96.1732 58.7968 95.142 59.953 95.142 61.1718C95.142 62.3905 96.1732 63.5468 97.392 63.5468C98.6107 63.5468 99.6576 62.3905 99.6576 61.1718Z" fill="black"/>
<path d="M8.98438 216.384H6.95312V204.774H3.34375V203.321C6.46875 202.93 6.9375 202.587 7.64062 200.071H8.98438V216.384Z" fill="black"/>
<path d="M25.5848 211.79C25.5848 214.743 23.3348 216.727 20.1161 216.727C16.8973 216.727 14.6317 214.743 14.6317 211.759C14.6317 209.962 15.5536 208.696 17.4286 207.805C15.7723 206.774 15.2098 205.946 15.2098 204.43C15.2098 201.868 17.2411 200.071 20.1161 200.071C23.0067 200.071 25.0067 201.868 25.0067 204.43C25.0067 205.962 24.4598 206.79 22.788 207.805C24.663 208.696 25.5848 209.962 25.5848 211.79ZM22.9442 204.477C22.9442 202.884 21.8348 201.868 20.1161 201.868C18.413 201.868 17.288 202.884 17.288 204.446C17.288 205.993 18.413 206.993 20.1161 206.993C21.8192 206.993 22.9442 205.993 22.9442 204.477ZM23.5223 211.805C23.5223 209.899 22.1317 208.696 20.1161 208.696C18.0848 208.696 16.7098 209.899 16.7098 211.805C16.7098 213.712 18.0848 214.93 20.0692 214.93C22.1317 214.93 23.5223 213.743 23.5223 211.805Z" fill="black"/>
<path d="M38.2323 208.54C38.2323 213.899 36.3573 216.727 32.9042 216.727C29.4042 216.727 27.5604 213.899 27.5604 208.399C27.5604 202.93 29.3885 200.071 32.9042 200.071C36.4354 200.071 38.2323 202.884 38.2323 208.54ZM36.1698 208.352C36.1698 203.993 35.0917 201.868 32.9042 201.868C30.7167 201.868 29.6385 203.962 29.6385 208.43C29.6385 212.884 30.7167 215.055 32.8573 215.055C35.1073 215.055 36.1698 212.977 36.1698 208.352Z" fill="black"/>
<path d="M47.3171 203.571C47.3171 205.477 45.8796 206.93 43.9578 206.93C42.0515 206.93 40.5984 205.477 40.5984 203.571C40.5984 201.665 42.0515 200.212 43.9578 200.212C45.8796 200.212 47.3171 201.665 47.3171 203.571ZM46.2234 203.571C46.2234 202.352 45.1765 201.196 43.9578 201.196C42.739 201.196 41.7078 202.352 41.7078 203.571C41.7078 204.79 42.739 205.946 43.9578 205.946C45.1765 205.946 46.2234 204.79 46.2234 203.571Z" fill="black"/>
<path d="M66.1842 347.267C66.1842 349.267 65.0123 350.97 62.7311 352.189L60.4342 353.423C58.4342 354.595 57.6998 355.455 57.4967 356.783H66.0748V358.783H55.2155C55.403 355.189 56.3873 353.658 59.7936 351.72L61.903 350.533C63.3561 349.705 64.1217 348.595 64.1217 347.298C64.1217 345.564 62.7311 344.251 60.903 344.251C58.903 344.251 57.7623 345.392 57.6061 348.126H55.5905C55.6998 344.173 57.6373 342.47 60.9655 342.47C64.0436 342.47 66.1842 344.501 66.1842 347.267Z" fill="black"/>
<path d="M78.9723 347.267C78.9723 349.267 77.8004 350.97 75.5192 352.189L73.2223 353.423C71.2223 354.595 70.4879 355.455 70.2848 356.783H78.8629V358.783H68.0035C68.191 355.189 69.1754 353.658 72.5817 351.72L74.691 350.533C76.1442 349.705 76.9098 348.595 76.9098 347.298C76.9098 345.564 75.5192 344.251 73.691 344.251C71.691 344.251 70.5504 345.392 70.3942 348.126H68.3785C68.4879 344.173 70.4254 342.47 73.7535 342.47C76.8317 342.47 78.9723 344.501 78.9723 347.267Z" fill="black"/>
<path d="M91.8071 353.376C91.8071 356.83 89.5103 359.126 86.2134 359.126C83.3228 359.126 81.479 357.845 80.8228 354.595H82.8384C83.3228 356.439 84.4009 357.33 86.1665 357.33C88.3853 357.33 89.7446 356.001 89.7446 353.658C89.7446 351.236 88.354 349.83 86.1665 349.83C84.9165 349.83 84.1196 350.22 83.1821 351.361H81.3228L82.5415 342.814H90.9634V344.814H84.1665L83.5259 349.033C84.479 348.345 85.3853 348.048 86.5415 348.048C89.6665 348.048 91.8071 350.158 91.8071 353.376Z" fill="black"/>
<path d="M100.751 345.97C100.751 347.876 99.3138 349.33 97.392 349.33C95.4857 349.33 94.0326 347.876 94.0326 345.97C94.0326 344.064 95.4857 342.611 97.392 342.611C99.3138 342.611 100.751 344.064 100.751 345.97ZM99.6576 345.97C99.6576 344.751 98.6107 343.595 97.392 343.595C96.1732 343.595 95.142 344.751 95.142 345.97C95.142 347.189 96.1732 348.345 97.392 348.345C98.6107 348.345 99.6576 347.189 99.6576 345.97Z" fill="black"/>
<path d="M218.968 400.701C218.968 402.701 217.796 404.405 215.515 405.623L213.218 406.858C211.218 408.03 210.484 408.889 210.281 410.217H218.859V412.217H207.999C208.187 408.623 209.171 407.092 212.577 405.155L214.687 403.967C216.14 403.139 216.906 402.03 216.906 400.733C216.906 398.998 215.515 397.686 213.687 397.686C211.687 397.686 210.546 398.826 210.39 401.561H208.374C208.484 397.608 210.421 395.905 213.749 395.905C216.827 395.905 218.968 397.936 218.968 400.701Z" fill="black"/>
<path d="M231.959 397.951C228.537 402.03 226.24 406.951 225.35 412.217H223.178C224.334 407.108 226.631 402.358 229.865 398.248H221.068V396.248H231.959V397.951Z" fill="black"/>
<path d="M244.45 404.373C244.45 409.733 242.575 412.561 239.122 412.561C235.622 412.561 233.778 409.733 233.778 404.233C233.778 398.764 235.606 395.905 239.122 395.905C242.653 395.905 244.45 398.717 244.45 404.373ZM242.388 404.186C242.388 399.826 241.31 397.701 239.122 397.701C236.935 397.701 235.856 399.795 235.856 404.264C235.856 408.717 236.935 410.889 239.075 410.889C241.325 410.889 242.388 408.811 242.388 404.186Z" fill="black"/>
<path d="M253.535 399.405C253.535 401.311 252.098 402.764 250.176 402.764C248.27 402.764 246.816 401.311 246.816 399.405C246.816 397.498 248.27 396.045 250.176 396.045C252.098 396.045 253.535 397.498 253.535 399.405ZM252.441 399.405C252.441 398.186 251.395 397.03 250.176 397.03C248.957 397.03 247.926 398.186 247.926 399.405C247.926 400.623 248.957 401.78 250.176 401.78C251.395 401.78 252.441 400.623 252.441 399.405Z" fill="black"/>
<path d="M371.642 354.048C371.642 357.126 369.47 359.126 366.127 359.126C362.783 359.126 360.986 357.501 360.736 353.861H362.767C362.892 356.236 363.986 357.33 366.189 357.33C368.299 357.33 369.564 356.111 369.564 354.064C369.564 352.251 368.424 351.189 366.189 351.189H365.08V349.486C368.33 349.486 369.08 348.783 369.08 347.033C369.08 345.298 368.002 344.251 366.205 344.251C364.142 344.251 363.158 345.33 363.111 347.736H361.08C361.158 344.267 362.892 342.47 366.189 342.47C369.299 342.47 371.158 344.158 371.158 346.955C371.158 348.595 370.392 349.658 368.877 350.251C370.83 350.923 371.642 352.064 371.642 354.048Z" fill="black"/>
<path d="M380.774 358.783H378.743V347.173H375.133V345.72C378.258 345.33 378.727 344.986 379.43 342.47H380.774V358.783Z" fill="black"/>
<path d="M397.375 353.376C397.375 356.83 395.078 359.126 391.781 359.126C388.89 359.126 387.046 357.845 386.39 354.595H388.406C388.89 356.439 389.968 357.33 391.734 357.33C393.953 357.33 395.312 356.001 395.312 353.658C395.312 351.236 393.921 349.83 391.734 349.83C390.484 349.83 389.687 350.22 388.75 351.361H386.89L388.109 342.814H396.531V344.814H389.734L389.093 349.033C390.046 348.345 390.953 348.048 392.109 348.048C395.234 348.048 397.375 350.158 397.375 353.376Z" fill="black"/>
<path d="M406.319 345.97C406.319 347.876 404.881 349.33 402.959 349.33C401.053 349.33 399.6 347.876 399.6 345.97C399.6 344.064 401.053 342.611 402.959 342.611C404.881 342.611 406.319 344.064 406.319 345.97ZM405.225 345.97C405.225 344.751 404.178 343.595 402.959 343.595C401.741 343.595 400.709 344.751 400.709 345.97C400.709 347.189 401.741 348.345 402.959 348.345C404.178 348.345 405.225 347.189 405.225 345.97Z" fill="black"/>
</g>
</g>
<defs>
<clipPath id="clip0_41_1580">
<rect width="438" height="416" fill="white"/>
</clipPath>
<clipPath id="clip1_41_1580">
<rect width="500" height="500" fill="white" transform="translate(-19 -42)"/>
</clipPath>
</defs>
</svg>
